G04 #@! TF.GenerationSoftware,KiCad,Pcbnew,9.0.7-9.0.7~ubuntu24.04.1*
G04 #@! TF.CreationDate,2026-03-15T11:29:57-03:00*
G04 #@! TF.ProjectId,Pet_feeder_hw,5065745f-6665-4656-9465-725f68772e6b,rev?*
G04 #@! TF.SameCoordinates,Original*
G04 #@! TF.FileFunction,Legend,Bot*
G04 #@! TF.FilePolarity,Positive*
%FSLAX46Y46*%
G04 Gerber Fmt 4.6, Leading zero omitted, Abs format (unit mm)*
G04 Created by KiCad (PCBNEW 9.0.7-9.0.7~ubuntu24.04.1) date 2026-03-15 11:29:57*
%MOMM*%
%LPD*%
G01*
G04 APERTURE LIST*
G04 Aperture macros list*
%AMRoundRect*
0 Rectangle with rounded corners*
0 $1 Rounding radius*
0 $2 $3 $4 $5 $6 $7 $8 $9 X,Y pos of 4 corners*
0 Add a 4 corners polygon primitive as box body*
4,1,4,$2,$3,$4,$5,$6,$7,$8,$9,$2,$3,0*
0 Add four circle primitives for the rounded corners*
1,1,$1+$1,$2,$3*
1,1,$1+$1,$4,$5*
1,1,$1+$1,$6,$7*
1,1,$1+$1,$8,$9*
0 Add four rect primitives between the rounded corners*
20,1,$1+$1,$2,$3,$4,$5,0*
20,1,$1+$1,$4,$5,$6,$7,0*
20,1,$1+$1,$6,$7,$8,$9,0*
20,1,$1+$1,$8,$9,$2,$3,0*%
G04 Aperture macros list end*
%ADD10C,2.100000*%
%ADD11RoundRect,0.102000X0.765000X-0.765000X0.765000X0.765000X-0.765000X0.765000X-0.765000X-0.765000X0*%
%ADD12C,1.734000*%
%ADD13RoundRect,0.102000X0.754000X-0.754000X0.754000X0.754000X-0.754000X0.754000X-0.754000X-0.754000X0*%
%ADD14C,1.712000*%
%ADD15RoundRect,0.450000X1.050000X-1.300000X1.050000X1.300000X-1.050000X1.300000X-1.050000X-1.300000X0*%
%ADD16RoundRect,0.102000X-0.754000X-0.754000X0.754000X-0.754000X0.754000X0.754000X-0.754000X0.754000X0*%
G04 APERTURE END LIST*
%LPC*%
D10*
X173000000Y-123500000D03*
D11*
X132610000Y-126350000D03*
D12*
X135150000Y-126350000D03*
X137690000Y-126350000D03*
X140230000Y-126350000D03*
X142770000Y-126350000D03*
X145310000Y-126350000D03*
X147850000Y-126350000D03*
X150390000Y-126350000D03*
X150390000Y-113650000D03*
X147850000Y-113650000D03*
X145310000Y-113650000D03*
X142770000Y-113650000D03*
X140230000Y-113650000D03*
X137690000Y-113650000D03*
X135150000Y-113650000D03*
X132610000Y-113650000D03*
D13*
X175500000Y-98750000D03*
D14*
X175500000Y-101250000D03*
X175500000Y-103750000D03*
X175500000Y-106250000D03*
X175500000Y-108750000D03*
X175500000Y-111250000D03*
D10*
X173000000Y-72000000D03*
D15*
X125850000Y-108000000D03*
X117250000Y-108000000D03*
D16*
X165250000Y-124525000D03*
D14*
X162750000Y-124525000D03*
X160250000Y-124525000D03*
X157750000Y-124525000D03*
D11*
X102530000Y-92000000D03*
D12*
X105070000Y-92000000D03*
X107610000Y-92000000D03*
X110150000Y-92000000D03*
X112690000Y-92000000D03*
X115230000Y-92000000D03*
X117770000Y-92000000D03*
X120310000Y-92000000D03*
X122850000Y-92000000D03*
X125390000Y-92000000D03*
X127930000Y-92000000D03*
X130470000Y-92000000D03*
X133010000Y-92000000D03*
X135550000Y-92000000D03*
X138090000Y-92000000D03*
X140630000Y-92000000D03*
X143170000Y-92000000D03*
X145710000Y-92000000D03*
X148250000Y-92000000D03*
X150790000Y-92000000D03*
X153330000Y-92000000D03*
X155870000Y-92000000D03*
X102530000Y-69140000D03*
X105070000Y-69140000D03*
X107610000Y-69140000D03*
X110150000Y-69140000D03*
X112690000Y-69140000D03*
X115230000Y-69140000D03*
X117770000Y-69140000D03*
X120310000Y-69140000D03*
X122850000Y-69140000D03*
X125390000Y-69140000D03*
X127930000Y-69140000D03*
X130470000Y-69140000D03*
X133010000Y-69140000D03*
X135550000Y-69140000D03*
X138090000Y-69140000D03*
X140630000Y-69140000D03*
X143170000Y-69140000D03*
X145710000Y-69140000D03*
X148250000Y-69140000D03*
X150790000Y-69140000D03*
X153330000Y-69140000D03*
X155870000Y-69140000D03*
D10*
X93000000Y-123500000D03*
X93000000Y-72000000D03*
D13*
X175500000Y-79750000D03*
D14*
X175500000Y-82250000D03*
X175500000Y-84750000D03*
X175500000Y-87250000D03*
X175500000Y-89750000D03*
X175500000Y-92250000D03*
%LPD*%
M02*
