M48
; DRILL file {KiCad 9.0.7-9.0.7~ubuntu24.04.1} date 2026-03-15T11:29:54-0300
; FORMAT={-:-/ absolute / metric / decimal}
; #@! TF.CreationDate,2026-03-15T11:29:54-03:00
; #@! TF.GenerationSoftware,Kicad,Pcbnew,9.0.7-9.0.7~ubuntu24.04.1
; #@! TF.FileFunction,Plated,1,2,PTH
FMAT,2
METRIC
; #@! TA.AperFunction,Plated,PTH,ViaDrill
T1C0.300
; #@! TA.AperFunction,Plated,PTH,ComponentDrill
T2C1.000
; #@! TA.AperFunction,Plated,PTH,ComponentDrill
T3C1.020
%
G90
G05
T1
X88.75Y-113.25
X88.75Y-114.0
X88.75Y-115.5
X88.75Y-116.25
X89.5Y-113.25
X89.5Y-114.0
X89.5Y-115.5
X89.5Y-116.25
X90.0Y-77.5
X90.0Y-78.25
X90.0Y-79.75
X90.0Y-80.5
X90.0Y-82.25
X90.0Y-83.0
X90.0Y-84.5
X90.0Y-85.25
X90.75Y-77.5
X90.75Y-78.25
X90.75Y-79.75
X90.75Y-80.5
X90.75Y-82.25
X90.75Y-83.0
X90.75Y-84.5
X90.75Y-85.25
X92.0Y-77.5
X92.0Y-78.25
X92.0Y-79.75
X92.0Y-80.5
X92.0Y-82.25
X92.0Y-83.0
X92.0Y-84.5
X92.0Y-85.25
X92.75Y-77.5
X92.75Y-78.25
X92.75Y-79.75
X92.75Y-80.5
X92.75Y-82.25
X92.75Y-83.0
X92.75Y-84.5
X92.75Y-85.25
X94.5Y-77.5
X94.5Y-78.25
X94.5Y-79.75
X94.5Y-80.5
X94.5Y-82.25
X94.5Y-83.0
X94.5Y-84.5
X94.5Y-85.25
X95.25Y-77.5
X95.25Y-78.25
X95.25Y-79.75
X95.25Y-80.5
X95.25Y-82.25
X95.25Y-83.0
X95.25Y-84.5
X95.25Y-85.25
X96.5Y-77.5
X96.5Y-78.25
X96.5Y-79.75
X96.5Y-80.5
X96.5Y-82.25
X96.5Y-83.0
X96.5Y-84.5
X96.5Y-85.25
X96.9Y-95.5
X96.9Y-96.25
X96.9Y-97.75
X96.9Y-98.5
X97.25Y-77.5
X97.25Y-78.25
X97.25Y-79.75
X97.25Y-80.5
X97.25Y-82.25
X97.25Y-83.0
X97.25Y-84.5
X97.25Y-85.25
X97.65Y-95.5
X97.65Y-96.25
X97.65Y-97.75
X97.65Y-98.5
X101.25Y-123.0
X101.25Y-123.75
X101.25Y-125.25
X101.25Y-126.0
X102.0Y-123.0
X102.0Y-123.75
X102.0Y-125.25
X102.0Y-126.0
X103.25Y-95.5
X103.25Y-96.25
X103.25Y-97.75
X103.25Y-98.5
X104.0Y-95.5
X104.0Y-96.25
X104.0Y-97.75
X104.0Y-98.5
X106.0Y-123.0
X106.0Y-123.75
X106.0Y-125.25
X106.0Y-126.0
X106.75Y-123.0
X106.75Y-123.75
X106.75Y-125.25
X106.75Y-126.0
X108.5Y-76.3
X108.5Y-77.05
X108.5Y-78.55
X108.5Y-79.3
X108.5Y-95.5
X108.5Y-96.25
X108.5Y-97.75
X108.5Y-98.5
X109.25Y-76.3
X109.25Y-77.05
X109.25Y-78.55
X109.25Y-79.3
X109.25Y-95.5
X109.25Y-96.25
X109.25Y-97.75
X109.25Y-98.5
X110.75Y-76.3
X110.75Y-77.05
X110.75Y-78.55
X110.75Y-79.3
X110.75Y-123.0
X110.75Y-123.75
X110.75Y-125.25
X110.75Y-126.0
X111.5Y-76.3
X111.5Y-77.05
X111.5Y-78.55
X111.5Y-79.3
X111.5Y-123.0
X111.5Y-123.75
X111.5Y-125.25
X111.5Y-126.0
X112.75Y-76.3
X112.75Y-77.05
X112.75Y-78.55
X112.75Y-79.3
X113.5Y-76.3
X113.5Y-77.05
X113.5Y-78.55
X113.5Y-79.3
X118.7Y-122.45
X118.7Y-123.2
X119.45Y-122.45
X119.45Y-123.2
X120.7Y-122.45
X120.7Y-123.2
X120.9Y-95.15
X120.9Y-95.9
X120.9Y-97.4
X120.9Y-98.15
X121.45Y-122.45
X121.45Y-123.2
X121.65Y-95.15
X121.65Y-95.9
X121.65Y-97.4
X121.65Y-98.15
X122.85Y-108.05
X122.85Y-108.8
X123.15Y-95.15
X123.15Y-95.9
X123.15Y-97.4
X123.15Y-98.15
X123.6Y-108.05
X123.6Y-108.8
X123.9Y-95.15
X123.9Y-95.9
X123.9Y-97.4
X123.9Y-98.15
X125.15Y-95.15
X125.15Y-95.9
X125.15Y-97.4
X125.15Y-98.15
X125.9Y-95.15
X125.9Y-95.9
X125.9Y-97.4
X125.9Y-98.15
X126.2Y-121.9
X127.25Y-85.5
X130.47Y-96.28
X132.0Y-101.4
X133.2Y-101.4
X133.6Y-98.75
X133.6Y-99.5
X134.35Y-98.75
X134.35Y-99.5
X135.5Y-95.25
X135.6Y-98.75
X135.6Y-99.5
X136.3Y-109.95
X136.35Y-98.75
X136.35Y-99.5
X137.8Y-108.8
X138.9Y-101.8
X138.9Y-109.55
X139.8Y-108.25
X140.8Y-95.85
X140.8Y-96.6
X141.0Y-104.8
X141.0Y-105.7
X141.0Y-106.5
X141.55Y-95.85
X141.55Y-96.6
X141.75Y-104.8
X141.75Y-105.7
X141.75Y-106.5
X142.4Y-76.4
X142.4Y-77.15
X142.4Y-78.65
X142.4Y-79.4
X142.5Y-98.5
X142.8Y-95.85
X142.8Y-96.6
X143.15Y-76.4
X143.15Y-77.15
X143.15Y-78.65
X143.15Y-79.4
X143.55Y-95.85
X143.55Y-96.6
X144.65Y-76.4
X144.65Y-77.15
X144.65Y-78.65
X144.65Y-79.4
X145.4Y-76.4
X145.4Y-77.15
X145.4Y-78.65
X145.4Y-79.4
X145.435Y-104.415
X145.8Y-107.9
X146.6Y-105.0
X146.625Y-95.875
X146.65Y-76.4
X146.65Y-77.15
X146.65Y-78.65
X146.65Y-79.4
X147.4Y-76.4
X147.4Y-77.15
X147.4Y-78.65
X147.4Y-79.4
X147.625Y-95.875
X152.3Y-105.0
X157.2Y-107.4
X157.2Y-108.15
X157.95Y-107.4
X157.95Y-108.15
X158.3Y-102.4
X158.5Y-100.1
X159.2Y-107.4
X159.2Y-108.15
X159.7Y-102.45
X159.7Y-103.2
X159.7Y-104.7
X159.7Y-105.45
X159.95Y-107.4
X159.95Y-108.15
X160.45Y-102.45
X160.45Y-103.2
X160.45Y-104.7
X160.45Y-105.45
X161.5Y-87.9
X161.75Y-103.0
X161.75Y-103.75
X162.35Y-105.8
X162.35Y-106.55
X162.5Y-103.0
X162.5Y-103.75
X163.1Y-105.8
X163.1Y-106.55
X164.35Y-105.8
X164.35Y-106.55
X164.55Y-102.7
X164.55Y-103.45
X164.7Y-90.6
X165.1Y-105.8
X165.1Y-106.55
X165.3Y-102.7
X165.3Y-103.45
X165.5Y-87.5
X165.5Y-94.5
X166.0Y-112.75
X166.0Y-113.5
X166.0Y-115.0
X166.0Y-115.75
X166.5Y-92.4
X166.5Y-95.0
X166.5Y-95.75
X166.5Y-96.5
X166.5Y-97.25
X166.75Y-112.75
X166.75Y-113.5
X166.75Y-115.0
X166.75Y-115.75
X168.0Y-112.75
X168.0Y-113.5
X168.0Y-115.0
X168.0Y-115.75
X168.75Y-112.75
X168.75Y-113.5
X168.75Y-115.0
X168.75Y-115.75
X169.25Y-99.0
X169.25Y-99.75
X169.4Y-95.3
X170.0Y-99.0
X170.0Y-99.75
T2
X117.25Y-108.0
X125.85Y-108.0
X157.75Y-124.525
X160.25Y-124.525
X162.75Y-124.525
X165.25Y-124.525
X175.5Y-79.75
X175.5Y-82.25
X175.5Y-84.75
X175.5Y-87.25
X175.5Y-89.75
X175.5Y-92.25
X175.5Y-98.75
X175.5Y-101.25
X175.5Y-103.75
X175.5Y-106.25
X175.5Y-108.75
X175.5Y-111.25
T3
X102.53Y-69.14
X102.53Y-92.0
X105.07Y-69.14
X105.07Y-92.0
X107.61Y-69.14
X107.61Y-92.0
X110.15Y-69.14
X110.15Y-92.0
X112.69Y-69.14
X112.69Y-92.0
X115.23Y-69.14
X115.23Y-92.0
X117.77Y-69.14
X117.77Y-92.0
X120.31Y-69.14
X120.31Y-92.0
X122.85Y-69.14
X122.85Y-92.0
X125.39Y-69.14
X125.39Y-92.0
X127.93Y-69.14
X127.93Y-92.0
X130.47Y-69.14
X130.47Y-92.0
X132.61Y-113.65
X132.61Y-126.35
X133.01Y-69.14
X133.01Y-92.0
X135.15Y-113.65
X135.15Y-126.35
X135.55Y-69.14
X135.55Y-92.0
X137.69Y-113.65
X137.69Y-126.35
X138.09Y-69.14
X138.09Y-92.0
X140.23Y-113.65
X140.23Y-126.35
X140.63Y-69.14
X140.63Y-92.0
X142.77Y-113.65
X142.77Y-126.35
X143.17Y-69.14
X143.17Y-92.0
X145.31Y-113.65
X145.31Y-126.35
X145.71Y-69.14
X145.71Y-92.0
X147.85Y-113.65
X147.85Y-126.35
X148.25Y-69.14
X148.25Y-92.0
X150.39Y-113.65
X150.39Y-126.35
X150.79Y-69.14
X150.79Y-92.0
X153.33Y-69.14
X153.33Y-92.0
X155.87Y-69.14
X155.87Y-92.0
M30
