G04 #@! TF.GenerationSoftware,KiCad,Pcbnew,9.0.7-9.0.7~ubuntu24.04.1*
G04 #@! TF.CreationDate,2026-03-15T11:29:56-03:00*
G04 #@! TF.ProjectId,Pet_feeder_hw,5065745f-6665-4656-9465-725f68772e6b,rev?*
G04 #@! TF.SameCoordinates,Original*
G04 #@! TF.FileFunction,Copper,L1,Top*
G04 #@! TF.FilePolarity,Positive*
%FSLAX46Y46*%
G04 Gerber Fmt 4.6, Leading zero omitted, Abs format (unit mm)*
G04 Created by KiCad (PCBNEW 9.0.7-9.0.7~ubuntu24.04.1) date 2026-03-15 11:29:56*
%MOMM*%
%LPD*%
G01*
G04 APERTURE LIST*
G04 Aperture macros list*
%AMRoundRect*
0 Rectangle with rounded corners*
0 $1 Rounding radius*
0 $2 $3 $4 $5 $6 $7 $8 $9 X,Y pos of 4 corners*
0 Add a 4 corners polygon primitive as box body*
4,1,4,$2,$3,$4,$5,$6,$7,$8,$9,$2,$3,0*
0 Add four circle primitives for the rounded corners*
1,1,$1+$1,$2,$3*
1,1,$1+$1,$4,$5*
1,1,$1+$1,$6,$7*
1,1,$1+$1,$8,$9*
0 Add four rect primitives between the rounded corners*
20,1,$1+$1,$2,$3,$4,$5,0*
20,1,$1+$1,$4,$5,$6,$7,0*
20,1,$1+$1,$6,$7,$8,$9,0*
20,1,$1+$1,$8,$9,$2,$3,0*%
G04 Aperture macros list end*
G04 #@! TA.AperFunction,SMDPad,CuDef*
%ADD10RoundRect,0.387500X0.387500X-0.777500X0.387500X0.777500X-0.387500X0.777500X-0.387500X-0.777500X0*%
G04 #@! TD*
G04 #@! TA.AperFunction,ComponentPad*
%ADD11R,1.530000X1.530000*%
G04 #@! TD*
G04 #@! TA.AperFunction,ComponentPad*
%ADD12C,1.530000*%
G04 #@! TD*
G04 #@! TA.AperFunction,ComponentPad*
%ADD13R,1.508000X1.508000*%
G04 #@! TD*
G04 #@! TA.AperFunction,ComponentPad*
%ADD14C,1.508000*%
G04 #@! TD*
G04 #@! TA.AperFunction,SMDPad,CuDef*
%ADD15RoundRect,0.250000X0.450000X-0.262500X0.450000X0.262500X-0.450000X0.262500X-0.450000X-0.262500X0*%
G04 #@! TD*
G04 #@! TA.AperFunction,SMDPad,CuDef*
%ADD16C,2.000000*%
G04 #@! TD*
G04 #@! TA.AperFunction,SMDPad,CuDef*
%ADD17RoundRect,0.250000X0.475000X-0.250000X0.475000X0.250000X-0.475000X0.250000X-0.475000X-0.250000X0*%
G04 #@! TD*
G04 #@! TA.AperFunction,SMDPad,CuDef*
%ADD18RoundRect,0.075000X-0.910000X-0.225000X0.910000X-0.225000X0.910000X0.225000X-0.910000X0.225000X0*%
G04 #@! TD*
G04 #@! TA.AperFunction,SMDPad,CuDef*
%ADD19RoundRect,0.250000X0.262500X0.450000X-0.262500X0.450000X-0.262500X-0.450000X0.262500X-0.450000X0*%
G04 #@! TD*
G04 #@! TA.AperFunction,ComponentPad*
%ADD20RoundRect,0.450000X1.050000X-1.300000X1.050000X1.300000X-1.050000X1.300000X-1.050000X-1.300000X0*%
G04 #@! TD*
G04 #@! TA.AperFunction,SMDPad,CuDef*
%ADD21R,0.980000X3.400000*%
G04 #@! TD*
G04 #@! TA.AperFunction,SMDPad,CuDef*
%ADD22RoundRect,0.250000X-0.250000X-0.475000X0.250000X-0.475000X0.250000X0.475000X-0.250000X0.475000X0*%
G04 #@! TD*
G04 #@! TA.AperFunction,ViaPad*
%ADD23C,0.600000*%
G04 #@! TD*
G04 #@! TA.AperFunction,Conductor*
%ADD24C,0.200000*%
G04 #@! TD*
G04 #@! TA.AperFunction,Conductor*
%ADD25C,0.600000*%
G04 #@! TD*
G04 #@! TA.AperFunction,Conductor*
%ADD26C,1.500000*%
G04 #@! TD*
G04 APERTURE END LIST*
D10*
X147100000Y-97815000D03*
X147100000Y-102085000D03*
D11*
X132610000Y-126350000D03*
D12*
X135150000Y-126350000D03*
X137690000Y-126350000D03*
X140230000Y-126350000D03*
X142770000Y-126350000D03*
X145310000Y-126350000D03*
X147850000Y-126350000D03*
X150390000Y-126350000D03*
X150390000Y-113650000D03*
X147850000Y-113650000D03*
X145310000Y-113650000D03*
X142770000Y-113650000D03*
X140230000Y-113650000D03*
X137690000Y-113650000D03*
X135150000Y-113650000D03*
X132610000Y-113650000D03*
D13*
X175500000Y-98750000D03*
D14*
X175500000Y-101250000D03*
X175500000Y-103750000D03*
X175500000Y-106250000D03*
X175500000Y-108750000D03*
X175500000Y-111250000D03*
D15*
X150600000Y-106812500D03*
X150600000Y-104987500D03*
D16*
X117000000Y-103750000D03*
D17*
X132600000Y-104449999D03*
X132600000Y-102550001D03*
D16*
X91800000Y-98500000D03*
D18*
X138830000Y-103145000D03*
X138830000Y-104415000D03*
X138830000Y-105685000D03*
X138830000Y-106955000D03*
X143770000Y-106955000D03*
X143770000Y-105685000D03*
X143770000Y-104415000D03*
X143770000Y-103145000D03*
D17*
X144000000Y-100350000D03*
X144000000Y-98450000D03*
D19*
X141712500Y-109550000D03*
X139887500Y-109550000D03*
X145712500Y-109550000D03*
X143887500Y-109550000D03*
D20*
X125850000Y-108000000D03*
X117250000Y-108000000D03*
D16*
X161400000Y-96900000D03*
D13*
X165250000Y-124525000D03*
D14*
X162750000Y-124525000D03*
X160250000Y-124525000D03*
X157750000Y-124525000D03*
D16*
X95200000Y-92200000D03*
D21*
X150565000Y-101250000D03*
X152935000Y-101250000D03*
D17*
X136300000Y-108750000D03*
X136300000Y-106850000D03*
D22*
X148550000Y-108900000D03*
X150450000Y-108900000D03*
D11*
X102530000Y-92000000D03*
D12*
X105070000Y-92000000D03*
X107610000Y-92000000D03*
X110150000Y-92000000D03*
X112690000Y-92000000D03*
X115230000Y-92000000D03*
X117770000Y-92000000D03*
X120310000Y-92000000D03*
X122850000Y-92000000D03*
X125390000Y-92000000D03*
X127930000Y-92000000D03*
X130470000Y-92000000D03*
X133010000Y-92000000D03*
X135550000Y-92000000D03*
X138090000Y-92000000D03*
X140630000Y-92000000D03*
X143170000Y-92000000D03*
X145710000Y-92000000D03*
X148250000Y-92000000D03*
X150790000Y-92000000D03*
X153330000Y-92000000D03*
X155870000Y-92000000D03*
X102530000Y-69140000D03*
X105070000Y-69140000D03*
X107610000Y-69140000D03*
X110150000Y-69140000D03*
X112690000Y-69140000D03*
X115230000Y-69140000D03*
X117770000Y-69140000D03*
X120310000Y-69140000D03*
X122850000Y-69140000D03*
X125390000Y-69140000D03*
X127930000Y-69140000D03*
X130470000Y-69140000D03*
X133010000Y-69140000D03*
X135550000Y-69140000D03*
X138090000Y-69140000D03*
X140630000Y-69140000D03*
X143170000Y-69140000D03*
X145710000Y-69140000D03*
X148250000Y-69140000D03*
X150790000Y-69140000D03*
X153330000Y-69140000D03*
X155870000Y-69140000D03*
D17*
X148300000Y-106850000D03*
X148300000Y-104950000D03*
D22*
X155200000Y-102400000D03*
X157100000Y-102400000D03*
X155200000Y-100050000D03*
X157100000Y-100050000D03*
D13*
X175500000Y-79750000D03*
D14*
X175500000Y-82250000D03*
X175500000Y-84750000D03*
X175500000Y-87250000D03*
X175500000Y-89750000D03*
X175500000Y-92250000D03*
D23*
X146650000Y-79400000D03*
X141750000Y-105700000D03*
X92750000Y-84500000D03*
X146650000Y-77150000D03*
X92000000Y-82250000D03*
X133600000Y-98750000D03*
X94500000Y-85250000D03*
X94500000Y-80500000D03*
X92750000Y-85250000D03*
X108500000Y-98500000D03*
X158500000Y-100100000D03*
X146650000Y-78650000D03*
X90000000Y-85250000D03*
X125900000Y-95150000D03*
X142400000Y-76400000D03*
X92000000Y-77500000D03*
X162350000Y-106550000D03*
X166500000Y-96500000D03*
X135600000Y-99500000D03*
X145400000Y-76400000D03*
X141750000Y-106500000D03*
X120900000Y-95900000D03*
X104000000Y-95500000D03*
X97250000Y-79750000D03*
X90750000Y-85250000D03*
X166000000Y-113500000D03*
X144650000Y-76400000D03*
X144650000Y-79400000D03*
X160450000Y-105450000D03*
X125900000Y-97400000D03*
X147400000Y-77150000D03*
X95250000Y-78250000D03*
X121650000Y-98150000D03*
X113500000Y-79300000D03*
X96500000Y-78250000D03*
X90750000Y-78250000D03*
X141000000Y-104800000D03*
X90750000Y-83000000D03*
X169400000Y-95300000D03*
X101250000Y-125250000D03*
X96500000Y-80500000D03*
X168000000Y-115750000D03*
X103250000Y-98500000D03*
X121450000Y-122450000D03*
X159200000Y-108150000D03*
X96500000Y-84500000D03*
X106750000Y-123000000D03*
X92750000Y-77500000D03*
X108500000Y-77050000D03*
X134350000Y-98750000D03*
X166500000Y-92400000D03*
X125900000Y-98150000D03*
X121450000Y-123200000D03*
X90750000Y-82250000D03*
X118700000Y-122450000D03*
X109250000Y-97750000D03*
X112750000Y-77050000D03*
X145400000Y-79400000D03*
X110750000Y-123750000D03*
X141000000Y-106500000D03*
X97250000Y-82250000D03*
X97250000Y-77500000D03*
X141000000Y-105700000D03*
X106000000Y-125250000D03*
X147400000Y-79400000D03*
X145800000Y-107900000D03*
X101250000Y-126000000D03*
X137800000Y-108800000D03*
X92000000Y-80500000D03*
X125150000Y-97400000D03*
X163100000Y-105800000D03*
X90750000Y-80500000D03*
X95250000Y-80500000D03*
X97650000Y-96250000D03*
X165300000Y-103450000D03*
X90750000Y-79750000D03*
X166750000Y-115750000D03*
X140800000Y-96600000D03*
X123150000Y-97400000D03*
X88750000Y-113250000D03*
X118700000Y-123200000D03*
X109250000Y-77050000D03*
X122850000Y-108800000D03*
X90000000Y-83000000D03*
X95250000Y-83000000D03*
X157950000Y-108150000D03*
X112750000Y-78550000D03*
X90000000Y-77500000D03*
X94500000Y-82250000D03*
X123900000Y-95150000D03*
X90000000Y-82250000D03*
X96500000Y-85250000D03*
X164350000Y-106550000D03*
X97650000Y-97750000D03*
X122850000Y-108050000D03*
X168000000Y-113500000D03*
X121650000Y-95150000D03*
X159950000Y-107400000D03*
X104000000Y-97750000D03*
X168750000Y-112750000D03*
X164350000Y-105800000D03*
X146625000Y-95875000D03*
X125900000Y-95900000D03*
X108500000Y-76300000D03*
X110750000Y-126000000D03*
X97650000Y-95500000D03*
X123150000Y-95900000D03*
X165100000Y-106550000D03*
X166000000Y-115750000D03*
X96500000Y-82250000D03*
X94500000Y-83000000D03*
X94500000Y-77500000D03*
X135600000Y-98750000D03*
X97250000Y-80500000D03*
X145400000Y-78650000D03*
X90750000Y-84500000D03*
X96500000Y-83000000D03*
X123150000Y-95150000D03*
X97250000Y-83000000D03*
X165300000Y-102700000D03*
X165100000Y-105800000D03*
X92000000Y-85250000D03*
X140800000Y-95850000D03*
X162500000Y-103750000D03*
X123900000Y-98150000D03*
X142400000Y-79400000D03*
X120900000Y-98150000D03*
X102000000Y-123000000D03*
X89500000Y-116250000D03*
X106750000Y-126000000D03*
X111500000Y-126000000D03*
X108500000Y-96250000D03*
X166000000Y-115000000D03*
X159700000Y-105450000D03*
X159700000Y-104700000D03*
X120900000Y-97400000D03*
X168750000Y-115750000D03*
X161750000Y-103750000D03*
X147625000Y-95875000D03*
X92750000Y-83000000D03*
X106000000Y-123000000D03*
X92000000Y-78250000D03*
X111500000Y-76300000D03*
X125150000Y-95900000D03*
X104000000Y-96250000D03*
X160450000Y-103200000D03*
X138900000Y-109550000D03*
X92000000Y-84500000D03*
X109250000Y-79300000D03*
X147400000Y-78650000D03*
X90000000Y-80500000D03*
X108500000Y-95500000D03*
X170000000Y-99000000D03*
X94500000Y-79750000D03*
X96900000Y-97750000D03*
X157950000Y-107400000D03*
X141550000Y-96600000D03*
X136350000Y-99500000D03*
X97250000Y-78250000D03*
X112750000Y-79300000D03*
X168000000Y-112750000D03*
X101250000Y-123000000D03*
X111500000Y-78550000D03*
X110750000Y-78550000D03*
X109250000Y-95500000D03*
X95250000Y-85250000D03*
X157200000Y-108150000D03*
X141550000Y-95850000D03*
X89500000Y-114000000D03*
X125150000Y-98150000D03*
X142800000Y-96600000D03*
X143150000Y-77150000D03*
X170000000Y-99750000D03*
X169250000Y-99750000D03*
X88750000Y-114000000D03*
X164550000Y-102700000D03*
X90000000Y-84500000D03*
X164700000Y-90600000D03*
X95250000Y-82250000D03*
X92750000Y-79750000D03*
X123900000Y-97400000D03*
X92750000Y-78250000D03*
X96900000Y-95500000D03*
X132000000Y-101400000D03*
X89500000Y-113250000D03*
X119450000Y-122450000D03*
X120700000Y-122450000D03*
X95250000Y-77500000D03*
X136300000Y-109950000D03*
X102000000Y-125250000D03*
X160450000Y-102450000D03*
X144650000Y-78650000D03*
X123900000Y-95900000D03*
X166750000Y-112750000D03*
X164550000Y-103450000D03*
X136350000Y-98750000D03*
X95250000Y-84500000D03*
X120700000Y-123200000D03*
X123600000Y-108800000D03*
X113500000Y-78550000D03*
X157200000Y-107400000D03*
X158300000Y-102400000D03*
X92000000Y-79750000D03*
X121650000Y-95900000D03*
X166500000Y-95000000D03*
X90750000Y-77500000D03*
X168000000Y-115000000D03*
X90000000Y-79750000D03*
X119450000Y-123200000D03*
X120900000Y-95150000D03*
X97650000Y-98500000D03*
X168750000Y-113500000D03*
X92750000Y-82250000D03*
X108500000Y-97750000D03*
X166500000Y-97250000D03*
X96500000Y-79750000D03*
X92750000Y-80500000D03*
X113500000Y-76300000D03*
X141750000Y-104800000D03*
X133200000Y-101400000D03*
X169250000Y-99000000D03*
X125150000Y-95150000D03*
X94500000Y-84500000D03*
X111500000Y-125250000D03*
X159950000Y-108150000D03*
X109250000Y-96250000D03*
X110750000Y-77050000D03*
X110750000Y-125250000D03*
X143150000Y-78650000D03*
X109250000Y-76300000D03*
X110750000Y-123000000D03*
X88750000Y-116250000D03*
X111500000Y-79300000D03*
X95250000Y-79750000D03*
X159200000Y-107400000D03*
X108500000Y-78550000D03*
X97250000Y-85250000D03*
X159700000Y-102450000D03*
X111500000Y-123750000D03*
X159700000Y-103200000D03*
X161750000Y-103000000D03*
X110750000Y-79300000D03*
X161500000Y-87900000D03*
X146650000Y-76400000D03*
X134350000Y-99500000D03*
X113500000Y-77050000D03*
X89500000Y-115500000D03*
X97250000Y-84500000D03*
X96900000Y-98500000D03*
X143550000Y-95850000D03*
X145400000Y-77150000D03*
X92000000Y-83000000D03*
X166750000Y-115000000D03*
X111500000Y-77050000D03*
X142400000Y-78650000D03*
X162350000Y-105800000D03*
X162500000Y-103000000D03*
X102000000Y-126000000D03*
X94500000Y-78250000D03*
X104000000Y-98500000D03*
X106750000Y-123750000D03*
X142800000Y-95850000D03*
X111500000Y-123000000D03*
X123150000Y-98150000D03*
X106000000Y-126000000D03*
X146600000Y-105000000D03*
X160450000Y-104700000D03*
X144650000Y-77150000D03*
X109250000Y-98500000D03*
X101250000Y-123750000D03*
X166500000Y-95750000D03*
X123600000Y-108050000D03*
X121650000Y-97400000D03*
X166750000Y-113500000D03*
X102000000Y-123750000D03*
X139800000Y-108250000D03*
X88750000Y-115500000D03*
X152300000Y-105000000D03*
X168750000Y-115000000D03*
X142400000Y-77150000D03*
X96900000Y-96250000D03*
X143150000Y-79400000D03*
X106000000Y-123750000D03*
X147400000Y-76400000D03*
X143150000Y-76400000D03*
X143550000Y-96600000D03*
X110750000Y-76300000D03*
X90000000Y-78250000D03*
X109250000Y-78550000D03*
X145435000Y-104415000D03*
X103250000Y-96250000D03*
X103250000Y-95500000D03*
X106750000Y-125250000D03*
X108500000Y-79300000D03*
X163100000Y-106550000D03*
X133600000Y-99500000D03*
X112750000Y-76300000D03*
X166000000Y-112750000D03*
X96500000Y-77500000D03*
X103250000Y-97750000D03*
X127250000Y-85500000D03*
X165500000Y-87500000D03*
X165500000Y-94500000D03*
X130470000Y-96280000D03*
X126200000Y-121900000D03*
X135500000Y-95250000D03*
X142500000Y-98500000D03*
X138900000Y-101800000D03*
D24*
X132000000Y-101950000D02*
X132600000Y-102550000D01*
X158500000Y-100100000D02*
X157150000Y-100100000D01*
X136350000Y-108800000D02*
X136300000Y-108750000D01*
X158300000Y-102400000D02*
X157100000Y-102400000D01*
X152300000Y-105000000D02*
X150612500Y-105000000D01*
X146625000Y-95875000D02*
X147100000Y-96350000D01*
X143755000Y-104400000D02*
X143770000Y-104415000D01*
D25*
X125800000Y-108050000D02*
X125850000Y-108000000D01*
D24*
X137800000Y-108800000D02*
X136350000Y-108800000D01*
X139800000Y-109462500D02*
X139887500Y-109550000D01*
X136300000Y-109950000D02*
X136300000Y-108750000D01*
X132000000Y-101400000D02*
X132000000Y-101950000D01*
X138900000Y-109550000D02*
X139887500Y-109550000D01*
X147100000Y-96400000D02*
X147100000Y-97815000D01*
D25*
X123600000Y-108050000D02*
X125800000Y-108050000D01*
D24*
X147100000Y-96350000D02*
X147100000Y-97815000D01*
X133200000Y-101950000D02*
X132600000Y-102550000D01*
X133200000Y-101400000D02*
X133200000Y-101950000D01*
X139800000Y-108250000D02*
X139800000Y-109462500D01*
X142150000Y-104400000D02*
X143755000Y-104400000D01*
X141750000Y-104800000D02*
X142150000Y-104400000D01*
X147625000Y-95875000D02*
X147100000Y-96400000D01*
X146600000Y-105000000D02*
X148250000Y-105000000D01*
X157150000Y-100100000D02*
X157100000Y-100050000D01*
X145435000Y-104415000D02*
X143770000Y-104415000D01*
X148250000Y-105000000D02*
X148300000Y-104950000D01*
X91800000Y-98500000D02*
X96900000Y-98500000D01*
X150612500Y-105000000D02*
X150600000Y-104987500D01*
D26*
X165250000Y-121650000D02*
X165250000Y-124525000D01*
X142770000Y-113650000D02*
X142770000Y-115570000D01*
X143800000Y-116600000D02*
X160200000Y-116600000D01*
X142770000Y-115570000D02*
X143800000Y-116600000D01*
X160200000Y-116600000D02*
X165250000Y-121650000D01*
X137690000Y-113650000D02*
X137690000Y-119190000D01*
X137690000Y-119190000D02*
X140500000Y-122000000D01*
X140500000Y-122000000D02*
X155225000Y-122000000D01*
X155225000Y-122000000D02*
X157750000Y-124525000D01*
X160250000Y-122050000D02*
X160250000Y-124525000D01*
X140230000Y-116730000D02*
X142900000Y-119400000D01*
X157600000Y-119400000D02*
X160250000Y-122050000D01*
X142900000Y-119400000D02*
X157600000Y-119400000D01*
X140230000Y-113650000D02*
X140230000Y-116730000D01*
D24*
X97200000Y-94200000D02*
X102000000Y-94200000D01*
X102530000Y-93670000D02*
X102530000Y-92000000D01*
X102000000Y-94200000D02*
X102530000Y-93670000D01*
X95200000Y-92200000D02*
X97200000Y-94200000D01*
X160500000Y-71500000D02*
X114000000Y-71500000D01*
X175500000Y-84750000D02*
X173750000Y-84750000D01*
X173750000Y-84750000D02*
X160500000Y-71500000D01*
X114000000Y-71500000D02*
X112690000Y-70190000D01*
X112690000Y-70190000D02*
X112690000Y-69140000D01*
X167000000Y-85500000D02*
X127250000Y-85500000D01*
X170500000Y-89000000D02*
X167000000Y-85500000D01*
X175500000Y-89750000D02*
X171250000Y-89750000D01*
X171250000Y-89750000D02*
X170500000Y-89000000D01*
X112750000Y-73000000D02*
X110150000Y-70400000D01*
X175500000Y-87250000D02*
X174000000Y-87250000D01*
X159750000Y-73000000D02*
X112750000Y-73000000D01*
X110150000Y-70400000D02*
X110150000Y-69140000D01*
X174000000Y-87250000D02*
X159750000Y-73000000D01*
X164250000Y-89000000D02*
X114000000Y-89000000D01*
X114000000Y-89000000D02*
X112690000Y-90310000D01*
X177250000Y-97750000D02*
X175250000Y-95750000D01*
X177250000Y-103000000D02*
X177250000Y-97750000D01*
X176500000Y-103750000D02*
X177250000Y-103000000D01*
X175500000Y-103750000D02*
X176500000Y-103750000D01*
X171000000Y-95750000D02*
X164250000Y-89000000D01*
X175250000Y-95750000D02*
X171000000Y-95750000D01*
X112690000Y-90310000D02*
X112690000Y-92000000D01*
X174000000Y-101250000D02*
X162750000Y-90000000D01*
X120310000Y-90690000D02*
X120310000Y-92000000D01*
X121000000Y-90000000D02*
X120310000Y-90690000D01*
X175500000Y-101250000D02*
X174000000Y-101250000D01*
X162750000Y-90000000D02*
X121000000Y-90000000D01*
X165500000Y-97750000D02*
X174000000Y-106250000D01*
X113250000Y-87000000D02*
X165000000Y-87000000D01*
X110150000Y-92000000D02*
X110150000Y-90100000D01*
X165500000Y-94500000D02*
X165500000Y-97750000D01*
X165000000Y-87000000D02*
X165500000Y-87500000D01*
X110150000Y-90100000D02*
X113250000Y-87000000D01*
X174000000Y-106250000D02*
X175500000Y-106250000D01*
X145500000Y-124000000D02*
X147850000Y-126350000D01*
X128300000Y-124000000D02*
X145500000Y-124000000D01*
X130470000Y-92000000D02*
X130470000Y-96280000D01*
X126200000Y-121900000D02*
X128300000Y-124000000D01*
X140630000Y-94120000D02*
X140630000Y-92000000D01*
X135500000Y-95250000D02*
X139500000Y-95250000D01*
X139500000Y-95250000D02*
X140630000Y-94120000D01*
D26*
X132610000Y-104460000D02*
X132600000Y-104450000D01*
X132610000Y-113650000D02*
X132610000Y-104460000D01*
D24*
X142770000Y-126350000D02*
X145310000Y-126350000D01*
D25*
X156400000Y-96900000D02*
X161400000Y-96900000D01*
X152550000Y-111450000D02*
X155200000Y-108800000D01*
X155200000Y-100050000D02*
X155200000Y-98100000D01*
X155200000Y-100050000D02*
X155200000Y-96900000D01*
X155200000Y-96900000D02*
X153330000Y-95030000D01*
X155200000Y-108800000D02*
X155200000Y-102400000D01*
X146500000Y-111450000D02*
X152550000Y-111450000D01*
X155200000Y-98100000D02*
X156400000Y-96900000D01*
D26*
X153362500Y-92032500D02*
X153330000Y-92000000D01*
D25*
X145712500Y-110662500D02*
X146500000Y-111450000D01*
X155200000Y-102400000D02*
X155200000Y-100050000D01*
X145712500Y-109550000D02*
X145712500Y-110662500D01*
X153330000Y-95030000D02*
X153330000Y-92000000D01*
D24*
X136405000Y-106955000D02*
X138830000Y-106955000D01*
X136300000Y-106850000D02*
X136405000Y-106955000D01*
X143887500Y-109550000D02*
X143887500Y-107072500D01*
X141712500Y-109550000D02*
X143887500Y-109550000D01*
X143887500Y-107072500D02*
X143770000Y-106955000D01*
X150600000Y-108300000D02*
X150600000Y-106812500D01*
X150450000Y-108900000D02*
X150450000Y-108450000D01*
X150450000Y-108450000D02*
X150600000Y-108300000D01*
X143950000Y-98500000D02*
X144000000Y-98450000D01*
X138830000Y-103145000D02*
X138830000Y-101870000D01*
X142500000Y-98500000D02*
X143950000Y-98500000D01*
X138830000Y-101870000D02*
X138900000Y-101800000D01*
X146285000Y-105685000D02*
X143770000Y-105685000D01*
X148300000Y-107900000D02*
X148300000Y-106850000D01*
X147450000Y-106850000D02*
X146285000Y-105685000D01*
X148550000Y-108900000D02*
X148550000Y-108150000D01*
X148300000Y-106850000D02*
X147450000Y-106850000D01*
X148550000Y-108150000D02*
X148300000Y-107900000D01*
G04 #@! TA.AperFunction,Conductor*
G36*
X118765677Y-102019685D02*
G01*
X118786319Y-102036319D01*
X120250000Y-103500000D01*
X131831481Y-103500000D01*
X131870485Y-103506294D01*
X131972203Y-103540000D01*
X132074991Y-103550501D01*
X133125008Y-103550500D01*
X133125016Y-103550499D01*
X133125019Y-103550499D01*
X133181302Y-103544749D01*
X133227797Y-103540000D01*
X133329515Y-103506294D01*
X133368519Y-103500000D01*
X137198638Y-103500000D01*
X137228078Y-103508644D01*
X137258065Y-103515168D01*
X137263080Y-103518922D01*
X137265677Y-103519685D01*
X137286319Y-103536319D01*
X137434863Y-103684863D01*
X137445557Y-103697056D01*
X137509549Y-103780451D01*
X137629767Y-103872698D01*
X137769764Y-103930687D01*
X137882280Y-103945500D01*
X137882287Y-103945500D01*
X139777713Y-103945500D01*
X139777720Y-103945500D01*
X139890236Y-103930687D01*
X140030233Y-103872698D01*
X140137737Y-103790206D01*
X140138450Y-103789930D01*
X140138911Y-103789316D01*
X140170963Y-103777361D01*
X140202902Y-103765013D01*
X140203655Y-103765167D01*
X140204375Y-103764899D01*
X140237825Y-103772175D01*
X140271347Y-103779051D01*
X140272146Y-103779641D01*
X140272648Y-103779751D01*
X140300902Y-103800902D01*
X140463681Y-103963681D01*
X140497166Y-104025004D01*
X140500000Y-104051362D01*
X140500000Y-104116559D01*
X140480315Y-104183598D01*
X140463681Y-104204240D01*
X140378213Y-104289707D01*
X140378210Y-104289711D01*
X140290609Y-104420814D01*
X140290602Y-104420827D01*
X140230264Y-104566498D01*
X140230261Y-104566510D01*
X140199500Y-104721153D01*
X140199500Y-104841835D01*
X140179815Y-104908874D01*
X140127011Y-104954629D01*
X140057853Y-104964573D01*
X140028048Y-104956396D01*
X139890239Y-104899314D01*
X139890237Y-104899313D01*
X139890236Y-104899313D01*
X139876171Y-104897461D01*
X139777727Y-104884500D01*
X139777720Y-104884500D01*
X137882280Y-104884500D01*
X137882272Y-104884500D01*
X137769764Y-104899313D01*
X137769763Y-104899313D01*
X137629769Y-104957300D01*
X137629767Y-104957301D01*
X137607514Y-104974377D01*
X137542345Y-104999570D01*
X137532029Y-105000000D01*
X137499999Y-105000000D01*
X137286319Y-105213681D01*
X137224996Y-105247166D01*
X137198638Y-105250000D01*
X120249999Y-105250000D01*
X119750000Y-105749999D01*
X119750000Y-110198638D01*
X119730315Y-110265677D01*
X119713681Y-110286319D01*
X119286319Y-110713681D01*
X119224996Y-110747166D01*
X119198638Y-110750000D01*
X115301362Y-110750000D01*
X115234323Y-110730315D01*
X115213681Y-110713681D01*
X114786319Y-110286319D01*
X114752834Y-110224996D01*
X114750000Y-110198638D01*
X114750000Y-102551362D01*
X114769685Y-102484323D01*
X114786319Y-102463681D01*
X115213681Y-102036319D01*
X115275004Y-102002834D01*
X115301362Y-102000000D01*
X118698638Y-102000000D01*
X118765677Y-102019685D01*
G37*
G04 #@! TD.AperFunction*
G04 #@! TA.AperFunction,Conductor*
G36*
X166447826Y-94564235D02*
G01*
X166494255Y-94593491D01*
X173631284Y-101730520D01*
X173631286Y-101730521D01*
X173631290Y-101730524D01*
X173677587Y-101757253D01*
X173768216Y-101809577D01*
X173920943Y-101850501D01*
X173920945Y-101850501D01*
X174086654Y-101850501D01*
X174086670Y-101850500D01*
X174322682Y-101850500D01*
X174389721Y-101870185D01*
X174423139Y-101904324D01*
X174424192Y-101903560D01*
X174543115Y-102067246D01*
X174682753Y-102206884D01*
X174825081Y-102310289D01*
X174842499Y-102322944D01*
X174973151Y-102389515D01*
X175023947Y-102437490D01*
X175040742Y-102505311D01*
X175018204Y-102571446D01*
X174973151Y-102610484D01*
X174935308Y-102629767D01*
X174842495Y-102677058D01*
X174682753Y-102793115D01*
X174543115Y-102932753D01*
X174427058Y-103092495D01*
X174337408Y-103268441D01*
X174276389Y-103456236D01*
X174245500Y-103651263D01*
X174245500Y-103848736D01*
X174276389Y-104043763D01*
X174328000Y-104202602D01*
X174337409Y-104231561D01*
X174427056Y-104407501D01*
X174427058Y-104407504D01*
X174543115Y-104567246D01*
X174682753Y-104706884D01*
X174832234Y-104815486D01*
X174842499Y-104822944D01*
X174973151Y-104889515D01*
X175023947Y-104937490D01*
X175040742Y-105005311D01*
X175018204Y-105071446D01*
X174973151Y-105110484D01*
X174887046Y-105154358D01*
X174842495Y-105177058D01*
X174682753Y-105293115D01*
X174543115Y-105432753D01*
X174424192Y-105596440D01*
X174422761Y-105595400D01*
X174420708Y-105597258D01*
X174416395Y-105606703D01*
X174395239Y-105620298D01*
X174376593Y-105637167D01*
X174364790Y-105639867D01*
X174357617Y-105644477D01*
X174322682Y-105649500D01*
X174300097Y-105649500D01*
X174233058Y-105629815D01*
X174212416Y-105613181D01*
X166136819Y-97537584D01*
X166103334Y-97476261D01*
X166100500Y-97449903D01*
X166100500Y-95079765D01*
X166120185Y-95012726D01*
X166121398Y-95010874D01*
X166209390Y-94879185D01*
X166209390Y-94879184D01*
X166209394Y-94879179D01*
X166212854Y-94870827D01*
X166267163Y-94739711D01*
X166269737Y-94733497D01*
X166284957Y-94656977D01*
X166317341Y-94595070D01*
X166378057Y-94560496D01*
X166447826Y-94564235D01*
G37*
G04 #@! TD.AperFunction*
G04 #@! TA.AperFunction,Conductor*
G36*
X164016942Y-89620185D02*
G01*
X164037583Y-89636818D01*
X170631284Y-96230520D01*
X170631286Y-96230521D01*
X170631290Y-96230524D01*
X170717402Y-96280240D01*
X170768216Y-96309577D01*
X170920943Y-96350501D01*
X170920945Y-96350501D01*
X171086654Y-96350501D01*
X171086670Y-96350500D01*
X174949903Y-96350500D01*
X175016942Y-96370185D01*
X175037584Y-96386819D01*
X175934584Y-97283819D01*
X175968069Y-97345142D01*
X175963085Y-97414834D01*
X175921213Y-97470767D01*
X175855749Y-97495184D01*
X175846903Y-97495500D01*
X174698129Y-97495500D01*
X174698123Y-97495501D01*
X174638516Y-97501908D01*
X174503671Y-97552202D01*
X174503664Y-97552206D01*
X174388455Y-97638452D01*
X174388452Y-97638455D01*
X174302206Y-97753664D01*
X174302202Y-97753671D01*
X174251908Y-97888517D01*
X174245501Y-97948116D01*
X174245500Y-97948135D01*
X174245500Y-99551870D01*
X174245501Y-99551876D01*
X174251908Y-99611483D01*
X174302202Y-99746328D01*
X174302206Y-99746335D01*
X174388452Y-99861544D01*
X174388455Y-99861547D01*
X174503664Y-99947793D01*
X174503671Y-99947797D01*
X174510031Y-99950169D01*
X174638517Y-99998091D01*
X174698127Y-100004500D01*
X174698336Y-100004499D01*
X174698381Y-100004513D01*
X174701453Y-100004678D01*
X174701414Y-100005402D01*
X174765378Y-100024165D01*
X174811148Y-100076956D01*
X174821111Y-100146112D01*
X174792104Y-100209675D01*
X174771254Y-100228817D01*
X174682749Y-100293119D01*
X174543115Y-100432753D01*
X174424192Y-100596440D01*
X174422761Y-100595400D01*
X174420708Y-100597258D01*
X174416395Y-100606703D01*
X174395239Y-100620298D01*
X174376593Y-100637167D01*
X174364790Y-100639867D01*
X174357617Y-100644477D01*
X174322682Y-100649500D01*
X174300098Y-100649500D01*
X174233059Y-100629815D01*
X174212417Y-100613181D01*
X168862725Y-95263489D01*
X163411415Y-89812180D01*
X163377931Y-89750858D01*
X163382915Y-89681166D01*
X163424787Y-89625233D01*
X163490251Y-89600816D01*
X163499097Y-89600500D01*
X163949903Y-89600500D01*
X164016942Y-89620185D01*
G37*
G04 #@! TD.AperFunction*
G04 #@! TA.AperFunction,Conductor*
G36*
X173002562Y-66500605D02*
G01*
X173449036Y-66519072D01*
X173459209Y-66519915D01*
X173900114Y-66574873D01*
X173910194Y-66576555D01*
X174345042Y-66667733D01*
X174354950Y-66670242D01*
X174780786Y-66797019D01*
X174790454Y-66800338D01*
X175131430Y-66933388D01*
X175204339Y-66961838D01*
X175213724Y-66965954D01*
X175612869Y-67161083D01*
X175621877Y-67165958D01*
X176003544Y-67393383D01*
X176012123Y-67398989D01*
X176373693Y-67657144D01*
X176381775Y-67663435D01*
X176720796Y-67950571D01*
X176728336Y-67957512D01*
X177042487Y-68271663D01*
X177049428Y-68279203D01*
X177336564Y-68618224D01*
X177342859Y-68626312D01*
X177601010Y-68987876D01*
X177606616Y-68996455D01*
X177834041Y-69378122D01*
X177838919Y-69387136D01*
X178034045Y-69786275D01*
X178038161Y-69795660D01*
X178199656Y-70209533D01*
X178202984Y-70219226D01*
X178329753Y-70645036D01*
X178332269Y-70654971D01*
X178423441Y-71089791D01*
X178425128Y-71099900D01*
X178480082Y-71540769D01*
X178480928Y-71550983D01*
X178499394Y-71997437D01*
X178499500Y-72002561D01*
X178499500Y-123497438D01*
X178499394Y-123502562D01*
X178480928Y-123949016D01*
X178480082Y-123959230D01*
X178425128Y-124400099D01*
X178423441Y-124410208D01*
X178332269Y-124845028D01*
X178329753Y-124854963D01*
X178202984Y-125280773D01*
X178199656Y-125290466D01*
X178038161Y-125704339D01*
X178034045Y-125713724D01*
X177838919Y-126112863D01*
X177834041Y-126121877D01*
X177606616Y-126503544D01*
X177601010Y-126512123D01*
X177342859Y-126873687D01*
X177336564Y-126881775D01*
X177049428Y-127220796D01*
X177042487Y-127228336D01*
X176728336Y-127542487D01*
X176720796Y-127549428D01*
X176381775Y-127836564D01*
X176373687Y-127842859D01*
X176012123Y-128101010D01*
X176003544Y-128106616D01*
X175621877Y-128334041D01*
X175612863Y-128338919D01*
X175213724Y-128534045D01*
X175204339Y-128538161D01*
X174790466Y-128699656D01*
X174780773Y-128702984D01*
X174354963Y-128829753D01*
X174345028Y-128832269D01*
X173910208Y-128923441D01*
X173900099Y-128925128D01*
X173459230Y-128980082D01*
X173449016Y-128980928D01*
X173002563Y-128999394D01*
X172997439Y-128999500D01*
X93002561Y-128999500D01*
X92997437Y-128999394D01*
X92550983Y-128980928D01*
X92540769Y-128980082D01*
X92099900Y-128925128D01*
X92089791Y-128923441D01*
X91654971Y-128832269D01*
X91645036Y-128829753D01*
X91219226Y-128702984D01*
X91209533Y-128699656D01*
X90795660Y-128538161D01*
X90786275Y-128534045D01*
X90387136Y-128338919D01*
X90378122Y-128334041D01*
X89996455Y-128106616D01*
X89987876Y-128101010D01*
X89626312Y-127842859D01*
X89618224Y-127836564D01*
X89279203Y-127549428D01*
X89271663Y-127542487D01*
X88957512Y-127228336D01*
X88950571Y-127220796D01*
X88874038Y-127130434D01*
X88663431Y-126881770D01*
X88657140Y-126873687D01*
X88648672Y-126861827D01*
X88398989Y-126512123D01*
X88393383Y-126503544D01*
X88165958Y-126121877D01*
X88161080Y-126112863D01*
X88099385Y-125986664D01*
X87998109Y-125779498D01*
X87965954Y-125713724D01*
X87961838Y-125704339D01*
X87920321Y-125597941D01*
X87800338Y-125290454D01*
X87797019Y-125280786D01*
X87670242Y-124854950D01*
X87667733Y-124845042D01*
X87576555Y-124410194D01*
X87574873Y-124400114D01*
X87519915Y-123959209D01*
X87519072Y-123949036D01*
X87500606Y-123502562D01*
X87500500Y-123497438D01*
X87500500Y-123397648D01*
X91699500Y-123397648D01*
X91699500Y-123602351D01*
X91731522Y-123804534D01*
X91794781Y-123999223D01*
X91887715Y-124181613D01*
X92008028Y-124347213D01*
X92152786Y-124491971D01*
X92245840Y-124559577D01*
X92318390Y-124612287D01*
X92396610Y-124652142D01*
X92500776Y-124705218D01*
X92500778Y-124705218D01*
X92500781Y-124705220D01*
X92605137Y-124739127D01*
X92695465Y-124768477D01*
X92796557Y-124784488D01*
X92897648Y-124800500D01*
X92897649Y-124800500D01*
X93102351Y-124800500D01*
X93102352Y-124800500D01*
X93304534Y-124768477D01*
X93499219Y-124705220D01*
X93681610Y-124612287D01*
X93774590Y-124544732D01*
X93847213Y-124491971D01*
X93847215Y-124491968D01*
X93847219Y-124491966D01*
X93991966Y-124347219D01*
X93991968Y-124347215D01*
X93991971Y-124347213D01*
X94078340Y-124228334D01*
X94112287Y-124181610D01*
X94205220Y-123999219D01*
X94268477Y-123804534D01*
X94300500Y-123602352D01*
X94300500Y-123397648D01*
X94282946Y-123286819D01*
X94268477Y-123195465D01*
X94205218Y-123000776D01*
X94171503Y-122934607D01*
X94112287Y-122818390D01*
X94050265Y-122733023D01*
X93991971Y-122652786D01*
X93847213Y-122508028D01*
X93681613Y-122387715D01*
X93681612Y-122387714D01*
X93681610Y-122387713D01*
X93624653Y-122358691D01*
X93499223Y-122294781D01*
X93304534Y-122231522D01*
X93129995Y-122203878D01*
X93102352Y-122199500D01*
X92897648Y-122199500D01*
X92873329Y-122203351D01*
X92695465Y-122231522D01*
X92500776Y-122294781D01*
X92318386Y-122387715D01*
X92152786Y-122508028D01*
X92008028Y-122652786D01*
X91887715Y-122818386D01*
X91794781Y-123000776D01*
X91731522Y-123195465D01*
X91699500Y-123397648D01*
X87500500Y-123397648D01*
X87500500Y-102551363D01*
X114244500Y-102551363D01*
X114244500Y-110198640D01*
X114247397Y-110252688D01*
X114247397Y-110252689D01*
X114250229Y-110279022D01*
X114250232Y-110279049D01*
X114258885Y-110332445D01*
X114258885Y-110332447D01*
X114287102Y-110408097D01*
X114309168Y-110467257D01*
X114342653Y-110528580D01*
X114428877Y-110643761D01*
X114428881Y-110643765D01*
X114428886Y-110643771D01*
X114681105Y-110895989D01*
X114856239Y-111071123D01*
X114856255Y-111071137D01*
X114856262Y-111071144D01*
X114896480Y-111107271D01*
X114896492Y-111107281D01*
X114896500Y-111107288D01*
X114917142Y-111123922D01*
X114961026Y-111155567D01*
X115091903Y-111215338D01*
X115158942Y-111235023D01*
X115158946Y-111235024D01*
X115301362Y-111255500D01*
X115301365Y-111255500D01*
X119198640Y-111255500D01*
X119208786Y-111254955D01*
X119252678Y-111252603D01*
X119252686Y-111252602D01*
X119252688Y-111252602D01*
X119252689Y-111252602D01*
X119259682Y-111251849D01*
X119279036Y-111249769D01*
X119279046Y-111249767D01*
X119279049Y-111249767D01*
X119288648Y-111248211D01*
X119332448Y-111241114D01*
X119467257Y-111190832D01*
X119528580Y-111157347D01*
X119643761Y-111071123D01*
X120071123Y-110643761D01*
X120107288Y-110603500D01*
X120123922Y-110582858D01*
X120155567Y-110538974D01*
X120215338Y-110408097D01*
X120235023Y-110341058D01*
X120235024Y-110341054D01*
X120255500Y-110198638D01*
X120255500Y-106010745D01*
X120264144Y-105981304D01*
X120270668Y-105951318D01*
X120274422Y-105946302D01*
X120275185Y-105943706D01*
X120291819Y-105923064D01*
X120423064Y-105791819D01*
X120484387Y-105758334D01*
X120510745Y-105755500D01*
X131235500Y-105755500D01*
X131302539Y-105775185D01*
X131348294Y-105827989D01*
X131359500Y-105879500D01*
X131359500Y-113445940D01*
X131357973Y-113465338D01*
X131344500Y-113550403D01*
X131344500Y-113749596D01*
X131375661Y-113946340D01*
X131375661Y-113946343D01*
X131437213Y-114135780D01*
X131437215Y-114135783D01*
X131527647Y-114313266D01*
X131644731Y-114474418D01*
X131785582Y-114615269D01*
X131946734Y-114732353D01*
X132124217Y-114822785D01*
X132124219Y-114822786D01*
X132313657Y-114884338D01*
X132313658Y-114884338D01*
X132313661Y-114884339D01*
X132510403Y-114915500D01*
X132510404Y-114915500D01*
X132709596Y-114915500D01*
X132709597Y-114915500D01*
X132906339Y-114884339D01*
X132906342Y-114884338D01*
X132906343Y-114884338D01*
X133095780Y-114822786D01*
X133095780Y-114822785D01*
X133095783Y-114822785D01*
X133273266Y-114732353D01*
X133434418Y-114615269D01*
X133575269Y-114474418D01*
X133692353Y-114313266D01*
X133782785Y-114135783D01*
X133790827Y-114111031D01*
X133844338Y-113946343D01*
X133844338Y-113946342D01*
X133844339Y-113946339D01*
X133875500Y-113749597D01*
X133875500Y-113550403D01*
X133862027Y-113465338D01*
X133860500Y-113445940D01*
X133860500Y-105879500D01*
X133880185Y-105812461D01*
X133932989Y-105766706D01*
X133984500Y-105755500D01*
X135327319Y-105755500D01*
X135394358Y-105775185D01*
X135440113Y-105827989D01*
X135450057Y-105897147D01*
X135421032Y-105960703D01*
X135392416Y-105985039D01*
X135356342Y-106007289D01*
X135232289Y-106131342D01*
X135140187Y-106280663D01*
X135140185Y-106280668D01*
X135132061Y-106305185D01*
X135085001Y-106447203D01*
X135085001Y-106447204D01*
X135085000Y-106447204D01*
X135074500Y-106549983D01*
X135074500Y-107150001D01*
X135074501Y-107150019D01*
X135085000Y-107252796D01*
X135085001Y-107252799D01*
X135140185Y-107419331D01*
X135140187Y-107419336D01*
X135175069Y-107475888D01*
X135232288Y-107568656D01*
X135356344Y-107692712D01*
X135505666Y-107784814D01*
X135672203Y-107839999D01*
X135774991Y-107850500D01*
X136825008Y-107850499D01*
X136825016Y-107850498D01*
X136825019Y-107850498D01*
X136900504Y-107842787D01*
X136927797Y-107839999D01*
X137094334Y-107784814D01*
X137243656Y-107692712D01*
X137340070Y-107596297D01*
X137401389Y-107562815D01*
X137471081Y-107567799D01*
X137503235Y-107585605D01*
X137509546Y-107590448D01*
X137509549Y-107590451D01*
X137629767Y-107682698D01*
X137769764Y-107740687D01*
X137882280Y-107755500D01*
X137882287Y-107755500D01*
X139777713Y-107755500D01*
X139777720Y-107755500D01*
X139890236Y-107740687D01*
X140030233Y-107682698D01*
X140150451Y-107590451D01*
X140242698Y-107470233D01*
X140300687Y-107330236D01*
X140315500Y-107217720D01*
X140315500Y-106692280D01*
X140300687Y-106579764D01*
X140242698Y-106439767D01*
X140208720Y-106395486D01*
X140183526Y-106330317D01*
X140197564Y-106261872D01*
X140208720Y-106244514D01*
X140219348Y-106230663D01*
X140242698Y-106200233D01*
X140300687Y-106060236D01*
X140315500Y-105947720D01*
X140315500Y-105495976D01*
X140335185Y-105428937D01*
X140372458Y-105391662D01*
X140458043Y-105336660D01*
X140510847Y-105290905D01*
X140605067Y-105182171D01*
X140664838Y-105051294D01*
X140684523Y-104984255D01*
X140684524Y-104984251D01*
X140705000Y-104841835D01*
X140705000Y-104783153D01*
X140707382Y-104758965D01*
X140713955Y-104725919D01*
X140721007Y-104702671D01*
X140733901Y-104671540D01*
X140745352Y-104650117D01*
X140764081Y-104622088D01*
X140779488Y-104603316D01*
X140821121Y-104561685D01*
X140857288Y-104521421D01*
X140873922Y-104500779D01*
X140905567Y-104456895D01*
X140965338Y-104326018D01*
X140985023Y-104258979D01*
X140985024Y-104258975D01*
X141005500Y-104116559D01*
X141005500Y-104051362D01*
X141002603Y-103997322D01*
X140999769Y-103970964D01*
X140991114Y-103917552D01*
X140940832Y-103782743D01*
X140907347Y-103721420D01*
X140821123Y-103606239D01*
X140658344Y-103443460D01*
X140603840Y-103396231D01*
X140575586Y-103375080D01*
X140575581Y-103375076D01*
X140572398Y-103373027D01*
X140572425Y-103372993D01*
X140571626Y-103372403D01*
X140562506Y-103366660D01*
X140515580Y-103336452D01*
X140515425Y-103336352D01*
X140510845Y-103333768D01*
X140508309Y-103332532D01*
X140430556Y-103304580D01*
X140428995Y-103304008D01*
X140395989Y-103291640D01*
X140340120Y-103249683D01*
X140315803Y-103184181D01*
X140315500Y-103175524D01*
X140315500Y-102882286D01*
X140315499Y-102882272D01*
X140311334Y-102850635D01*
X140300687Y-102769764D01*
X140242698Y-102629767D01*
X140150451Y-102509549D01*
X140030233Y-102417302D01*
X140030229Y-102417300D01*
X139963150Y-102389515D01*
X139890236Y-102359313D01*
X139876171Y-102357461D01*
X139777727Y-102344500D01*
X139777720Y-102344500D01*
X139726495Y-102344500D01*
X139659456Y-102324815D01*
X139613701Y-102272011D01*
X139603757Y-102202853D01*
X139611934Y-102173048D01*
X139669735Y-102033501D01*
X139669737Y-102033497D01*
X139700500Y-101878842D01*
X139700500Y-101721158D01*
X139700500Y-101721155D01*
X139700499Y-101721153D01*
X139692093Y-101678892D01*
X139669737Y-101566503D01*
X139656548Y-101534662D01*
X139609397Y-101420827D01*
X139609390Y-101420814D01*
X139521789Y-101289711D01*
X139521786Y-101289707D01*
X139410292Y-101178213D01*
X139410288Y-101178210D01*
X139279185Y-101090609D01*
X139279172Y-101090602D01*
X139133501Y-101030264D01*
X139133489Y-101030261D01*
X138978845Y-100999500D01*
X138978842Y-100999500D01*
X138821158Y-100999500D01*
X138821155Y-100999500D01*
X138666510Y-101030261D01*
X138666498Y-101030264D01*
X138520827Y-101090602D01*
X138520814Y-101090609D01*
X138389711Y-101178210D01*
X138389707Y-101178213D01*
X138278213Y-101289707D01*
X138278210Y-101289711D01*
X138190609Y-101420814D01*
X138190602Y-101420827D01*
X138130264Y-101566498D01*
X138130261Y-101566510D01*
X138099500Y-101721153D01*
X138099500Y-101878846D01*
X138130261Y-102033489D01*
X138130264Y-102033501D01*
X138188066Y-102173048D01*
X138195535Y-102242517D01*
X138164260Y-102304996D01*
X138104171Y-102340648D01*
X138073505Y-102344500D01*
X137882272Y-102344500D01*
X137769764Y-102359313D01*
X137769763Y-102359313D01*
X137629770Y-102417300D01*
X137629767Y-102417301D01*
X137629767Y-102417302D01*
X137509549Y-102509549D01*
X137468911Y-102562510D01*
X137417300Y-102629770D01*
X137359313Y-102769763D01*
X137359313Y-102769764D01*
X137343970Y-102886305D01*
X137342580Y-102886122D01*
X137320553Y-102946186D01*
X137264850Y-102988364D01*
X137203243Y-102995161D01*
X137198650Y-102994501D01*
X137198640Y-102994500D01*
X137198638Y-102994500D01*
X133368519Y-102994500D01*
X133368510Y-102994500D01*
X133288005Y-103000954D01*
X133287992Y-103000955D01*
X133287989Y-103000956D01*
X133287980Y-103000957D01*
X133287976Y-103000958D01*
X133248990Y-103007249D01*
X133248987Y-103007249D01*
X133248985Y-103007250D01*
X133170511Y-103026452D01*
X133170507Y-103026453D01*
X133170500Y-103026455D01*
X133134236Y-103038471D01*
X133107892Y-103044116D01*
X133105592Y-103044352D01*
X133092935Y-103045000D01*
X132107064Y-103045000D01*
X132094465Y-103044358D01*
X132092164Y-103044123D01*
X132065763Y-103038472D01*
X132029489Y-103026452D01*
X131951015Y-103007250D01*
X131912011Y-103000956D01*
X131912005Y-103000955D01*
X131911994Y-103000954D01*
X131831490Y-102994500D01*
X131831481Y-102994500D01*
X120510746Y-102994500D01*
X120443707Y-102974815D01*
X120423065Y-102958181D01*
X119143776Y-101678892D01*
X119143770Y-101678886D01*
X119143761Y-101678877D01*
X119143737Y-101678855D01*
X119103519Y-101642728D01*
X119103507Y-101642718D01*
X119082856Y-101626076D01*
X119038974Y-101594433D01*
X118908100Y-101534663D01*
X118841055Y-101514976D01*
X118793582Y-101508150D01*
X118698638Y-101494500D01*
X115301362Y-101494500D01*
X115301360Y-101494500D01*
X115247311Y-101497397D01*
X115247310Y-101497397D01*
X115220977Y-101500229D01*
X115220950Y-101500232D01*
X115167554Y-101508885D01*
X115167552Y-101508885D01*
X115032747Y-101559166D01*
X114971422Y-101592651D01*
X114856240Y-101678876D01*
X114856228Y-101678886D01*
X114428892Y-102106223D01*
X114428855Y-102106262D01*
X114392728Y-102146480D01*
X114392718Y-102146492D01*
X114376076Y-102167143D01*
X114344433Y-102211025D01*
X114284663Y-102341899D01*
X114264976Y-102408944D01*
X114244500Y-102551363D01*
X87500500Y-102551363D01*
X87500500Y-92081902D01*
X93699500Y-92081902D01*
X93699500Y-92318097D01*
X93736446Y-92551368D01*
X93809433Y-92775996D01*
X93899555Y-92952868D01*
X93916657Y-92986433D01*
X94055483Y-93177510D01*
X94222490Y-93344517D01*
X94413567Y-93483343D01*
X94512991Y-93534002D01*
X94624003Y-93590566D01*
X94624005Y-93590566D01*
X94624008Y-93590568D01*
X94716292Y-93620553D01*
X94848631Y-93663553D01*
X95081903Y-93700500D01*
X95081908Y-93700500D01*
X95318097Y-93700500D01*
X95424126Y-93683705D01*
X95551368Y-93663553D01*
X95677566Y-93622547D01*
X95747404Y-93620553D01*
X95803563Y-93652798D01*
X96715139Y-94564374D01*
X96715149Y-94564385D01*
X96719479Y-94568715D01*
X96719480Y-94568716D01*
X96831284Y-94680520D01*
X96900532Y-94720500D01*
X96968215Y-94759577D01*
X97120943Y-94800500D01*
X97279057Y-94800500D01*
X101913331Y-94800500D01*
X101913347Y-94800501D01*
X101920943Y-94800501D01*
X102079054Y-94800501D01*
X102079057Y-94800501D01*
X102231785Y-94759577D01*
X102299468Y-94720500D01*
X102368716Y-94680520D01*
X102480520Y-94568716D01*
X102480520Y-94568714D01*
X102490724Y-94558511D01*
X102490728Y-94558506D01*
X102888506Y-94160728D01*
X102888511Y-94160724D01*
X102898714Y-94150520D01*
X102898716Y-94150520D01*
X103010520Y-94038716D01*
X103077019Y-93923535D01*
X103089577Y-93901785D01*
X103130500Y-93749057D01*
X103130500Y-93590943D01*
X103130500Y-93389499D01*
X103150185Y-93322460D01*
X103202989Y-93276705D01*
X103254500Y-93265499D01*
X103342871Y-93265499D01*
X103342872Y-93265499D01*
X103402483Y-93259091D01*
X103537331Y-93208796D01*
X103652546Y-93122546D01*
X103738796Y-93007331D01*
X103789091Y-92872483D01*
X103795500Y-92812873D01*
X103795499Y-92780430D01*
X103815182Y-92713394D01*
X103867984Y-92667638D01*
X103937143Y-92657693D01*
X104000699Y-92686716D01*
X104019817Y-92707545D01*
X104024067Y-92713394D01*
X104104731Y-92824418D01*
X104245582Y-92965269D01*
X104406734Y-93082353D01*
X104584217Y-93172785D01*
X104584219Y-93172786D01*
X104773657Y-93234338D01*
X104773658Y-93234338D01*
X104773661Y-93234339D01*
X104970403Y-93265500D01*
X104970404Y-93265500D01*
X105169596Y-93265500D01*
X105169597Y-93265500D01*
X105366339Y-93234339D01*
X105366342Y-93234338D01*
X105366343Y-93234338D01*
X105555780Y-93172786D01*
X105555780Y-93172785D01*
X105555783Y-93172785D01*
X105733266Y-93082353D01*
X105894418Y-92965269D01*
X106035269Y-92824418D01*
X106152353Y-92663266D01*
X106229515Y-92511827D01*
X106277490Y-92461031D01*
X106345311Y-92444236D01*
X106411446Y-92466773D01*
X106450485Y-92511827D01*
X106527647Y-92663266D01*
X106644731Y-92824418D01*
X106785582Y-92965269D01*
X106946734Y-93082353D01*
X107124217Y-93172785D01*
X107124219Y-93172786D01*
X107313657Y-93234338D01*
X107313658Y-93234338D01*
X107313661Y-93234339D01*
X107510403Y-93265500D01*
X107510404Y-93265500D01*
X107709596Y-93265500D01*
X107709597Y-93265500D01*
X107906339Y-93234339D01*
X107906342Y-93234338D01*
X107906343Y-93234338D01*
X108095780Y-93172786D01*
X108095780Y-93172785D01*
X108095783Y-93172785D01*
X108273266Y-93082353D01*
X108434418Y-92965269D01*
X108575269Y-92824418D01*
X108692353Y-92663266D01*
X108769515Y-92511827D01*
X108817490Y-92461031D01*
X108885311Y-92444236D01*
X108951446Y-92466773D01*
X108990485Y-92511827D01*
X109067647Y-92663266D01*
X109184731Y-92824418D01*
X109325582Y-92965269D01*
X109486734Y-93082353D01*
X109664217Y-93172785D01*
X109664219Y-93172786D01*
X109853657Y-93234338D01*
X109853658Y-93234338D01*
X109853661Y-93234339D01*
X110050403Y-93265500D01*
X110050404Y-93265500D01*
X110249596Y-93265500D01*
X110249597Y-93265500D01*
X110446339Y-93234339D01*
X110446342Y-93234338D01*
X110446343Y-93234338D01*
X110635780Y-93172786D01*
X110635780Y-93172785D01*
X110635783Y-93172785D01*
X110813266Y-93082353D01*
X110974418Y-92965269D01*
X111115269Y-92824418D01*
X111232353Y-92663266D01*
X111309515Y-92511827D01*
X111357490Y-92461031D01*
X111425311Y-92444236D01*
X111491446Y-92466773D01*
X111530485Y-92511827D01*
X111607647Y-92663266D01*
X111724731Y-92824418D01*
X111865582Y-92965269D01*
X112026734Y-93082353D01*
X112204217Y-93172785D01*
X112204219Y-93172786D01*
X112393657Y-93234338D01*
X112393658Y-93234338D01*
X112393661Y-93234339D01*
X112590403Y-93265500D01*
X112590404Y-93265500D01*
X112789596Y-93265500D01*
X112789597Y-93265500D01*
X112986339Y-93234339D01*
X112986342Y-93234338D01*
X112986343Y-93234338D01*
X113175780Y-93172786D01*
X113175780Y-93172785D01*
X113175783Y-93172785D01*
X113353266Y-93082353D01*
X113514418Y-92965269D01*
X113655269Y-92824418D01*
X113772353Y-92663266D01*
X113849515Y-92511827D01*
X113897490Y-92461031D01*
X113965311Y-92444236D01*
X114031446Y-92466773D01*
X114070485Y-92511827D01*
X114147647Y-92663266D01*
X114264731Y-92824418D01*
X114405582Y-92965269D01*
X114566734Y-93082353D01*
X114744217Y-93172785D01*
X114744219Y-93172786D01*
X114933657Y-93234338D01*
X114933658Y-93234338D01*
X114933661Y-93234339D01*
X115130403Y-93265500D01*
X115130404Y-93265500D01*
X115329596Y-93265500D01*
X115329597Y-93265500D01*
X115526339Y-93234339D01*
X115526342Y-93234338D01*
X115526343Y-93234338D01*
X115715780Y-93172786D01*
X115715780Y-93172785D01*
X115715783Y-93172785D01*
X115893266Y-93082353D01*
X116054418Y-92965269D01*
X116195269Y-92824418D01*
X116312353Y-92663266D01*
X116389515Y-92511827D01*
X116437490Y-92461031D01*
X116505311Y-92444236D01*
X116571446Y-92466773D01*
X116610485Y-92511827D01*
X116687647Y-92663266D01*
X116804731Y-92824418D01*
X116945582Y-92965269D01*
X117106734Y-93082353D01*
X117284217Y-93172785D01*
X117284219Y-93172786D01*
X117473657Y-93234338D01*
X117473658Y-93234338D01*
X117473661Y-93234339D01*
X117670403Y-93265500D01*
X117670404Y-93265500D01*
X117869596Y-93265500D01*
X117869597Y-93265500D01*
X118066339Y-93234339D01*
X118066342Y-93234338D01*
X118066343Y-93234338D01*
X118255780Y-93172786D01*
X118255780Y-93172785D01*
X118255783Y-93172785D01*
X118433266Y-93082353D01*
X118594418Y-92965269D01*
X118735269Y-92824418D01*
X118852353Y-92663266D01*
X118929515Y-92511827D01*
X118977490Y-92461031D01*
X119045311Y-92444236D01*
X119111446Y-92466773D01*
X119150485Y-92511827D01*
X119227647Y-92663266D01*
X119344731Y-92824418D01*
X119485582Y-92965269D01*
X119646734Y-93082353D01*
X119824217Y-93172785D01*
X119824219Y-93172786D01*
X120013657Y-93234338D01*
X120013658Y-93234338D01*
X120013661Y-93234339D01*
X120210403Y-93265500D01*
X120210404Y-93265500D01*
X120409596Y-93265500D01*
X120409597Y-93265500D01*
X120606339Y-93234339D01*
X120606342Y-93234338D01*
X120606343Y-93234338D01*
X120795780Y-93172786D01*
X120795780Y-93172785D01*
X120795783Y-93172785D01*
X120973266Y-93082353D01*
X121134418Y-92965269D01*
X121275269Y-92824418D01*
X121392353Y-92663266D01*
X121469515Y-92511827D01*
X121517490Y-92461031D01*
X121585311Y-92444236D01*
X121651446Y-92466773D01*
X121690485Y-92511827D01*
X121767647Y-92663266D01*
X121884731Y-92824418D01*
X122025582Y-92965269D01*
X122186734Y-93082353D01*
X122364217Y-93172785D01*
X122364219Y-93172786D01*
X122553657Y-93234338D01*
X122553658Y-93234338D01*
X122553661Y-93234339D01*
X122750403Y-93265500D01*
X122750404Y-93265500D01*
X122949596Y-93265500D01*
X122949597Y-93265500D01*
X123146339Y-93234339D01*
X123146342Y-93234338D01*
X123146343Y-93234338D01*
X123335780Y-93172786D01*
X123335780Y-93172785D01*
X123335783Y-93172785D01*
X123513266Y-93082353D01*
X123674418Y-92965269D01*
X123815269Y-92824418D01*
X123932353Y-92663266D01*
X124009515Y-92511827D01*
X124057490Y-92461031D01*
X124125311Y-92444236D01*
X124191446Y-92466773D01*
X124230485Y-92511827D01*
X124307647Y-92663266D01*
X124424731Y-92824418D01*
X124565582Y-92965269D01*
X124726734Y-93082353D01*
X124904217Y-93172785D01*
X124904219Y-93172786D01*
X125093657Y-93234338D01*
X125093658Y-93234338D01*
X125093661Y-93234339D01*
X125290403Y-93265500D01*
X125290404Y-93265500D01*
X125489596Y-93265500D01*
X125489597Y-93265500D01*
X125686339Y-93234339D01*
X125686342Y-93234338D01*
X125686343Y-93234338D01*
X125875780Y-93172786D01*
X125875780Y-93172785D01*
X125875783Y-93172785D01*
X126053266Y-93082353D01*
X126214418Y-92965269D01*
X126355269Y-92824418D01*
X126472353Y-92663266D01*
X126549515Y-92511827D01*
X126597490Y-92461031D01*
X126665311Y-92444236D01*
X126731446Y-92466773D01*
X126770485Y-92511827D01*
X126847647Y-92663266D01*
X126964731Y-92824418D01*
X127105582Y-92965269D01*
X127266734Y-93082353D01*
X127444217Y-93172785D01*
X127444219Y-93172786D01*
X127633657Y-93234338D01*
X127633658Y-93234338D01*
X127633661Y-93234339D01*
X127830403Y-93265500D01*
X127830404Y-93265500D01*
X128029596Y-93265500D01*
X128029597Y-93265500D01*
X128226339Y-93234339D01*
X128226342Y-93234338D01*
X128226343Y-93234338D01*
X128415780Y-93172786D01*
X128415780Y-93172785D01*
X128415783Y-93172785D01*
X128593266Y-93082353D01*
X128754418Y-92965269D01*
X128895269Y-92824418D01*
X129012353Y-92663266D01*
X129089515Y-92511827D01*
X129137490Y-92461031D01*
X129205311Y-92444236D01*
X129271446Y-92466773D01*
X129310485Y-92511827D01*
X129387647Y-92663266D01*
X129504731Y-92824418D01*
X129645582Y-92965269D01*
X129806734Y-93082353D01*
X129806744Y-93082358D01*
X129810273Y-93084520D01*
X129857157Y-93136325D01*
X129869500Y-93190258D01*
X129869500Y-95700234D01*
X129849815Y-95767273D01*
X129848602Y-95769125D01*
X129760609Y-95900814D01*
X129760602Y-95900827D01*
X129700264Y-96046498D01*
X129700261Y-96046510D01*
X129669500Y-96201153D01*
X129669500Y-96358846D01*
X129700261Y-96513489D01*
X129700264Y-96513501D01*
X129760602Y-96659172D01*
X129760609Y-96659185D01*
X129848210Y-96790288D01*
X129848213Y-96790292D01*
X129959707Y-96901786D01*
X129959711Y-96901789D01*
X130090814Y-96989390D01*
X130090827Y-96989397D01*
X130236498Y-97049735D01*
X130236503Y-97049737D01*
X130391153Y-97080499D01*
X130391156Y-97080500D01*
X130391158Y-97080500D01*
X130548844Y-97080500D01*
X130548845Y-97080499D01*
X130703497Y-97049737D01*
X130849179Y-96989394D01*
X130980289Y-96901789D01*
X131091789Y-96790289D01*
X131179394Y-96659179D01*
X131239737Y-96513497D01*
X131270500Y-96358842D01*
X131270500Y-96201158D01*
X131270500Y-96201155D01*
X131270499Y-96201153D01*
X131256398Y-96130263D01*
X131239737Y-96046503D01*
X131228650Y-96019737D01*
X131179397Y-95900827D01*
X131179390Y-95900814D01*
X131091398Y-95769125D01*
X131070520Y-95702447D01*
X131070500Y-95700234D01*
X131070500Y-93190258D01*
X131090185Y-93123219D01*
X131129727Y-93084520D01*
X131133249Y-93082361D01*
X131133266Y-93082353D01*
X131294418Y-92965269D01*
X131435269Y-92824418D01*
X131552353Y-92663266D01*
X131629515Y-92511827D01*
X131677490Y-92461031D01*
X131745311Y-92444236D01*
X131811446Y-92466773D01*
X131850485Y-92511827D01*
X131927647Y-92663266D01*
X132044731Y-92824418D01*
X132185582Y-92965269D01*
X132346734Y-93082353D01*
X132524217Y-93172785D01*
X132524219Y-93172786D01*
X132713657Y-93234338D01*
X132713658Y-93234338D01*
X132713661Y-93234339D01*
X132910403Y-93265500D01*
X132910404Y-93265500D01*
X133109596Y-93265500D01*
X133109597Y-93265500D01*
X133306339Y-93234339D01*
X133306342Y-93234338D01*
X133306343Y-93234338D01*
X133495780Y-93172786D01*
X133495780Y-93172785D01*
X133495783Y-93172785D01*
X133673266Y-93082353D01*
X133834418Y-92965269D01*
X133975269Y-92824418D01*
X134092353Y-92663266D01*
X134169515Y-92511827D01*
X134217490Y-92461031D01*
X134285311Y-92444236D01*
X134351446Y-92466773D01*
X134390485Y-92511827D01*
X134467647Y-92663266D01*
X134584731Y-92824418D01*
X134725582Y-92965269D01*
X134886734Y-93082353D01*
X135064217Y-93172785D01*
X135064219Y-93172786D01*
X135253657Y-93234338D01*
X135253658Y-93234338D01*
X135253661Y-93234339D01*
X135450403Y-93265500D01*
X135450404Y-93265500D01*
X135649596Y-93265500D01*
X135649597Y-93265500D01*
X135846339Y-93234339D01*
X135846342Y-93234338D01*
X135846343Y-93234338D01*
X136035780Y-93172786D01*
X136035780Y-93172785D01*
X136035783Y-93172785D01*
X136213266Y-93082353D01*
X136374418Y-92965269D01*
X136515269Y-92824418D01*
X136632353Y-92663266D01*
X136709515Y-92511827D01*
X136757490Y-92461031D01*
X136825311Y-92444236D01*
X136891446Y-92466773D01*
X136930485Y-92511827D01*
X137007647Y-92663266D01*
X137124731Y-92824418D01*
X137265582Y-92965269D01*
X137426734Y-93082353D01*
X137604217Y-93172785D01*
X137604219Y-93172786D01*
X137793657Y-93234338D01*
X137793658Y-93234338D01*
X137793661Y-93234339D01*
X137990403Y-93265500D01*
X137990404Y-93265500D01*
X138189596Y-93265500D01*
X138189597Y-93265500D01*
X138386339Y-93234339D01*
X138386342Y-93234338D01*
X138386343Y-93234338D01*
X138575780Y-93172786D01*
X138575780Y-93172785D01*
X138575783Y-93172785D01*
X138753266Y-93082353D01*
X138914418Y-92965269D01*
X139055269Y-92824418D01*
X139172353Y-92663266D01*
X139249515Y-92511827D01*
X139297490Y-92461031D01*
X139365311Y-92444236D01*
X139431446Y-92466773D01*
X139470485Y-92511827D01*
X139547647Y-92663266D01*
X139664731Y-92824418D01*
X139805582Y-92965269D01*
X139966734Y-93082353D01*
X139966744Y-93082358D01*
X139970273Y-93084520D01*
X140017157Y-93136325D01*
X140029500Y-93190258D01*
X140029500Y-93819903D01*
X140009815Y-93886942D01*
X139993181Y-93907584D01*
X139287584Y-94613181D01*
X139226261Y-94646666D01*
X139199903Y-94649500D01*
X136079766Y-94649500D01*
X136012727Y-94629815D01*
X136010875Y-94628602D01*
X135879185Y-94540609D01*
X135879172Y-94540602D01*
X135733501Y-94480264D01*
X135733489Y-94480261D01*
X135578845Y-94449500D01*
X135578842Y-94449500D01*
X135421158Y-94449500D01*
X135421155Y-94449500D01*
X135266510Y-94480261D01*
X135266498Y-94480264D01*
X135120827Y-94540602D01*
X135120814Y-94540609D01*
X134989711Y-94628210D01*
X134989707Y-94628213D01*
X134878213Y-94739707D01*
X134878210Y-94739711D01*
X134790609Y-94870814D01*
X134790602Y-94870827D01*
X134730264Y-95016498D01*
X134730261Y-95016510D01*
X134699500Y-95171153D01*
X134699500Y-95328846D01*
X134730261Y-95483489D01*
X134730264Y-95483501D01*
X134790602Y-95629172D01*
X134790609Y-95629185D01*
X134878210Y-95760288D01*
X134878213Y-95760292D01*
X134989707Y-95871786D01*
X134989711Y-95871789D01*
X135120814Y-95959390D01*
X135120827Y-95959397D01*
X135266498Y-96019735D01*
X135266503Y-96019737D01*
X135401039Y-96046498D01*
X135421153Y-96050499D01*
X135421156Y-96050500D01*
X135421158Y-96050500D01*
X135578844Y-96050500D01*
X135578845Y-96050499D01*
X135733497Y-96019737D01*
X135879179Y-95959394D01*
X135934413Y-95922488D01*
X136010875Y-95871398D01*
X136077553Y-95850520D01*
X136079766Y-95850500D01*
X139413331Y-95850500D01*
X139413347Y-95850501D01*
X139420943Y-95850501D01*
X139579054Y-95850501D01*
X139579057Y-95850501D01*
X139731785Y-95809577D01*
X139792152Y-95774724D01*
X139868716Y-95730520D01*
X139980520Y-95618716D01*
X139980520Y-95618714D01*
X139990724Y-95608511D01*
X139990728Y-95608506D01*
X140988506Y-94610728D01*
X140988511Y-94610724D01*
X140998714Y-94600520D01*
X140998716Y-94600520D01*
X141110520Y-94488716D01*
X141189577Y-94351784D01*
X141230500Y-94199057D01*
X141230500Y-93190258D01*
X141250185Y-93123219D01*
X141289727Y-93084520D01*
X141293249Y-93082361D01*
X141293266Y-93082353D01*
X141454418Y-92965269D01*
X141595269Y-92824418D01*
X141712353Y-92663266D01*
X141789515Y-92511827D01*
X141837490Y-92461031D01*
X141905311Y-92444236D01*
X141971446Y-92466773D01*
X142010485Y-92511827D01*
X142087647Y-92663266D01*
X142204731Y-92824418D01*
X142345582Y-92965269D01*
X142506734Y-93082353D01*
X142684217Y-93172785D01*
X142684219Y-93172786D01*
X142873657Y-93234338D01*
X142873658Y-93234338D01*
X142873661Y-93234339D01*
X143070403Y-93265500D01*
X143070404Y-93265500D01*
X143269596Y-93265500D01*
X143269597Y-93265500D01*
X143466339Y-93234339D01*
X143466342Y-93234338D01*
X143466343Y-93234338D01*
X143655780Y-93172786D01*
X143655780Y-93172785D01*
X143655783Y-93172785D01*
X143833266Y-93082353D01*
X143994418Y-92965269D01*
X144135269Y-92824418D01*
X144252353Y-92663266D01*
X144329515Y-92511827D01*
X144377490Y-92461031D01*
X144445311Y-92444236D01*
X144511446Y-92466773D01*
X144550485Y-92511827D01*
X144627647Y-92663266D01*
X144744731Y-92824418D01*
X144885582Y-92965269D01*
X145046734Y-93082353D01*
X145224217Y-93172785D01*
X145224219Y-93172786D01*
X145413657Y-93234338D01*
X145413658Y-93234338D01*
X145413661Y-93234339D01*
X145610403Y-93265500D01*
X145610404Y-93265500D01*
X145809596Y-93265500D01*
X145809597Y-93265500D01*
X146006339Y-93234339D01*
X146006342Y-93234338D01*
X146006343Y-93234338D01*
X146195780Y-93172786D01*
X146195780Y-93172785D01*
X146195783Y-93172785D01*
X146373266Y-93082353D01*
X146534418Y-92965269D01*
X146675269Y-92824418D01*
X146792353Y-92663266D01*
X146869515Y-92511827D01*
X146917490Y-92461031D01*
X146985311Y-92444236D01*
X147051446Y-92466773D01*
X147090485Y-92511827D01*
X147167647Y-92663266D01*
X147284731Y-92824418D01*
X147425582Y-92965269D01*
X147586734Y-93082353D01*
X147764217Y-93172785D01*
X147764219Y-93172786D01*
X147953657Y-93234338D01*
X147953658Y-93234338D01*
X147953661Y-93234339D01*
X148150403Y-93265500D01*
X148150404Y-93265500D01*
X148349596Y-93265500D01*
X148349597Y-93265500D01*
X148546339Y-93234339D01*
X148546342Y-93234338D01*
X148546343Y-93234338D01*
X148735780Y-93172786D01*
X148735780Y-93172785D01*
X148735783Y-93172785D01*
X148913266Y-93082353D01*
X149074418Y-92965269D01*
X149215269Y-92824418D01*
X149332353Y-92663266D01*
X149409515Y-92511827D01*
X149457490Y-92461031D01*
X149525311Y-92444236D01*
X149591446Y-92466773D01*
X149630485Y-92511827D01*
X149707647Y-92663266D01*
X149824731Y-92824418D01*
X149965582Y-92965269D01*
X150126734Y-93082353D01*
X150304217Y-93172785D01*
X150304219Y-93172786D01*
X150493657Y-93234338D01*
X150493658Y-93234338D01*
X150493661Y-93234339D01*
X150690403Y-93265500D01*
X150690404Y-93265500D01*
X150889596Y-93265500D01*
X150889597Y-93265500D01*
X151086339Y-93234339D01*
X151086342Y-93234338D01*
X151086343Y-93234338D01*
X151275780Y-93172786D01*
X151275780Y-93172785D01*
X151275783Y-93172785D01*
X151453266Y-93082353D01*
X151614418Y-92965269D01*
X151755269Y-92824418D01*
X151872353Y-92663266D01*
X151949515Y-92511827D01*
X151997490Y-92461031D01*
X152065311Y-92444236D01*
X152131446Y-92466773D01*
X152170485Y-92511827D01*
X152247647Y-92663266D01*
X152364731Y-92824418D01*
X152364733Y-92824420D01*
X152493181Y-92952868D01*
X152526666Y-93014191D01*
X152529500Y-93040549D01*
X152529500Y-95108846D01*
X152560261Y-95263489D01*
X152560264Y-95263501D01*
X152620602Y-95409172D01*
X152620609Y-95409185D01*
X152708210Y-95540288D01*
X152708213Y-95540292D01*
X154363181Y-97195259D01*
X154396666Y-97256582D01*
X154399500Y-97282940D01*
X154399500Y-98170500D01*
X154379815Y-98237539D01*
X154327011Y-98283294D01*
X154275500Y-98294500D01*
X152551360Y-98294500D01*
X152497311Y-98297397D01*
X152497310Y-98297397D01*
X152470977Y-98300229D01*
X152470950Y-98300232D01*
X152417554Y-98308885D01*
X152417552Y-98308885D01*
X152282747Y-98359166D01*
X152282744Y-98359167D01*
X152282743Y-98359168D01*
X152272404Y-98364813D01*
X152221422Y-98392651D01*
X152106240Y-98478876D01*
X152106228Y-98478886D01*
X151762879Y-98822235D01*
X151701556Y-98855720D01*
X151631864Y-98850736D01*
X151611017Y-98840652D01*
X151608075Y-98838872D01*
X151608071Y-98838870D01*
X151608068Y-98838868D01*
X151452248Y-98760958D01*
X151342323Y-98721114D01*
X151286872Y-98708023D01*
X151170730Y-98694500D01*
X151170728Y-98694500D01*
X149651362Y-98694500D01*
X149651360Y-98694500D01*
X149597311Y-98697397D01*
X149597310Y-98697397D01*
X149570977Y-98700229D01*
X149570950Y-98700232D01*
X149517554Y-98708885D01*
X149517552Y-98708885D01*
X149382747Y-98759166D01*
X149382744Y-98759167D01*
X149382743Y-98759168D01*
X149379465Y-98760958D01*
X149321422Y-98792651D01*
X149206240Y-98878876D01*
X149206236Y-98878879D01*
X149166586Y-98918530D01*
X149126933Y-98958182D01*
X149065613Y-98991666D01*
X149039254Y-98994500D01*
X145337836Y-98994500D01*
X145270797Y-98974815D01*
X145225042Y-98922011D01*
X145214478Y-98857897D01*
X145216422Y-98838868D01*
X145225500Y-98750009D01*
X145225499Y-98149992D01*
X145222518Y-98120814D01*
X145214999Y-98047203D01*
X145214998Y-98047200D01*
X145214108Y-98044514D01*
X145159814Y-97880666D01*
X145067712Y-97731344D01*
X144943656Y-97607288D01*
X144794334Y-97515186D01*
X144627797Y-97460001D01*
X144627795Y-97460000D01*
X144525010Y-97449500D01*
X143474998Y-97449500D01*
X143474980Y-97449501D01*
X143372203Y-97460000D01*
X143372200Y-97460001D01*
X143205668Y-97515185D01*
X143205663Y-97515187D01*
X143056345Y-97607287D01*
X142933414Y-97730218D01*
X142872091Y-97763702D01*
X142802399Y-97758718D01*
X142798281Y-97757097D01*
X142733501Y-97730264D01*
X142733489Y-97730261D01*
X142578845Y-97699500D01*
X142578842Y-97699500D01*
X142421158Y-97699500D01*
X142421155Y-97699500D01*
X142266510Y-97730261D01*
X142266498Y-97730264D01*
X142120827Y-97790602D01*
X142120814Y-97790609D01*
X141989711Y-97878210D01*
X141989707Y-97878213D01*
X141878213Y-97989707D01*
X141878210Y-97989711D01*
X141790609Y-98120814D01*
X141790602Y-98120827D01*
X141730264Y-98266498D01*
X141730261Y-98266510D01*
X141699500Y-98421153D01*
X141699500Y-98578846D01*
X141730261Y-98733489D01*
X141730264Y-98733501D01*
X141790602Y-98879172D01*
X141790609Y-98879185D01*
X141878210Y-99010288D01*
X141878213Y-99010292D01*
X141988837Y-99120916D01*
X142022322Y-99182239D01*
X142017338Y-99251931D01*
X141988841Y-99296274D01*
X141978894Y-99306221D01*
X141978855Y-99306262D01*
X141942728Y-99346480D01*
X141942718Y-99346492D01*
X141926076Y-99367143D01*
X141894433Y-99411025D01*
X141834663Y-99541899D01*
X141814976Y-99608944D01*
X141794500Y-99751363D01*
X141794500Y-103448640D01*
X141797397Y-103502688D01*
X141797397Y-103502689D01*
X141800229Y-103529022D01*
X141800232Y-103529049D01*
X141808885Y-103582445D01*
X141808885Y-103582447D01*
X141817760Y-103606240D01*
X141859168Y-103717257D01*
X141892653Y-103778580D01*
X141978877Y-103893761D01*
X141978881Y-103893765D01*
X141978886Y-103893771D01*
X142095418Y-104010303D01*
X142101842Y-104016613D01*
X142105131Y-104019787D01*
X142110912Y-104025267D01*
X142110914Y-104025268D01*
X142111550Y-104025871D01*
X142158526Y-104058495D01*
X142155898Y-104062007D01*
X142178191Y-104078695D01*
X142238865Y-104117687D01*
X142279364Y-104132792D01*
X142292253Y-104139244D01*
X142292275Y-104139255D01*
X142292278Y-104139256D01*
X142292277Y-104139256D01*
X142292279Y-104139257D01*
X142331184Y-104152204D01*
X142331185Y-104152204D01*
X142333287Y-104152903D01*
X142373674Y-104167967D01*
X142387751Y-104171029D01*
X142428794Y-104184688D01*
X142507191Y-104187485D01*
X142585482Y-104193081D01*
X142627723Y-104183889D01*
X142641061Y-104182456D01*
X142641924Y-104182371D01*
X142642030Y-104182352D01*
X142642036Y-104182352D01*
X142681793Y-104172203D01*
X142685996Y-104171209D01*
X142726073Y-104162490D01*
X142733320Y-104159786D01*
X142745985Y-104155820D01*
X142781447Y-104146769D01*
X142823284Y-104129438D01*
X142870738Y-104120000D01*
X144669259Y-104120000D01*
X144672373Y-104120509D01*
X144674027Y-104120092D01*
X144686408Y-104122803D01*
X144708743Y-104126454D01*
X144712775Y-104127808D01*
X144784295Y-104157433D01*
X144852864Y-104180244D01*
X144872516Y-104182351D01*
X144894588Y-104188267D01*
X145025453Y-104205500D01*
X145025456Y-104205500D01*
X145044691Y-104205500D01*
X145116633Y-104200355D01*
X145151568Y-104195332D01*
X145222109Y-104179981D01*
X145235018Y-104174083D01*
X145243696Y-104170509D01*
X145247091Y-104169258D01*
X145285591Y-104157581D01*
X145339964Y-104135057D01*
X145342272Y-104134208D01*
X145343983Y-104134092D01*
X145360935Y-104128951D01*
X145393965Y-104122382D01*
X145418152Y-104120000D01*
X145451840Y-104120000D01*
X145476028Y-104122382D01*
X145496502Y-104126454D01*
X145509068Y-104128953D01*
X145532333Y-104136011D01*
X145584399Y-104157578D01*
X145584404Y-104157579D01*
X145584410Y-104157582D01*
X145679237Y-104186348D01*
X145726689Y-104195787D01*
X145825309Y-104205500D01*
X145825311Y-104205500D01*
X151248640Y-104205500D01*
X151258786Y-104204955D01*
X151302678Y-104202603D01*
X151302686Y-104202602D01*
X151302688Y-104202602D01*
X151302689Y-104202602D01*
X151309682Y-104201849D01*
X151329036Y-104199769D01*
X151329046Y-104199767D01*
X151329049Y-104199767D01*
X151338648Y-104198211D01*
X151382448Y-104191114D01*
X151517257Y-104140832D01*
X151578580Y-104107347D01*
X151693761Y-104021123D01*
X151743213Y-103971671D01*
X151765288Y-103945724D01*
X151793590Y-103927172D01*
X151821550Y-103908102D01*
X151822732Y-103908069D01*
X151823722Y-103907421D01*
X151857576Y-103907115D01*
X151891394Y-103906189D01*
X151892827Y-103906796D01*
X151893589Y-103906790D01*
X151923887Y-103919965D01*
X151926353Y-103921457D01*
X151929134Y-103923191D01*
X151971767Y-103950590D01*
X151971770Y-103950591D01*
X151977711Y-103953565D01*
X151977583Y-103953820D01*
X151988869Y-103959280D01*
X151991910Y-103961120D01*
X151991930Y-103961131D01*
X151991932Y-103961132D01*
X152347752Y-104139042D01*
X152457677Y-104178886D01*
X152513131Y-104191977D01*
X152585085Y-104200355D01*
X152629270Y-104205500D01*
X152629272Y-104205500D01*
X154275500Y-104205500D01*
X154342539Y-104225185D01*
X154388294Y-104277989D01*
X154399500Y-104329500D01*
X154399500Y-108417060D01*
X154379815Y-108484099D01*
X154363181Y-108504741D01*
X152254741Y-110613181D01*
X152193418Y-110646666D01*
X152167060Y-110649500D01*
X146882940Y-110649500D01*
X146853499Y-110640855D01*
X146823513Y-110634332D01*
X146818497Y-110630577D01*
X146815901Y-110629815D01*
X146795259Y-110613181D01*
X146668713Y-110486635D01*
X146635228Y-110425312D01*
X146640212Y-110355620D01*
X146650857Y-110333855D01*
X146651726Y-110332447D01*
X146659814Y-110319334D01*
X146714999Y-110152797D01*
X146725500Y-110050009D01*
X146725499Y-109049992D01*
X146723814Y-109033501D01*
X146714999Y-108947203D01*
X146714998Y-108947200D01*
X146701329Y-108905951D01*
X146659814Y-108780666D01*
X146567712Y-108631344D01*
X146443656Y-108507288D01*
X146309483Y-108424530D01*
X146294336Y-108415187D01*
X146294331Y-108415185D01*
X146251840Y-108401105D01*
X146127797Y-108360001D01*
X146127795Y-108360000D01*
X146025010Y-108349500D01*
X145399998Y-108349500D01*
X145399980Y-108349501D01*
X145297203Y-108360000D01*
X145297200Y-108360001D01*
X145130668Y-108415185D01*
X145130663Y-108415187D01*
X144981342Y-108507289D01*
X144887681Y-108600951D01*
X144884902Y-108602468D01*
X144883249Y-108605170D01*
X144854435Y-108619104D01*
X144826358Y-108634436D01*
X144823200Y-108634210D01*
X144820349Y-108635589D01*
X144788580Y-108631734D01*
X144756666Y-108629452D01*
X144753188Y-108627439D01*
X144750988Y-108627173D01*
X144740886Y-108620323D01*
X144720884Y-108608751D01*
X144716420Y-108605052D01*
X144618656Y-108507288D01*
X144539548Y-108458494D01*
X144532884Y-108452972D01*
X144517992Y-108430887D01*
X144500178Y-108411081D01*
X144497911Y-108401105D01*
X144493822Y-108395041D01*
X144493530Y-108381828D01*
X144488000Y-108357491D01*
X144488000Y-107879500D01*
X144507685Y-107812461D01*
X144560489Y-107766706D01*
X144612000Y-107755500D01*
X144717713Y-107755500D01*
X144717720Y-107755500D01*
X144830236Y-107740687D01*
X144970233Y-107682698D01*
X145090451Y-107590451D01*
X145182698Y-107470233D01*
X145240687Y-107330236D01*
X145255500Y-107217720D01*
X145255500Y-106692280D01*
X145240687Y-106579764D01*
X145189817Y-106456953D01*
X145182348Y-106387483D01*
X145213623Y-106325004D01*
X145273712Y-106289352D01*
X145304378Y-106285500D01*
X145984903Y-106285500D01*
X146051942Y-106305185D01*
X146072583Y-106321818D01*
X147081284Y-107330520D01*
X147081287Y-107330522D01*
X147087733Y-107335468D01*
X147086075Y-107337628D01*
X147125078Y-107378532D01*
X147132568Y-107396347D01*
X147140186Y-107419334D01*
X147232288Y-107568656D01*
X147356344Y-107692712D01*
X147505666Y-107784814D01*
X147612056Y-107820068D01*
X147669500Y-107859841D01*
X147696323Y-107924357D01*
X147684008Y-107993133D01*
X147678590Y-108002870D01*
X147615189Y-108105659D01*
X147615186Y-108105666D01*
X147560001Y-108272203D01*
X147560001Y-108272204D01*
X147560000Y-108272204D01*
X147549500Y-108374983D01*
X147549500Y-109425001D01*
X147549501Y-109425019D01*
X147560000Y-109527796D01*
X147560001Y-109527799D01*
X147573073Y-109567246D01*
X147615186Y-109694334D01*
X147707288Y-109843656D01*
X147831344Y-109967712D01*
X147980666Y-110059814D01*
X148147203Y-110114999D01*
X148249991Y-110125500D01*
X148850008Y-110125499D01*
X148850016Y-110125498D01*
X148850019Y-110125498D01*
X148906302Y-110119748D01*
X148952797Y-110114999D01*
X149119334Y-110059814D01*
X149268656Y-109967712D01*
X149392712Y-109843656D01*
X149394461Y-109840819D01*
X149396169Y-109839283D01*
X149397193Y-109837989D01*
X149397414Y-109838163D01*
X149446406Y-109794096D01*
X149515368Y-109782872D01*
X149579451Y-109810713D01*
X149605537Y-109840817D01*
X149607288Y-109843656D01*
X149731344Y-109967712D01*
X149880666Y-110059814D01*
X150047203Y-110114999D01*
X150149991Y-110125500D01*
X150750008Y-110125499D01*
X150750016Y-110125498D01*
X150750019Y-110125498D01*
X150806302Y-110119748D01*
X150852797Y-110114999D01*
X151019334Y-110059814D01*
X151168656Y-109967712D01*
X151292712Y-109843656D01*
X151384814Y-109694334D01*
X151439999Y-109527797D01*
X151450500Y-109425009D01*
X151450499Y-108374992D01*
X151439999Y-108272203D01*
X151384814Y-108105666D01*
X151292712Y-107956344D01*
X151292710Y-107956342D01*
X151288920Y-107950197D01*
X151290997Y-107948915D01*
X151269185Y-107894869D01*
X151282216Y-107826225D01*
X151330290Y-107775524D01*
X151353581Y-107765033D01*
X151369334Y-107759814D01*
X151518656Y-107667712D01*
X151642712Y-107543656D01*
X151734814Y-107394334D01*
X151789999Y-107227797D01*
X151800500Y-107125009D01*
X151800499Y-106499992D01*
X151789999Y-106397203D01*
X151734814Y-106230666D01*
X151642712Y-106081344D01*
X151518656Y-105957288D01*
X151369334Y-105865186D01*
X151202797Y-105810001D01*
X151202795Y-105810000D01*
X151100010Y-105799500D01*
X150099998Y-105799500D01*
X150099980Y-105799501D01*
X149997203Y-105810000D01*
X149997200Y-105810001D01*
X149830668Y-105865185D01*
X149830663Y-105865187D01*
X149681342Y-105957289D01*
X149557288Y-106081343D01*
X149557285Y-106081347D01*
X149548217Y-106096049D01*
X149496268Y-106142773D01*
X149427306Y-106153993D01*
X149363224Y-106126148D01*
X149354999Y-106118631D01*
X149243657Y-106007289D01*
X149243656Y-106007288D01*
X149128142Y-105936039D01*
X149094336Y-105915187D01*
X149094331Y-105915185D01*
X149047724Y-105899741D01*
X148927797Y-105860001D01*
X148927795Y-105860000D01*
X148825010Y-105849500D01*
X147774998Y-105849500D01*
X147774980Y-105849501D01*
X147672203Y-105860000D01*
X147672200Y-105860001D01*
X147505668Y-105915185D01*
X147505658Y-105915190D01*
X147501750Y-105917601D01*
X147434357Y-105936039D01*
X147367695Y-105915114D01*
X147348976Y-105899741D01*
X146772590Y-105323355D01*
X146772588Y-105323352D01*
X146653717Y-105204481D01*
X146653716Y-105204480D01*
X146566904Y-105154360D01*
X146566904Y-105154359D01*
X146566900Y-105154358D01*
X146516785Y-105125423D01*
X146364057Y-105084499D01*
X146205943Y-105084499D01*
X146198347Y-105084499D01*
X146198331Y-105084500D01*
X145176764Y-105084500D01*
X145109725Y-105064815D01*
X145096906Y-105054485D01*
X145096898Y-105054497D01*
X145090452Y-105049551D01*
X145090451Y-105049549D01*
X144970233Y-104957302D01*
X144970229Y-104957300D01*
X144900830Y-104928554D01*
X144830236Y-104899313D01*
X144816171Y-104897461D01*
X144717727Y-104884500D01*
X144717720Y-104884500D01*
X142822280Y-104884500D01*
X142822272Y-104884500D01*
X142709764Y-104899313D01*
X142709763Y-104899313D01*
X142569770Y-104957300D01*
X142569767Y-104957301D01*
X142569767Y-104957302D01*
X142449549Y-105049549D01*
X142369125Y-105154360D01*
X142357300Y-105169770D01*
X142299313Y-105309763D01*
X142299313Y-105309764D01*
X142284500Y-105422272D01*
X142284500Y-105947727D01*
X142299313Y-106060235D01*
X142299313Y-106060236D01*
X142357301Y-106200233D01*
X142391279Y-106244514D01*
X142416473Y-106309684D01*
X142402434Y-106378129D01*
X142391279Y-106395486D01*
X142357301Y-106439766D01*
X142299313Y-106579763D01*
X142299313Y-106579764D01*
X142284500Y-106692272D01*
X142284500Y-107217727D01*
X142299313Y-107330235D01*
X142299313Y-107330236D01*
X142336219Y-107419336D01*
X142357302Y-107470233D01*
X142449549Y-107590451D01*
X142569767Y-107682698D01*
X142709764Y-107740687D01*
X142822280Y-107755500D01*
X143163000Y-107755500D01*
X143230039Y-107775185D01*
X143275794Y-107827989D01*
X143287000Y-107879500D01*
X143287000Y-108357491D01*
X143267315Y-108424530D01*
X143228098Y-108463029D01*
X143156344Y-108507287D01*
X143032289Y-108631342D01*
X142940187Y-108780663D01*
X142940186Y-108780666D01*
X142917706Y-108848507D01*
X142877933Y-108905951D01*
X142813417Y-108932774D01*
X142744641Y-108920459D01*
X142693441Y-108872915D01*
X142682294Y-108848507D01*
X142659814Y-108780666D01*
X142567712Y-108631344D01*
X142443656Y-108507288D01*
X142309483Y-108424530D01*
X142294336Y-108415187D01*
X142294331Y-108415185D01*
X142251840Y-108401105D01*
X142127797Y-108360001D01*
X142127795Y-108360000D01*
X142025010Y-108349500D01*
X141399998Y-108349500D01*
X141399980Y-108349501D01*
X141297203Y-108360000D01*
X141297200Y-108360001D01*
X141130668Y-108415185D01*
X141130663Y-108415187D01*
X140981342Y-108507289D01*
X140857289Y-108631342D01*
X140765187Y-108780663D01*
X140765186Y-108780666D01*
X140710001Y-108947203D01*
X140710001Y-108947204D01*
X140710000Y-108947204D01*
X140699500Y-109049983D01*
X140699500Y-110050001D01*
X140699501Y-110050019D01*
X140710000Y-110152796D01*
X140710001Y-110152799D01*
X140765185Y-110319331D01*
X140765187Y-110319336D01*
X140778585Y-110341058D01*
X140857288Y-110468656D01*
X140981344Y-110592712D01*
X141130666Y-110684814D01*
X141297203Y-110739999D01*
X141399991Y-110750500D01*
X142025008Y-110750499D01*
X142025016Y-110750498D01*
X142025019Y-110750498D01*
X142081302Y-110744748D01*
X142127797Y-110739999D01*
X142294334Y-110684814D01*
X142443656Y-110592712D01*
X142567712Y-110468656D01*
X142659814Y-110319334D01*
X142682294Y-110251492D01*
X142722067Y-110194048D01*
X142786583Y-110167225D01*
X142855358Y-110179540D01*
X142906558Y-110227083D01*
X142917704Y-110251490D01*
X142918102Y-110252688D01*
X142940185Y-110319331D01*
X142940187Y-110319336D01*
X142953585Y-110341058D01*
X143032288Y-110468656D01*
X143156344Y-110592712D01*
X143305666Y-110684814D01*
X143472203Y-110739999D01*
X143574991Y-110750500D01*
X144200008Y-110750499D01*
X144200016Y-110750498D01*
X144200019Y-110750498D01*
X144256302Y-110744748D01*
X144302797Y-110739999D01*
X144469334Y-110684814D01*
X144618656Y-110592712D01*
X144700319Y-110511049D01*
X144761642Y-110477564D01*
X144831334Y-110482548D01*
X144887267Y-110524420D01*
X144911684Y-110589884D01*
X144912000Y-110598730D01*
X144912000Y-110741346D01*
X144942761Y-110895989D01*
X144942764Y-110896001D01*
X145003102Y-111041672D01*
X145003109Y-111041685D01*
X145090710Y-111172788D01*
X145090713Y-111172792D01*
X145878211Y-111960289D01*
X145989708Y-112071786D01*
X145989712Y-112071790D01*
X146120814Y-112159390D01*
X146120827Y-112159397D01*
X146266498Y-112219735D01*
X146266503Y-112219737D01*
X146266507Y-112219737D01*
X146266508Y-112219738D01*
X146421154Y-112250500D01*
X147292672Y-112250500D01*
X147359711Y-112270185D01*
X147405466Y-112322989D01*
X147415410Y-112392147D01*
X147386385Y-112455703D01*
X147348967Y-112484985D01*
X147186733Y-112567647D01*
X147094790Y-112634447D01*
X147025582Y-112684731D01*
X147025580Y-112684733D01*
X147025579Y-112684733D01*
X146884733Y-112825579D01*
X146884733Y-112825580D01*
X146884731Y-112825582D01*
X146834447Y-112894790D01*
X146767647Y-112986733D01*
X146690485Y-113138172D01*
X146642510Y-113188968D01*
X146574689Y-113205763D01*
X146508554Y-113183225D01*
X146469515Y-113138172D01*
X146392352Y-112986733D01*
X146275269Y-112825582D01*
X146134418Y-112684731D01*
X145973266Y-112567647D01*
X145811033Y-112484985D01*
X145795780Y-112477213D01*
X145606342Y-112415661D01*
X145457878Y-112392147D01*
X145409597Y-112384500D01*
X145210403Y-112384500D01*
X145162122Y-112392147D01*
X145013659Y-112415661D01*
X145013656Y-112415661D01*
X144824219Y-112477213D01*
X144646733Y-112567647D01*
X144554790Y-112634447D01*
X144485582Y-112684731D01*
X144485580Y-112684733D01*
X144485579Y-112684733D01*
X144344733Y-112825579D01*
X144344733Y-112825580D01*
X144344731Y-112825582D01*
X144294447Y-112894790D01*
X144227647Y-112986733D01*
X144150485Y-113138172D01*
X144102510Y-113188968D01*
X144034689Y-113205763D01*
X143968554Y-113183225D01*
X143929515Y-113138172D01*
X143852352Y-112986733D01*
X143735269Y-112825582D01*
X143594418Y-112684731D01*
X143433266Y-112567647D01*
X143271033Y-112484985D01*
X143255780Y-112477213D01*
X143066342Y-112415661D01*
X142917878Y-112392147D01*
X142869597Y-112384500D01*
X142670403Y-112384500D01*
X142622122Y-112392147D01*
X142473659Y-112415661D01*
X142473656Y-112415661D01*
X142284219Y-112477213D01*
X142106733Y-112567647D01*
X142014790Y-112634447D01*
X141945582Y-112684731D01*
X141945580Y-112684733D01*
X141945579Y-112684733D01*
X141804733Y-112825579D01*
X141804733Y-112825580D01*
X141804731Y-112825582D01*
X141754447Y-112894790D01*
X141687647Y-112986733D01*
X141610485Y-113138172D01*
X141562510Y-113188968D01*
X141494689Y-113205763D01*
X141428554Y-113183225D01*
X141389515Y-113138172D01*
X141312352Y-112986733D01*
X141195269Y-112825582D01*
X141054418Y-112684731D01*
X140893266Y-112567647D01*
X140731033Y-112484985D01*
X140715780Y-112477213D01*
X140526342Y-112415661D01*
X140377878Y-112392147D01*
X140329597Y-112384500D01*
X140130403Y-112384500D01*
X140082122Y-112392147D01*
X139933659Y-112415661D01*
X139933656Y-112415661D01*
X139744219Y-112477213D01*
X139566733Y-112567647D01*
X139474790Y-112634447D01*
X139405582Y-112684731D01*
X139405580Y-112684733D01*
X139405579Y-112684733D01*
X139264733Y-112825579D01*
X139264733Y-112825580D01*
X139264731Y-112825582D01*
X139214447Y-112894790D01*
X139147647Y-112986733D01*
X139070485Y-113138172D01*
X139022510Y-113188968D01*
X138954689Y-113205763D01*
X138888554Y-113183225D01*
X138849515Y-113138172D01*
X138772352Y-112986733D01*
X138655269Y-112825582D01*
X138514418Y-112684731D01*
X138353266Y-112567647D01*
X138191033Y-112484985D01*
X138175780Y-112477213D01*
X137986342Y-112415661D01*
X137837878Y-112392147D01*
X137789597Y-112384500D01*
X137590403Y-112384500D01*
X137542122Y-112392147D01*
X137393659Y-112415661D01*
X137393656Y-112415661D01*
X137204219Y-112477213D01*
X137026733Y-112567647D01*
X136934790Y-112634447D01*
X136865582Y-112684731D01*
X136865580Y-112684733D01*
X136865579Y-112684733D01*
X136724733Y-112825579D01*
X136724733Y-112825580D01*
X136724731Y-112825582D01*
X136674447Y-112894790D01*
X136607647Y-112986733D01*
X136517213Y-113164219D01*
X136455661Y-113353656D01*
X136455661Y-113353659D01*
X136424500Y-113550403D01*
X136424500Y-113749596D01*
X136437973Y-113834660D01*
X136439500Y-113854058D01*
X136439500Y-119288422D01*
X136470290Y-119482826D01*
X136531117Y-119670030D01*
X136620476Y-119845405D01*
X136736172Y-120004646D01*
X139685354Y-122953828D01*
X139844595Y-123069524D01*
X140019974Y-123158884D01*
X140019976Y-123158884D01*
X140019979Y-123158886D01*
X140024477Y-123160750D01*
X140023615Y-123162830D01*
X140073591Y-123196995D01*
X140100797Y-123261350D01*
X140088891Y-123330198D01*
X140041653Y-123381680D01*
X139977607Y-123399500D01*
X128600097Y-123399500D01*
X128533058Y-123379815D01*
X128512416Y-123363181D01*
X127034574Y-121885339D01*
X127001089Y-121824016D01*
X127000638Y-121821849D01*
X126969738Y-121666510D01*
X126969737Y-121666503D01*
X126931675Y-121574612D01*
X126909397Y-121520827D01*
X126909390Y-121520814D01*
X126821789Y-121389711D01*
X126821786Y-121389707D01*
X126710292Y-121278213D01*
X126710288Y-121278210D01*
X126579185Y-121190609D01*
X126579172Y-121190602D01*
X126433501Y-121130264D01*
X126433489Y-121130261D01*
X126278845Y-121099500D01*
X126278842Y-121099500D01*
X126121158Y-121099500D01*
X126121155Y-121099500D01*
X125966510Y-121130261D01*
X125966498Y-121130264D01*
X125820827Y-121190602D01*
X125820814Y-121190609D01*
X125689711Y-121278210D01*
X125689707Y-121278213D01*
X125578213Y-121389707D01*
X125578210Y-121389711D01*
X125490609Y-121520814D01*
X125490602Y-121520827D01*
X125430264Y-121666498D01*
X125430261Y-121666510D01*
X125399500Y-121821153D01*
X125399500Y-121978846D01*
X125430261Y-122133489D01*
X125430264Y-122133501D01*
X125490602Y-122279172D01*
X125490609Y-122279185D01*
X125578210Y-122410288D01*
X125578213Y-122410292D01*
X125689707Y-122521786D01*
X125689711Y-122521789D01*
X125820814Y-122609390D01*
X125820827Y-122609397D01*
X125925567Y-122652781D01*
X125966503Y-122669737D01*
X126031147Y-122682595D01*
X126121849Y-122700638D01*
X126183760Y-122733023D01*
X126185339Y-122734574D01*
X127815139Y-124364374D01*
X127815149Y-124364385D01*
X127819479Y-124368715D01*
X127819480Y-124368716D01*
X127931284Y-124480520D01*
X127931286Y-124480521D01*
X127931290Y-124480524D01*
X128068209Y-124559573D01*
X128068216Y-124559577D01*
X128180019Y-124589534D01*
X128220942Y-124600500D01*
X128220943Y-124600500D01*
X145199903Y-124600500D01*
X145266942Y-124620185D01*
X145287584Y-124636819D01*
X145526698Y-124875933D01*
X145560183Y-124937256D01*
X145555199Y-125006948D01*
X145513327Y-125062881D01*
X145447863Y-125087298D01*
X145419623Y-125086088D01*
X145409597Y-125084500D01*
X145210403Y-125084500D01*
X145144822Y-125094887D01*
X145013659Y-125115661D01*
X145013656Y-125115661D01*
X144824219Y-125177213D01*
X144646733Y-125267647D01*
X144565212Y-125326876D01*
X144485582Y-125384731D01*
X144485580Y-125384733D01*
X144485579Y-125384733D01*
X144344733Y-125525579D01*
X144344733Y-125525580D01*
X144344731Y-125525582D01*
X144312772Y-125569570D01*
X144227647Y-125686733D01*
X144225466Y-125690293D01*
X144217765Y-125697258D01*
X144213453Y-125706703D01*
X144192299Y-125720297D01*
X144173652Y-125737167D01*
X144161847Y-125739867D01*
X144154675Y-125744477D01*
X144119740Y-125749500D01*
X143960260Y-125749500D01*
X143893221Y-125729815D01*
X143854534Y-125690293D01*
X143852352Y-125686733D01*
X143831835Y-125658494D01*
X143735269Y-125525582D01*
X143594418Y-125384731D01*
X143433266Y-125267647D01*
X143405984Y-125253746D01*
X143255780Y-125177213D01*
X143066342Y-125115661D01*
X142918782Y-125092290D01*
X142869597Y-125084500D01*
X142670403Y-125084500D01*
X142604822Y-125094887D01*
X142473659Y-125115661D01*
X142473656Y-125115661D01*
X142284219Y-125177213D01*
X142106733Y-125267647D01*
X142025212Y-125326876D01*
X141945582Y-125384731D01*
X141945580Y-125384733D01*
X141945579Y-125384733D01*
X141804733Y-125525579D01*
X141804733Y-125525580D01*
X141804731Y-125525582D01*
X141772772Y-125569570D01*
X141687647Y-125686733D01*
X141610485Y-125838172D01*
X141562510Y-125888968D01*
X141494689Y-125905763D01*
X141428554Y-125883225D01*
X141389515Y-125838172D01*
X141341774Y-125744477D01*
X141312353Y-125686734D01*
X141195269Y-125525582D01*
X141054418Y-125384731D01*
X140893266Y-125267647D01*
X140865984Y-125253746D01*
X140715780Y-125177213D01*
X140526342Y-125115661D01*
X140378782Y-125092290D01*
X140329597Y-125084500D01*
X140130403Y-125084500D01*
X140064822Y-125094887D01*
X139933659Y-125115661D01*
X139933656Y-125115661D01*
X139744219Y-125177213D01*
X139566733Y-125267647D01*
X139485212Y-125326876D01*
X139405582Y-125384731D01*
X139405580Y-125384733D01*
X139405579Y-125384733D01*
X139264733Y-125525579D01*
X139264733Y-125525580D01*
X139264731Y-125525582D01*
X139232772Y-125569570D01*
X139147647Y-125686733D01*
X139070485Y-125838172D01*
X139022510Y-125888968D01*
X138954689Y-125905763D01*
X138888554Y-125883225D01*
X138849515Y-125838172D01*
X138801774Y-125744477D01*
X138772353Y-125686734D01*
X138655269Y-125525582D01*
X138514418Y-125384731D01*
X138353266Y-125267647D01*
X138325984Y-125253746D01*
X138175780Y-125177213D01*
X137986342Y-125115661D01*
X137838782Y-125092290D01*
X137789597Y-125084500D01*
X137590403Y-125084500D01*
X137524822Y-125094887D01*
X137393659Y-125115661D01*
X137393656Y-125115661D01*
X137204219Y-125177213D01*
X137026733Y-125267647D01*
X136945212Y-125326876D01*
X136865582Y-125384731D01*
X136865580Y-125384733D01*
X136865579Y-125384733D01*
X136724733Y-125525579D01*
X136724733Y-125525580D01*
X136724731Y-125525582D01*
X136692772Y-125569570D01*
X136607647Y-125686733D01*
X136530485Y-125838172D01*
X136482510Y-125888968D01*
X136414689Y-125905763D01*
X136348554Y-125883225D01*
X136309515Y-125838172D01*
X136261774Y-125744477D01*
X136232353Y-125686734D01*
X136115269Y-125525582D01*
X135974418Y-125384731D01*
X135813266Y-125267647D01*
X135785984Y-125253746D01*
X135635780Y-125177213D01*
X135446342Y-125115661D01*
X135298782Y-125092290D01*
X135249597Y-125084500D01*
X135050403Y-125084500D01*
X134984822Y-125094887D01*
X134853659Y-125115661D01*
X134853656Y-125115661D01*
X134664219Y-125177213D01*
X134486733Y-125267647D01*
X134405212Y-125326876D01*
X134325582Y-125384731D01*
X134325580Y-125384733D01*
X134325579Y-125384733D01*
X134184733Y-125525579D01*
X134184733Y-125525580D01*
X134184731Y-125525582D01*
X134152772Y-125569570D01*
X134099817Y-125642456D01*
X134044487Y-125685121D01*
X133974873Y-125691100D01*
X133913078Y-125658494D01*
X133878721Y-125597655D01*
X133875499Y-125569570D01*
X133875499Y-125537129D01*
X133875498Y-125537123D01*
X133875497Y-125537116D01*
X133870299Y-125488757D01*
X133869091Y-125477516D01*
X133818797Y-125342671D01*
X133818793Y-125342664D01*
X133732547Y-125227455D01*
X133732544Y-125227452D01*
X133617335Y-125141206D01*
X133617328Y-125141202D01*
X133482482Y-125090908D01*
X133482483Y-125090908D01*
X133422883Y-125084501D01*
X133422881Y-125084500D01*
X133422873Y-125084500D01*
X133422864Y-125084500D01*
X131797129Y-125084500D01*
X131797123Y-125084501D01*
X131737516Y-125090908D01*
X131602671Y-125141202D01*
X131602664Y-125141206D01*
X131487455Y-125227452D01*
X131487452Y-125227455D01*
X131401206Y-125342664D01*
X131401202Y-125342671D01*
X131350908Y-125477517D01*
X131345741Y-125525580D01*
X131344501Y-125537123D01*
X131344500Y-125537135D01*
X131344500Y-127162870D01*
X131344501Y-127162876D01*
X131350908Y-127222483D01*
X131401202Y-127357328D01*
X131401206Y-127357335D01*
X131487452Y-127472544D01*
X131487455Y-127472547D01*
X131602664Y-127558793D01*
X131602671Y-127558797D01*
X131737517Y-127609091D01*
X131737516Y-127609091D01*
X131744444Y-127609835D01*
X131797127Y-127615500D01*
X133422872Y-127615499D01*
X133482483Y-127609091D01*
X133617331Y-127558796D01*
X133732546Y-127472546D01*
X133818796Y-127357331D01*
X133869091Y-127222483D01*
X133875500Y-127162873D01*
X133875499Y-127130430D01*
X133895182Y-127063394D01*
X133947984Y-127017638D01*
X134017143Y-127007693D01*
X134080699Y-127036716D01*
X134099817Y-127057545D01*
X134104067Y-127063394D01*
X134184731Y-127174418D01*
X134325582Y-127315269D01*
X134486734Y-127432353D01*
X134664217Y-127522785D01*
X134664219Y-127522786D01*
X134853657Y-127584338D01*
X134853658Y-127584338D01*
X134853661Y-127584339D01*
X135050403Y-127615500D01*
X135050404Y-127615500D01*
X135249596Y-127615500D01*
X135249597Y-127615500D01*
X135446339Y-127584339D01*
X135446342Y-127584338D01*
X135446343Y-127584338D01*
X135635780Y-127522786D01*
X135635780Y-127522785D01*
X135635783Y-127522785D01*
X135813266Y-127432353D01*
X135974418Y-127315269D01*
X136115269Y-127174418D01*
X136232353Y-127013266D01*
X136309515Y-126861827D01*
X136357490Y-126811031D01*
X136425311Y-126794236D01*
X136491446Y-126816773D01*
X136530485Y-126861827D01*
X136580574Y-126960132D01*
X136607647Y-127013266D01*
X136724731Y-127174418D01*
X136865582Y-127315269D01*
X137026734Y-127432353D01*
X137204217Y-127522785D01*
X137204219Y-127522786D01*
X137393657Y-127584338D01*
X137393658Y-127584338D01*
X137393661Y-127584339D01*
X137590403Y-127615500D01*
X137590404Y-127615500D01*
X137789596Y-127615500D01*
X137789597Y-127615500D01*
X137986339Y-127584339D01*
X137986342Y-127584338D01*
X137986343Y-127584338D01*
X138175780Y-127522786D01*
X138175780Y-127522785D01*
X138175783Y-127522785D01*
X138353266Y-127432353D01*
X138514418Y-127315269D01*
X138655269Y-127174418D01*
X138772353Y-127013266D01*
X138849515Y-126861827D01*
X138897490Y-126811031D01*
X138965311Y-126794236D01*
X139031446Y-126816773D01*
X139070485Y-126861827D01*
X139120574Y-126960132D01*
X139147647Y-127013266D01*
X139264731Y-127174418D01*
X139405582Y-127315269D01*
X139566734Y-127432353D01*
X139744217Y-127522785D01*
X139744219Y-127522786D01*
X139933657Y-127584338D01*
X139933658Y-127584338D01*
X139933661Y-127584339D01*
X140130403Y-127615500D01*
X140130404Y-127615500D01*
X140329596Y-127615500D01*
X140329597Y-127615500D01*
X140526339Y-127584339D01*
X140526342Y-127584338D01*
X140526343Y-127584338D01*
X140715780Y-127522786D01*
X140715780Y-127522785D01*
X140715783Y-127522785D01*
X140893266Y-127432353D01*
X141054418Y-127315269D01*
X141195269Y-127174418D01*
X141312353Y-127013266D01*
X141389515Y-126861827D01*
X141437490Y-126811031D01*
X141505311Y-126794236D01*
X141571446Y-126816773D01*
X141610485Y-126861827D01*
X141660574Y-126960132D01*
X141687647Y-127013266D01*
X141804731Y-127174418D01*
X141945582Y-127315269D01*
X142106734Y-127432353D01*
X142284217Y-127522785D01*
X142284219Y-127522786D01*
X142473657Y-127584338D01*
X142473658Y-127584338D01*
X142473661Y-127584339D01*
X142670403Y-127615500D01*
X142670404Y-127615500D01*
X142869596Y-127615500D01*
X142869597Y-127615500D01*
X143066339Y-127584339D01*
X143066342Y-127584338D01*
X143066343Y-127584338D01*
X143255780Y-127522786D01*
X143255780Y-127522785D01*
X143255783Y-127522785D01*
X143433266Y-127432353D01*
X143594418Y-127315269D01*
X143735269Y-127174418D01*
X143852353Y-127013266D01*
X143852357Y-127013256D01*
X143854534Y-127009707D01*
X143862234Y-127002741D01*
X143866547Y-126993297D01*
X143887700Y-126979702D01*
X143906348Y-126962833D01*
X143918152Y-126960132D01*
X143925325Y-126955523D01*
X143960260Y-126950500D01*
X144119740Y-126950500D01*
X144186779Y-126970185D01*
X144225466Y-127009707D01*
X144227647Y-127013266D01*
X144344731Y-127174418D01*
X144485582Y-127315269D01*
X144646734Y-127432353D01*
X144824217Y-127522785D01*
X144824219Y-127522786D01*
X145013657Y-127584338D01*
X145013658Y-127584338D01*
X145013661Y-127584339D01*
X145210403Y-127615500D01*
X145210404Y-127615500D01*
X145409596Y-127615500D01*
X145409597Y-127615500D01*
X145606339Y-127584339D01*
X145606342Y-127584338D01*
X145606343Y-127584338D01*
X145795780Y-127522786D01*
X145795780Y-127522785D01*
X145795783Y-127522785D01*
X145973266Y-127432353D01*
X146134418Y-127315269D01*
X146275269Y-127174418D01*
X146392353Y-127013266D01*
X146469515Y-126861827D01*
X146517490Y-126811031D01*
X146585311Y-126794236D01*
X146651446Y-126816773D01*
X146690485Y-126861827D01*
X146740574Y-126960132D01*
X146767647Y-127013266D01*
X146884731Y-127174418D01*
X147025582Y-127315269D01*
X147186734Y-127432353D01*
X147364217Y-127522785D01*
X147364219Y-127522786D01*
X147553657Y-127584338D01*
X147553658Y-127584338D01*
X147553661Y-127584339D01*
X147750403Y-127615500D01*
X147750404Y-127615500D01*
X147949596Y-127615500D01*
X147949597Y-127615500D01*
X148146339Y-127584339D01*
X148146342Y-127584338D01*
X148146343Y-127584338D01*
X148335780Y-127522786D01*
X148335780Y-127522785D01*
X148335783Y-127522785D01*
X148513266Y-127432353D01*
X148674418Y-127315269D01*
X148815269Y-127174418D01*
X148932353Y-127013266D01*
X149009515Y-126861827D01*
X149057490Y-126811031D01*
X149125311Y-126794236D01*
X149191446Y-126816773D01*
X149230485Y-126861827D01*
X149280574Y-126960132D01*
X149307647Y-127013266D01*
X149424731Y-127174418D01*
X149565582Y-127315269D01*
X149726734Y-127432353D01*
X149904217Y-127522785D01*
X149904219Y-127522786D01*
X150093657Y-127584338D01*
X150093658Y-127584338D01*
X150093661Y-127584339D01*
X150290403Y-127615500D01*
X150290404Y-127615500D01*
X150489596Y-127615500D01*
X150489597Y-127615500D01*
X150686339Y-127584339D01*
X150686342Y-127584338D01*
X150686343Y-127584338D01*
X150875780Y-127522786D01*
X150875780Y-127522785D01*
X150875783Y-127522785D01*
X151053266Y-127432353D01*
X151214418Y-127315269D01*
X151355269Y-127174418D01*
X151472353Y-127013266D01*
X151562785Y-126835783D01*
X151570827Y-126811031D01*
X151624338Y-126646343D01*
X151624338Y-126646342D01*
X151624339Y-126646339D01*
X151655500Y-126449597D01*
X151655500Y-126250403D01*
X151624339Y-126053661D01*
X151624338Y-126053657D01*
X151624338Y-126053656D01*
X151562786Y-125864219D01*
X151529337Y-125798572D01*
X151472353Y-125686734D01*
X151355269Y-125525582D01*
X151214418Y-125384731D01*
X151053266Y-125267647D01*
X151025984Y-125253746D01*
X150875780Y-125177213D01*
X150686342Y-125115661D01*
X150538782Y-125092290D01*
X150489597Y-125084500D01*
X150290403Y-125084500D01*
X150224822Y-125094887D01*
X150093659Y-125115661D01*
X150093656Y-125115661D01*
X149904219Y-125177213D01*
X149726733Y-125267647D01*
X149645212Y-125326876D01*
X149565582Y-125384731D01*
X149565580Y-125384733D01*
X149565579Y-125384733D01*
X149424733Y-125525579D01*
X149424733Y-125525580D01*
X149424731Y-125525582D01*
X149392772Y-125569570D01*
X149307647Y-125686733D01*
X149230485Y-125838172D01*
X149182510Y-125888968D01*
X149114689Y-125905763D01*
X149048554Y-125883225D01*
X149009515Y-125838172D01*
X148961774Y-125744477D01*
X148932353Y-125686734D01*
X148815269Y-125525582D01*
X148674418Y-125384731D01*
X148513266Y-125267647D01*
X148485984Y-125253746D01*
X148335780Y-125177213D01*
X148146342Y-125115661D01*
X147998782Y-125092290D01*
X147949597Y-125084500D01*
X147750403Y-125084500D01*
X147684822Y-125094887D01*
X147553659Y-125115661D01*
X147549588Y-125116638D01*
X147479806Y-125113138D01*
X147432976Y-125083741D01*
X145987590Y-123638355D01*
X145987588Y-123638352D01*
X145868715Y-123519479D01*
X145830537Y-123497438D01*
X145803602Y-123481887D01*
X145755387Y-123431321D01*
X145742163Y-123362714D01*
X145768131Y-123297849D01*
X145825044Y-123257320D01*
X145865602Y-123250500D01*
X154655664Y-123250500D01*
X154722703Y-123270185D01*
X154743345Y-123286819D01*
X156771190Y-125314664D01*
X156783822Y-125329453D01*
X156793121Y-125342252D01*
X156793123Y-125342254D01*
X156932753Y-125481884D01*
X157053445Y-125569570D01*
X157092499Y-125597944D01*
X157268439Y-125687591D01*
X157393637Y-125728270D01*
X157456236Y-125748610D01*
X157651264Y-125779500D01*
X157651269Y-125779500D01*
X157848736Y-125779500D01*
X158043763Y-125748610D01*
X158078981Y-125737167D01*
X158231561Y-125687591D01*
X158407501Y-125597944D01*
X158512955Y-125521328D01*
X158567246Y-125481884D01*
X158567248Y-125481881D01*
X158567252Y-125481879D01*
X158706879Y-125342252D01*
X158706881Y-125342248D01*
X158706884Y-125342246D01*
X158822941Y-125182505D01*
X158822940Y-125182505D01*
X158822944Y-125182501D01*
X158889516Y-125051846D01*
X158937490Y-125001052D01*
X159005311Y-124984257D01*
X159071446Y-125006794D01*
X159110482Y-125051845D01*
X159156013Y-125141202D01*
X159177058Y-125182505D01*
X159293115Y-125342246D01*
X159432753Y-125481884D01*
X159553445Y-125569570D01*
X159592499Y-125597944D01*
X159768439Y-125687591D01*
X159893637Y-125728270D01*
X159956236Y-125748610D01*
X160151264Y-125779500D01*
X160151269Y-125779500D01*
X160348736Y-125779500D01*
X160543763Y-125748610D01*
X160578981Y-125737167D01*
X160731561Y-125687591D01*
X160907501Y-125597944D01*
X161012955Y-125521328D01*
X161067246Y-125481884D01*
X161067248Y-125481881D01*
X161067252Y-125481879D01*
X161206879Y-125342252D01*
X161206881Y-125342248D01*
X161206884Y-125342246D01*
X161322941Y-125182505D01*
X161322940Y-125182505D01*
X161322944Y-125182501D01*
X161389516Y-125051846D01*
X161437490Y-125001052D01*
X161505311Y-124984257D01*
X161571446Y-125006794D01*
X161610482Y-125051845D01*
X161656013Y-125141202D01*
X161677058Y-125182505D01*
X161793115Y-125342246D01*
X161932753Y-125481884D01*
X162053445Y-125569570D01*
X162092499Y-125597944D01*
X162268439Y-125687591D01*
X162393637Y-125728270D01*
X162456236Y-125748610D01*
X162651264Y-125779500D01*
X162651269Y-125779500D01*
X162848736Y-125779500D01*
X163043763Y-125748610D01*
X163078981Y-125737167D01*
X163231561Y-125687591D01*
X163407501Y-125597944D01*
X163512955Y-125521328D01*
X163567246Y-125481884D01*
X163567248Y-125481881D01*
X163567252Y-125481879D01*
X163706879Y-125342252D01*
X163771182Y-125253744D01*
X163826510Y-125211080D01*
X163896123Y-125205099D01*
X163957919Y-125237704D01*
X163992277Y-125298543D01*
X163995152Y-125323573D01*
X163995324Y-125323564D01*
X163995474Y-125326371D01*
X163995500Y-125326595D01*
X163995500Y-125326852D01*
X163995501Y-125326876D01*
X164001908Y-125386483D01*
X164052202Y-125521328D01*
X164052206Y-125521335D01*
X164138452Y-125636544D01*
X164138455Y-125636547D01*
X164253664Y-125722793D01*
X164253671Y-125722797D01*
X164388517Y-125773091D01*
X164388516Y-125773091D01*
X164395444Y-125773835D01*
X164448127Y-125779500D01*
X166051872Y-125779499D01*
X166111483Y-125773091D01*
X166246331Y-125722796D01*
X166361546Y-125636546D01*
X166447796Y-125521331D01*
X166498091Y-125386483D01*
X166504500Y-125326873D01*
X166504499Y-123723128D01*
X166501210Y-123692530D01*
X166500500Y-123679277D01*
X166500500Y-123397648D01*
X171699500Y-123397648D01*
X171699500Y-123602351D01*
X171731522Y-123804534D01*
X171794781Y-123999223D01*
X171887715Y-124181613D01*
X172008028Y-124347213D01*
X172152786Y-124491971D01*
X172245840Y-124559577D01*
X172318390Y-124612287D01*
X172396610Y-124652142D01*
X172500776Y-124705218D01*
X172500778Y-124705218D01*
X172500781Y-124705220D01*
X172605137Y-124739127D01*
X172695465Y-124768477D01*
X172796557Y-124784488D01*
X172897648Y-124800500D01*
X172897649Y-124800500D01*
X173102351Y-124800500D01*
X173102352Y-124800500D01*
X173304534Y-124768477D01*
X173499219Y-124705220D01*
X173681610Y-124612287D01*
X173774590Y-124544732D01*
X173847213Y-124491971D01*
X173847215Y-124491968D01*
X173847219Y-124491966D01*
X173991966Y-124347219D01*
X173991968Y-124347215D01*
X173991971Y-124347213D01*
X174078340Y-124228334D01*
X174112287Y-124181610D01*
X174205220Y-123999219D01*
X174268477Y-123804534D01*
X174300500Y-123602352D01*
X174300500Y-123397648D01*
X174282946Y-123286819D01*
X174268477Y-123195465D01*
X174205218Y-123000776D01*
X174171503Y-122934607D01*
X174112287Y-122818390D01*
X174050265Y-122733023D01*
X173991971Y-122652786D01*
X173847213Y-122508028D01*
X173681613Y-122387715D01*
X173681612Y-122387714D01*
X173681610Y-122387713D01*
X173624653Y-122358691D01*
X173499223Y-122294781D01*
X173304534Y-122231522D01*
X173129995Y-122203878D01*
X173102352Y-122199500D01*
X172897648Y-122199500D01*
X172873329Y-122203351D01*
X172695465Y-122231522D01*
X172500776Y-122294781D01*
X172318386Y-122387715D01*
X172152786Y-122508028D01*
X172008028Y-122652786D01*
X171887715Y-122818386D01*
X171794781Y-123000776D01*
X171731522Y-123195465D01*
X171699500Y-123397648D01*
X166500500Y-123397648D01*
X166500500Y-121551577D01*
X166469709Y-121357173D01*
X166408882Y-121169970D01*
X166361743Y-121077455D01*
X166319524Y-120994595D01*
X166203828Y-120835354D01*
X166064646Y-120696172D01*
X161014646Y-115646172D01*
X160855405Y-115530476D01*
X160680030Y-115441117D01*
X160492826Y-115380290D01*
X160298422Y-115349500D01*
X160298417Y-115349500D01*
X144369336Y-115349500D01*
X144302297Y-115329815D01*
X144281655Y-115313181D01*
X144056819Y-115088345D01*
X144023334Y-115027022D01*
X144020500Y-115000664D01*
X144020500Y-114409785D01*
X144040185Y-114342746D01*
X144092989Y-114296991D01*
X144162147Y-114287047D01*
X144225703Y-114316072D01*
X144244815Y-114336895D01*
X144344731Y-114474418D01*
X144485582Y-114615269D01*
X144646734Y-114732353D01*
X144824217Y-114822785D01*
X144824219Y-114822786D01*
X145013657Y-114884338D01*
X145013658Y-114884338D01*
X145013661Y-114884339D01*
X145210403Y-114915500D01*
X145210404Y-114915500D01*
X145409596Y-114915500D01*
X145409597Y-114915500D01*
X145606339Y-114884339D01*
X145606342Y-114884338D01*
X145606343Y-114884338D01*
X145795780Y-114822786D01*
X145795780Y-114822785D01*
X145795783Y-114822785D01*
X145973266Y-114732353D01*
X146134418Y-114615269D01*
X146275269Y-114474418D01*
X146392353Y-114313266D01*
X146469515Y-114161827D01*
X146517490Y-114111031D01*
X146585311Y-114094236D01*
X146651446Y-114116773D01*
X146690485Y-114161827D01*
X146767647Y-114313266D01*
X146884731Y-114474418D01*
X147025582Y-114615269D01*
X147186734Y-114732353D01*
X147364217Y-114822785D01*
X147364219Y-114822786D01*
X147553657Y-114884338D01*
X147553658Y-114884338D01*
X147553661Y-114884339D01*
X147750403Y-114915500D01*
X147750404Y-114915500D01*
X147949596Y-114915500D01*
X147949597Y-114915500D01*
X148146339Y-114884339D01*
X148146342Y-114884338D01*
X148146343Y-114884338D01*
X148335780Y-114822786D01*
X148335780Y-114822785D01*
X148335783Y-114822785D01*
X148513266Y-114732353D01*
X148674418Y-114615269D01*
X148815269Y-114474418D01*
X148932353Y-114313266D01*
X149022785Y-114135783D01*
X149030827Y-114111031D01*
X149084338Y-113946343D01*
X149084338Y-113946342D01*
X149084339Y-113946339D01*
X149115500Y-113749597D01*
X149115500Y-113550403D01*
X149084339Y-113353661D01*
X149084338Y-113353657D01*
X149084338Y-113353656D01*
X149022786Y-113164219D01*
X148932352Y-112986733D01*
X148815269Y-112825582D01*
X148674418Y-112684731D01*
X148513266Y-112567647D01*
X148351033Y-112484985D01*
X148300237Y-112437010D01*
X148283442Y-112369189D01*
X148305979Y-112303054D01*
X148360695Y-112259603D01*
X148407328Y-112250500D01*
X152628844Y-112250500D01*
X152628845Y-112250499D01*
X152783497Y-112219737D01*
X152929179Y-112159394D01*
X153060289Y-112071789D01*
X155821789Y-109310289D01*
X155909394Y-109179179D01*
X155969737Y-109033497D01*
X156000500Y-108878842D01*
X156000500Y-108721158D01*
X156000500Y-104270474D01*
X156020185Y-104203435D01*
X156072989Y-104157680D01*
X156081156Y-104154296D01*
X156117257Y-104140832D01*
X156178580Y-104107347D01*
X156293761Y-104021123D01*
X156443213Y-103871671D01*
X156495852Y-103809803D01*
X156519081Y-103777575D01*
X156561136Y-103708061D01*
X156588704Y-103652923D01*
X156588705Y-103652919D01*
X156588708Y-103652914D01*
X156588708Y-103652912D01*
X156614016Y-103582448D01*
X156629212Y-103540140D01*
X156642294Y-103483246D01*
X156655116Y-103364093D01*
X156652659Y-103152752D01*
X156646677Y-103080873D01*
X156641248Y-103045998D01*
X156639769Y-103039565D01*
X156639797Y-103039561D01*
X156639486Y-103037701D01*
X156637481Y-103029610D01*
X156625078Y-102975638D01*
X156625075Y-102975632D01*
X156623505Y-102971092D01*
X156621504Y-102964332D01*
X156621413Y-102964359D01*
X156620752Y-102962074D01*
X156620748Y-102962058D01*
X156611528Y-102934237D01*
X156605873Y-102907799D01*
X156605638Y-102905496D01*
X156605000Y-102892934D01*
X156605000Y-101907051D01*
X156605641Y-101894460D01*
X156607113Y-101880040D01*
X156609938Y-101863528D01*
X156623335Y-101808091D01*
X156629620Y-101767647D01*
X156635581Y-101684147D01*
X156624339Y-100717286D01*
X156618310Y-100649500D01*
X156617443Y-100639748D01*
X156617440Y-100639730D01*
X156614188Y-100620298D01*
X156611156Y-100602175D01*
X156610965Y-100601252D01*
X156609028Y-100588693D01*
X156605642Y-100555541D01*
X156605000Y-100542942D01*
X156605000Y-99557053D01*
X156605642Y-99544453D01*
X156605903Y-99541899D01*
X156606551Y-99535555D01*
X156608655Y-99506974D01*
X156609289Y-99492931D01*
X156609769Y-99464255D01*
X156606053Y-99144638D01*
X156602867Y-99093546D01*
X156600041Y-99068630D01*
X156596747Y-99048674D01*
X156591710Y-99018150D01*
X156581832Y-98991666D01*
X156541427Y-98883338D01*
X156507942Y-98822015D01*
X156421718Y-98706834D01*
X156421713Y-98706829D01*
X156421708Y-98706823D01*
X156371686Y-98656802D01*
X156371671Y-98656787D01*
X156371655Y-98656773D01*
X156318457Y-98610675D01*
X156318448Y-98610668D01*
X156317167Y-98609558D01*
X156288913Y-98588407D01*
X156288904Y-98588400D01*
X156282882Y-98584529D01*
X156279940Y-98582637D01*
X156279947Y-98582629D01*
X156277538Y-98580893D01*
X156272299Y-98577723D01*
X156270865Y-98576801D01*
X156270864Y-98576800D01*
X156228444Y-98549525D01*
X156222511Y-98546553D01*
X156222632Y-98546311D01*
X156211318Y-98540834D01*
X156208070Y-98538869D01*
X156152040Y-98510854D01*
X156100881Y-98463267D01*
X156083571Y-98395575D01*
X156105606Y-98329271D01*
X156119813Y-98312264D01*
X156695258Y-97736819D01*
X156756581Y-97703334D01*
X156782939Y-97700500D01*
X160063696Y-97700500D01*
X160130735Y-97720185D01*
X160164013Y-97751613D01*
X160255483Y-97877510D01*
X160422490Y-98044517D01*
X160613567Y-98183343D01*
X160706157Y-98230520D01*
X160824003Y-98290566D01*
X160824005Y-98290566D01*
X160824008Y-98290568D01*
X160943123Y-98329271D01*
X161048631Y-98363553D01*
X161281903Y-98400500D01*
X161281908Y-98400500D01*
X161518097Y-98400500D01*
X161751368Y-98363553D01*
X161975992Y-98290568D01*
X162186433Y-98183343D01*
X162377510Y-98044517D01*
X162544517Y-97877510D01*
X162683343Y-97686433D01*
X162790568Y-97475992D01*
X162863553Y-97251368D01*
X162895488Y-97049738D01*
X162900500Y-97018097D01*
X162900500Y-96781902D01*
X162863553Y-96548631D01*
X162829689Y-96444412D01*
X162790568Y-96324008D01*
X162790566Y-96324005D01*
X162790566Y-96324003D01*
X162722594Y-96190602D01*
X162683343Y-96113567D01*
X162544517Y-95922490D01*
X162377510Y-95755483D01*
X162186433Y-95616657D01*
X162170426Y-95608501D01*
X161975996Y-95509433D01*
X161751368Y-95436446D01*
X161518097Y-95399500D01*
X161518092Y-95399500D01*
X161281908Y-95399500D01*
X161281903Y-95399500D01*
X161048631Y-95436446D01*
X160824003Y-95509433D01*
X160613566Y-95616657D01*
X160504550Y-95695862D01*
X160422490Y-95755483D01*
X160422488Y-95755485D01*
X160422487Y-95755485D01*
X160255485Y-95922487D01*
X160255485Y-95922488D01*
X160255483Y-95922490D01*
X160165382Y-96046503D01*
X160164014Y-96048386D01*
X160108684Y-96091051D01*
X160063696Y-96099500D01*
X156321155Y-96099500D01*
X156224553Y-96118716D01*
X156224552Y-96118716D01*
X156166510Y-96130261D01*
X156166498Y-96130264D01*
X156020827Y-96190602D01*
X156020814Y-96190609D01*
X155889711Y-96278210D01*
X155889703Y-96278216D01*
X155887673Y-96280247D01*
X155886348Y-96280969D01*
X155885001Y-96282076D01*
X155884791Y-96281820D01*
X155826348Y-96313727D01*
X155756656Y-96308737D01*
X155712318Y-96280240D01*
X154166819Y-94734741D01*
X154133334Y-94673418D01*
X154130500Y-94647060D01*
X154130500Y-93083332D01*
X154150185Y-93016293D01*
X154173967Y-92989043D01*
X154177137Y-92986334D01*
X154177146Y-92986328D01*
X154316328Y-92847146D01*
X154432024Y-92687905D01*
X154521384Y-92512526D01*
X154582209Y-92325326D01*
X154609778Y-92151263D01*
X154613000Y-92130922D01*
X154613000Y-91934078D01*
X154582209Y-91739673D01*
X154570229Y-91702806D01*
X154521384Y-91552474D01*
X154508784Y-91527745D01*
X154505005Y-91518576D01*
X154504651Y-91518723D01*
X154502784Y-91514215D01*
X154412354Y-91336735D01*
X154380183Y-91292456D01*
X154295269Y-91175582D01*
X154154418Y-91034731D01*
X153993266Y-90917647D01*
X153983343Y-90912591D01*
X153831033Y-90834985D01*
X153780237Y-90787010D01*
X153763442Y-90719189D01*
X153785979Y-90653054D01*
X153840695Y-90609603D01*
X153887328Y-90600500D01*
X162449903Y-90600500D01*
X162516942Y-90620185D01*
X162537584Y-90636819D01*
X165406509Y-93505744D01*
X165439994Y-93567067D01*
X165435010Y-93636759D01*
X165393138Y-93692692D01*
X165343020Y-93715042D01*
X165266508Y-93730261D01*
X165266498Y-93730264D01*
X165120827Y-93790602D01*
X165120814Y-93790609D01*
X164989711Y-93878210D01*
X164989707Y-93878213D01*
X164878213Y-93989707D01*
X164878210Y-93989711D01*
X164790609Y-94120814D01*
X164790602Y-94120827D01*
X164730264Y-94266498D01*
X164730261Y-94266510D01*
X164699500Y-94421153D01*
X164699500Y-94578846D01*
X164730261Y-94733489D01*
X164730264Y-94733501D01*
X164790602Y-94879172D01*
X164790609Y-94879185D01*
X164878602Y-95010874D01*
X164899480Y-95077551D01*
X164899500Y-95079765D01*
X164899500Y-97663330D01*
X164899499Y-97663348D01*
X164899499Y-97829054D01*
X164899498Y-97829054D01*
X164899499Y-97829057D01*
X164940423Y-97981785D01*
X164963155Y-98021158D01*
X165019477Y-98118712D01*
X165019481Y-98118717D01*
X165138349Y-98237585D01*
X165138355Y-98237590D01*
X173515139Y-106614374D01*
X173515149Y-106614385D01*
X173519479Y-106618715D01*
X173519480Y-106618716D01*
X173631284Y-106730520D01*
X173718095Y-106780639D01*
X173718097Y-106780641D01*
X173768213Y-106809576D01*
X173768215Y-106809577D01*
X173920942Y-106850500D01*
X173920943Y-106850500D01*
X174322682Y-106850500D01*
X174389721Y-106870185D01*
X174423139Y-106904324D01*
X174424192Y-106903560D01*
X174543115Y-107067246D01*
X174682753Y-107206884D01*
X174832234Y-107315486D01*
X174842499Y-107322944D01*
X174973151Y-107389515D01*
X175023947Y-107437490D01*
X175040742Y-107505311D01*
X175018204Y-107571446D01*
X174973151Y-107610484D01*
X174860841Y-107667710D01*
X174842495Y-107677058D01*
X174682753Y-107793115D01*
X174543115Y-107932753D01*
X174427058Y-108092495D01*
X174337408Y-108268441D01*
X174276389Y-108456236D01*
X174245500Y-108651263D01*
X174245500Y-108848736D01*
X174276389Y-109043763D01*
X174320387Y-109179172D01*
X174337409Y-109231561D01*
X174377525Y-109310292D01*
X174427058Y-109407504D01*
X174543115Y-109567246D01*
X174682753Y-109706884D01*
X174825664Y-109810713D01*
X174842499Y-109822944D01*
X175018439Y-109912591D01*
X175143637Y-109953270D01*
X175206236Y-109973610D01*
X175401264Y-110004500D01*
X175401269Y-110004500D01*
X175598736Y-110004500D01*
X175793763Y-109973610D01*
X175811921Y-109967710D01*
X175981561Y-109912591D01*
X176157501Y-109822944D01*
X176247192Y-109757779D01*
X176317246Y-109706884D01*
X176317248Y-109706881D01*
X176317252Y-109706879D01*
X176456879Y-109567252D01*
X176456881Y-109567248D01*
X176456884Y-109567246D01*
X176507779Y-109497192D01*
X176572944Y-109407501D01*
X176662591Y-109231561D01*
X176723610Y-109043763D01*
X176738540Y-108949500D01*
X176754500Y-108848736D01*
X176754500Y-108651263D01*
X176723610Y-108456236D01*
X176692341Y-108360000D01*
X176662591Y-108268439D01*
X176572944Y-108092499D01*
X176516323Y-108014566D01*
X176456884Y-107932753D01*
X176317246Y-107793115D01*
X176157505Y-107677058D01*
X176140032Y-107668155D01*
X176026846Y-107610483D01*
X175976052Y-107562510D01*
X175959257Y-107494689D01*
X175981794Y-107428554D01*
X176026845Y-107389517D01*
X176157501Y-107322944D01*
X176177912Y-107308114D01*
X176317246Y-107206884D01*
X176317248Y-107206881D01*
X176317252Y-107206879D01*
X176456879Y-107067252D01*
X176456881Y-107067248D01*
X176456884Y-107067246D01*
X176507779Y-106997192D01*
X176572944Y-106907501D01*
X176662591Y-106731561D01*
X176723610Y-106543763D01*
X176730545Y-106499980D01*
X176754500Y-106348736D01*
X176754500Y-106151263D01*
X176723610Y-105956236D01*
X176694026Y-105865186D01*
X176662591Y-105768439D01*
X176572944Y-105592499D01*
X176565486Y-105582234D01*
X176456884Y-105432753D01*
X176317246Y-105293115D01*
X176157505Y-105177058D01*
X176151830Y-105174166D01*
X176026846Y-105110483D01*
X175976052Y-105062510D01*
X175959257Y-104994689D01*
X175981794Y-104928554D01*
X176026845Y-104889517D01*
X176157501Y-104822944D01*
X176229078Y-104770941D01*
X176317246Y-104706884D01*
X176317248Y-104706881D01*
X176317252Y-104706879D01*
X176456879Y-104567252D01*
X176456881Y-104567248D01*
X176456884Y-104567246D01*
X176537057Y-104456895D01*
X176572944Y-104407501D01*
X176580547Y-104392578D01*
X176598969Y-104373071D01*
X176614578Y-104351245D01*
X176624045Y-104346517D01*
X176628518Y-104341782D01*
X176645179Y-104333660D01*
X176651920Y-104330976D01*
X176731785Y-104309577D01*
X176781904Y-104280639D01*
X176868716Y-104230520D01*
X176980520Y-104118716D01*
X176980520Y-104118714D01*
X176990728Y-104108507D01*
X176990730Y-104108504D01*
X177608506Y-103490728D01*
X177608511Y-103490724D01*
X177618714Y-103480520D01*
X177618716Y-103480520D01*
X177730520Y-103368716D01*
X177750697Y-103333768D01*
X177783129Y-103277595D01*
X177783130Y-103277593D01*
X177809574Y-103231790D01*
X177809573Y-103231790D01*
X177809577Y-103231785D01*
X177850500Y-103079057D01*
X177850500Y-102920943D01*
X177850500Y-97670943D01*
X177818684Y-97552204D01*
X177809577Y-97518215D01*
X177769904Y-97449500D01*
X177730520Y-97381284D01*
X177618716Y-97269480D01*
X177614385Y-97265149D01*
X177614374Y-97265139D01*
X175737590Y-95388355D01*
X175737588Y-95388352D01*
X175618717Y-95269481D01*
X175618716Y-95269480D01*
X175514643Y-95209394D01*
X175514642Y-95209393D01*
X175481783Y-95190422D01*
X175409888Y-95171158D01*
X175329057Y-95149499D01*
X175170943Y-95149499D01*
X175163347Y-95149499D01*
X175163331Y-95149500D01*
X171300098Y-95149500D01*
X171233059Y-95129815D01*
X171212417Y-95113181D01*
X164737590Y-88638355D01*
X164737588Y-88638352D01*
X164618717Y-88519481D01*
X164618716Y-88519480D01*
X164531904Y-88469360D01*
X164531904Y-88469359D01*
X164531900Y-88469358D01*
X164481785Y-88440423D01*
X164329057Y-88399499D01*
X164170943Y-88399499D01*
X164163347Y-88399499D01*
X164163331Y-88399500D01*
X114086670Y-88399500D01*
X114086654Y-88399499D01*
X114079058Y-88399499D01*
X113920943Y-88399499D01*
X113844579Y-88419961D01*
X113768214Y-88440423D01*
X113768209Y-88440426D01*
X113631290Y-88519475D01*
X113631282Y-88519481D01*
X112209481Y-89941282D01*
X112209477Y-89941287D01*
X112186099Y-89981782D01*
X112186098Y-89981784D01*
X112130423Y-90078215D01*
X112089499Y-90230943D01*
X112089499Y-90230945D01*
X112089499Y-90399046D01*
X112089500Y-90399059D01*
X112089500Y-90809740D01*
X112069815Y-90876779D01*
X112030293Y-90915466D01*
X112026733Y-90917647D01*
X111949708Y-90973610D01*
X111865582Y-91034731D01*
X111865580Y-91034733D01*
X111865579Y-91034733D01*
X111724733Y-91175579D01*
X111724733Y-91175580D01*
X111724731Y-91175582D01*
X111690652Y-91222488D01*
X111607647Y-91336733D01*
X111530485Y-91488172D01*
X111482510Y-91538968D01*
X111414689Y-91555763D01*
X111348554Y-91533225D01*
X111309515Y-91488172D01*
X111267877Y-91406453D01*
X111232353Y-91336734D01*
X111115269Y-91175582D01*
X110974418Y-91034731D01*
X110813266Y-90917647D01*
X110809707Y-90915466D01*
X110762833Y-90863652D01*
X110750500Y-90809740D01*
X110750500Y-90400097D01*
X110770185Y-90333058D01*
X110786819Y-90312416D01*
X113462416Y-87636819D01*
X113523739Y-87603334D01*
X113550097Y-87600500D01*
X164602044Y-87600500D01*
X164669083Y-87620185D01*
X164714838Y-87672989D01*
X164723661Y-87700309D01*
X164730261Y-87733489D01*
X164730264Y-87733501D01*
X164790602Y-87879172D01*
X164790609Y-87879185D01*
X164878210Y-88010288D01*
X164878213Y-88010292D01*
X164989707Y-88121786D01*
X164989711Y-88121789D01*
X165120814Y-88209390D01*
X165120827Y-88209397D01*
X165266498Y-88269735D01*
X165266503Y-88269737D01*
X165421153Y-88300499D01*
X165421156Y-88300500D01*
X165421158Y-88300500D01*
X165578844Y-88300500D01*
X165578845Y-88300499D01*
X165733497Y-88269737D01*
X165879179Y-88209394D01*
X166010289Y-88121789D01*
X166121789Y-88010289D01*
X166209394Y-87879179D01*
X166269737Y-87733497D01*
X166300500Y-87578842D01*
X166300500Y-87421158D01*
X166300500Y-87421155D01*
X166300499Y-87421153D01*
X166269738Y-87266510D01*
X166269737Y-87266503D01*
X166222006Y-87151269D01*
X166209397Y-87120827D01*
X166209390Y-87120814D01*
X166121789Y-86989711D01*
X166121786Y-86989707D01*
X166010292Y-86878213D01*
X166010288Y-86878210D01*
X165879185Y-86790609D01*
X165879172Y-86790602D01*
X165733501Y-86730264D01*
X165733491Y-86730261D01*
X165578151Y-86699362D01*
X165561394Y-86690596D01*
X165542916Y-86686577D01*
X165517875Y-86667831D01*
X165516241Y-86666977D01*
X165514664Y-86665428D01*
X165514660Y-86665425D01*
X165498735Y-86649500D01*
X165480521Y-86631285D01*
X165480520Y-86631284D01*
X165368716Y-86519480D01*
X165281904Y-86469360D01*
X165281904Y-86469359D01*
X165281900Y-86469358D01*
X165231785Y-86440423D01*
X165079057Y-86399499D01*
X164920943Y-86399499D01*
X164913347Y-86399499D01*
X164913331Y-86399500D01*
X127753439Y-86399500D01*
X127720938Y-86389956D01*
X127688272Y-86380995D01*
X127687502Y-86380138D01*
X127686400Y-86379815D01*
X127664231Y-86354230D01*
X127641582Y-86329016D01*
X127641397Y-86327879D01*
X127640645Y-86327011D01*
X127635823Y-86293479D01*
X127630406Y-86260046D01*
X127630864Y-86258992D01*
X127630701Y-86257853D01*
X127644781Y-86227021D01*
X127658292Y-86195983D01*
X127659417Y-86194971D01*
X127659726Y-86194297D01*
X127684548Y-86172398D01*
X127760875Y-86121398D01*
X127827553Y-86100520D01*
X127829766Y-86100500D01*
X166699903Y-86100500D01*
X166766942Y-86120185D01*
X166787584Y-86136819D01*
X170765139Y-90114374D01*
X170765149Y-90114385D01*
X170769479Y-90118715D01*
X170769480Y-90118716D01*
X170881284Y-90230520D01*
X170968095Y-90280639D01*
X170968097Y-90280641D01*
X171006151Y-90302611D01*
X171018215Y-90309577D01*
X171170943Y-90350500D01*
X171329057Y-90350500D01*
X174322682Y-90350500D01*
X174389721Y-90370185D01*
X174423139Y-90404324D01*
X174424192Y-90403560D01*
X174543115Y-90567246D01*
X174682753Y-90706884D01*
X174824325Y-90809740D01*
X174842499Y-90822944D01*
X174973151Y-90889515D01*
X175023947Y-90937490D01*
X175040742Y-91005311D01*
X175018204Y-91071446D01*
X174973151Y-91110484D01*
X174939726Y-91127516D01*
X174842495Y-91177058D01*
X174682753Y-91293115D01*
X174543115Y-91432753D01*
X174427058Y-91592495D01*
X174337408Y-91768441D01*
X174276389Y-91956236D01*
X174245500Y-92151263D01*
X174245500Y-92348736D01*
X174276389Y-92543763D01*
X174316639Y-92667638D01*
X174337409Y-92731561D01*
X174427056Y-92907501D01*
X174427058Y-92907504D01*
X174543115Y-93067246D01*
X174682753Y-93206884D01*
X174790525Y-93285183D01*
X174842499Y-93322944D01*
X175018439Y-93412591D01*
X175130264Y-93448925D01*
X175206236Y-93473610D01*
X175401264Y-93504500D01*
X175401269Y-93504500D01*
X175598736Y-93504500D01*
X175793763Y-93473610D01*
X175802719Y-93470700D01*
X175981561Y-93412591D01*
X176157501Y-93322944D01*
X176247192Y-93257779D01*
X176317246Y-93206884D01*
X176317248Y-93206881D01*
X176317252Y-93206879D01*
X176456879Y-93067252D01*
X176456881Y-93067248D01*
X176456884Y-93067246D01*
X176530973Y-92965269D01*
X176572944Y-92907501D01*
X176662591Y-92731561D01*
X176723610Y-92543763D01*
X176728557Y-92512530D01*
X176754500Y-92348736D01*
X176754500Y-92151263D01*
X176723610Y-91956236D01*
X176688647Y-91848631D01*
X176662591Y-91768439D01*
X176572944Y-91592499D01*
X176543865Y-91552475D01*
X176456884Y-91432753D01*
X176317246Y-91293115D01*
X176157505Y-91177058D01*
X176151830Y-91174166D01*
X176026846Y-91110483D01*
X175976052Y-91062510D01*
X175959257Y-90994689D01*
X175981794Y-90928554D01*
X176026845Y-90889517D01*
X176157501Y-90822944D01*
X176201188Y-90791204D01*
X176317246Y-90706884D01*
X176317248Y-90706881D01*
X176317252Y-90706879D01*
X176456879Y-90567252D01*
X176456881Y-90567248D01*
X176456884Y-90567246D01*
X176536099Y-90458214D01*
X176572944Y-90407501D01*
X176662591Y-90231561D01*
X176723610Y-90043763D01*
X176727224Y-90020943D01*
X176754500Y-89848736D01*
X176754500Y-89651263D01*
X176723610Y-89456236D01*
X176695173Y-89368716D01*
X176662591Y-89268439D01*
X176572944Y-89092499D01*
X176565486Y-89082234D01*
X176456884Y-88932753D01*
X176317246Y-88793115D01*
X176157505Y-88677058D01*
X176151830Y-88674166D01*
X176026846Y-88610483D01*
X175976052Y-88562510D01*
X175959257Y-88494689D01*
X175981794Y-88428554D01*
X176026845Y-88389517D01*
X176157501Y-88322944D01*
X176188394Y-88300499D01*
X176317246Y-88206884D01*
X176317248Y-88206881D01*
X176317252Y-88206879D01*
X176456879Y-88067252D01*
X176456881Y-88067248D01*
X176456884Y-88067246D01*
X176507779Y-87997192D01*
X176572944Y-87907501D01*
X176662591Y-87731561D01*
X176723610Y-87543763D01*
X176743029Y-87421158D01*
X176754500Y-87348736D01*
X176754500Y-87151263D01*
X176723610Y-86956236D01*
X176703270Y-86893637D01*
X176662591Y-86768439D01*
X176572944Y-86592499D01*
X176519894Y-86519481D01*
X176456884Y-86432753D01*
X176317246Y-86293115D01*
X176157505Y-86177058D01*
X176148359Y-86172398D01*
X176026846Y-86110483D01*
X175976052Y-86062510D01*
X175959257Y-85994689D01*
X175981794Y-85928554D01*
X176026845Y-85889517D01*
X176157501Y-85822944D01*
X176280610Y-85733501D01*
X176317246Y-85706884D01*
X176317248Y-85706881D01*
X176317252Y-85706879D01*
X176456879Y-85567252D01*
X176456881Y-85567248D01*
X176456884Y-85567246D01*
X176507779Y-85497192D01*
X176572944Y-85407501D01*
X176662591Y-85231561D01*
X176723610Y-85043763D01*
X176732172Y-84989707D01*
X176754500Y-84848736D01*
X176754500Y-84651263D01*
X176723610Y-84456236D01*
X176703270Y-84393637D01*
X176662591Y-84268439D01*
X176572944Y-84092499D01*
X176565486Y-84082234D01*
X176456884Y-83932753D01*
X176317246Y-83793115D01*
X176157504Y-83677058D01*
X176157503Y-83677057D01*
X176157501Y-83677056D01*
X175981561Y-83587409D01*
X175981558Y-83587408D01*
X175793763Y-83526389D01*
X175598736Y-83495500D01*
X175598731Y-83495500D01*
X175401269Y-83495500D01*
X175401264Y-83495500D01*
X175206236Y-83526389D01*
X175018441Y-83587408D01*
X174842495Y-83677058D01*
X174682753Y-83793115D01*
X174543115Y-83932753D01*
X174424192Y-84096440D01*
X174422761Y-84095400D01*
X174376593Y-84137167D01*
X174322682Y-84149500D01*
X174050098Y-84149500D01*
X173983059Y-84129815D01*
X173962417Y-84113181D01*
X168881723Y-79032487D01*
X168797371Y-78948135D01*
X174245500Y-78948135D01*
X174245500Y-80551870D01*
X174245501Y-80551876D01*
X174251908Y-80611483D01*
X174302202Y-80746328D01*
X174302206Y-80746335D01*
X174388452Y-80861544D01*
X174388455Y-80861547D01*
X174503664Y-80947793D01*
X174503671Y-80947797D01*
X174638517Y-80998091D01*
X174638516Y-80998091D01*
X174645444Y-80998835D01*
X174698127Y-81004500D01*
X176301872Y-81004499D01*
X176361483Y-80998091D01*
X176496331Y-80947796D01*
X176611546Y-80861546D01*
X176697796Y-80746331D01*
X176748091Y-80611483D01*
X176754500Y-80551873D01*
X176754499Y-78948128D01*
X176748091Y-78888517D01*
X176697796Y-78753669D01*
X176697795Y-78753668D01*
X176697793Y-78753664D01*
X176611547Y-78638455D01*
X176611544Y-78638452D01*
X176496335Y-78552206D01*
X176496328Y-78552202D01*
X176361482Y-78501908D01*
X176361483Y-78501908D01*
X176301883Y-78495501D01*
X176301881Y-78495500D01*
X176301873Y-78495500D01*
X176301864Y-78495500D01*
X174698129Y-78495500D01*
X174698123Y-78495501D01*
X174638516Y-78501908D01*
X174503671Y-78552202D01*
X174503664Y-78552206D01*
X174388455Y-78638452D01*
X174388452Y-78638455D01*
X174302206Y-78753664D01*
X174302202Y-78753671D01*
X174251908Y-78888517D01*
X174245501Y-78948116D01*
X174245501Y-78948123D01*
X174245500Y-78948135D01*
X168797371Y-78948135D01*
X161829692Y-71980457D01*
X161746883Y-71897648D01*
X171699500Y-71897648D01*
X171699500Y-72102351D01*
X171731522Y-72304534D01*
X171794781Y-72499223D01*
X171858691Y-72624653D01*
X171865673Y-72638355D01*
X171887715Y-72681613D01*
X172008028Y-72847213D01*
X172152786Y-72991971D01*
X172307749Y-73104556D01*
X172318390Y-73112287D01*
X172434607Y-73171503D01*
X172500776Y-73205218D01*
X172500778Y-73205218D01*
X172500781Y-73205220D01*
X172605137Y-73239127D01*
X172695465Y-73268477D01*
X172796557Y-73284488D01*
X172897648Y-73300500D01*
X172897649Y-73300500D01*
X173102351Y-73300500D01*
X173102352Y-73300500D01*
X173304534Y-73268477D01*
X173499219Y-73205220D01*
X173681610Y-73112287D01*
X173774590Y-73044732D01*
X173847213Y-72991971D01*
X173847215Y-72991968D01*
X173847219Y-72991966D01*
X173991966Y-72847219D01*
X173991968Y-72847215D01*
X173991971Y-72847213D01*
X174044732Y-72774590D01*
X174112287Y-72681610D01*
X174205220Y-72499219D01*
X174268477Y-72304534D01*
X174300500Y-72102352D01*
X174300500Y-71897648D01*
X174298916Y-71887650D01*
X174268477Y-71695465D01*
X174239127Y-71605137D01*
X174205220Y-71500781D01*
X174205218Y-71500778D01*
X174205218Y-71500776D01*
X174171503Y-71434607D01*
X174112287Y-71318390D01*
X174104556Y-71307749D01*
X173991971Y-71152786D01*
X173847213Y-71008028D01*
X173681613Y-70887715D01*
X173681612Y-70887714D01*
X173681610Y-70887713D01*
X173624653Y-70858691D01*
X173499223Y-70794781D01*
X173304534Y-70731522D01*
X173129995Y-70703878D01*
X173102352Y-70699500D01*
X172897648Y-70699500D01*
X172873329Y-70703351D01*
X172695465Y-70731522D01*
X172500776Y-70794781D01*
X172318386Y-70887715D01*
X172152786Y-71008028D01*
X172008028Y-71152786D01*
X171887715Y-71318386D01*
X171794781Y-71500776D01*
X171731522Y-71695465D01*
X171699500Y-71897648D01*
X161746883Y-71897648D01*
X160987590Y-71138355D01*
X160987588Y-71138352D01*
X160868717Y-71019481D01*
X160868716Y-71019480D01*
X160764960Y-70959577D01*
X160764959Y-70959576D01*
X160731783Y-70940422D01*
X160675881Y-70925443D01*
X160579057Y-70899499D01*
X160420943Y-70899499D01*
X160413347Y-70899499D01*
X160413331Y-70899500D01*
X114300098Y-70899500D01*
X114233059Y-70879815D01*
X114212417Y-70863181D01*
X113572142Y-70222906D01*
X113538657Y-70161583D01*
X113543641Y-70091891D01*
X113572138Y-70047548D01*
X113655269Y-69964418D01*
X113772353Y-69803266D01*
X113849515Y-69651827D01*
X113897490Y-69601031D01*
X113965311Y-69584236D01*
X114031446Y-69606773D01*
X114070485Y-69651827D01*
X114147647Y-69803266D01*
X114264731Y-69964418D01*
X114405582Y-70105269D01*
X114566734Y-70222353D01*
X114658396Y-70269057D01*
X114744219Y-70312786D01*
X114933657Y-70374338D01*
X114933658Y-70374338D01*
X114933661Y-70374339D01*
X115130403Y-70405500D01*
X115130404Y-70405500D01*
X115329596Y-70405500D01*
X115329597Y-70405500D01*
X115526339Y-70374339D01*
X115526342Y-70374338D01*
X115526343Y-70374338D01*
X115715780Y-70312786D01*
X115715780Y-70312785D01*
X115715783Y-70312785D01*
X115893266Y-70222353D01*
X116054418Y-70105269D01*
X116195269Y-69964418D01*
X116312353Y-69803266D01*
X116389515Y-69651827D01*
X116437490Y-69601031D01*
X116505311Y-69584236D01*
X116571446Y-69606773D01*
X116610485Y-69651827D01*
X116687647Y-69803266D01*
X116804731Y-69964418D01*
X116945582Y-70105269D01*
X117106734Y-70222353D01*
X117198396Y-70269057D01*
X117284219Y-70312786D01*
X117473657Y-70374338D01*
X117473658Y-70374338D01*
X117473661Y-70374339D01*
X117670403Y-70405500D01*
X117670404Y-70405500D01*
X117869596Y-70405500D01*
X117869597Y-70405500D01*
X118066339Y-70374339D01*
X118066342Y-70374338D01*
X118066343Y-70374338D01*
X118255780Y-70312786D01*
X118255780Y-70312785D01*
X118255783Y-70312785D01*
X118433266Y-70222353D01*
X118594418Y-70105269D01*
X118735269Y-69964418D01*
X118852353Y-69803266D01*
X118929515Y-69651827D01*
X118977490Y-69601031D01*
X119045311Y-69584236D01*
X119111446Y-69606773D01*
X119150485Y-69651827D01*
X119227647Y-69803266D01*
X119344731Y-69964418D01*
X119485582Y-70105269D01*
X119646734Y-70222353D01*
X119738396Y-70269057D01*
X119824219Y-70312786D01*
X120013657Y-70374338D01*
X120013658Y-70374338D01*
X120013661Y-70374339D01*
X120210403Y-70405500D01*
X120210404Y-70405500D01*
X120409596Y-70405500D01*
X120409597Y-70405500D01*
X120606339Y-70374339D01*
X120606342Y-70374338D01*
X120606343Y-70374338D01*
X120795780Y-70312786D01*
X120795780Y-70312785D01*
X120795783Y-70312785D01*
X120973266Y-70222353D01*
X121134418Y-70105269D01*
X121275269Y-69964418D01*
X121392353Y-69803266D01*
X121469515Y-69651827D01*
X121517490Y-69601031D01*
X121585311Y-69584236D01*
X121651446Y-69606773D01*
X121690485Y-69651827D01*
X121767647Y-69803266D01*
X121884731Y-69964418D01*
X122025582Y-70105269D01*
X122186734Y-70222353D01*
X122278396Y-70269057D01*
X122364219Y-70312786D01*
X122553657Y-70374338D01*
X122553658Y-70374338D01*
X122553661Y-70374339D01*
X122750403Y-70405500D01*
X122750404Y-70405500D01*
X122949596Y-70405500D01*
X122949597Y-70405500D01*
X123146339Y-70374339D01*
X123146342Y-70374338D01*
X123146343Y-70374338D01*
X123335780Y-70312786D01*
X123335780Y-70312785D01*
X123335783Y-70312785D01*
X123513266Y-70222353D01*
X123674418Y-70105269D01*
X123815269Y-69964418D01*
X123932353Y-69803266D01*
X124009515Y-69651827D01*
X124057490Y-69601031D01*
X124125311Y-69584236D01*
X124191446Y-69606773D01*
X124230485Y-69651827D01*
X124307647Y-69803266D01*
X124424731Y-69964418D01*
X124565582Y-70105269D01*
X124726734Y-70222353D01*
X124818396Y-70269057D01*
X124904219Y-70312786D01*
X125093657Y-70374338D01*
X125093658Y-70374338D01*
X125093661Y-70374339D01*
X125290403Y-70405500D01*
X125290404Y-70405500D01*
X125489596Y-70405500D01*
X125489597Y-70405500D01*
X125686339Y-70374339D01*
X125686342Y-70374338D01*
X125686343Y-70374338D01*
X125875780Y-70312786D01*
X125875780Y-70312785D01*
X125875783Y-70312785D01*
X126053266Y-70222353D01*
X126214418Y-70105269D01*
X126355269Y-69964418D01*
X126472353Y-69803266D01*
X126549515Y-69651827D01*
X126597490Y-69601031D01*
X126665311Y-69584236D01*
X126731446Y-69606773D01*
X126770485Y-69651827D01*
X126847647Y-69803266D01*
X126964731Y-69964418D01*
X127105582Y-70105269D01*
X127266734Y-70222353D01*
X127358396Y-70269057D01*
X127444219Y-70312786D01*
X127633657Y-70374338D01*
X127633658Y-70374338D01*
X127633661Y-70374339D01*
X127830403Y-70405500D01*
X127830404Y-70405500D01*
X128029596Y-70405500D01*
X128029597Y-70405500D01*
X128226339Y-70374339D01*
X128226342Y-70374338D01*
X128226343Y-70374338D01*
X128415780Y-70312786D01*
X128415780Y-70312785D01*
X128415783Y-70312785D01*
X128593266Y-70222353D01*
X128754418Y-70105269D01*
X128895269Y-69964418D01*
X129012353Y-69803266D01*
X129089515Y-69651827D01*
X129137490Y-69601031D01*
X129205311Y-69584236D01*
X129271446Y-69606773D01*
X129310485Y-69651827D01*
X129387647Y-69803266D01*
X129504731Y-69964418D01*
X129645582Y-70105269D01*
X129806734Y-70222353D01*
X129898396Y-70269057D01*
X129984219Y-70312786D01*
X130173657Y-70374338D01*
X130173658Y-70374338D01*
X130173661Y-70374339D01*
X130370403Y-70405500D01*
X130370404Y-70405500D01*
X130569596Y-70405500D01*
X130569597Y-70405500D01*
X130766339Y-70374339D01*
X130766342Y-70374338D01*
X130766343Y-70374338D01*
X130955780Y-70312786D01*
X130955780Y-70312785D01*
X130955783Y-70312785D01*
X131133266Y-70222353D01*
X131294418Y-70105269D01*
X131435269Y-69964418D01*
X131552353Y-69803266D01*
X131629515Y-69651827D01*
X131677490Y-69601031D01*
X131745311Y-69584236D01*
X131811446Y-69606773D01*
X131850485Y-69651827D01*
X131927647Y-69803266D01*
X132044731Y-69964418D01*
X132185582Y-70105269D01*
X132346734Y-70222353D01*
X132438396Y-70269057D01*
X132524219Y-70312786D01*
X132713657Y-70374338D01*
X132713658Y-70374338D01*
X132713661Y-70374339D01*
X132910403Y-70405500D01*
X132910404Y-70405500D01*
X133109596Y-70405500D01*
X133109597Y-70405500D01*
X133306339Y-70374339D01*
X133306342Y-70374338D01*
X133306343Y-70374338D01*
X133495780Y-70312786D01*
X133495780Y-70312785D01*
X133495783Y-70312785D01*
X133673266Y-70222353D01*
X133834418Y-70105269D01*
X133975269Y-69964418D01*
X134092353Y-69803266D01*
X134169515Y-69651827D01*
X134217490Y-69601031D01*
X134285311Y-69584236D01*
X134351446Y-69606773D01*
X134390485Y-69651827D01*
X134467647Y-69803266D01*
X134584731Y-69964418D01*
X134725582Y-70105269D01*
X134886734Y-70222353D01*
X134978396Y-70269057D01*
X135064219Y-70312786D01*
X135253657Y-70374338D01*
X135253658Y-70374338D01*
X135253661Y-70374339D01*
X135450403Y-70405500D01*
X135450404Y-70405500D01*
X135649596Y-70405500D01*
X135649597Y-70405500D01*
X135846339Y-70374339D01*
X135846342Y-70374338D01*
X135846343Y-70374338D01*
X136035780Y-70312786D01*
X136035780Y-70312785D01*
X136035783Y-70312785D01*
X136213266Y-70222353D01*
X136374418Y-70105269D01*
X136515269Y-69964418D01*
X136632353Y-69803266D01*
X136709515Y-69651827D01*
X136757490Y-69601031D01*
X136825311Y-69584236D01*
X136891446Y-69606773D01*
X136930485Y-69651827D01*
X137007647Y-69803266D01*
X137124731Y-69964418D01*
X137265582Y-70105269D01*
X137426734Y-70222353D01*
X137518396Y-70269057D01*
X137604219Y-70312786D01*
X137793657Y-70374338D01*
X137793658Y-70374338D01*
X137793661Y-70374339D01*
X137990403Y-70405500D01*
X137990404Y-70405500D01*
X138189596Y-70405500D01*
X138189597Y-70405500D01*
X138386339Y-70374339D01*
X138386342Y-70374338D01*
X138386343Y-70374338D01*
X138575780Y-70312786D01*
X138575780Y-70312785D01*
X138575783Y-70312785D01*
X138753266Y-70222353D01*
X138914418Y-70105269D01*
X139055269Y-69964418D01*
X139172353Y-69803266D01*
X139249515Y-69651827D01*
X139297490Y-69601031D01*
X139365311Y-69584236D01*
X139431446Y-69606773D01*
X139470485Y-69651827D01*
X139547647Y-69803266D01*
X139664731Y-69964418D01*
X139805582Y-70105269D01*
X139966734Y-70222353D01*
X140058396Y-70269057D01*
X140144219Y-70312786D01*
X140333657Y-70374338D01*
X140333658Y-70374338D01*
X140333661Y-70374339D01*
X140530403Y-70405500D01*
X140530404Y-70405500D01*
X140729596Y-70405500D01*
X140729597Y-70405500D01*
X140926339Y-70374339D01*
X140926342Y-70374338D01*
X140926343Y-70374338D01*
X141115780Y-70312786D01*
X141115780Y-70312785D01*
X141115783Y-70312785D01*
X141293266Y-70222353D01*
X141454418Y-70105269D01*
X141595269Y-69964418D01*
X141712353Y-69803266D01*
X141789515Y-69651827D01*
X141837490Y-69601031D01*
X141905311Y-69584236D01*
X141971446Y-69606773D01*
X142010485Y-69651827D01*
X142087647Y-69803266D01*
X142204731Y-69964418D01*
X142345582Y-70105269D01*
X142506734Y-70222353D01*
X142598396Y-70269057D01*
X142684219Y-70312786D01*
X142873657Y-70374338D01*
X142873658Y-70374338D01*
X142873661Y-70374339D01*
X143070403Y-70405500D01*
X143070404Y-70405500D01*
X143269596Y-70405500D01*
X143269597Y-70405500D01*
X143466339Y-70374339D01*
X143466342Y-70374338D01*
X143466343Y-70374338D01*
X143655780Y-70312786D01*
X143655780Y-70312785D01*
X143655783Y-70312785D01*
X143833266Y-70222353D01*
X143994418Y-70105269D01*
X144135269Y-69964418D01*
X144252353Y-69803266D01*
X144329515Y-69651827D01*
X144377490Y-69601031D01*
X144445311Y-69584236D01*
X144511446Y-69606773D01*
X144550485Y-69651827D01*
X144627647Y-69803266D01*
X144744731Y-69964418D01*
X144885582Y-70105269D01*
X145046734Y-70222353D01*
X145138396Y-70269057D01*
X145224219Y-70312786D01*
X145413657Y-70374338D01*
X145413658Y-70374338D01*
X145413661Y-70374339D01*
X145610403Y-70405500D01*
X145610404Y-70405500D01*
X145809596Y-70405500D01*
X145809597Y-70405500D01*
X146006339Y-70374339D01*
X146006342Y-70374338D01*
X146006343Y-70374338D01*
X146195780Y-70312786D01*
X146195780Y-70312785D01*
X146195783Y-70312785D01*
X146373266Y-70222353D01*
X146534418Y-70105269D01*
X146675269Y-69964418D01*
X146792353Y-69803266D01*
X146869515Y-69651827D01*
X146917490Y-69601031D01*
X146985311Y-69584236D01*
X147051446Y-69606773D01*
X147090485Y-69651827D01*
X147167647Y-69803266D01*
X147284731Y-69964418D01*
X147425582Y-70105269D01*
X147586734Y-70222353D01*
X147678396Y-70269057D01*
X147764219Y-70312786D01*
X147953657Y-70374338D01*
X147953658Y-70374338D01*
X147953661Y-70374339D01*
X148150403Y-70405500D01*
X148150404Y-70405500D01*
X148349596Y-70405500D01*
X148349597Y-70405500D01*
X148546339Y-70374339D01*
X148546342Y-70374338D01*
X148546343Y-70374338D01*
X148735780Y-70312786D01*
X148735780Y-70312785D01*
X148735783Y-70312785D01*
X148913266Y-70222353D01*
X149074418Y-70105269D01*
X149215269Y-69964418D01*
X149332353Y-69803266D01*
X149409515Y-69651827D01*
X149457490Y-69601031D01*
X149525311Y-69584236D01*
X149591446Y-69606773D01*
X149630485Y-69651827D01*
X149707647Y-69803266D01*
X149824731Y-69964418D01*
X149965582Y-70105269D01*
X150126734Y-70222353D01*
X150218396Y-70269057D01*
X150304219Y-70312786D01*
X150493657Y-70374338D01*
X150493658Y-70374338D01*
X150493661Y-70374339D01*
X150690403Y-70405500D01*
X150690404Y-70405500D01*
X150889596Y-70405500D01*
X150889597Y-70405500D01*
X151086339Y-70374339D01*
X151086342Y-70374338D01*
X151086343Y-70374338D01*
X151275780Y-70312786D01*
X151275780Y-70312785D01*
X151275783Y-70312785D01*
X151453266Y-70222353D01*
X151614418Y-70105269D01*
X151755269Y-69964418D01*
X151872353Y-69803266D01*
X151962785Y-69625783D01*
X151970827Y-69601031D01*
X152024338Y-69436343D01*
X152024338Y-69436342D01*
X152024339Y-69436339D01*
X152055500Y-69239597D01*
X152055500Y-69040403D01*
X152024339Y-68843661D01*
X152024338Y-68843657D01*
X152024338Y-68843656D01*
X151962786Y-68654219D01*
X151944446Y-68618224D01*
X151872353Y-68476734D01*
X151755269Y-68315582D01*
X151614418Y-68174731D01*
X151453266Y-68057647D01*
X151275780Y-67967213D01*
X151086342Y-67905661D01*
X150938782Y-67882290D01*
X150889597Y-67874500D01*
X150690403Y-67874500D01*
X150624822Y-67884887D01*
X150493659Y-67905661D01*
X150493656Y-67905661D01*
X150304219Y-67967213D01*
X150126733Y-68057647D01*
X150034790Y-68124447D01*
X149965582Y-68174731D01*
X149965580Y-68174733D01*
X149965579Y-68174733D01*
X149824733Y-68315579D01*
X149824733Y-68315580D01*
X149824731Y-68315582D01*
X149774447Y-68384790D01*
X149707647Y-68476733D01*
X149630485Y-68628172D01*
X149582510Y-68678968D01*
X149514689Y-68695763D01*
X149448554Y-68673225D01*
X149409515Y-68628172D01*
X149332352Y-68476733D01*
X149215269Y-68315582D01*
X149074418Y-68174731D01*
X148913266Y-68057647D01*
X148735780Y-67967213D01*
X148546342Y-67905661D01*
X148398782Y-67882290D01*
X148349597Y-67874500D01*
X148150403Y-67874500D01*
X148084822Y-67884887D01*
X147953659Y-67905661D01*
X147953656Y-67905661D01*
X147764219Y-67967213D01*
X147586733Y-68057647D01*
X147494790Y-68124447D01*
X147425582Y-68174731D01*
X147425580Y-68174733D01*
X147425579Y-68174733D01*
X147284733Y-68315579D01*
X147284733Y-68315580D01*
X147284731Y-68315582D01*
X147234447Y-68384790D01*
X147167647Y-68476733D01*
X147090485Y-68628172D01*
X147042510Y-68678968D01*
X146974689Y-68695763D01*
X146908554Y-68673225D01*
X146869515Y-68628172D01*
X146792352Y-68476733D01*
X146675269Y-68315582D01*
X146534418Y-68174731D01*
X146373266Y-68057647D01*
X146195780Y-67967213D01*
X146006342Y-67905661D01*
X145858782Y-67882290D01*
X145809597Y-67874500D01*
X145610403Y-67874500D01*
X145544822Y-67884887D01*
X145413659Y-67905661D01*
X145413656Y-67905661D01*
X145224219Y-67967213D01*
X145046733Y-68057647D01*
X144954790Y-68124447D01*
X144885582Y-68174731D01*
X144885580Y-68174733D01*
X144885579Y-68174733D01*
X144744733Y-68315579D01*
X144744733Y-68315580D01*
X144744731Y-68315582D01*
X144694447Y-68384790D01*
X144627647Y-68476733D01*
X144550485Y-68628172D01*
X144502510Y-68678968D01*
X144434689Y-68695763D01*
X144368554Y-68673225D01*
X144329515Y-68628172D01*
X144252352Y-68476733D01*
X144135269Y-68315582D01*
X143994418Y-68174731D01*
X143833266Y-68057647D01*
X143655780Y-67967213D01*
X143466342Y-67905661D01*
X143318782Y-67882290D01*
X143269597Y-67874500D01*
X143070403Y-67874500D01*
X143004822Y-67884887D01*
X142873659Y-67905661D01*
X142873656Y-67905661D01*
X142684219Y-67967213D01*
X142506733Y-68057647D01*
X142414790Y-68124447D01*
X142345582Y-68174731D01*
X142345580Y-68174733D01*
X142345579Y-68174733D01*
X142204733Y-68315579D01*
X142204733Y-68315580D01*
X142204731Y-68315582D01*
X142154447Y-68384790D01*
X142087647Y-68476733D01*
X142010485Y-68628172D01*
X141962510Y-68678968D01*
X141894689Y-68695763D01*
X141828554Y-68673225D01*
X141789515Y-68628172D01*
X141712352Y-68476733D01*
X141595269Y-68315582D01*
X141454418Y-68174731D01*
X141293266Y-68057647D01*
X141115780Y-67967213D01*
X140926342Y-67905661D01*
X140778782Y-67882290D01*
X140729597Y-67874500D01*
X140530403Y-67874500D01*
X140464822Y-67884887D01*
X140333659Y-67905661D01*
X140333656Y-67905661D01*
X140144219Y-67967213D01*
X139966733Y-68057647D01*
X139874790Y-68124447D01*
X139805582Y-68174731D01*
X139805580Y-68174733D01*
X139805579Y-68174733D01*
X139664733Y-68315579D01*
X139664733Y-68315580D01*
X139664731Y-68315582D01*
X139614447Y-68384790D01*
X139547647Y-68476733D01*
X139470485Y-68628172D01*
X139422510Y-68678968D01*
X139354689Y-68695763D01*
X139288554Y-68673225D01*
X139249515Y-68628172D01*
X139172352Y-68476733D01*
X139055269Y-68315582D01*
X138914418Y-68174731D01*
X138753266Y-68057647D01*
X138575780Y-67967213D01*
X138386342Y-67905661D01*
X138238782Y-67882290D01*
X138189597Y-67874500D01*
X137990403Y-67874500D01*
X137924822Y-67884887D01*
X137793659Y-67905661D01*
X137793656Y-67905661D01*
X137604219Y-67967213D01*
X137426733Y-68057647D01*
X137334790Y-68124447D01*
X137265582Y-68174731D01*
X137265580Y-68174733D01*
X137265579Y-68174733D01*
X137124733Y-68315579D01*
X137124733Y-68315580D01*
X137124731Y-68315582D01*
X137074447Y-68384790D01*
X137007647Y-68476733D01*
X136930485Y-68628172D01*
X136882510Y-68678968D01*
X136814689Y-68695763D01*
X136748554Y-68673225D01*
X136709515Y-68628172D01*
X136632352Y-68476733D01*
X136515269Y-68315582D01*
X136374418Y-68174731D01*
X136213266Y-68057647D01*
X136035780Y-67967213D01*
X135846342Y-67905661D01*
X135698782Y-67882290D01*
X135649597Y-67874500D01*
X135450403Y-67874500D01*
X135384822Y-67884887D01*
X135253659Y-67905661D01*
X135253656Y-67905661D01*
X135064219Y-67967213D01*
X134886733Y-68057647D01*
X134794790Y-68124447D01*
X134725582Y-68174731D01*
X134725580Y-68174733D01*
X134725579Y-68174733D01*
X134584733Y-68315579D01*
X134584733Y-68315580D01*
X134584731Y-68315582D01*
X134534447Y-68384790D01*
X134467647Y-68476733D01*
X134390485Y-68628172D01*
X134342510Y-68678968D01*
X134274689Y-68695763D01*
X134208554Y-68673225D01*
X134169515Y-68628172D01*
X134092352Y-68476733D01*
X133975269Y-68315582D01*
X133834418Y-68174731D01*
X133673266Y-68057647D01*
X133495780Y-67967213D01*
X133306342Y-67905661D01*
X133158782Y-67882290D01*
X133109597Y-67874500D01*
X132910403Y-67874500D01*
X132844822Y-67884887D01*
X132713659Y-67905661D01*
X132713656Y-67905661D01*
X132524219Y-67967213D01*
X132346733Y-68057647D01*
X132254790Y-68124447D01*
X132185582Y-68174731D01*
X132185580Y-68174733D01*
X132185579Y-68174733D01*
X132044733Y-68315579D01*
X132044733Y-68315580D01*
X132044731Y-68315582D01*
X131994447Y-68384790D01*
X131927647Y-68476733D01*
X131850485Y-68628172D01*
X131802510Y-68678968D01*
X131734689Y-68695763D01*
X131668554Y-68673225D01*
X131629515Y-68628172D01*
X131552352Y-68476733D01*
X131435269Y-68315582D01*
X131294418Y-68174731D01*
X131133266Y-68057647D01*
X130955780Y-67967213D01*
X130766342Y-67905661D01*
X130618782Y-67882290D01*
X130569597Y-67874500D01*
X130370403Y-67874500D01*
X130304822Y-67884887D01*
X130173659Y-67905661D01*
X130173656Y-67905661D01*
X129984219Y-67967213D01*
X129806733Y-68057647D01*
X129714790Y-68124447D01*
X129645582Y-68174731D01*
X129645580Y-68174733D01*
X129645579Y-68174733D01*
X129504733Y-68315579D01*
X129504733Y-68315580D01*
X129504731Y-68315582D01*
X129454447Y-68384790D01*
X129387647Y-68476733D01*
X129310485Y-68628172D01*
X129262510Y-68678968D01*
X129194689Y-68695763D01*
X129128554Y-68673225D01*
X129089515Y-68628172D01*
X129012352Y-68476733D01*
X128895269Y-68315582D01*
X128754418Y-68174731D01*
X128593266Y-68057647D01*
X128415780Y-67967213D01*
X128226342Y-67905661D01*
X128078782Y-67882290D01*
X128029597Y-67874500D01*
X127830403Y-67874500D01*
X127764822Y-67884887D01*
X127633659Y-67905661D01*
X127633656Y-67905661D01*
X127444219Y-67967213D01*
X127266733Y-68057647D01*
X127174790Y-68124447D01*
X127105582Y-68174731D01*
X127105580Y-68174733D01*
X127105579Y-68174733D01*
X126964733Y-68315579D01*
X126964733Y-68315580D01*
X126964731Y-68315582D01*
X126914447Y-68384790D01*
X126847647Y-68476733D01*
X126770485Y-68628172D01*
X126722510Y-68678968D01*
X126654689Y-68695763D01*
X126588554Y-68673225D01*
X126549515Y-68628172D01*
X126472352Y-68476733D01*
X126355269Y-68315582D01*
X126214418Y-68174731D01*
X126053266Y-68057647D01*
X125875780Y-67967213D01*
X125686342Y-67905661D01*
X125538782Y-67882290D01*
X125489597Y-67874500D01*
X125290403Y-67874500D01*
X125224822Y-67884887D01*
X125093659Y-67905661D01*
X125093656Y-67905661D01*
X124904219Y-67967213D01*
X124726733Y-68057647D01*
X124634790Y-68124447D01*
X124565582Y-68174731D01*
X124565580Y-68174733D01*
X124565579Y-68174733D01*
X124424733Y-68315579D01*
X124424733Y-68315580D01*
X124424731Y-68315582D01*
X124374447Y-68384790D01*
X124307647Y-68476733D01*
X124230485Y-68628172D01*
X124182510Y-68678968D01*
X124114689Y-68695763D01*
X124048554Y-68673225D01*
X124009515Y-68628172D01*
X123932352Y-68476733D01*
X123815269Y-68315582D01*
X123674418Y-68174731D01*
X123513266Y-68057647D01*
X123335780Y-67967213D01*
X123146342Y-67905661D01*
X122998782Y-67882290D01*
X122949597Y-67874500D01*
X122750403Y-67874500D01*
X122684822Y-67884887D01*
X122553659Y-67905661D01*
X122553656Y-67905661D01*
X122364219Y-67967213D01*
X122186733Y-68057647D01*
X122094790Y-68124447D01*
X122025582Y-68174731D01*
X122025580Y-68174733D01*
X122025579Y-68174733D01*
X121884733Y-68315579D01*
X121884733Y-68315580D01*
X121884731Y-68315582D01*
X121834447Y-68384790D01*
X121767647Y-68476733D01*
X121690485Y-68628172D01*
X121642510Y-68678968D01*
X121574689Y-68695763D01*
X121508554Y-68673225D01*
X121469515Y-68628172D01*
X121392352Y-68476733D01*
X121275269Y-68315582D01*
X121134418Y-68174731D01*
X120973266Y-68057647D01*
X120795780Y-67967213D01*
X120606342Y-67905661D01*
X120458782Y-67882290D01*
X120409597Y-67874500D01*
X120210403Y-67874500D01*
X120144822Y-67884887D01*
X120013659Y-67905661D01*
X120013656Y-67905661D01*
X119824219Y-67967213D01*
X119646733Y-68057647D01*
X119554790Y-68124447D01*
X119485582Y-68174731D01*
X119485580Y-68174733D01*
X119485579Y-68174733D01*
X119344733Y-68315579D01*
X119344733Y-68315580D01*
X119344731Y-68315582D01*
X119294447Y-68384790D01*
X119227647Y-68476733D01*
X119150485Y-68628172D01*
X119102510Y-68678968D01*
X119034689Y-68695763D01*
X118968554Y-68673225D01*
X118929515Y-68628172D01*
X118852352Y-68476733D01*
X118735269Y-68315582D01*
X118594418Y-68174731D01*
X118433266Y-68057647D01*
X118255780Y-67967213D01*
X118066342Y-67905661D01*
X117918782Y-67882290D01*
X117869597Y-67874500D01*
X117670403Y-67874500D01*
X117604822Y-67884887D01*
X117473659Y-67905661D01*
X117473656Y-67905661D01*
X117284219Y-67967213D01*
X117106733Y-68057647D01*
X117014790Y-68124447D01*
X116945582Y-68174731D01*
X116945580Y-68174733D01*
X116945579Y-68174733D01*
X116804733Y-68315579D01*
X116804733Y-68315580D01*
X116804731Y-68315582D01*
X116754447Y-68384790D01*
X116687647Y-68476733D01*
X116610485Y-68628172D01*
X116562510Y-68678968D01*
X116494689Y-68695763D01*
X116428554Y-68673225D01*
X116389515Y-68628172D01*
X116312352Y-68476733D01*
X116195269Y-68315582D01*
X116054418Y-68174731D01*
X115893266Y-68057647D01*
X115715780Y-67967213D01*
X115526342Y-67905661D01*
X115378782Y-67882290D01*
X115329597Y-67874500D01*
X115130403Y-67874500D01*
X115064822Y-67884887D01*
X114933659Y-67905661D01*
X114933656Y-67905661D01*
X114744219Y-67967213D01*
X114566733Y-68057647D01*
X114474790Y-68124447D01*
X114405582Y-68174731D01*
X114405580Y-68174733D01*
X114405579Y-68174733D01*
X114264733Y-68315579D01*
X114264733Y-68315580D01*
X114264731Y-68315582D01*
X114214447Y-68384790D01*
X114147647Y-68476733D01*
X114070485Y-68628172D01*
X114022510Y-68678968D01*
X113954689Y-68695763D01*
X113888554Y-68673225D01*
X113849515Y-68628172D01*
X113772352Y-68476733D01*
X113655269Y-68315582D01*
X113514418Y-68174731D01*
X113353266Y-68057647D01*
X113175780Y-67967213D01*
X112986342Y-67905661D01*
X112838782Y-67882290D01*
X112789597Y-67874500D01*
X112590403Y-67874500D01*
X112524822Y-67884887D01*
X112393659Y-67905661D01*
X112393656Y-67905661D01*
X112204219Y-67967213D01*
X112026733Y-68057647D01*
X111934790Y-68124447D01*
X111865582Y-68174731D01*
X111865580Y-68174733D01*
X111865579Y-68174733D01*
X111724733Y-68315579D01*
X111724733Y-68315580D01*
X111724731Y-68315582D01*
X111674447Y-68384790D01*
X111607647Y-68476733D01*
X111530485Y-68628172D01*
X111482510Y-68678968D01*
X111414689Y-68695763D01*
X111348554Y-68673225D01*
X111309515Y-68628172D01*
X111232352Y-68476733D01*
X111115269Y-68315582D01*
X110974418Y-68174731D01*
X110813266Y-68057647D01*
X110635780Y-67967213D01*
X110446342Y-67905661D01*
X110298782Y-67882290D01*
X110249597Y-67874500D01*
X110050403Y-67874500D01*
X109984822Y-67884887D01*
X109853659Y-67905661D01*
X109853656Y-67905661D01*
X109664219Y-67967213D01*
X109486733Y-68057647D01*
X109394790Y-68124447D01*
X109325582Y-68174731D01*
X109325580Y-68174733D01*
X109325579Y-68174733D01*
X109184733Y-68315579D01*
X109184733Y-68315580D01*
X109184731Y-68315582D01*
X109134447Y-68384790D01*
X109067647Y-68476733D01*
X108990485Y-68628172D01*
X108942510Y-68678968D01*
X108874689Y-68695763D01*
X108808554Y-68673225D01*
X108769515Y-68628172D01*
X108692352Y-68476733D01*
X108575269Y-68315582D01*
X108434418Y-68174731D01*
X108273266Y-68057647D01*
X108095780Y-67967213D01*
X107906342Y-67905661D01*
X107758782Y-67882290D01*
X107709597Y-67874500D01*
X107510403Y-67874500D01*
X107444822Y-67884887D01*
X107313659Y-67905661D01*
X107313656Y-67905661D01*
X107124219Y-67967213D01*
X106946733Y-68057647D01*
X106854790Y-68124447D01*
X106785582Y-68174731D01*
X106785580Y-68174733D01*
X106785579Y-68174733D01*
X106644733Y-68315579D01*
X106644733Y-68315580D01*
X106644731Y-68315582D01*
X106594447Y-68384790D01*
X106527647Y-68476733D01*
X106450485Y-68628172D01*
X106402510Y-68678968D01*
X106334689Y-68695763D01*
X106268554Y-68673225D01*
X106229515Y-68628172D01*
X106152352Y-68476733D01*
X106035269Y-68315582D01*
X105894418Y-68174731D01*
X105733266Y-68057647D01*
X105555780Y-67967213D01*
X105366342Y-67905661D01*
X105218782Y-67882290D01*
X105169597Y-67874500D01*
X104970403Y-67874500D01*
X104904822Y-67884887D01*
X104773659Y-67905661D01*
X104773656Y-67905661D01*
X104584219Y-67967213D01*
X104406733Y-68057647D01*
X104314790Y-68124447D01*
X104245582Y-68174731D01*
X104245580Y-68174733D01*
X104245579Y-68174733D01*
X104104733Y-68315579D01*
X104104733Y-68315580D01*
X104104731Y-68315582D01*
X104054447Y-68384790D01*
X103987647Y-68476733D01*
X103897213Y-68654219D01*
X103835661Y-68843656D01*
X103835661Y-68843659D01*
X103804500Y-69040403D01*
X103804500Y-69239596D01*
X103835661Y-69436340D01*
X103835661Y-69436343D01*
X103897213Y-69625780D01*
X103897215Y-69625783D01*
X103987647Y-69803266D01*
X104104731Y-69964418D01*
X104245582Y-70105269D01*
X104406734Y-70222353D01*
X104498396Y-70269057D01*
X104584219Y-70312786D01*
X104773657Y-70374338D01*
X104773658Y-70374338D01*
X104773661Y-70374339D01*
X104970403Y-70405500D01*
X104970404Y-70405500D01*
X105169596Y-70405500D01*
X105169597Y-70405500D01*
X105366339Y-70374339D01*
X105366342Y-70374338D01*
X105366343Y-70374338D01*
X105555780Y-70312786D01*
X105555780Y-70312785D01*
X105555783Y-70312785D01*
X105733266Y-70222353D01*
X105894418Y-70105269D01*
X106035269Y-69964418D01*
X106152353Y-69803266D01*
X106229515Y-69651827D01*
X106277490Y-69601031D01*
X106345311Y-69584236D01*
X106411446Y-69606773D01*
X106450485Y-69651827D01*
X106527647Y-69803266D01*
X106644731Y-69964418D01*
X106785582Y-70105269D01*
X106946734Y-70222353D01*
X107038396Y-70269057D01*
X107124219Y-70312786D01*
X107313657Y-70374338D01*
X107313658Y-70374338D01*
X107313661Y-70374339D01*
X107510403Y-70405500D01*
X107510404Y-70405500D01*
X107709596Y-70405500D01*
X107709597Y-70405500D01*
X107906339Y-70374339D01*
X107906342Y-70374338D01*
X107906343Y-70374338D01*
X108095780Y-70312786D01*
X108095780Y-70312785D01*
X108095783Y-70312785D01*
X108273266Y-70222353D01*
X108434418Y-70105269D01*
X108575269Y-69964418D01*
X108692353Y-69803266D01*
X108769515Y-69651827D01*
X108817490Y-69601031D01*
X108885311Y-69584236D01*
X108951446Y-69606773D01*
X108990485Y-69651827D01*
X109067647Y-69803266D01*
X109184731Y-69964418D01*
X109325582Y-70105269D01*
X109486734Y-70222353D01*
X109486741Y-70222356D01*
X109490278Y-70224524D01*
X109537159Y-70276331D01*
X109549499Y-70330258D01*
X109549499Y-70479054D01*
X109549498Y-70479054D01*
X109590423Y-70631785D01*
X109603809Y-70654971D01*
X109612787Y-70670520D01*
X109648006Y-70731522D01*
X109669479Y-70768714D01*
X109669481Y-70768717D01*
X109788349Y-70887585D01*
X109788355Y-70887590D01*
X112265139Y-73364374D01*
X112265149Y-73364385D01*
X112269479Y-73368715D01*
X112269480Y-73368716D01*
X112381284Y-73480520D01*
X112468095Y-73530639D01*
X112468097Y-73530641D01*
X112518213Y-73559576D01*
X112518215Y-73559577D01*
X112670942Y-73600500D01*
X112670943Y-73600500D01*
X159449903Y-73600500D01*
X159516942Y-73620185D01*
X159537584Y-73636819D01*
X173515139Y-87614374D01*
X173515149Y-87614385D01*
X173519479Y-87618715D01*
X173519480Y-87618716D01*
X173631284Y-87730520D01*
X173718095Y-87780639D01*
X173718097Y-87780641D01*
X173768213Y-87809576D01*
X173768215Y-87809577D01*
X173920942Y-87850500D01*
X173920943Y-87850500D01*
X174322682Y-87850500D01*
X174389721Y-87870185D01*
X174423139Y-87904324D01*
X174424192Y-87903560D01*
X174543115Y-88067246D01*
X174682753Y-88206884D01*
X174811606Y-88300499D01*
X174842499Y-88322944D01*
X174973151Y-88389515D01*
X175023947Y-88437490D01*
X175040742Y-88505311D01*
X175018204Y-88571446D01*
X174973151Y-88610484D01*
X174932331Y-88631284D01*
X174842495Y-88677058D01*
X174682753Y-88793115D01*
X174543115Y-88932753D01*
X174424192Y-89096440D01*
X174422761Y-89095400D01*
X174376593Y-89137167D01*
X174322682Y-89149500D01*
X171550097Y-89149500D01*
X171483058Y-89129815D01*
X171462416Y-89113181D01*
X167487590Y-85138355D01*
X167487588Y-85138352D01*
X167368717Y-85019481D01*
X167368716Y-85019480D01*
X167281904Y-84969360D01*
X167281904Y-84969359D01*
X167281900Y-84969358D01*
X167231785Y-84940423D01*
X167079057Y-84899499D01*
X166920943Y-84899499D01*
X166913347Y-84899499D01*
X166913331Y-84899500D01*
X127829766Y-84899500D01*
X127762727Y-84879815D01*
X127760875Y-84878602D01*
X127629185Y-84790609D01*
X127629172Y-84790602D01*
X127483501Y-84730264D01*
X127483489Y-84730261D01*
X127328845Y-84699500D01*
X127328842Y-84699500D01*
X127171158Y-84699500D01*
X127171155Y-84699500D01*
X127016510Y-84730261D01*
X127016498Y-84730264D01*
X126870827Y-84790602D01*
X126870814Y-84790609D01*
X126739711Y-84878210D01*
X126739707Y-84878213D01*
X126628213Y-84989707D01*
X126628210Y-84989711D01*
X126540609Y-85120814D01*
X126540602Y-85120827D01*
X126480264Y-85266498D01*
X126480261Y-85266510D01*
X126449500Y-85421153D01*
X126449500Y-85578846D01*
X126480261Y-85733489D01*
X126480264Y-85733501D01*
X126540602Y-85879172D01*
X126540609Y-85879185D01*
X126628210Y-86010288D01*
X126628213Y-86010292D01*
X126739707Y-86121786D01*
X126739711Y-86121789D01*
X126815452Y-86172398D01*
X126860257Y-86226010D01*
X126868964Y-86295335D01*
X126838810Y-86358363D01*
X126779366Y-86395082D01*
X126746561Y-86399500D01*
X113336669Y-86399500D01*
X113336653Y-86399499D01*
X113329057Y-86399499D01*
X113170943Y-86399499D01*
X113063587Y-86428265D01*
X113018210Y-86440424D01*
X113018209Y-86440425D01*
X112968096Y-86469359D01*
X112968095Y-86469360D01*
X112924689Y-86494420D01*
X112881285Y-86519479D01*
X112881282Y-86519481D01*
X109669481Y-89731282D01*
X109669480Y-89731284D01*
X109622775Y-89812181D01*
X109619361Y-89818094D01*
X109619359Y-89818096D01*
X109590425Y-89868209D01*
X109590424Y-89868210D01*
X109590423Y-89868215D01*
X109549499Y-90020943D01*
X109549499Y-90020945D01*
X109549499Y-90189046D01*
X109549500Y-90189059D01*
X109549500Y-90809740D01*
X109529815Y-90876779D01*
X109490293Y-90915466D01*
X109486733Y-90917647D01*
X109409708Y-90973610D01*
X109325582Y-91034731D01*
X109325580Y-91034733D01*
X109325579Y-91034733D01*
X109184733Y-91175579D01*
X109184733Y-91175580D01*
X109184731Y-91175582D01*
X109150652Y-91222488D01*
X109067647Y-91336733D01*
X108990485Y-91488172D01*
X108942510Y-91538968D01*
X108874689Y-91555763D01*
X108808554Y-91533225D01*
X108769515Y-91488172D01*
X108727877Y-91406453D01*
X108692353Y-91336734D01*
X108575269Y-91175582D01*
X108434418Y-91034731D01*
X108273266Y-90917647D01*
X108263343Y-90912591D01*
X108095780Y-90827213D01*
X107906342Y-90765661D01*
X107757878Y-90742147D01*
X107709597Y-90734500D01*
X107510403Y-90734500D01*
X107462122Y-90742147D01*
X107313659Y-90765661D01*
X107313656Y-90765661D01*
X107124219Y-90827213D01*
X106946733Y-90917647D01*
X106869708Y-90973610D01*
X106785582Y-91034731D01*
X106785580Y-91034733D01*
X106785579Y-91034733D01*
X106644733Y-91175579D01*
X106644733Y-91175580D01*
X106644731Y-91175582D01*
X106610652Y-91222488D01*
X106527647Y-91336733D01*
X106450485Y-91488172D01*
X106402510Y-91538968D01*
X106334689Y-91555763D01*
X106268554Y-91533225D01*
X106229515Y-91488172D01*
X106187877Y-91406453D01*
X106152353Y-91336734D01*
X106035269Y-91175582D01*
X105894418Y-91034731D01*
X105733266Y-90917647D01*
X105723343Y-90912591D01*
X105555780Y-90827213D01*
X105366342Y-90765661D01*
X105217878Y-90742147D01*
X105169597Y-90734500D01*
X104970403Y-90734500D01*
X104922122Y-90742147D01*
X104773659Y-90765661D01*
X104773656Y-90765661D01*
X104584219Y-90827213D01*
X104406733Y-90917647D01*
X104329708Y-90973610D01*
X104245582Y-91034731D01*
X104245580Y-91034733D01*
X104245579Y-91034733D01*
X104104733Y-91175579D01*
X104104733Y-91175580D01*
X104104731Y-91175582D01*
X104052367Y-91247655D01*
X104019817Y-91292456D01*
X103964487Y-91335121D01*
X103894873Y-91341100D01*
X103833078Y-91308494D01*
X103798721Y-91247655D01*
X103795499Y-91219570D01*
X103795499Y-91187129D01*
X103795498Y-91187123D01*
X103795497Y-91187116D01*
X103789091Y-91127517D01*
X103782738Y-91110485D01*
X103738797Y-90992671D01*
X103738793Y-90992664D01*
X103652547Y-90877455D01*
X103652544Y-90877452D01*
X103537335Y-90791206D01*
X103537328Y-90791202D01*
X103402482Y-90740908D01*
X103402483Y-90740908D01*
X103342883Y-90734501D01*
X103342881Y-90734500D01*
X103342873Y-90734500D01*
X103342864Y-90734500D01*
X101717129Y-90734500D01*
X101717123Y-90734501D01*
X101657516Y-90740908D01*
X101522671Y-90791202D01*
X101522664Y-90791206D01*
X101407455Y-90877452D01*
X101407452Y-90877455D01*
X101321206Y-90992664D01*
X101321202Y-90992671D01*
X101270908Y-91127517D01*
X101264501Y-91187116D01*
X101264501Y-91187123D01*
X101264500Y-91187135D01*
X101264500Y-92812870D01*
X101264501Y-92812876D01*
X101270908Y-92872483D01*
X101321202Y-93007328D01*
X101321206Y-93007335D01*
X101407452Y-93122544D01*
X101407455Y-93122547D01*
X101522664Y-93208793D01*
X101522671Y-93208797D01*
X101567618Y-93225561D01*
X101657517Y-93259091D01*
X101717127Y-93265500D01*
X101785903Y-93265499D01*
X101807147Y-93271737D01*
X101829236Y-93273317D01*
X101840018Y-93281388D01*
X101852941Y-93285183D01*
X101867441Y-93301916D01*
X101885170Y-93315188D01*
X101889876Y-93327807D01*
X101898697Y-93337986D01*
X101901848Y-93359904D01*
X101909587Y-93380652D01*
X101906724Y-93393812D01*
X101908641Y-93407144D01*
X101899443Y-93427285D01*
X101894736Y-93448925D01*
X101881464Y-93466653D01*
X101879617Y-93470700D01*
X101873585Y-93477180D01*
X101787582Y-93563182D01*
X101726262Y-93596666D01*
X101699903Y-93599500D01*
X97500097Y-93599500D01*
X97433058Y-93579815D01*
X97412416Y-93563181D01*
X96652798Y-92803563D01*
X96619313Y-92742240D01*
X96622547Y-92677566D01*
X96663553Y-92551368D01*
X96695647Y-92348736D01*
X96700500Y-92318097D01*
X96700500Y-92081902D01*
X96663553Y-91848631D01*
X96590566Y-91624003D01*
X96521356Y-91488172D01*
X96483343Y-91413567D01*
X96344517Y-91222490D01*
X96177510Y-91055483D01*
X95986433Y-90916657D01*
X95978453Y-90912591D01*
X95775996Y-90809433D01*
X95551368Y-90736446D01*
X95318097Y-90699500D01*
X95318092Y-90699500D01*
X95081908Y-90699500D01*
X95081903Y-90699500D01*
X94848631Y-90736446D01*
X94624003Y-90809433D01*
X94413566Y-90916657D01*
X94304550Y-90995862D01*
X94222490Y-91055483D01*
X94222488Y-91055485D01*
X94222487Y-91055485D01*
X94055485Y-91222487D01*
X94055485Y-91222488D01*
X94055483Y-91222490D01*
X94037200Y-91247655D01*
X93916657Y-91413566D01*
X93809433Y-91624003D01*
X93736446Y-91848631D01*
X93699500Y-92081902D01*
X87500500Y-92081902D01*
X87500500Y-72002561D01*
X87500606Y-71997436D01*
X87504733Y-71897648D01*
X91699500Y-71897648D01*
X91699500Y-72102351D01*
X91731522Y-72304534D01*
X91794781Y-72499223D01*
X91858691Y-72624653D01*
X91865673Y-72638355D01*
X91887715Y-72681613D01*
X92008028Y-72847213D01*
X92152786Y-72991971D01*
X92307749Y-73104556D01*
X92318390Y-73112287D01*
X92434607Y-73171503D01*
X92500776Y-73205218D01*
X92500778Y-73205218D01*
X92500781Y-73205220D01*
X92605137Y-73239127D01*
X92695465Y-73268477D01*
X92796557Y-73284488D01*
X92897648Y-73300500D01*
X92897649Y-73300500D01*
X93102351Y-73300500D01*
X93102352Y-73300500D01*
X93304534Y-73268477D01*
X93499219Y-73205220D01*
X93681610Y-73112287D01*
X93774590Y-73044732D01*
X93847213Y-72991971D01*
X93847215Y-72991968D01*
X93847219Y-72991966D01*
X93991966Y-72847219D01*
X93991968Y-72847215D01*
X93991971Y-72847213D01*
X94044732Y-72774590D01*
X94112287Y-72681610D01*
X94205220Y-72499219D01*
X94268477Y-72304534D01*
X94300500Y-72102352D01*
X94300500Y-71897648D01*
X94298916Y-71887650D01*
X94268477Y-71695465D01*
X94239127Y-71605137D01*
X94205220Y-71500781D01*
X94205218Y-71500778D01*
X94205218Y-71500776D01*
X94171503Y-71434607D01*
X94112287Y-71318390D01*
X94104556Y-71307749D01*
X93991971Y-71152786D01*
X93847213Y-71008028D01*
X93681613Y-70887715D01*
X93681612Y-70887714D01*
X93681610Y-70887713D01*
X93624653Y-70858691D01*
X93499223Y-70794781D01*
X93304534Y-70731522D01*
X93129995Y-70703878D01*
X93102352Y-70699500D01*
X92897648Y-70699500D01*
X92873329Y-70703351D01*
X92695465Y-70731522D01*
X92500776Y-70794781D01*
X92318386Y-70887715D01*
X92152786Y-71008028D01*
X92008028Y-71152786D01*
X91887715Y-71318386D01*
X91794781Y-71500776D01*
X91731522Y-71695465D01*
X91699500Y-71897648D01*
X87504733Y-71897648D01*
X87505147Y-71887651D01*
X87505147Y-71887650D01*
X87510560Y-71756768D01*
X87519072Y-71550961D01*
X87519915Y-71540792D01*
X87574874Y-71099881D01*
X87576554Y-71089809D01*
X87667734Y-70654951D01*
X87670241Y-70645055D01*
X87797022Y-70219205D01*
X87800336Y-70209553D01*
X87961840Y-69795654D01*
X87965954Y-69786275D01*
X88161088Y-69387120D01*
X88165949Y-69378136D01*
X88393389Y-68996445D01*
X88398982Y-68987885D01*
X88657153Y-68626294D01*
X88663422Y-68618240D01*
X88950581Y-68279191D01*
X88957500Y-68271675D01*
X89271675Y-67957500D01*
X89279191Y-67950581D01*
X89618240Y-67663422D01*
X89626294Y-67657153D01*
X89987885Y-67398982D01*
X89996445Y-67393389D01*
X90378136Y-67165949D01*
X90387120Y-67161088D01*
X90786280Y-66965951D01*
X90795654Y-66961840D01*
X91209553Y-66800336D01*
X91219205Y-66797022D01*
X91645055Y-66670241D01*
X91654951Y-66667734D01*
X92089809Y-66576554D01*
X92099881Y-66574874D01*
X92540792Y-66519915D01*
X92550961Y-66519072D01*
X92997437Y-66500605D01*
X93002561Y-66500500D01*
X93065892Y-66500500D01*
X172934108Y-66500500D01*
X172997439Y-66500500D01*
X173002562Y-66500605D01*
G37*
G04 #@! TD.AperFunction*
G04 #@! TA.AperFunction,Conductor*
G36*
X151226182Y-99213091D02*
G01*
X151382002Y-99291001D01*
X151384411Y-99292737D01*
X151385975Y-99293078D01*
X151414229Y-99314229D01*
X151463681Y-99363681D01*
X151497166Y-99425004D01*
X151500000Y-99451362D01*
X151500000Y-103370728D01*
X151486909Y-103426182D01*
X151431841Y-103536319D01*
X151408999Y-103582002D01*
X151385771Y-103614229D01*
X151336319Y-103663681D01*
X151274996Y-103697166D01*
X151248638Y-103700000D01*
X145825309Y-103700000D01*
X145777857Y-103690561D01*
X145668498Y-103645263D01*
X145668488Y-103645260D01*
X145513845Y-103614500D01*
X145513842Y-103614500D01*
X145356158Y-103614500D01*
X145356155Y-103614500D01*
X145201511Y-103645260D01*
X145201501Y-103645263D01*
X145092143Y-103690561D01*
X145083966Y-103692187D01*
X145079626Y-103694977D01*
X145044691Y-103700000D01*
X145025453Y-103700000D01*
X144978934Y-103687532D01*
X144977742Y-103690412D01*
X144868735Y-103645260D01*
X144830236Y-103629313D01*
X144816171Y-103627461D01*
X144717727Y-103614500D01*
X144717720Y-103614500D01*
X142822280Y-103614500D01*
X142822272Y-103614500D01*
X142709764Y-103629313D01*
X142709760Y-103629314D01*
X142588001Y-103679748D01*
X142568125Y-103681884D01*
X142549395Y-103688871D01*
X142534098Y-103685543D01*
X142518532Y-103687217D01*
X142500655Y-103678268D01*
X142481122Y-103674019D01*
X142458829Y-103657331D01*
X142456053Y-103655941D01*
X142452868Y-103652868D01*
X142336319Y-103536319D01*
X142302834Y-103474996D01*
X142300000Y-103448638D01*
X142300000Y-99751362D01*
X142319685Y-99684323D01*
X142336319Y-99663681D01*
X142463681Y-99536319D01*
X142525004Y-99502834D01*
X142551362Y-99500000D01*
X149300000Y-99500000D01*
X149563681Y-99236319D01*
X149625004Y-99202834D01*
X149651362Y-99200000D01*
X151170728Y-99200000D01*
X151226182Y-99213091D01*
G37*
G04 #@! TD.AperFunction*
G04 #@! TA.AperFunction,Conductor*
G36*
X155626182Y-98813091D02*
G01*
X155982002Y-98991001D01*
X155984411Y-98992737D01*
X155985975Y-98993078D01*
X156014229Y-99014229D01*
X156064276Y-99064276D01*
X156097761Y-99125599D01*
X156100587Y-99150515D01*
X156104303Y-99470132D01*
X156103669Y-99484175D01*
X156099500Y-99524979D01*
X156099500Y-100575001D01*
X156099501Y-100575019D01*
X156110000Y-100677796D01*
X156112588Y-100685604D01*
X156118873Y-100723163D01*
X156130115Y-101690024D01*
X156123830Y-101730468D01*
X156110000Y-101772203D01*
X156099500Y-101874983D01*
X156099500Y-102925001D01*
X156099501Y-102925019D01*
X156110000Y-103027796D01*
X156110001Y-103027799D01*
X156140907Y-103121065D01*
X156141218Y-103122925D01*
X156141764Y-103123753D01*
X156147193Y-103158628D01*
X156149650Y-103369969D01*
X156136568Y-103426863D01*
X156109000Y-103482001D01*
X156085771Y-103514229D01*
X155936319Y-103663681D01*
X155874996Y-103697166D01*
X155848638Y-103700000D01*
X152629272Y-103700000D01*
X152573818Y-103686909D01*
X152217998Y-103508999D01*
X152215588Y-103507262D01*
X152214025Y-103506922D01*
X152185771Y-103485771D01*
X152036319Y-103336319D01*
X152002834Y-103274996D01*
X152000000Y-103248638D01*
X152000000Y-99351362D01*
X152019685Y-99284323D01*
X152036319Y-99263681D01*
X152463681Y-98836319D01*
X152525004Y-98802834D01*
X152551362Y-98800000D01*
X155570728Y-98800000D01*
X155626182Y-98813091D01*
G37*
G04 #@! TD.AperFunction*
M02*
