G04 #@! TF.GenerationSoftware,KiCad,Pcbnew,9.0.7-9.0.7~ubuntu24.04.1*
G04 #@! TF.CreationDate,2026-03-15T11:29:56-03:00*
G04 #@! TF.ProjectId,Pet_feeder_hw,5065745f-6665-4656-9465-725f68772e6b,rev?*
G04 #@! TF.SameCoordinates,Original*
G04 #@! TF.FileFunction,Copper,L2,Bot*
G04 #@! TF.FilePolarity,Positive*
%FSLAX46Y46*%
G04 Gerber Fmt 4.6, Leading zero omitted, Abs format (unit mm)*
G04 Created by KiCad (PCBNEW 9.0.7-9.0.7~ubuntu24.04.1) date 2026-03-15 11:29:56*
%MOMM*%
%LPD*%
G01*
G04 APERTURE LIST*
G04 Aperture macros list*
%AMRoundRect*
0 Rectangle with rounded corners*
0 $1 Rounding radius*
0 $2 $3 $4 $5 $6 $7 $8 $9 X,Y pos of 4 corners*
0 Add a 4 corners polygon primitive as box body*
4,1,4,$2,$3,$4,$5,$6,$7,$8,$9,$2,$3,0*
0 Add four circle primitives for the rounded corners*
1,1,$1+$1,$2,$3*
1,1,$1+$1,$4,$5*
1,1,$1+$1,$6,$7*
1,1,$1+$1,$8,$9*
0 Add four rect primitives between the rounded corners*
20,1,$1+$1,$2,$3,$4,$5,0*
20,1,$1+$1,$4,$5,$6,$7,0*
20,1,$1+$1,$6,$7,$8,$9,0*
20,1,$1+$1,$8,$9,$2,$3,0*%
G04 Aperture macros list end*
G04 #@! TA.AperFunction,ComponentPad*
%ADD10R,1.530000X1.530000*%
G04 #@! TD*
G04 #@! TA.AperFunction,ComponentPad*
%ADD11C,1.530000*%
G04 #@! TD*
G04 #@! TA.AperFunction,ComponentPad*
%ADD12R,1.508000X1.508000*%
G04 #@! TD*
G04 #@! TA.AperFunction,ComponentPad*
%ADD13C,1.508000*%
G04 #@! TD*
G04 #@! TA.AperFunction,ComponentPad*
%ADD14RoundRect,0.450000X1.050000X-1.300000X1.050000X1.300000X-1.050000X1.300000X-1.050000X-1.300000X0*%
G04 #@! TD*
G04 #@! TA.AperFunction,ViaPad*
%ADD15C,0.600000*%
G04 #@! TD*
G04 #@! TA.AperFunction,Conductor*
%ADD16C,1.500000*%
G04 #@! TD*
G04 #@! TA.AperFunction,Conductor*
%ADD17C,0.600000*%
G04 #@! TD*
G04 #@! TA.AperFunction,Conductor*
%ADD18C,0.200000*%
G04 #@! TD*
G04 APERTURE END LIST*
D10*
X132610000Y-126350000D03*
D11*
X135150000Y-126350000D03*
X137690000Y-126350000D03*
X140230000Y-126350000D03*
X142770000Y-126350000D03*
X145310000Y-126350000D03*
X147850000Y-126350000D03*
X150390000Y-126350000D03*
X150390000Y-113650000D03*
X147850000Y-113650000D03*
X145310000Y-113650000D03*
X142770000Y-113650000D03*
X140230000Y-113650000D03*
X137690000Y-113650000D03*
X135150000Y-113650000D03*
X132610000Y-113650000D03*
D12*
X175500000Y-98750000D03*
D13*
X175500000Y-101250000D03*
X175500000Y-103750000D03*
X175500000Y-106250000D03*
X175500000Y-108750000D03*
X175500000Y-111250000D03*
D14*
X125850000Y-108000000D03*
X117250000Y-108000000D03*
D12*
X165250000Y-124525000D03*
D13*
X162750000Y-124525000D03*
X160250000Y-124525000D03*
X157750000Y-124525000D03*
D10*
X102530000Y-92000000D03*
D11*
X105070000Y-92000000D03*
X107610000Y-92000000D03*
X110150000Y-92000000D03*
X112690000Y-92000000D03*
X115230000Y-92000000D03*
X117770000Y-92000000D03*
X120310000Y-92000000D03*
X122850000Y-92000000D03*
X125390000Y-92000000D03*
X127930000Y-92000000D03*
X130470000Y-92000000D03*
X133010000Y-92000000D03*
X135550000Y-92000000D03*
X138090000Y-92000000D03*
X140630000Y-92000000D03*
X143170000Y-92000000D03*
X145710000Y-92000000D03*
X148250000Y-92000000D03*
X150790000Y-92000000D03*
X153330000Y-92000000D03*
X155870000Y-92000000D03*
X102530000Y-69140000D03*
X105070000Y-69140000D03*
X107610000Y-69140000D03*
X110150000Y-69140000D03*
X112690000Y-69140000D03*
X115230000Y-69140000D03*
X117770000Y-69140000D03*
X120310000Y-69140000D03*
X122850000Y-69140000D03*
X125390000Y-69140000D03*
X127930000Y-69140000D03*
X130470000Y-69140000D03*
X133010000Y-69140000D03*
X135550000Y-69140000D03*
X138090000Y-69140000D03*
X140630000Y-69140000D03*
X143170000Y-69140000D03*
X145710000Y-69140000D03*
X148250000Y-69140000D03*
X150790000Y-69140000D03*
X153330000Y-69140000D03*
X155870000Y-69140000D03*
D12*
X175500000Y-79750000D03*
D13*
X175500000Y-82250000D03*
X175500000Y-84750000D03*
X175500000Y-87250000D03*
X175500000Y-89750000D03*
X175500000Y-92250000D03*
D15*
X146650000Y-79400000D03*
X141750000Y-105700000D03*
X92750000Y-84500000D03*
X146650000Y-77150000D03*
X92000000Y-82250000D03*
X133600000Y-98750000D03*
X94500000Y-85250000D03*
X94500000Y-80500000D03*
X92750000Y-85250000D03*
X108500000Y-98500000D03*
X158500000Y-100100000D03*
X146650000Y-78650000D03*
X90000000Y-85250000D03*
X125900000Y-95150000D03*
X142400000Y-76400000D03*
X92000000Y-77500000D03*
X162350000Y-106550000D03*
X166500000Y-96500000D03*
X135600000Y-99500000D03*
X145400000Y-76400000D03*
X141750000Y-106500000D03*
X120900000Y-95900000D03*
X104000000Y-95500000D03*
X97250000Y-79750000D03*
X90750000Y-85250000D03*
X166000000Y-113500000D03*
X144650000Y-76400000D03*
X144650000Y-79400000D03*
X160450000Y-105450000D03*
X125900000Y-97400000D03*
X147400000Y-77150000D03*
X95250000Y-78250000D03*
X121650000Y-98150000D03*
X113500000Y-79300000D03*
X96500000Y-78250000D03*
X90750000Y-78250000D03*
X141000000Y-104800000D03*
X90750000Y-83000000D03*
X169400000Y-95300000D03*
X101250000Y-125250000D03*
X96500000Y-80500000D03*
X168000000Y-115750000D03*
X103250000Y-98500000D03*
X121450000Y-122450000D03*
X159200000Y-108150000D03*
X96500000Y-84500000D03*
X106750000Y-123000000D03*
X92750000Y-77500000D03*
X108500000Y-77050000D03*
X134350000Y-98750000D03*
X166500000Y-92400000D03*
X125900000Y-98150000D03*
X121450000Y-123200000D03*
X90750000Y-82250000D03*
X118700000Y-122450000D03*
X109250000Y-97750000D03*
X112750000Y-77050000D03*
X145400000Y-79400000D03*
X110750000Y-123750000D03*
X141000000Y-106500000D03*
X97250000Y-82250000D03*
X97250000Y-77500000D03*
X141000000Y-105700000D03*
X106000000Y-125250000D03*
X147400000Y-79400000D03*
X145800000Y-107900000D03*
X101250000Y-126000000D03*
X137800000Y-108800000D03*
X92000000Y-80500000D03*
X125150000Y-97400000D03*
X163100000Y-105800000D03*
X90750000Y-80500000D03*
X95250000Y-80500000D03*
X97650000Y-96250000D03*
X165300000Y-103450000D03*
X90750000Y-79750000D03*
X166750000Y-115750000D03*
X140800000Y-96600000D03*
X123150000Y-97400000D03*
X88750000Y-113250000D03*
X118700000Y-123200000D03*
X109250000Y-77050000D03*
X122850000Y-108800000D03*
X90000000Y-83000000D03*
X95250000Y-83000000D03*
X157950000Y-108150000D03*
X112750000Y-78550000D03*
X90000000Y-77500000D03*
X94500000Y-82250000D03*
X123900000Y-95150000D03*
X90000000Y-82250000D03*
X96500000Y-85250000D03*
X164350000Y-106550000D03*
X97650000Y-97750000D03*
X122850000Y-108050000D03*
X168000000Y-113500000D03*
X121650000Y-95150000D03*
X159950000Y-107400000D03*
X104000000Y-97750000D03*
X168750000Y-112750000D03*
X164350000Y-105800000D03*
X146625000Y-95875000D03*
X125900000Y-95900000D03*
X108500000Y-76300000D03*
X110750000Y-126000000D03*
X97650000Y-95500000D03*
X123150000Y-95900000D03*
X165100000Y-106550000D03*
X166000000Y-115750000D03*
X96500000Y-82250000D03*
X94500000Y-83000000D03*
X94500000Y-77500000D03*
X135600000Y-98750000D03*
X97250000Y-80500000D03*
X145400000Y-78650000D03*
X90750000Y-84500000D03*
X96500000Y-83000000D03*
X123150000Y-95150000D03*
X97250000Y-83000000D03*
X165300000Y-102700000D03*
X165100000Y-105800000D03*
X92000000Y-85250000D03*
X140800000Y-95850000D03*
X162500000Y-103750000D03*
X123900000Y-98150000D03*
X142400000Y-79400000D03*
X120900000Y-98150000D03*
X102000000Y-123000000D03*
X89500000Y-116250000D03*
X106750000Y-126000000D03*
X111500000Y-126000000D03*
X108500000Y-96250000D03*
X166000000Y-115000000D03*
X159700000Y-105450000D03*
X159700000Y-104700000D03*
X120900000Y-97400000D03*
X168750000Y-115750000D03*
X161750000Y-103750000D03*
X147625000Y-95875000D03*
X92750000Y-83000000D03*
X106000000Y-123000000D03*
X92000000Y-78250000D03*
X111500000Y-76300000D03*
X125150000Y-95900000D03*
X104000000Y-96250000D03*
X160450000Y-103200000D03*
X138900000Y-109550000D03*
X92000000Y-84500000D03*
X109250000Y-79300000D03*
X147400000Y-78650000D03*
X90000000Y-80500000D03*
X108500000Y-95500000D03*
X170000000Y-99000000D03*
X94500000Y-79750000D03*
X96900000Y-97750000D03*
X157950000Y-107400000D03*
X141550000Y-96600000D03*
X136350000Y-99500000D03*
X97250000Y-78250000D03*
X112750000Y-79300000D03*
X168000000Y-112750000D03*
X101250000Y-123000000D03*
X111500000Y-78550000D03*
X110750000Y-78550000D03*
X109250000Y-95500000D03*
X95250000Y-85250000D03*
X157200000Y-108150000D03*
X141550000Y-95850000D03*
X89500000Y-114000000D03*
X125150000Y-98150000D03*
X142800000Y-96600000D03*
X143150000Y-77150000D03*
X170000000Y-99750000D03*
X169250000Y-99750000D03*
X88750000Y-114000000D03*
X164550000Y-102700000D03*
X90000000Y-84500000D03*
X164700000Y-90600000D03*
X95250000Y-82250000D03*
X92750000Y-79750000D03*
X123900000Y-97400000D03*
X92750000Y-78250000D03*
X96900000Y-95500000D03*
X132000000Y-101400000D03*
X89500000Y-113250000D03*
X119450000Y-122450000D03*
X120700000Y-122450000D03*
X95250000Y-77500000D03*
X136300000Y-109950000D03*
X102000000Y-125250000D03*
X160450000Y-102450000D03*
X144650000Y-78650000D03*
X123900000Y-95900000D03*
X166750000Y-112750000D03*
X164550000Y-103450000D03*
X136350000Y-98750000D03*
X95250000Y-84500000D03*
X120700000Y-123200000D03*
X123600000Y-108800000D03*
X113500000Y-78550000D03*
X157200000Y-107400000D03*
X158300000Y-102400000D03*
X92000000Y-79750000D03*
X121650000Y-95900000D03*
X166500000Y-95000000D03*
X90750000Y-77500000D03*
X168000000Y-115000000D03*
X90000000Y-79750000D03*
X119450000Y-123200000D03*
X120900000Y-95150000D03*
X97650000Y-98500000D03*
X168750000Y-113500000D03*
X92750000Y-82250000D03*
X108500000Y-97750000D03*
X166500000Y-97250000D03*
X96500000Y-79750000D03*
X92750000Y-80500000D03*
X113500000Y-76300000D03*
X141750000Y-104800000D03*
X133200000Y-101400000D03*
X169250000Y-99000000D03*
X125150000Y-95150000D03*
X94500000Y-84500000D03*
X111500000Y-125250000D03*
X159950000Y-108150000D03*
X109250000Y-96250000D03*
X110750000Y-77050000D03*
X110750000Y-125250000D03*
X143150000Y-78650000D03*
X109250000Y-76300000D03*
X110750000Y-123000000D03*
X88750000Y-116250000D03*
X111500000Y-79300000D03*
X95250000Y-79750000D03*
X159200000Y-107400000D03*
X108500000Y-78550000D03*
X97250000Y-85250000D03*
X159700000Y-102450000D03*
X111500000Y-123750000D03*
X159700000Y-103200000D03*
X161750000Y-103000000D03*
X110750000Y-79300000D03*
X161500000Y-87900000D03*
X146650000Y-76400000D03*
X134350000Y-99500000D03*
X113500000Y-77050000D03*
X89500000Y-115500000D03*
X97250000Y-84500000D03*
X96900000Y-98500000D03*
X143550000Y-95850000D03*
X145400000Y-77150000D03*
X92000000Y-83000000D03*
X166750000Y-115000000D03*
X111500000Y-77050000D03*
X142400000Y-78650000D03*
X162350000Y-105800000D03*
X162500000Y-103000000D03*
X102000000Y-126000000D03*
X94500000Y-78250000D03*
X104000000Y-98500000D03*
X106750000Y-123750000D03*
X142800000Y-95850000D03*
X111500000Y-123000000D03*
X123150000Y-98150000D03*
X106000000Y-126000000D03*
X146600000Y-105000000D03*
X160450000Y-104700000D03*
X144650000Y-77150000D03*
X109250000Y-98500000D03*
X101250000Y-123750000D03*
X166500000Y-95750000D03*
X123600000Y-108050000D03*
X121650000Y-97400000D03*
X166750000Y-113500000D03*
X102000000Y-123750000D03*
X139800000Y-108250000D03*
X88750000Y-115500000D03*
X152300000Y-105000000D03*
X168750000Y-115000000D03*
X142400000Y-77150000D03*
X96900000Y-96250000D03*
X143150000Y-79400000D03*
X106000000Y-123750000D03*
X147400000Y-76400000D03*
X143150000Y-76400000D03*
X143550000Y-96600000D03*
X110750000Y-76300000D03*
X90000000Y-78250000D03*
X109250000Y-78550000D03*
X145435000Y-104415000D03*
X103250000Y-96250000D03*
X103250000Y-95500000D03*
X106750000Y-125250000D03*
X108500000Y-79300000D03*
X163100000Y-106550000D03*
X133600000Y-99500000D03*
X112750000Y-76300000D03*
X166000000Y-112750000D03*
X96500000Y-77500000D03*
X103250000Y-97750000D03*
X127250000Y-85500000D03*
X165500000Y-87500000D03*
X165500000Y-94500000D03*
X130470000Y-96280000D03*
X126200000Y-121900000D03*
X135500000Y-95250000D03*
X142500000Y-98500000D03*
X138900000Y-101800000D03*
D16*
X159400000Y-117000000D02*
X162750000Y-120350000D01*
X146600000Y-117000000D02*
X159400000Y-117000000D01*
X162750000Y-120350000D02*
X162750000Y-124525000D01*
X145310000Y-115710000D02*
X146600000Y-117000000D01*
X145310000Y-113650000D02*
X145310000Y-115710000D01*
D17*
X102530000Y-92000000D02*
X105070000Y-92000000D01*
X175500000Y-108750000D02*
X169750000Y-108750000D01*
X167500000Y-106500000D02*
X167500000Y-81500000D01*
X169750000Y-108750000D02*
X167500000Y-106500000D01*
X150750000Y-83000000D02*
X154000000Y-79750000D01*
X169250000Y-79750000D02*
X175500000Y-79750000D01*
X105070000Y-92000000D02*
X114070000Y-83000000D01*
X114070000Y-83000000D02*
X150750000Y-83000000D01*
X164250000Y-110750000D02*
X166250000Y-108750000D01*
X167500000Y-81500000D02*
X169250000Y-79750000D01*
X147850000Y-113650000D02*
X150750000Y-110750000D01*
X166250000Y-108750000D02*
X175500000Y-108750000D01*
X154000000Y-79750000D02*
X175500000Y-79750000D01*
X150750000Y-110750000D02*
X164250000Y-110750000D01*
D18*
X125390000Y-86610000D02*
X125390000Y-92000000D01*
X127250000Y-85500000D02*
X126500000Y-85500000D01*
X126500000Y-85500000D02*
X125390000Y-86610000D01*
X165500000Y-87500000D02*
X165500000Y-94500000D01*
X121800000Y-117500000D02*
X126200000Y-121900000D01*
X121800000Y-104950000D02*
X121800000Y-111400000D01*
X121800000Y-111400000D02*
X121800000Y-117500000D01*
X130470000Y-96280000D02*
X121800000Y-104950000D01*
X132610000Y-126350000D02*
X128500000Y-122240000D01*
X128500000Y-102250000D02*
X135500000Y-95250000D01*
X128500000Y-122240000D02*
X128500000Y-102250000D01*
X130500000Y-107750000D02*
X138090000Y-100160000D01*
X130500000Y-115750000D02*
X130500000Y-107750000D01*
X150390000Y-120640000D02*
X149000000Y-119250000D01*
X150390000Y-126350000D02*
X150390000Y-120640000D01*
X134000000Y-119250000D02*
X130500000Y-115750000D01*
X138090000Y-100160000D02*
X138090000Y-92000000D01*
X149000000Y-119250000D02*
X134000000Y-119250000D01*
X138900000Y-101800000D02*
X142200000Y-98500000D01*
X142200000Y-98500000D02*
X142500000Y-98500000D01*
G04 #@! TA.AperFunction,Conductor*
G36*
X173002562Y-66500605D02*
G01*
X173449036Y-66519072D01*
X173459209Y-66519915D01*
X173900114Y-66574873D01*
X173910194Y-66576555D01*
X174345042Y-66667733D01*
X174354950Y-66670242D01*
X174780786Y-66797019D01*
X174790454Y-66800338D01*
X175131430Y-66933388D01*
X175204339Y-66961838D01*
X175213724Y-66965954D01*
X175612869Y-67161083D01*
X175621877Y-67165958D01*
X176003544Y-67393383D01*
X176012123Y-67398989D01*
X176373693Y-67657144D01*
X176381775Y-67663435D01*
X176720796Y-67950571D01*
X176728336Y-67957512D01*
X177042487Y-68271663D01*
X177049428Y-68279203D01*
X177336564Y-68618224D01*
X177342859Y-68626312D01*
X177601010Y-68987876D01*
X177606616Y-68996455D01*
X177834041Y-69378122D01*
X177838919Y-69387136D01*
X178034045Y-69786275D01*
X178038161Y-69795660D01*
X178199656Y-70209533D01*
X178202984Y-70219226D01*
X178329753Y-70645036D01*
X178332269Y-70654971D01*
X178423441Y-71089791D01*
X178425128Y-71099900D01*
X178480082Y-71540769D01*
X178480928Y-71550983D01*
X178499394Y-71997437D01*
X178499500Y-72002561D01*
X178499500Y-123497438D01*
X178499394Y-123502562D01*
X178480928Y-123949016D01*
X178480082Y-123959230D01*
X178425128Y-124400099D01*
X178423441Y-124410208D01*
X178332269Y-124845028D01*
X178329753Y-124854963D01*
X178202984Y-125280773D01*
X178199656Y-125290466D01*
X178038161Y-125704339D01*
X178034045Y-125713724D01*
X177838919Y-126112863D01*
X177834041Y-126121877D01*
X177606616Y-126503544D01*
X177601010Y-126512123D01*
X177342859Y-126873687D01*
X177336564Y-126881775D01*
X177049428Y-127220796D01*
X177042487Y-127228336D01*
X176728336Y-127542487D01*
X176720796Y-127549428D01*
X176381775Y-127836564D01*
X176373687Y-127842859D01*
X176012123Y-128101010D01*
X176003544Y-128106616D01*
X175621877Y-128334041D01*
X175612863Y-128338919D01*
X175213724Y-128534045D01*
X175204339Y-128538161D01*
X174790466Y-128699656D01*
X174780773Y-128702984D01*
X174354963Y-128829753D01*
X174345028Y-128832269D01*
X173910208Y-128923441D01*
X173900099Y-128925128D01*
X173459230Y-128980082D01*
X173449016Y-128980928D01*
X173002563Y-128999394D01*
X172997439Y-128999500D01*
X93002561Y-128999500D01*
X92997437Y-128999394D01*
X92550983Y-128980928D01*
X92540769Y-128980082D01*
X92099900Y-128925128D01*
X92089791Y-128923441D01*
X91654971Y-128832269D01*
X91645036Y-128829753D01*
X91219226Y-128702984D01*
X91209533Y-128699656D01*
X90795660Y-128538161D01*
X90786275Y-128534045D01*
X90387136Y-128338919D01*
X90378122Y-128334041D01*
X89996455Y-128106616D01*
X89987876Y-128101010D01*
X89626312Y-127842859D01*
X89618224Y-127836564D01*
X89279203Y-127549428D01*
X89271663Y-127542487D01*
X88957512Y-127228336D01*
X88950571Y-127220796D01*
X88874038Y-127130434D01*
X88663431Y-126881770D01*
X88657140Y-126873687D01*
X88648672Y-126861827D01*
X88398989Y-126512123D01*
X88393383Y-126503544D01*
X88165958Y-126121877D01*
X88161080Y-126112863D01*
X88055755Y-125897417D01*
X87998109Y-125779498D01*
X87965954Y-125713724D01*
X87961838Y-125704339D01*
X87920321Y-125597941D01*
X87800338Y-125290454D01*
X87797019Y-125280786D01*
X87670242Y-124854950D01*
X87667733Y-124845042D01*
X87576555Y-124410194D01*
X87574873Y-124400114D01*
X87519915Y-123959209D01*
X87519072Y-123949036D01*
X87500606Y-123502562D01*
X87500500Y-123497438D01*
X87500500Y-123397648D01*
X91699500Y-123397648D01*
X91699500Y-123602351D01*
X91731522Y-123804534D01*
X91794781Y-123999223D01*
X91887715Y-124181613D01*
X92008028Y-124347213D01*
X92152786Y-124491971D01*
X92307749Y-124604556D01*
X92318390Y-124612287D01*
X92396610Y-124652142D01*
X92500776Y-124705218D01*
X92500778Y-124705218D01*
X92500781Y-124705220D01*
X92605137Y-124739127D01*
X92695465Y-124768477D01*
X92796557Y-124784488D01*
X92897648Y-124800500D01*
X92897649Y-124800500D01*
X93102351Y-124800500D01*
X93102352Y-124800500D01*
X93304534Y-124768477D01*
X93499219Y-124705220D01*
X93681610Y-124612287D01*
X93774590Y-124544732D01*
X93847213Y-124491971D01*
X93847215Y-124491968D01*
X93847219Y-124491966D01*
X93991966Y-124347219D01*
X93991968Y-124347215D01*
X93991971Y-124347213D01*
X94078340Y-124228334D01*
X94112287Y-124181610D01*
X94205220Y-123999219D01*
X94268477Y-123804534D01*
X94300500Y-123602352D01*
X94300500Y-123397648D01*
X94280362Y-123270501D01*
X94268477Y-123195465D01*
X94205218Y-123000776D01*
X94171503Y-122934607D01*
X94112287Y-122818390D01*
X94104556Y-122807749D01*
X93991971Y-122652786D01*
X93847213Y-122508028D01*
X93681613Y-122387715D01*
X93681612Y-122387714D01*
X93681610Y-122387713D01*
X93624653Y-122358691D01*
X93499223Y-122294781D01*
X93304534Y-122231522D01*
X93129995Y-122203878D01*
X93102352Y-122199500D01*
X92897648Y-122199500D01*
X92873329Y-122203351D01*
X92695465Y-122231522D01*
X92500776Y-122294781D01*
X92318386Y-122387715D01*
X92152786Y-122508028D01*
X92152785Y-122508030D01*
X92008032Y-122652782D01*
X92008028Y-122652786D01*
X91887715Y-122818386D01*
X91794781Y-123000776D01*
X91731522Y-123195465D01*
X91699500Y-123397648D01*
X87500500Y-123397648D01*
X87500500Y-117579054D01*
X121199498Y-117579054D01*
X121240423Y-117731785D01*
X121269358Y-117781900D01*
X121269359Y-117781904D01*
X121269360Y-117781904D01*
X121319479Y-117868714D01*
X121319481Y-117868717D01*
X121438349Y-117987585D01*
X121438355Y-117987590D01*
X125365425Y-121914660D01*
X125398910Y-121975983D01*
X125399361Y-121978149D01*
X125430261Y-122133491D01*
X125430264Y-122133501D01*
X125490602Y-122279172D01*
X125490609Y-122279185D01*
X125578210Y-122410288D01*
X125578213Y-122410292D01*
X125689707Y-122521786D01*
X125689711Y-122521789D01*
X125820814Y-122609390D01*
X125820827Y-122609397D01*
X125925579Y-122652786D01*
X125966503Y-122669737D01*
X126121153Y-122700499D01*
X126121156Y-122700500D01*
X126121158Y-122700500D01*
X126278844Y-122700500D01*
X126278845Y-122700499D01*
X126433497Y-122669737D01*
X126579179Y-122609394D01*
X126710289Y-122521789D01*
X126821789Y-122410289D01*
X126909394Y-122279179D01*
X126969737Y-122133497D01*
X127000500Y-121978842D01*
X127000500Y-121821158D01*
X127000500Y-121821155D01*
X127000499Y-121821153D01*
X126969738Y-121666510D01*
X126969737Y-121666503D01*
X126969735Y-121666498D01*
X126909397Y-121520827D01*
X126909390Y-121520814D01*
X126821789Y-121389711D01*
X126821786Y-121389707D01*
X126710292Y-121278213D01*
X126710288Y-121278210D01*
X126579185Y-121190609D01*
X126579172Y-121190602D01*
X126433501Y-121130264D01*
X126433491Y-121130261D01*
X126278151Y-121099362D01*
X126216241Y-121066977D01*
X126214662Y-121065426D01*
X122436819Y-117287583D01*
X122403334Y-117226260D01*
X122400500Y-117199902D01*
X122400500Y-105250097D01*
X122420185Y-105183058D01*
X122436819Y-105162416D01*
X126447972Y-101151263D01*
X130484664Y-97114571D01*
X130545985Y-97081088D01*
X130548152Y-97080637D01*
X130548841Y-97080500D01*
X130548842Y-97080500D01*
X130703497Y-97049737D01*
X130849179Y-96989394D01*
X130980289Y-96901789D01*
X131091789Y-96790289D01*
X131179394Y-96659179D01*
X131239737Y-96513497D01*
X131270500Y-96358842D01*
X131270500Y-96201158D01*
X131270500Y-96201155D01*
X131270499Y-96201153D01*
X131240649Y-96051089D01*
X131239737Y-96046503D01*
X131228650Y-96019737D01*
X131179397Y-95900827D01*
X131179390Y-95900814D01*
X131091789Y-95769711D01*
X131091786Y-95769707D01*
X130980292Y-95658213D01*
X130980288Y-95658210D01*
X130849185Y-95570609D01*
X130849172Y-95570602D01*
X130703501Y-95510264D01*
X130703489Y-95510261D01*
X130548845Y-95479500D01*
X130548842Y-95479500D01*
X130391158Y-95479500D01*
X130391155Y-95479500D01*
X130236510Y-95510261D01*
X130236498Y-95510264D01*
X130090827Y-95570602D01*
X130090814Y-95570609D01*
X129959711Y-95658210D01*
X129959707Y-95658213D01*
X129848213Y-95769707D01*
X129848210Y-95769711D01*
X129760609Y-95900814D01*
X129760602Y-95900827D01*
X129700264Y-96046498D01*
X129700261Y-96046508D01*
X129669362Y-96201848D01*
X129636977Y-96263759D01*
X129635426Y-96265337D01*
X121431286Y-104469478D01*
X121319481Y-104581282D01*
X121319480Y-104581284D01*
X121287525Y-104636632D01*
X121240423Y-104718215D01*
X121199499Y-104870943D01*
X121199499Y-105029057D01*
X121199499Y-105029059D01*
X121199500Y-105039053D01*
X121199500Y-117413330D01*
X121199499Y-117413348D01*
X121199499Y-117579054D01*
X121199498Y-117579054D01*
X87500500Y-117579054D01*
X87500500Y-106644863D01*
X115249500Y-106644863D01*
X115249500Y-109355136D01*
X115259582Y-109468548D01*
X115312762Y-109654405D01*
X115340175Y-109706884D01*
X115402266Y-109825751D01*
X115449518Y-109883700D01*
X115524428Y-109975571D01*
X115530184Y-109980264D01*
X115674249Y-110097734D01*
X115845594Y-110187237D01*
X116031448Y-110240417D01*
X116144862Y-110250500D01*
X116144870Y-110250500D01*
X118355130Y-110250500D01*
X118355138Y-110250500D01*
X118468552Y-110240417D01*
X118654406Y-110187237D01*
X118825751Y-110097734D01*
X118975571Y-109975571D01*
X119097734Y-109825751D01*
X119187237Y-109654406D01*
X119240417Y-109468552D01*
X119250500Y-109355138D01*
X119250500Y-106644862D01*
X119240417Y-106531448D01*
X119187237Y-106345594D01*
X119097734Y-106174249D01*
X119036652Y-106099339D01*
X118975571Y-106024428D01*
X118883700Y-105949518D01*
X118825751Y-105902266D01*
X118811082Y-105894604D01*
X118654405Y-105812762D01*
X118499502Y-105768439D01*
X118468552Y-105759583D01*
X118468551Y-105759582D01*
X118468548Y-105759582D01*
X118379662Y-105751680D01*
X118355138Y-105749500D01*
X116144862Y-105749500D01*
X116132599Y-105750590D01*
X116031451Y-105759582D01*
X115845594Y-105812762D01*
X115674250Y-105902265D01*
X115524428Y-106024428D01*
X115402265Y-106174250D01*
X115312762Y-106345594D01*
X115259582Y-106531451D01*
X115249500Y-106644863D01*
X87500500Y-106644863D01*
X87500500Y-91187135D01*
X101264500Y-91187135D01*
X101264500Y-92812870D01*
X101264501Y-92812876D01*
X101270908Y-92872483D01*
X101321202Y-93007328D01*
X101321206Y-93007335D01*
X101407452Y-93122544D01*
X101407455Y-93122547D01*
X101522664Y-93208793D01*
X101522671Y-93208797D01*
X101657517Y-93259091D01*
X101657516Y-93259091D01*
X101664444Y-93259835D01*
X101717127Y-93265500D01*
X103342872Y-93265499D01*
X103402483Y-93259091D01*
X103537331Y-93208796D01*
X103652546Y-93122546D01*
X103738796Y-93007331D01*
X103785852Y-92881166D01*
X103799121Y-92863440D01*
X103808321Y-92843297D01*
X103819651Y-92836015D01*
X103827723Y-92825233D01*
X103848471Y-92817494D01*
X103867099Y-92805523D01*
X103889015Y-92802371D01*
X103893187Y-92800816D01*
X103902034Y-92800500D01*
X104029450Y-92800500D01*
X104096489Y-92820185D01*
X104117131Y-92836818D01*
X104245582Y-92965269D01*
X104406734Y-93082353D01*
X104584217Y-93172785D01*
X104584219Y-93172786D01*
X104773657Y-93234338D01*
X104773658Y-93234338D01*
X104773661Y-93234339D01*
X104970403Y-93265500D01*
X104970404Y-93265500D01*
X105169596Y-93265500D01*
X105169597Y-93265500D01*
X105366339Y-93234339D01*
X105366342Y-93234338D01*
X105366343Y-93234338D01*
X105555780Y-93172786D01*
X105555780Y-93172785D01*
X105555783Y-93172785D01*
X105733266Y-93082353D01*
X105894418Y-92965269D01*
X106035269Y-92824418D01*
X106152353Y-92663266D01*
X106229515Y-92511827D01*
X106277490Y-92461031D01*
X106345311Y-92444236D01*
X106411446Y-92466773D01*
X106450485Y-92511827D01*
X106527647Y-92663266D01*
X106644731Y-92824418D01*
X106785582Y-92965269D01*
X106946734Y-93082353D01*
X107124217Y-93172785D01*
X107124219Y-93172786D01*
X107313657Y-93234338D01*
X107313658Y-93234338D01*
X107313661Y-93234339D01*
X107510403Y-93265500D01*
X107510404Y-93265500D01*
X107709596Y-93265500D01*
X107709597Y-93265500D01*
X107906339Y-93234339D01*
X107906342Y-93234338D01*
X107906343Y-93234338D01*
X108095780Y-93172786D01*
X108095780Y-93172785D01*
X108095783Y-93172785D01*
X108273266Y-93082353D01*
X108434418Y-92965269D01*
X108575269Y-92824418D01*
X108692353Y-92663266D01*
X108769515Y-92511827D01*
X108817490Y-92461031D01*
X108885311Y-92444236D01*
X108951446Y-92466773D01*
X108990485Y-92511827D01*
X109067647Y-92663266D01*
X109184731Y-92824418D01*
X109325582Y-92965269D01*
X109486734Y-93082353D01*
X109664217Y-93172785D01*
X109664219Y-93172786D01*
X109853657Y-93234338D01*
X109853658Y-93234338D01*
X109853661Y-93234339D01*
X110050403Y-93265500D01*
X110050404Y-93265500D01*
X110249596Y-93265500D01*
X110249597Y-93265500D01*
X110446339Y-93234339D01*
X110446342Y-93234338D01*
X110446343Y-93234338D01*
X110635780Y-93172786D01*
X110635780Y-93172785D01*
X110635783Y-93172785D01*
X110813266Y-93082353D01*
X110974418Y-92965269D01*
X111115269Y-92824418D01*
X111232353Y-92663266D01*
X111309515Y-92511827D01*
X111357490Y-92461031D01*
X111425311Y-92444236D01*
X111491446Y-92466773D01*
X111530485Y-92511827D01*
X111607647Y-92663266D01*
X111724731Y-92824418D01*
X111865582Y-92965269D01*
X112026734Y-93082353D01*
X112204217Y-93172785D01*
X112204219Y-93172786D01*
X112393657Y-93234338D01*
X112393658Y-93234338D01*
X112393661Y-93234339D01*
X112590403Y-93265500D01*
X112590404Y-93265500D01*
X112789596Y-93265500D01*
X112789597Y-93265500D01*
X112986339Y-93234339D01*
X112986342Y-93234338D01*
X112986343Y-93234338D01*
X113175780Y-93172786D01*
X113175780Y-93172785D01*
X113175783Y-93172785D01*
X113353266Y-93082353D01*
X113514418Y-92965269D01*
X113655269Y-92824418D01*
X113772353Y-92663266D01*
X113849515Y-92511827D01*
X113897490Y-92461031D01*
X113965311Y-92444236D01*
X114031446Y-92466773D01*
X114070485Y-92511827D01*
X114147647Y-92663266D01*
X114264731Y-92824418D01*
X114405582Y-92965269D01*
X114566734Y-93082353D01*
X114744217Y-93172785D01*
X114744219Y-93172786D01*
X114933657Y-93234338D01*
X114933658Y-93234338D01*
X114933661Y-93234339D01*
X115130403Y-93265500D01*
X115130404Y-93265500D01*
X115329596Y-93265500D01*
X115329597Y-93265500D01*
X115526339Y-93234339D01*
X115526342Y-93234338D01*
X115526343Y-93234338D01*
X115715780Y-93172786D01*
X115715780Y-93172785D01*
X115715783Y-93172785D01*
X115893266Y-93082353D01*
X116054418Y-92965269D01*
X116195269Y-92824418D01*
X116312353Y-92663266D01*
X116389515Y-92511827D01*
X116437490Y-92461031D01*
X116505311Y-92444236D01*
X116571446Y-92466773D01*
X116610485Y-92511827D01*
X116687647Y-92663266D01*
X116804731Y-92824418D01*
X116945582Y-92965269D01*
X117106734Y-93082353D01*
X117284217Y-93172785D01*
X117284219Y-93172786D01*
X117473657Y-93234338D01*
X117473658Y-93234338D01*
X117473661Y-93234339D01*
X117670403Y-93265500D01*
X117670404Y-93265500D01*
X117869596Y-93265500D01*
X117869597Y-93265500D01*
X118066339Y-93234339D01*
X118066342Y-93234338D01*
X118066343Y-93234338D01*
X118255780Y-93172786D01*
X118255780Y-93172785D01*
X118255783Y-93172785D01*
X118433266Y-93082353D01*
X118594418Y-92965269D01*
X118735269Y-92824418D01*
X118852353Y-92663266D01*
X118929515Y-92511827D01*
X118977490Y-92461031D01*
X119045311Y-92444236D01*
X119111446Y-92466773D01*
X119150485Y-92511827D01*
X119227647Y-92663266D01*
X119344731Y-92824418D01*
X119485582Y-92965269D01*
X119646734Y-93082353D01*
X119824217Y-93172785D01*
X119824219Y-93172786D01*
X120013657Y-93234338D01*
X120013658Y-93234338D01*
X120013661Y-93234339D01*
X120210403Y-93265500D01*
X120210404Y-93265500D01*
X120409596Y-93265500D01*
X120409597Y-93265500D01*
X120606339Y-93234339D01*
X120606342Y-93234338D01*
X120606343Y-93234338D01*
X120795780Y-93172786D01*
X120795780Y-93172785D01*
X120795783Y-93172785D01*
X120973266Y-93082353D01*
X121134418Y-92965269D01*
X121275269Y-92824418D01*
X121392353Y-92663266D01*
X121469515Y-92511827D01*
X121517490Y-92461031D01*
X121585311Y-92444236D01*
X121651446Y-92466773D01*
X121690485Y-92511827D01*
X121767647Y-92663266D01*
X121884731Y-92824418D01*
X122025582Y-92965269D01*
X122186734Y-93082353D01*
X122364217Y-93172785D01*
X122364219Y-93172786D01*
X122553657Y-93234338D01*
X122553658Y-93234338D01*
X122553661Y-93234339D01*
X122750403Y-93265500D01*
X122750404Y-93265500D01*
X122949596Y-93265500D01*
X122949597Y-93265500D01*
X123146339Y-93234339D01*
X123146342Y-93234338D01*
X123146343Y-93234338D01*
X123335780Y-93172786D01*
X123335780Y-93172785D01*
X123335783Y-93172785D01*
X123513266Y-93082353D01*
X123674418Y-92965269D01*
X123815269Y-92824418D01*
X123932353Y-92663266D01*
X124009515Y-92511827D01*
X124057490Y-92461031D01*
X124125311Y-92444236D01*
X124191446Y-92466773D01*
X124230485Y-92511827D01*
X124307647Y-92663266D01*
X124424731Y-92824418D01*
X124565582Y-92965269D01*
X124726734Y-93082353D01*
X124904217Y-93172785D01*
X124904219Y-93172786D01*
X125093657Y-93234338D01*
X125093658Y-93234338D01*
X125093661Y-93234339D01*
X125290403Y-93265500D01*
X125290404Y-93265500D01*
X125489596Y-93265500D01*
X125489597Y-93265500D01*
X125686339Y-93234339D01*
X125686342Y-93234338D01*
X125686343Y-93234338D01*
X125875780Y-93172786D01*
X125875780Y-93172785D01*
X125875783Y-93172785D01*
X126053266Y-93082353D01*
X126214418Y-92965269D01*
X126355269Y-92824418D01*
X126472353Y-92663266D01*
X126549515Y-92511827D01*
X126597490Y-92461031D01*
X126665311Y-92444236D01*
X126731446Y-92466773D01*
X126770485Y-92511827D01*
X126847647Y-92663266D01*
X126964731Y-92824418D01*
X127105582Y-92965269D01*
X127266734Y-93082353D01*
X127444217Y-93172785D01*
X127444219Y-93172786D01*
X127633657Y-93234338D01*
X127633658Y-93234338D01*
X127633661Y-93234339D01*
X127830403Y-93265500D01*
X127830404Y-93265500D01*
X128029596Y-93265500D01*
X128029597Y-93265500D01*
X128226339Y-93234339D01*
X128226342Y-93234338D01*
X128226343Y-93234338D01*
X128415780Y-93172786D01*
X128415780Y-93172785D01*
X128415783Y-93172785D01*
X128593266Y-93082353D01*
X128754418Y-92965269D01*
X128895269Y-92824418D01*
X129012353Y-92663266D01*
X129089515Y-92511827D01*
X129137490Y-92461031D01*
X129205311Y-92444236D01*
X129271446Y-92466773D01*
X129310485Y-92511827D01*
X129387647Y-92663266D01*
X129504731Y-92824418D01*
X129645582Y-92965269D01*
X129806734Y-93082353D01*
X129984217Y-93172785D01*
X129984219Y-93172786D01*
X130173657Y-93234338D01*
X130173658Y-93234338D01*
X130173661Y-93234339D01*
X130370403Y-93265500D01*
X130370404Y-93265500D01*
X130569596Y-93265500D01*
X130569597Y-93265500D01*
X130766339Y-93234339D01*
X130766342Y-93234338D01*
X130766343Y-93234338D01*
X130955780Y-93172786D01*
X130955780Y-93172785D01*
X130955783Y-93172785D01*
X131133266Y-93082353D01*
X131294418Y-92965269D01*
X131435269Y-92824418D01*
X131552353Y-92663266D01*
X131629515Y-92511827D01*
X131677490Y-92461031D01*
X131745311Y-92444236D01*
X131811446Y-92466773D01*
X131850485Y-92511827D01*
X131927647Y-92663266D01*
X132044731Y-92824418D01*
X132185582Y-92965269D01*
X132346734Y-93082353D01*
X132524217Y-93172785D01*
X132524219Y-93172786D01*
X132713657Y-93234338D01*
X132713658Y-93234338D01*
X132713661Y-93234339D01*
X132910403Y-93265500D01*
X132910404Y-93265500D01*
X133109596Y-93265500D01*
X133109597Y-93265500D01*
X133306339Y-93234339D01*
X133306342Y-93234338D01*
X133306343Y-93234338D01*
X133495780Y-93172786D01*
X133495780Y-93172785D01*
X133495783Y-93172785D01*
X133673266Y-93082353D01*
X133834418Y-92965269D01*
X133975269Y-92824418D01*
X134092353Y-92663266D01*
X134169515Y-92511827D01*
X134217490Y-92461031D01*
X134285311Y-92444236D01*
X134351446Y-92466773D01*
X134390485Y-92511827D01*
X134467647Y-92663266D01*
X134584731Y-92824418D01*
X134725582Y-92965269D01*
X134886734Y-93082353D01*
X135064217Y-93172785D01*
X135064219Y-93172786D01*
X135253657Y-93234338D01*
X135253658Y-93234338D01*
X135253661Y-93234339D01*
X135450403Y-93265500D01*
X135450404Y-93265500D01*
X135649596Y-93265500D01*
X135649597Y-93265500D01*
X135846339Y-93234339D01*
X135846342Y-93234338D01*
X135846343Y-93234338D01*
X136035780Y-93172786D01*
X136035780Y-93172785D01*
X136035783Y-93172785D01*
X136213266Y-93082353D01*
X136374418Y-92965269D01*
X136515269Y-92824418D01*
X136632353Y-92663266D01*
X136709515Y-92511827D01*
X136757490Y-92461031D01*
X136825311Y-92444236D01*
X136891446Y-92466773D01*
X136930485Y-92511827D01*
X137007647Y-92663266D01*
X137124731Y-92824418D01*
X137265582Y-92965269D01*
X137426734Y-93082353D01*
X137426744Y-93082358D01*
X137430273Y-93084520D01*
X137477157Y-93136325D01*
X137489500Y-93190258D01*
X137489500Y-99859902D01*
X137469815Y-99926941D01*
X137453181Y-99947583D01*
X130019481Y-107381282D01*
X130019479Y-107381285D01*
X129969361Y-107468094D01*
X129969359Y-107468096D01*
X129940425Y-107518209D01*
X129940424Y-107518210D01*
X129940423Y-107518215D01*
X129899499Y-107670943D01*
X129899499Y-107670945D01*
X129899499Y-107839046D01*
X129899500Y-107839059D01*
X129899500Y-115663330D01*
X129899499Y-115663348D01*
X129899499Y-115829054D01*
X129899498Y-115829054D01*
X129940424Y-115981787D01*
X129952570Y-116002824D01*
X129952571Y-116002826D01*
X130019481Y-116118717D01*
X130138349Y-116237585D01*
X130138355Y-116237590D01*
X133515139Y-119614374D01*
X133515149Y-119614385D01*
X133519479Y-119618715D01*
X133519480Y-119618716D01*
X133631284Y-119730520D01*
X133631286Y-119730521D01*
X133631290Y-119730524D01*
X133768209Y-119809573D01*
X133768216Y-119809577D01*
X133880019Y-119839534D01*
X133920942Y-119850500D01*
X133920943Y-119850500D01*
X148699903Y-119850500D01*
X148766942Y-119870185D01*
X148787584Y-119886819D01*
X149753181Y-120852416D01*
X149786666Y-120913739D01*
X149789500Y-120940097D01*
X149789500Y-125159740D01*
X149769815Y-125226779D01*
X149730293Y-125265466D01*
X149726733Y-125267647D01*
X149645212Y-125326876D01*
X149565582Y-125384731D01*
X149565580Y-125384733D01*
X149565579Y-125384733D01*
X149424733Y-125525579D01*
X149424733Y-125525580D01*
X149424731Y-125525582D01*
X149416342Y-125537129D01*
X149307647Y-125686733D01*
X149230485Y-125838172D01*
X149182510Y-125888968D01*
X149114689Y-125905763D01*
X149048554Y-125883225D01*
X149009515Y-125838172D01*
X148941323Y-125704339D01*
X148932353Y-125686734D01*
X148815269Y-125525582D01*
X148674418Y-125384731D01*
X148513266Y-125267647D01*
X148485984Y-125253746D01*
X148335780Y-125177213D01*
X148146342Y-125115661D01*
X147998782Y-125092290D01*
X147949597Y-125084500D01*
X147750403Y-125084500D01*
X147684822Y-125094887D01*
X147553659Y-125115661D01*
X147553656Y-125115661D01*
X147364219Y-125177213D01*
X147186733Y-125267647D01*
X147105212Y-125326876D01*
X147025582Y-125384731D01*
X147025580Y-125384733D01*
X147025579Y-125384733D01*
X146884733Y-125525579D01*
X146884733Y-125525580D01*
X146884731Y-125525582D01*
X146876342Y-125537129D01*
X146767647Y-125686733D01*
X146690485Y-125838172D01*
X146642510Y-125888968D01*
X146574689Y-125905763D01*
X146508554Y-125883225D01*
X146469515Y-125838172D01*
X146401323Y-125704339D01*
X146392353Y-125686734D01*
X146275269Y-125525582D01*
X146134418Y-125384731D01*
X145973266Y-125267647D01*
X145945984Y-125253746D01*
X145795780Y-125177213D01*
X145606342Y-125115661D01*
X145458782Y-125092290D01*
X145409597Y-125084500D01*
X145210403Y-125084500D01*
X145144822Y-125094887D01*
X145013659Y-125115661D01*
X145013656Y-125115661D01*
X144824219Y-125177213D01*
X144646733Y-125267647D01*
X144565212Y-125326876D01*
X144485582Y-125384731D01*
X144485580Y-125384733D01*
X144485579Y-125384733D01*
X144344733Y-125525579D01*
X144344733Y-125525580D01*
X144344731Y-125525582D01*
X144336342Y-125537129D01*
X144227647Y-125686733D01*
X144150485Y-125838172D01*
X144102510Y-125888968D01*
X144034689Y-125905763D01*
X143968554Y-125883225D01*
X143929515Y-125838172D01*
X143861323Y-125704339D01*
X143852353Y-125686734D01*
X143735269Y-125525582D01*
X143594418Y-125384731D01*
X143433266Y-125267647D01*
X143405984Y-125253746D01*
X143255780Y-125177213D01*
X143066342Y-125115661D01*
X142918782Y-125092290D01*
X142869597Y-125084500D01*
X142670403Y-125084500D01*
X142604822Y-125094887D01*
X142473659Y-125115661D01*
X142473656Y-125115661D01*
X142284219Y-125177213D01*
X142106733Y-125267647D01*
X142025212Y-125326876D01*
X141945582Y-125384731D01*
X141945580Y-125384733D01*
X141945579Y-125384733D01*
X141804733Y-125525579D01*
X141804733Y-125525580D01*
X141804731Y-125525582D01*
X141796342Y-125537129D01*
X141687647Y-125686733D01*
X141610485Y-125838172D01*
X141562510Y-125888968D01*
X141494689Y-125905763D01*
X141428554Y-125883225D01*
X141389515Y-125838172D01*
X141321323Y-125704339D01*
X141312353Y-125686734D01*
X141195269Y-125525582D01*
X141054418Y-125384731D01*
X140893266Y-125267647D01*
X140865984Y-125253746D01*
X140715780Y-125177213D01*
X140526342Y-125115661D01*
X140378782Y-125092290D01*
X140329597Y-125084500D01*
X140130403Y-125084500D01*
X140064822Y-125094887D01*
X139933659Y-125115661D01*
X139933656Y-125115661D01*
X139744219Y-125177213D01*
X139566733Y-125267647D01*
X139485212Y-125326876D01*
X139405582Y-125384731D01*
X139405580Y-125384733D01*
X139405579Y-125384733D01*
X139264733Y-125525579D01*
X139264733Y-125525580D01*
X139264731Y-125525582D01*
X139256342Y-125537129D01*
X139147647Y-125686733D01*
X139070485Y-125838172D01*
X139022510Y-125888968D01*
X138954689Y-125905763D01*
X138888554Y-125883225D01*
X138849515Y-125838172D01*
X138781323Y-125704339D01*
X138772353Y-125686734D01*
X138655269Y-125525582D01*
X138514418Y-125384731D01*
X138353266Y-125267647D01*
X138325984Y-125253746D01*
X138175780Y-125177213D01*
X137986342Y-125115661D01*
X137838782Y-125092290D01*
X137789597Y-125084500D01*
X137590403Y-125084500D01*
X137524822Y-125094887D01*
X137393659Y-125115661D01*
X137393656Y-125115661D01*
X137204219Y-125177213D01*
X137026733Y-125267647D01*
X136945212Y-125326876D01*
X136865582Y-125384731D01*
X136865580Y-125384733D01*
X136865579Y-125384733D01*
X136724733Y-125525579D01*
X136724733Y-125525580D01*
X136724731Y-125525582D01*
X136716342Y-125537129D01*
X136607647Y-125686733D01*
X136530485Y-125838172D01*
X136482510Y-125888968D01*
X136414689Y-125905763D01*
X136348554Y-125883225D01*
X136309515Y-125838172D01*
X136241323Y-125704339D01*
X136232353Y-125686734D01*
X136115269Y-125525582D01*
X135974418Y-125384731D01*
X135813266Y-125267647D01*
X135785984Y-125253746D01*
X135635780Y-125177213D01*
X135446342Y-125115661D01*
X135298782Y-125092290D01*
X135249597Y-125084500D01*
X135050403Y-125084500D01*
X134984822Y-125094887D01*
X134853659Y-125115661D01*
X134853656Y-125115661D01*
X134664219Y-125177213D01*
X134486733Y-125267647D01*
X134405212Y-125326876D01*
X134325582Y-125384731D01*
X134325580Y-125384733D01*
X134325579Y-125384733D01*
X134184733Y-125525579D01*
X134184733Y-125525580D01*
X134184731Y-125525582D01*
X134176342Y-125537129D01*
X134099817Y-125642456D01*
X134044487Y-125685121D01*
X133974873Y-125691100D01*
X133913078Y-125658494D01*
X133878721Y-125597655D01*
X133875499Y-125569570D01*
X133875499Y-125537129D01*
X133875498Y-125537123D01*
X133874257Y-125525582D01*
X133870299Y-125488757D01*
X133869091Y-125477516D01*
X133818797Y-125342671D01*
X133818793Y-125342664D01*
X133732547Y-125227455D01*
X133732544Y-125227452D01*
X133617335Y-125141206D01*
X133617328Y-125141202D01*
X133482482Y-125090908D01*
X133482483Y-125090908D01*
X133422883Y-125084501D01*
X133422881Y-125084500D01*
X133422873Y-125084500D01*
X133422865Y-125084500D01*
X132245098Y-125084500D01*
X132178059Y-125064815D01*
X132157417Y-125048181D01*
X129136819Y-122027583D01*
X129103334Y-121966260D01*
X129100500Y-121939902D01*
X129100500Y-102550097D01*
X129120185Y-102483058D01*
X129136819Y-102462416D01*
X132314412Y-99284823D01*
X135514662Y-96084572D01*
X135575983Y-96051089D01*
X135578150Y-96050638D01*
X135636085Y-96039113D01*
X135733497Y-96019737D01*
X135879179Y-95959394D01*
X136010289Y-95871789D01*
X136121789Y-95760289D01*
X136209394Y-95629179D01*
X136269737Y-95483497D01*
X136300500Y-95328842D01*
X136300500Y-95171158D01*
X136300500Y-95171155D01*
X136300499Y-95171153D01*
X136269738Y-95016510D01*
X136269738Y-95016508D01*
X136269737Y-95016503D01*
X136267163Y-95010288D01*
X136209397Y-94870827D01*
X136209390Y-94870814D01*
X136121789Y-94739711D01*
X136121786Y-94739707D01*
X136010292Y-94628213D01*
X136010288Y-94628210D01*
X135879185Y-94540609D01*
X135879172Y-94540602D01*
X135733501Y-94480264D01*
X135733489Y-94480261D01*
X135578845Y-94449500D01*
X135578842Y-94449500D01*
X135421158Y-94449500D01*
X135421155Y-94449500D01*
X135266510Y-94480261D01*
X135266498Y-94480264D01*
X135120827Y-94540602D01*
X135120814Y-94540609D01*
X134989711Y-94628210D01*
X134989707Y-94628213D01*
X134878213Y-94739707D01*
X134878210Y-94739711D01*
X134790609Y-94870814D01*
X134790602Y-94870827D01*
X134730264Y-95016498D01*
X134730261Y-95016508D01*
X134699361Y-95171850D01*
X134666976Y-95233761D01*
X134665425Y-95235339D01*
X128019481Y-101881282D01*
X128019477Y-101881287D01*
X128004345Y-101907499D01*
X128004344Y-101907501D01*
X127940423Y-102018215D01*
X127899499Y-102170943D01*
X127899499Y-102170945D01*
X127899499Y-102339046D01*
X127899500Y-102339059D01*
X127899500Y-122153330D01*
X127899499Y-122153348D01*
X127899499Y-122319054D01*
X127899498Y-122319054D01*
X127940423Y-122471785D01*
X127961350Y-122508030D01*
X127961351Y-122508034D01*
X128019475Y-122608709D01*
X128019481Y-122608717D01*
X128138349Y-122727585D01*
X128138355Y-122727590D01*
X131308181Y-125897417D01*
X131341666Y-125958740D01*
X131344500Y-125985098D01*
X131344500Y-127162870D01*
X131344501Y-127162876D01*
X131350908Y-127222483D01*
X131401202Y-127357328D01*
X131401206Y-127357335D01*
X131487452Y-127472544D01*
X131487455Y-127472547D01*
X131602664Y-127558793D01*
X131602671Y-127558797D01*
X131737517Y-127609091D01*
X131737516Y-127609091D01*
X131744444Y-127609835D01*
X131797127Y-127615500D01*
X133422872Y-127615499D01*
X133482483Y-127609091D01*
X133617331Y-127558796D01*
X133732546Y-127472546D01*
X133818796Y-127357331D01*
X133869091Y-127222483D01*
X133875500Y-127162873D01*
X133875499Y-127130430D01*
X133895182Y-127063394D01*
X133947984Y-127017638D01*
X134017143Y-127007693D01*
X134080699Y-127036716D01*
X134099817Y-127057545D01*
X134104067Y-127063394D01*
X134184731Y-127174418D01*
X134325582Y-127315269D01*
X134486734Y-127432353D01*
X134664217Y-127522785D01*
X134664219Y-127522786D01*
X134853657Y-127584338D01*
X134853658Y-127584338D01*
X134853661Y-127584339D01*
X135050403Y-127615500D01*
X135050404Y-127615500D01*
X135249596Y-127615500D01*
X135249597Y-127615500D01*
X135446339Y-127584339D01*
X135446342Y-127584338D01*
X135446343Y-127584338D01*
X135635780Y-127522786D01*
X135635780Y-127522785D01*
X135635783Y-127522785D01*
X135813266Y-127432353D01*
X135974418Y-127315269D01*
X136115269Y-127174418D01*
X136232353Y-127013266D01*
X136309515Y-126861827D01*
X136357490Y-126811031D01*
X136425311Y-126794236D01*
X136491446Y-126816773D01*
X136530485Y-126861827D01*
X136607647Y-127013266D01*
X136724731Y-127174418D01*
X136865582Y-127315269D01*
X137026734Y-127432353D01*
X137204217Y-127522785D01*
X137204219Y-127522786D01*
X137393657Y-127584338D01*
X137393658Y-127584338D01*
X137393661Y-127584339D01*
X137590403Y-127615500D01*
X137590404Y-127615500D01*
X137789596Y-127615500D01*
X137789597Y-127615500D01*
X137986339Y-127584339D01*
X137986342Y-127584338D01*
X137986343Y-127584338D01*
X138175780Y-127522786D01*
X138175780Y-127522785D01*
X138175783Y-127522785D01*
X138353266Y-127432353D01*
X138514418Y-127315269D01*
X138655269Y-127174418D01*
X138772353Y-127013266D01*
X138849515Y-126861827D01*
X138897490Y-126811031D01*
X138965311Y-126794236D01*
X139031446Y-126816773D01*
X139070485Y-126861827D01*
X139147647Y-127013266D01*
X139264731Y-127174418D01*
X139405582Y-127315269D01*
X139566734Y-127432353D01*
X139744217Y-127522785D01*
X139744219Y-127522786D01*
X139933657Y-127584338D01*
X139933658Y-127584338D01*
X139933661Y-127584339D01*
X140130403Y-127615500D01*
X140130404Y-127615500D01*
X140329596Y-127615500D01*
X140329597Y-127615500D01*
X140526339Y-127584339D01*
X140526342Y-127584338D01*
X140526343Y-127584338D01*
X140715780Y-127522786D01*
X140715780Y-127522785D01*
X140715783Y-127522785D01*
X140893266Y-127432353D01*
X141054418Y-127315269D01*
X141195269Y-127174418D01*
X141312353Y-127013266D01*
X141389515Y-126861827D01*
X141437490Y-126811031D01*
X141505311Y-126794236D01*
X141571446Y-126816773D01*
X141610485Y-126861827D01*
X141687647Y-127013266D01*
X141804731Y-127174418D01*
X141945582Y-127315269D01*
X142106734Y-127432353D01*
X142284217Y-127522785D01*
X142284219Y-127522786D01*
X142473657Y-127584338D01*
X142473658Y-127584338D01*
X142473661Y-127584339D01*
X142670403Y-127615500D01*
X142670404Y-127615500D01*
X142869596Y-127615500D01*
X142869597Y-127615500D01*
X143066339Y-127584339D01*
X143066342Y-127584338D01*
X143066343Y-127584338D01*
X143255780Y-127522786D01*
X143255780Y-127522785D01*
X143255783Y-127522785D01*
X143433266Y-127432353D01*
X143594418Y-127315269D01*
X143735269Y-127174418D01*
X143852353Y-127013266D01*
X143929515Y-126861827D01*
X143977490Y-126811031D01*
X144045311Y-126794236D01*
X144111446Y-126816773D01*
X144150485Y-126861827D01*
X144227647Y-127013266D01*
X144344731Y-127174418D01*
X144485582Y-127315269D01*
X144646734Y-127432353D01*
X144824217Y-127522785D01*
X144824219Y-127522786D01*
X145013657Y-127584338D01*
X145013658Y-127584338D01*
X145013661Y-127584339D01*
X145210403Y-127615500D01*
X145210404Y-127615500D01*
X145409596Y-127615500D01*
X145409597Y-127615500D01*
X145606339Y-127584339D01*
X145606342Y-127584338D01*
X145606343Y-127584338D01*
X145795780Y-127522786D01*
X145795780Y-127522785D01*
X145795783Y-127522785D01*
X145973266Y-127432353D01*
X146134418Y-127315269D01*
X146275269Y-127174418D01*
X146392353Y-127013266D01*
X146469515Y-126861827D01*
X146517490Y-126811031D01*
X146585311Y-126794236D01*
X146651446Y-126816773D01*
X146690485Y-126861827D01*
X146767647Y-127013266D01*
X146884731Y-127174418D01*
X147025582Y-127315269D01*
X147186734Y-127432353D01*
X147364217Y-127522785D01*
X147364219Y-127522786D01*
X147553657Y-127584338D01*
X147553658Y-127584338D01*
X147553661Y-127584339D01*
X147750403Y-127615500D01*
X147750404Y-127615500D01*
X147949596Y-127615500D01*
X147949597Y-127615500D01*
X148146339Y-127584339D01*
X148146342Y-127584338D01*
X148146343Y-127584338D01*
X148335780Y-127522786D01*
X148335780Y-127522785D01*
X148335783Y-127522785D01*
X148513266Y-127432353D01*
X148674418Y-127315269D01*
X148815269Y-127174418D01*
X148932353Y-127013266D01*
X149009515Y-126861827D01*
X149057490Y-126811031D01*
X149125311Y-126794236D01*
X149191446Y-126816773D01*
X149230485Y-126861827D01*
X149307647Y-127013266D01*
X149424731Y-127174418D01*
X149565582Y-127315269D01*
X149726734Y-127432353D01*
X149904217Y-127522785D01*
X149904219Y-127522786D01*
X150093657Y-127584338D01*
X150093658Y-127584338D01*
X150093661Y-127584339D01*
X150290403Y-127615500D01*
X150290404Y-127615500D01*
X150489596Y-127615500D01*
X150489597Y-127615500D01*
X150686339Y-127584339D01*
X150686342Y-127584338D01*
X150686343Y-127584338D01*
X150875780Y-127522786D01*
X150875780Y-127522785D01*
X150875783Y-127522785D01*
X151053266Y-127432353D01*
X151214418Y-127315269D01*
X151355269Y-127174418D01*
X151472353Y-127013266D01*
X151562785Y-126835783D01*
X151570827Y-126811031D01*
X151624338Y-126646343D01*
X151624338Y-126646342D01*
X151624339Y-126646339D01*
X151655500Y-126449597D01*
X151655500Y-126250403D01*
X151624339Y-126053661D01*
X151624338Y-126053657D01*
X151624338Y-126053656D01*
X151562786Y-125864219D01*
X151549514Y-125838172D01*
X151472353Y-125686734D01*
X151355269Y-125525582D01*
X151214418Y-125384731D01*
X151053266Y-125267647D01*
X151049707Y-125265466D01*
X151002833Y-125213652D01*
X150990500Y-125159740D01*
X150990500Y-120729059D01*
X150990501Y-120729046D01*
X150990501Y-120560945D01*
X150990501Y-120560943D01*
X150949577Y-120408215D01*
X150920639Y-120358095D01*
X150870520Y-120271284D01*
X150758716Y-120159480D01*
X150758715Y-120159479D01*
X150754385Y-120155149D01*
X150754374Y-120155139D01*
X149487590Y-118888355D01*
X149487588Y-118888352D01*
X149368717Y-118769481D01*
X149368716Y-118769480D01*
X149281904Y-118719360D01*
X149281904Y-118719359D01*
X149281900Y-118719358D01*
X149231785Y-118690423D01*
X149079057Y-118649499D01*
X148920943Y-118649499D01*
X148913347Y-118649499D01*
X148913331Y-118649500D01*
X134300097Y-118649500D01*
X134233058Y-118629815D01*
X134212416Y-118613181D01*
X131136819Y-115537584D01*
X131103334Y-115476261D01*
X131100500Y-115449903D01*
X131100500Y-113784608D01*
X131120185Y-113717569D01*
X131172989Y-113671814D01*
X131242147Y-113661870D01*
X131305703Y-113690895D01*
X131343477Y-113749673D01*
X131346973Y-113765210D01*
X131375661Y-113946340D01*
X131375661Y-113946343D01*
X131437213Y-114135780D01*
X131437215Y-114135783D01*
X131527647Y-114313266D01*
X131644731Y-114474418D01*
X131785582Y-114615269D01*
X131946734Y-114732353D01*
X132124217Y-114822785D01*
X132124219Y-114822786D01*
X132313657Y-114884338D01*
X132313658Y-114884338D01*
X132313661Y-114884339D01*
X132510403Y-114915500D01*
X132510404Y-114915500D01*
X132709596Y-114915500D01*
X132709597Y-114915500D01*
X132906339Y-114884339D01*
X132906342Y-114884338D01*
X132906343Y-114884338D01*
X133095780Y-114822786D01*
X133095780Y-114822785D01*
X133095783Y-114822785D01*
X133273266Y-114732353D01*
X133434418Y-114615269D01*
X133575269Y-114474418D01*
X133692353Y-114313266D01*
X133782785Y-114135783D01*
X133790827Y-114111031D01*
X133844338Y-113946343D01*
X133844338Y-113946342D01*
X133844339Y-113946339D01*
X133875500Y-113749597D01*
X133875500Y-113550403D01*
X133844339Y-113353661D01*
X133844338Y-113353657D01*
X133844338Y-113353656D01*
X133782786Y-113164219D01*
X133692352Y-112986733D01*
X133575269Y-112825582D01*
X133434418Y-112684731D01*
X133273266Y-112567647D01*
X133095780Y-112477213D01*
X132906342Y-112415661D01*
X132758782Y-112392290D01*
X132709597Y-112384500D01*
X132510403Y-112384500D01*
X132444822Y-112394887D01*
X132313659Y-112415661D01*
X132313656Y-112415661D01*
X132124219Y-112477213D01*
X131946733Y-112567647D01*
X131854790Y-112634447D01*
X131785582Y-112684731D01*
X131785580Y-112684733D01*
X131785579Y-112684733D01*
X131644733Y-112825579D01*
X131644733Y-112825580D01*
X131644731Y-112825582D01*
X131594447Y-112894790D01*
X131527647Y-112986733D01*
X131437213Y-113164219D01*
X131375661Y-113353656D01*
X131375661Y-113353659D01*
X131346973Y-113534789D01*
X131317044Y-113597924D01*
X131257732Y-113634855D01*
X131187870Y-113633857D01*
X131129637Y-113595247D01*
X131101523Y-113531284D01*
X131100500Y-113515391D01*
X131100500Y-108050096D01*
X131120185Y-107983057D01*
X131136814Y-107962420D01*
X137378080Y-101721153D01*
X138099500Y-101721153D01*
X138099500Y-101878846D01*
X138130261Y-102033489D01*
X138130264Y-102033501D01*
X138190602Y-102179172D01*
X138190609Y-102179185D01*
X138278210Y-102310288D01*
X138278213Y-102310292D01*
X138389707Y-102421786D01*
X138389711Y-102421789D01*
X138520814Y-102509390D01*
X138520827Y-102509397D01*
X138619087Y-102550097D01*
X138666503Y-102569737D01*
X138755346Y-102587409D01*
X138821153Y-102600499D01*
X138821156Y-102600500D01*
X138821158Y-102600500D01*
X138978844Y-102600500D01*
X138978845Y-102600499D01*
X139133497Y-102569737D01*
X139279179Y-102509394D01*
X139410289Y-102421789D01*
X139521789Y-102310289D01*
X139609394Y-102179179D01*
X139612806Y-102170943D01*
X139669735Y-102033501D01*
X139669737Y-102033497D01*
X139694799Y-101907502D01*
X139700638Y-101878150D01*
X139733023Y-101816239D01*
X139734518Y-101814716D01*
X142230477Y-99318757D01*
X142291798Y-99285274D01*
X142342345Y-99284823D01*
X142405388Y-99297363D01*
X142421157Y-99300500D01*
X142421158Y-99300500D01*
X142578844Y-99300500D01*
X142578845Y-99300499D01*
X142733497Y-99269737D01*
X142879179Y-99209394D01*
X143010289Y-99121789D01*
X143121789Y-99010289D01*
X143209394Y-98879179D01*
X143269737Y-98733497D01*
X143300500Y-98578842D01*
X143300500Y-98421158D01*
X143300500Y-98421155D01*
X143300499Y-98421153D01*
X143269738Y-98266510D01*
X143269737Y-98266503D01*
X143269735Y-98266498D01*
X143209397Y-98120827D01*
X143209390Y-98120814D01*
X143121789Y-97989711D01*
X143121786Y-97989707D01*
X143010292Y-97878213D01*
X143010288Y-97878210D01*
X142879185Y-97790609D01*
X142879172Y-97790602D01*
X142733501Y-97730264D01*
X142733489Y-97730261D01*
X142578845Y-97699500D01*
X142578842Y-97699500D01*
X142421158Y-97699500D01*
X142421155Y-97699500D01*
X142266510Y-97730261D01*
X142266498Y-97730264D01*
X142120827Y-97790602D01*
X142120814Y-97790609D01*
X141989711Y-97878210D01*
X141989707Y-97878213D01*
X141883425Y-97984496D01*
X141857747Y-98004200D01*
X141831290Y-98019475D01*
X141831281Y-98019482D01*
X138885339Y-100965425D01*
X138824016Y-100998910D01*
X138821850Y-100999361D01*
X138666508Y-101030261D01*
X138666498Y-101030264D01*
X138520827Y-101090602D01*
X138520814Y-101090609D01*
X138389711Y-101178210D01*
X138389707Y-101178213D01*
X138278213Y-101289707D01*
X138278210Y-101289711D01*
X138190609Y-101420814D01*
X138190602Y-101420827D01*
X138130264Y-101566498D01*
X138130261Y-101566510D01*
X138099500Y-101721153D01*
X137378080Y-101721153D01*
X138448506Y-100650727D01*
X138448511Y-100650724D01*
X138458714Y-100640520D01*
X138458716Y-100640520D01*
X138570520Y-100528716D01*
X138625927Y-100432748D01*
X138649577Y-100391785D01*
X138690501Y-100239057D01*
X138690501Y-100080943D01*
X138690501Y-100073348D01*
X138690500Y-100073330D01*
X138690500Y-93190258D01*
X138710185Y-93123219D01*
X138749727Y-93084520D01*
X138753249Y-93082361D01*
X138753266Y-93082353D01*
X138914418Y-92965269D01*
X139055269Y-92824418D01*
X139172353Y-92663266D01*
X139249515Y-92511827D01*
X139297490Y-92461031D01*
X139365311Y-92444236D01*
X139431446Y-92466773D01*
X139470485Y-92511827D01*
X139547647Y-92663266D01*
X139664731Y-92824418D01*
X139805582Y-92965269D01*
X139966734Y-93082353D01*
X140144217Y-93172785D01*
X140144219Y-93172786D01*
X140333657Y-93234338D01*
X140333658Y-93234338D01*
X140333661Y-93234339D01*
X140530403Y-93265500D01*
X140530404Y-93265500D01*
X140729596Y-93265500D01*
X140729597Y-93265500D01*
X140926339Y-93234339D01*
X140926342Y-93234338D01*
X140926343Y-93234338D01*
X141115780Y-93172786D01*
X141115780Y-93172785D01*
X141115783Y-93172785D01*
X141293266Y-93082353D01*
X141454418Y-92965269D01*
X141595269Y-92824418D01*
X141712353Y-92663266D01*
X141789515Y-92511827D01*
X141837490Y-92461031D01*
X141905311Y-92444236D01*
X141971446Y-92466773D01*
X142010485Y-92511827D01*
X142087647Y-92663266D01*
X142204731Y-92824418D01*
X142345582Y-92965269D01*
X142506734Y-93082353D01*
X142684217Y-93172785D01*
X142684219Y-93172786D01*
X142873657Y-93234338D01*
X142873658Y-93234338D01*
X142873661Y-93234339D01*
X143070403Y-93265500D01*
X143070404Y-93265500D01*
X143269596Y-93265500D01*
X143269597Y-93265500D01*
X143466339Y-93234339D01*
X143466342Y-93234338D01*
X143466343Y-93234338D01*
X143655780Y-93172786D01*
X143655780Y-93172785D01*
X143655783Y-93172785D01*
X143833266Y-93082353D01*
X143994418Y-92965269D01*
X144135269Y-92824418D01*
X144252353Y-92663266D01*
X144329515Y-92511827D01*
X144377490Y-92461031D01*
X144445311Y-92444236D01*
X144511446Y-92466773D01*
X144550485Y-92511827D01*
X144627647Y-92663266D01*
X144744731Y-92824418D01*
X144885582Y-92965269D01*
X145046734Y-93082353D01*
X145224217Y-93172785D01*
X145224219Y-93172786D01*
X145413657Y-93234338D01*
X145413658Y-93234338D01*
X145413661Y-93234339D01*
X145610403Y-93265500D01*
X145610404Y-93265500D01*
X145809596Y-93265500D01*
X145809597Y-93265500D01*
X146006339Y-93234339D01*
X146006342Y-93234338D01*
X146006343Y-93234338D01*
X146195780Y-93172786D01*
X146195780Y-93172785D01*
X146195783Y-93172785D01*
X146373266Y-93082353D01*
X146534418Y-92965269D01*
X146675269Y-92824418D01*
X146792353Y-92663266D01*
X146869515Y-92511827D01*
X146917490Y-92461031D01*
X146985311Y-92444236D01*
X147051446Y-92466773D01*
X147090485Y-92511827D01*
X147167647Y-92663266D01*
X147284731Y-92824418D01*
X147425582Y-92965269D01*
X147586734Y-93082353D01*
X147764217Y-93172785D01*
X147764219Y-93172786D01*
X147953657Y-93234338D01*
X147953658Y-93234338D01*
X147953661Y-93234339D01*
X148150403Y-93265500D01*
X148150404Y-93265500D01*
X148349596Y-93265500D01*
X148349597Y-93265500D01*
X148546339Y-93234339D01*
X148546342Y-93234338D01*
X148546343Y-93234338D01*
X148735780Y-93172786D01*
X148735780Y-93172785D01*
X148735783Y-93172785D01*
X148913266Y-93082353D01*
X149074418Y-92965269D01*
X149215269Y-92824418D01*
X149332353Y-92663266D01*
X149409515Y-92511827D01*
X149457490Y-92461031D01*
X149525311Y-92444236D01*
X149591446Y-92466773D01*
X149630485Y-92511827D01*
X149707647Y-92663266D01*
X149824731Y-92824418D01*
X149965582Y-92965269D01*
X150126734Y-93082353D01*
X150304217Y-93172785D01*
X150304219Y-93172786D01*
X150493657Y-93234338D01*
X150493658Y-93234338D01*
X150493661Y-93234339D01*
X150690403Y-93265500D01*
X150690404Y-93265500D01*
X150889596Y-93265500D01*
X150889597Y-93265500D01*
X151086339Y-93234339D01*
X151086342Y-93234338D01*
X151086343Y-93234338D01*
X151275780Y-93172786D01*
X151275780Y-93172785D01*
X151275783Y-93172785D01*
X151453266Y-93082353D01*
X151614418Y-92965269D01*
X151755269Y-92824418D01*
X151872353Y-92663266D01*
X151949515Y-92511827D01*
X151997490Y-92461031D01*
X152065311Y-92444236D01*
X152131446Y-92466773D01*
X152170485Y-92511827D01*
X152247647Y-92663266D01*
X152364731Y-92824418D01*
X152505582Y-92965269D01*
X152666734Y-93082353D01*
X152844217Y-93172785D01*
X152844219Y-93172786D01*
X153033657Y-93234338D01*
X153033658Y-93234338D01*
X153033661Y-93234339D01*
X153230403Y-93265500D01*
X153230404Y-93265500D01*
X153429596Y-93265500D01*
X153429597Y-93265500D01*
X153626339Y-93234339D01*
X153626342Y-93234338D01*
X153626343Y-93234338D01*
X153815780Y-93172786D01*
X153815780Y-93172785D01*
X153815783Y-93172785D01*
X153993266Y-93082353D01*
X154154418Y-92965269D01*
X154295269Y-92824418D01*
X154412353Y-92663266D01*
X154502785Y-92485783D01*
X154510827Y-92461031D01*
X154564338Y-92296343D01*
X154564338Y-92296342D01*
X154564339Y-92296339D01*
X154595500Y-92099597D01*
X154595500Y-91900403D01*
X154564339Y-91703661D01*
X154564338Y-91703657D01*
X154564338Y-91703656D01*
X154502786Y-91514219D01*
X154461277Y-91432753D01*
X154412353Y-91336734D01*
X154295269Y-91175582D01*
X154154418Y-91034731D01*
X153993266Y-90917647D01*
X153887295Y-90863652D01*
X153815780Y-90827213D01*
X153626342Y-90765661D01*
X153478782Y-90742290D01*
X153429597Y-90734500D01*
X153230403Y-90734500D01*
X153179521Y-90742559D01*
X153033659Y-90765661D01*
X153033656Y-90765661D01*
X152844219Y-90827213D01*
X152666733Y-90917647D01*
X152589708Y-90973610D01*
X152505582Y-91034731D01*
X152505580Y-91034733D01*
X152505579Y-91034733D01*
X152364733Y-91175579D01*
X152364733Y-91175580D01*
X152364731Y-91175582D01*
X152351003Y-91194477D01*
X152247647Y-91336733D01*
X152170485Y-91488172D01*
X152122510Y-91538968D01*
X152054689Y-91555763D01*
X151988554Y-91533225D01*
X151949515Y-91488172D01*
X151872352Y-91336733D01*
X151840666Y-91293121D01*
X151755269Y-91175582D01*
X151614418Y-91034731D01*
X151453266Y-90917647D01*
X151347295Y-90863652D01*
X151275780Y-90827213D01*
X151086342Y-90765661D01*
X150938782Y-90742290D01*
X150889597Y-90734500D01*
X150690403Y-90734500D01*
X150639521Y-90742559D01*
X150493659Y-90765661D01*
X150493656Y-90765661D01*
X150304219Y-90827213D01*
X150126733Y-90917647D01*
X150049708Y-90973610D01*
X149965582Y-91034731D01*
X149965580Y-91034733D01*
X149965579Y-91034733D01*
X149824733Y-91175579D01*
X149824733Y-91175580D01*
X149824731Y-91175582D01*
X149811003Y-91194477D01*
X149707647Y-91336733D01*
X149630485Y-91488172D01*
X149582510Y-91538968D01*
X149514689Y-91555763D01*
X149448554Y-91533225D01*
X149409515Y-91488172D01*
X149332352Y-91336733D01*
X149300666Y-91293121D01*
X149215269Y-91175582D01*
X149074418Y-91034731D01*
X148913266Y-90917647D01*
X148807295Y-90863652D01*
X148735780Y-90827213D01*
X148546342Y-90765661D01*
X148398782Y-90742290D01*
X148349597Y-90734500D01*
X148150403Y-90734500D01*
X148099521Y-90742559D01*
X147953659Y-90765661D01*
X147953656Y-90765661D01*
X147764219Y-90827213D01*
X147586733Y-90917647D01*
X147509708Y-90973610D01*
X147425582Y-91034731D01*
X147425580Y-91034733D01*
X147425579Y-91034733D01*
X147284733Y-91175579D01*
X147284733Y-91175580D01*
X147284731Y-91175582D01*
X147271003Y-91194477D01*
X147167647Y-91336733D01*
X147090485Y-91488172D01*
X147042510Y-91538968D01*
X146974689Y-91555763D01*
X146908554Y-91533225D01*
X146869515Y-91488172D01*
X146792352Y-91336733D01*
X146760666Y-91293121D01*
X146675269Y-91175582D01*
X146534418Y-91034731D01*
X146373266Y-90917647D01*
X146267295Y-90863652D01*
X146195780Y-90827213D01*
X146006342Y-90765661D01*
X145858782Y-90742290D01*
X145809597Y-90734500D01*
X145610403Y-90734500D01*
X145559521Y-90742559D01*
X145413659Y-90765661D01*
X145413656Y-90765661D01*
X145224219Y-90827213D01*
X145046733Y-90917647D01*
X144969708Y-90973610D01*
X144885582Y-91034731D01*
X144885580Y-91034733D01*
X144885579Y-91034733D01*
X144744733Y-91175579D01*
X144744733Y-91175580D01*
X144744731Y-91175582D01*
X144731003Y-91194477D01*
X144627647Y-91336733D01*
X144550485Y-91488172D01*
X144502510Y-91538968D01*
X144434689Y-91555763D01*
X144368554Y-91533225D01*
X144329515Y-91488172D01*
X144252352Y-91336733D01*
X144220666Y-91293121D01*
X144135269Y-91175582D01*
X143994418Y-91034731D01*
X143833266Y-90917647D01*
X143727295Y-90863652D01*
X143655780Y-90827213D01*
X143466342Y-90765661D01*
X143318782Y-90742290D01*
X143269597Y-90734500D01*
X143070403Y-90734500D01*
X143019521Y-90742559D01*
X142873659Y-90765661D01*
X142873656Y-90765661D01*
X142684219Y-90827213D01*
X142506733Y-90917647D01*
X142429708Y-90973610D01*
X142345582Y-91034731D01*
X142345580Y-91034733D01*
X142345579Y-91034733D01*
X142204733Y-91175579D01*
X142204733Y-91175580D01*
X142204731Y-91175582D01*
X142191003Y-91194477D01*
X142087647Y-91336733D01*
X142010485Y-91488172D01*
X141962510Y-91538968D01*
X141894689Y-91555763D01*
X141828554Y-91533225D01*
X141789515Y-91488172D01*
X141712352Y-91336733D01*
X141680666Y-91293121D01*
X141595269Y-91175582D01*
X141454418Y-91034731D01*
X141293266Y-90917647D01*
X141187295Y-90863652D01*
X141115780Y-90827213D01*
X140926342Y-90765661D01*
X140778782Y-90742290D01*
X140729597Y-90734500D01*
X140530403Y-90734500D01*
X140479521Y-90742559D01*
X140333659Y-90765661D01*
X140333656Y-90765661D01*
X140144219Y-90827213D01*
X139966733Y-90917647D01*
X139889708Y-90973610D01*
X139805582Y-91034731D01*
X139805580Y-91034733D01*
X139805579Y-91034733D01*
X139664733Y-91175579D01*
X139664733Y-91175580D01*
X139664731Y-91175582D01*
X139651003Y-91194477D01*
X139547647Y-91336733D01*
X139470485Y-91488172D01*
X139422510Y-91538968D01*
X139354689Y-91555763D01*
X139288554Y-91533225D01*
X139249515Y-91488172D01*
X139172352Y-91336733D01*
X139140666Y-91293121D01*
X139055269Y-91175582D01*
X138914418Y-91034731D01*
X138753266Y-90917647D01*
X138647295Y-90863652D01*
X138575780Y-90827213D01*
X138386342Y-90765661D01*
X138238782Y-90742290D01*
X138189597Y-90734500D01*
X137990403Y-90734500D01*
X137939521Y-90742559D01*
X137793659Y-90765661D01*
X137793656Y-90765661D01*
X137604219Y-90827213D01*
X137426733Y-90917647D01*
X137349708Y-90973610D01*
X137265582Y-91034731D01*
X137265580Y-91034733D01*
X137265579Y-91034733D01*
X137124733Y-91175579D01*
X137124733Y-91175580D01*
X137124731Y-91175582D01*
X137111003Y-91194477D01*
X137007647Y-91336733D01*
X136930485Y-91488172D01*
X136882510Y-91538968D01*
X136814689Y-91555763D01*
X136748554Y-91533225D01*
X136709515Y-91488172D01*
X136632352Y-91336733D01*
X136600666Y-91293121D01*
X136515269Y-91175582D01*
X136374418Y-91034731D01*
X136213266Y-90917647D01*
X136107295Y-90863652D01*
X136035780Y-90827213D01*
X135846342Y-90765661D01*
X135698782Y-90742290D01*
X135649597Y-90734500D01*
X135450403Y-90734500D01*
X135399521Y-90742559D01*
X135253659Y-90765661D01*
X135253656Y-90765661D01*
X135064219Y-90827213D01*
X134886733Y-90917647D01*
X134809708Y-90973610D01*
X134725582Y-91034731D01*
X134725580Y-91034733D01*
X134725579Y-91034733D01*
X134584733Y-91175579D01*
X134584733Y-91175580D01*
X134584731Y-91175582D01*
X134571003Y-91194477D01*
X134467647Y-91336733D01*
X134390485Y-91488172D01*
X134342510Y-91538968D01*
X134274689Y-91555763D01*
X134208554Y-91533225D01*
X134169515Y-91488172D01*
X134092352Y-91336733D01*
X134060666Y-91293121D01*
X133975269Y-91175582D01*
X133834418Y-91034731D01*
X133673266Y-90917647D01*
X133567295Y-90863652D01*
X133495780Y-90827213D01*
X133306342Y-90765661D01*
X133158782Y-90742290D01*
X133109597Y-90734500D01*
X132910403Y-90734500D01*
X132859521Y-90742559D01*
X132713659Y-90765661D01*
X132713656Y-90765661D01*
X132524219Y-90827213D01*
X132346733Y-90917647D01*
X132269708Y-90973610D01*
X132185582Y-91034731D01*
X132185580Y-91034733D01*
X132185579Y-91034733D01*
X132044733Y-91175579D01*
X132044733Y-91175580D01*
X132044731Y-91175582D01*
X132031003Y-91194477D01*
X131927647Y-91336733D01*
X131850485Y-91488172D01*
X131802510Y-91538968D01*
X131734689Y-91555763D01*
X131668554Y-91533225D01*
X131629515Y-91488172D01*
X131552352Y-91336733D01*
X131520666Y-91293121D01*
X131435269Y-91175582D01*
X131294418Y-91034731D01*
X131133266Y-90917647D01*
X131027295Y-90863652D01*
X130955780Y-90827213D01*
X130766342Y-90765661D01*
X130618782Y-90742290D01*
X130569597Y-90734500D01*
X130370403Y-90734500D01*
X130319521Y-90742559D01*
X130173659Y-90765661D01*
X130173656Y-90765661D01*
X129984219Y-90827213D01*
X129806733Y-90917647D01*
X129729708Y-90973610D01*
X129645582Y-91034731D01*
X129645580Y-91034733D01*
X129645579Y-91034733D01*
X129504733Y-91175579D01*
X129504733Y-91175580D01*
X129504731Y-91175582D01*
X129491003Y-91194477D01*
X129387647Y-91336733D01*
X129310485Y-91488172D01*
X129262510Y-91538968D01*
X129194689Y-91555763D01*
X129128554Y-91533225D01*
X129089515Y-91488172D01*
X129012352Y-91336733D01*
X128980666Y-91293121D01*
X128895269Y-91175582D01*
X128754418Y-91034731D01*
X128593266Y-90917647D01*
X128487295Y-90863652D01*
X128415780Y-90827213D01*
X128226342Y-90765661D01*
X128078782Y-90742290D01*
X128029597Y-90734500D01*
X127830403Y-90734500D01*
X127779521Y-90742559D01*
X127633659Y-90765661D01*
X127633656Y-90765661D01*
X127444219Y-90827213D01*
X127266733Y-90917647D01*
X127189708Y-90973610D01*
X127105582Y-91034731D01*
X127105580Y-91034733D01*
X127105579Y-91034733D01*
X126964733Y-91175579D01*
X126964733Y-91175580D01*
X126964731Y-91175582D01*
X126951003Y-91194477D01*
X126847647Y-91336733D01*
X126770485Y-91488172D01*
X126722510Y-91538968D01*
X126654689Y-91555763D01*
X126588554Y-91533225D01*
X126549515Y-91488172D01*
X126472352Y-91336733D01*
X126440666Y-91293121D01*
X126355269Y-91175582D01*
X126214418Y-91034731D01*
X126053266Y-90917647D01*
X126049707Y-90915466D01*
X126002833Y-90863652D01*
X125990500Y-90809740D01*
X125990500Y-87421153D01*
X164699500Y-87421153D01*
X164699500Y-87578846D01*
X164730261Y-87733489D01*
X164730264Y-87733501D01*
X164790602Y-87879172D01*
X164790609Y-87879185D01*
X164878602Y-88010874D01*
X164899480Y-88077551D01*
X164899500Y-88079765D01*
X164899500Y-93920234D01*
X164879815Y-93987273D01*
X164878602Y-93989125D01*
X164790609Y-94120814D01*
X164790602Y-94120827D01*
X164730264Y-94266498D01*
X164730261Y-94266510D01*
X164699500Y-94421153D01*
X164699500Y-94578846D01*
X164730261Y-94733489D01*
X164730264Y-94733501D01*
X164790602Y-94879172D01*
X164790609Y-94879185D01*
X164878210Y-95010288D01*
X164878213Y-95010292D01*
X164989707Y-95121786D01*
X164989711Y-95121789D01*
X165120814Y-95209390D01*
X165120827Y-95209397D01*
X165266498Y-95269735D01*
X165266503Y-95269737D01*
X165421153Y-95300499D01*
X165421156Y-95300500D01*
X165421158Y-95300500D01*
X165578844Y-95300500D01*
X165578845Y-95300499D01*
X165733497Y-95269737D01*
X165879179Y-95209394D01*
X166010289Y-95121789D01*
X166121789Y-95010289D01*
X166209394Y-94879179D01*
X166212854Y-94870827D01*
X166267163Y-94739711D01*
X166269737Y-94733497D01*
X166300500Y-94578842D01*
X166300500Y-94421158D01*
X166300500Y-94421155D01*
X166300499Y-94421153D01*
X166269738Y-94266510D01*
X166269737Y-94266503D01*
X166269735Y-94266498D01*
X166209397Y-94120827D01*
X166209390Y-94120814D01*
X166121398Y-93989125D01*
X166100520Y-93922447D01*
X166100500Y-93920234D01*
X166100500Y-88079765D01*
X166120185Y-88012726D01*
X166121398Y-88010874D01*
X166209390Y-87879185D01*
X166209390Y-87879184D01*
X166209394Y-87879179D01*
X166269737Y-87733497D01*
X166300500Y-87578842D01*
X166300500Y-87421158D01*
X166300500Y-87421155D01*
X166300499Y-87421153D01*
X166269738Y-87266510D01*
X166269737Y-87266503D01*
X166222006Y-87151269D01*
X166209397Y-87120827D01*
X166209390Y-87120814D01*
X166121789Y-86989711D01*
X166121786Y-86989707D01*
X166010292Y-86878213D01*
X166010288Y-86878210D01*
X165879185Y-86790609D01*
X165879172Y-86790602D01*
X165733501Y-86730264D01*
X165733489Y-86730261D01*
X165578845Y-86699500D01*
X165578842Y-86699500D01*
X165421158Y-86699500D01*
X165421155Y-86699500D01*
X165266510Y-86730261D01*
X165266498Y-86730264D01*
X165120827Y-86790602D01*
X165120814Y-86790609D01*
X164989711Y-86878210D01*
X164989707Y-86878213D01*
X164878213Y-86989707D01*
X164878210Y-86989711D01*
X164790609Y-87120814D01*
X164790602Y-87120827D01*
X164730264Y-87266498D01*
X164730261Y-87266510D01*
X164699500Y-87421153D01*
X125990500Y-87421153D01*
X125990500Y-86910096D01*
X126010185Y-86843057D01*
X126026815Y-86822419D01*
X126660401Y-86188832D01*
X126721722Y-86155349D01*
X126791413Y-86160333D01*
X126816971Y-86173413D01*
X126870814Y-86209390D01*
X126870827Y-86209397D01*
X127016498Y-86269735D01*
X127016503Y-86269737D01*
X127134062Y-86293121D01*
X127171153Y-86300499D01*
X127171156Y-86300500D01*
X127171158Y-86300500D01*
X127328844Y-86300500D01*
X127328845Y-86300499D01*
X127483497Y-86269737D01*
X127629179Y-86209394D01*
X127760289Y-86121789D01*
X127871789Y-86010289D01*
X127959394Y-85879179D01*
X128019737Y-85733497D01*
X128050500Y-85578842D01*
X128050500Y-85421158D01*
X128050500Y-85421155D01*
X128050499Y-85421153D01*
X128019738Y-85266510D01*
X128019737Y-85266503D01*
X128005264Y-85231561D01*
X127959397Y-85120827D01*
X127959390Y-85120814D01*
X127871789Y-84989711D01*
X127871786Y-84989707D01*
X127760292Y-84878213D01*
X127760288Y-84878210D01*
X127629185Y-84790609D01*
X127629172Y-84790602D01*
X127483501Y-84730264D01*
X127483489Y-84730261D01*
X127328845Y-84699500D01*
X127328842Y-84699500D01*
X127171158Y-84699500D01*
X127171155Y-84699500D01*
X127016510Y-84730261D01*
X127016498Y-84730264D01*
X126870827Y-84790602D01*
X126870814Y-84790609D01*
X126739125Y-84878602D01*
X126672447Y-84899480D01*
X126670234Y-84899500D01*
X126579057Y-84899500D01*
X126420943Y-84899500D01*
X126268215Y-84940423D01*
X126268214Y-84940423D01*
X126268212Y-84940424D01*
X126268209Y-84940425D01*
X126218096Y-84969359D01*
X126218095Y-84969360D01*
X126182853Y-84989707D01*
X126131285Y-85019479D01*
X126131282Y-85019481D01*
X124909479Y-86241284D01*
X124893054Y-86269735D01*
X124875292Y-86300500D01*
X124830423Y-86378215D01*
X124789499Y-86530943D01*
X124789499Y-86530945D01*
X124789499Y-86699046D01*
X124789500Y-86699059D01*
X124789500Y-90809740D01*
X124769815Y-90876779D01*
X124730293Y-90915466D01*
X124726733Y-90917647D01*
X124649708Y-90973610D01*
X124565582Y-91034731D01*
X124565580Y-91034733D01*
X124565579Y-91034733D01*
X124424733Y-91175579D01*
X124424733Y-91175580D01*
X124424731Y-91175582D01*
X124411003Y-91194477D01*
X124307647Y-91336733D01*
X124230485Y-91488172D01*
X124182510Y-91538968D01*
X124114689Y-91555763D01*
X124048554Y-91533225D01*
X124009515Y-91488172D01*
X123932352Y-91336733D01*
X123900666Y-91293121D01*
X123815269Y-91175582D01*
X123674418Y-91034731D01*
X123513266Y-90917647D01*
X123407295Y-90863652D01*
X123335780Y-90827213D01*
X123146342Y-90765661D01*
X122998782Y-90742290D01*
X122949597Y-90734500D01*
X122750403Y-90734500D01*
X122699521Y-90742559D01*
X122553659Y-90765661D01*
X122553656Y-90765661D01*
X122364219Y-90827213D01*
X122186733Y-90917647D01*
X122109708Y-90973610D01*
X122025582Y-91034731D01*
X122025580Y-91034733D01*
X122025579Y-91034733D01*
X121884733Y-91175579D01*
X121884733Y-91175580D01*
X121884731Y-91175582D01*
X121871003Y-91194477D01*
X121767647Y-91336733D01*
X121690485Y-91488172D01*
X121642510Y-91538968D01*
X121574689Y-91555763D01*
X121508554Y-91533225D01*
X121469515Y-91488172D01*
X121392352Y-91336733D01*
X121360666Y-91293121D01*
X121275269Y-91175582D01*
X121134418Y-91034731D01*
X120973266Y-90917647D01*
X120867295Y-90863652D01*
X120795780Y-90827213D01*
X120606342Y-90765661D01*
X120458782Y-90742290D01*
X120409597Y-90734500D01*
X120210403Y-90734500D01*
X120159521Y-90742559D01*
X120013659Y-90765661D01*
X120013656Y-90765661D01*
X119824219Y-90827213D01*
X119646733Y-90917647D01*
X119569708Y-90973610D01*
X119485582Y-91034731D01*
X119485580Y-91034733D01*
X119485579Y-91034733D01*
X119344733Y-91175579D01*
X119344733Y-91175580D01*
X119344731Y-91175582D01*
X119331003Y-91194477D01*
X119227647Y-91336733D01*
X119150485Y-91488172D01*
X119102510Y-91538968D01*
X119034689Y-91555763D01*
X118968554Y-91533225D01*
X118929515Y-91488172D01*
X118852352Y-91336733D01*
X118820666Y-91293121D01*
X118735269Y-91175582D01*
X118594418Y-91034731D01*
X118433266Y-90917647D01*
X118327295Y-90863652D01*
X118255780Y-90827213D01*
X118066342Y-90765661D01*
X117918782Y-90742290D01*
X117869597Y-90734500D01*
X117670403Y-90734500D01*
X117619521Y-90742559D01*
X117473659Y-90765661D01*
X117473656Y-90765661D01*
X117284219Y-90827213D01*
X117106733Y-90917647D01*
X117029708Y-90973610D01*
X116945582Y-91034731D01*
X116945580Y-91034733D01*
X116945579Y-91034733D01*
X116804733Y-91175579D01*
X116804733Y-91175580D01*
X116804731Y-91175582D01*
X116791003Y-91194477D01*
X116687647Y-91336733D01*
X116610485Y-91488172D01*
X116562510Y-91538968D01*
X116494689Y-91555763D01*
X116428554Y-91533225D01*
X116389515Y-91488172D01*
X116312352Y-91336733D01*
X116280666Y-91293121D01*
X116195269Y-91175582D01*
X116054418Y-91034731D01*
X115893266Y-90917647D01*
X115787295Y-90863652D01*
X115715780Y-90827213D01*
X115526342Y-90765661D01*
X115378782Y-90742290D01*
X115329597Y-90734500D01*
X115130403Y-90734500D01*
X115079521Y-90742559D01*
X114933659Y-90765661D01*
X114933656Y-90765661D01*
X114744219Y-90827213D01*
X114566733Y-90917647D01*
X114489708Y-90973610D01*
X114405582Y-91034731D01*
X114405580Y-91034733D01*
X114405579Y-91034733D01*
X114264733Y-91175579D01*
X114264733Y-91175580D01*
X114264731Y-91175582D01*
X114251003Y-91194477D01*
X114147647Y-91336733D01*
X114070485Y-91488172D01*
X114022510Y-91538968D01*
X113954689Y-91555763D01*
X113888554Y-91533225D01*
X113849515Y-91488172D01*
X113772352Y-91336733D01*
X113740666Y-91293121D01*
X113655269Y-91175582D01*
X113514418Y-91034731D01*
X113353266Y-90917647D01*
X113247295Y-90863652D01*
X113175780Y-90827213D01*
X112986342Y-90765661D01*
X112838782Y-90742290D01*
X112789597Y-90734500D01*
X112590403Y-90734500D01*
X112539521Y-90742559D01*
X112393659Y-90765661D01*
X112393656Y-90765661D01*
X112204219Y-90827213D01*
X112026733Y-90917647D01*
X111949708Y-90973610D01*
X111865582Y-91034731D01*
X111865580Y-91034733D01*
X111865579Y-91034733D01*
X111724733Y-91175579D01*
X111724733Y-91175580D01*
X111724731Y-91175582D01*
X111711003Y-91194477D01*
X111607647Y-91336733D01*
X111530485Y-91488172D01*
X111482510Y-91538968D01*
X111414689Y-91555763D01*
X111348554Y-91533225D01*
X111309515Y-91488172D01*
X111232352Y-91336733D01*
X111200666Y-91293121D01*
X111115269Y-91175582D01*
X110974418Y-91034731D01*
X110813266Y-90917647D01*
X110707295Y-90863652D01*
X110635780Y-90827213D01*
X110446342Y-90765661D01*
X110298782Y-90742290D01*
X110249597Y-90734500D01*
X110050403Y-90734500D01*
X109999521Y-90742559D01*
X109853659Y-90765661D01*
X109853656Y-90765661D01*
X109664219Y-90827213D01*
X109486733Y-90917647D01*
X109409708Y-90973610D01*
X109325582Y-91034731D01*
X109325580Y-91034733D01*
X109325579Y-91034733D01*
X109184733Y-91175579D01*
X109184733Y-91175580D01*
X109184731Y-91175582D01*
X109171003Y-91194477D01*
X109067647Y-91336733D01*
X108990485Y-91488172D01*
X108942510Y-91538968D01*
X108874689Y-91555763D01*
X108808554Y-91533225D01*
X108769515Y-91488172D01*
X108692352Y-91336733D01*
X108660666Y-91293121D01*
X108575269Y-91175582D01*
X108434418Y-91034731D01*
X108273266Y-90917647D01*
X108167295Y-90863652D01*
X108095780Y-90827213D01*
X107906342Y-90765661D01*
X107741034Y-90739479D01*
X107677899Y-90709550D01*
X107640968Y-90650238D01*
X107641966Y-90580376D01*
X107672749Y-90529327D01*
X114365259Y-83836819D01*
X114426582Y-83803334D01*
X114452940Y-83800500D01*
X150828844Y-83800500D01*
X150828845Y-83800499D01*
X150983497Y-83769737D01*
X151129179Y-83709394D01*
X151260289Y-83621789D01*
X154295259Y-80586819D01*
X154356582Y-80553334D01*
X154382940Y-80550500D01*
X167018060Y-80550500D01*
X167039305Y-80556738D01*
X167061394Y-80558318D01*
X167072177Y-80566390D01*
X167085099Y-80570185D01*
X167099598Y-80586918D01*
X167117327Y-80600190D01*
X167122034Y-80612810D01*
X167130854Y-80622989D01*
X167134005Y-80644906D01*
X167141744Y-80665654D01*
X167138881Y-80678814D01*
X167140798Y-80692147D01*
X167131598Y-80712290D01*
X167126892Y-80733927D01*
X167113623Y-80751652D01*
X167111773Y-80755703D01*
X167105741Y-80762181D01*
X166989711Y-80878211D01*
X166933960Y-80933962D01*
X166878209Y-80989712D01*
X166790609Y-81120814D01*
X166790602Y-81120827D01*
X166730264Y-81266498D01*
X166730261Y-81266510D01*
X166699500Y-81421153D01*
X166699500Y-106578846D01*
X166730261Y-106733489D01*
X166730264Y-106733501D01*
X166790602Y-106879172D01*
X166790609Y-106879185D01*
X166878210Y-107010288D01*
X166878213Y-107010292D01*
X167605741Y-107737819D01*
X167639226Y-107799142D01*
X167634242Y-107868833D01*
X167592370Y-107924767D01*
X167526906Y-107949184D01*
X167518060Y-107949500D01*
X166171155Y-107949500D01*
X166016510Y-107980261D01*
X166016498Y-107980264D01*
X165870827Y-108040602D01*
X165870814Y-108040609D01*
X165763646Y-108112218D01*
X165763645Y-108112219D01*
X165739708Y-108128212D01*
X165739707Y-108128213D01*
X163954741Y-109913181D01*
X163893418Y-109946666D01*
X163867060Y-109949500D01*
X150671155Y-109949500D01*
X150549949Y-109973610D01*
X150540091Y-109975571D01*
X150522358Y-109979098D01*
X150516502Y-109980263D01*
X150516498Y-109980264D01*
X150370827Y-110040602D01*
X150370814Y-110040609D01*
X150239712Y-110128209D01*
X150183962Y-110183960D01*
X150128211Y-110239711D01*
X150128209Y-110239713D01*
X148019740Y-112348181D01*
X147958417Y-112381666D01*
X147932059Y-112384500D01*
X147750403Y-112384500D01*
X147684822Y-112394887D01*
X147553659Y-112415661D01*
X147553656Y-112415661D01*
X147364219Y-112477213D01*
X147186733Y-112567647D01*
X147094790Y-112634447D01*
X147025582Y-112684731D01*
X147025580Y-112684733D01*
X147025579Y-112684733D01*
X146884733Y-112825579D01*
X146884733Y-112825580D01*
X146884731Y-112825582D01*
X146834447Y-112894790D01*
X146767647Y-112986733D01*
X146690485Y-113138172D01*
X146642510Y-113188968D01*
X146574689Y-113205763D01*
X146508554Y-113183225D01*
X146469515Y-113138172D01*
X146392352Y-112986733D01*
X146275269Y-112825582D01*
X146134418Y-112684731D01*
X145973266Y-112567647D01*
X145795780Y-112477213D01*
X145606342Y-112415661D01*
X145458782Y-112392290D01*
X145409597Y-112384500D01*
X145210403Y-112384500D01*
X145144822Y-112394887D01*
X145013659Y-112415661D01*
X145013656Y-112415661D01*
X144824219Y-112477213D01*
X144646733Y-112567647D01*
X144554790Y-112634447D01*
X144485582Y-112684731D01*
X144485580Y-112684733D01*
X144485579Y-112684733D01*
X144344733Y-112825579D01*
X144344733Y-112825580D01*
X144344731Y-112825582D01*
X144294447Y-112894790D01*
X144227647Y-112986733D01*
X144150485Y-113138172D01*
X144102510Y-113188968D01*
X144034689Y-113205763D01*
X143968554Y-113183225D01*
X143929515Y-113138172D01*
X143852352Y-112986733D01*
X143735269Y-112825582D01*
X143594418Y-112684731D01*
X143433266Y-112567647D01*
X143255780Y-112477213D01*
X143066342Y-112415661D01*
X142918782Y-112392290D01*
X142869597Y-112384500D01*
X142670403Y-112384500D01*
X142604822Y-112394887D01*
X142473659Y-112415661D01*
X142473656Y-112415661D01*
X142284219Y-112477213D01*
X142106733Y-112567647D01*
X142014790Y-112634447D01*
X141945582Y-112684731D01*
X141945580Y-112684733D01*
X141945579Y-112684733D01*
X141804733Y-112825579D01*
X141804733Y-112825580D01*
X141804731Y-112825582D01*
X141754447Y-112894790D01*
X141687647Y-112986733D01*
X141610485Y-113138172D01*
X141562510Y-113188968D01*
X141494689Y-113205763D01*
X141428554Y-113183225D01*
X141389515Y-113138172D01*
X141312352Y-112986733D01*
X141195269Y-112825582D01*
X141054418Y-112684731D01*
X140893266Y-112567647D01*
X140715780Y-112477213D01*
X140526342Y-112415661D01*
X140378782Y-112392290D01*
X140329597Y-112384500D01*
X140130403Y-112384500D01*
X140064822Y-112394887D01*
X139933659Y-112415661D01*
X139933656Y-112415661D01*
X139744219Y-112477213D01*
X139566733Y-112567647D01*
X139474790Y-112634447D01*
X139405582Y-112684731D01*
X139405580Y-112684733D01*
X139405579Y-112684733D01*
X139264733Y-112825579D01*
X139264733Y-112825580D01*
X139264731Y-112825582D01*
X139214447Y-112894790D01*
X139147647Y-112986733D01*
X139070485Y-113138172D01*
X139022510Y-113188968D01*
X138954689Y-113205763D01*
X138888554Y-113183225D01*
X138849515Y-113138172D01*
X138772352Y-112986733D01*
X138655269Y-112825582D01*
X138514418Y-112684731D01*
X138353266Y-112567647D01*
X138175780Y-112477213D01*
X137986342Y-112415661D01*
X137838782Y-112392290D01*
X137789597Y-112384500D01*
X137590403Y-112384500D01*
X137524822Y-112394887D01*
X137393659Y-112415661D01*
X137393656Y-112415661D01*
X137204219Y-112477213D01*
X137026733Y-112567647D01*
X136934790Y-112634447D01*
X136865582Y-112684731D01*
X136865580Y-112684733D01*
X136865579Y-112684733D01*
X136724733Y-112825579D01*
X136724733Y-112825580D01*
X136724731Y-112825582D01*
X136674447Y-112894790D01*
X136607647Y-112986733D01*
X136517213Y-113164219D01*
X136455661Y-113353656D01*
X136455661Y-113353659D01*
X136424500Y-113550403D01*
X136424500Y-113749596D01*
X136455661Y-113946340D01*
X136455661Y-113946343D01*
X136517213Y-114135780D01*
X136517215Y-114135783D01*
X136607647Y-114313266D01*
X136724731Y-114474418D01*
X136865582Y-114615269D01*
X137026734Y-114732353D01*
X137204217Y-114822785D01*
X137204219Y-114822786D01*
X137393657Y-114884338D01*
X137393658Y-114884338D01*
X137393661Y-114884339D01*
X137590403Y-114915500D01*
X137590404Y-114915500D01*
X137789596Y-114915500D01*
X137789597Y-114915500D01*
X137986339Y-114884339D01*
X137986342Y-114884338D01*
X137986343Y-114884338D01*
X138175780Y-114822786D01*
X138175780Y-114822785D01*
X138175783Y-114822785D01*
X138353266Y-114732353D01*
X138514418Y-114615269D01*
X138655269Y-114474418D01*
X138772353Y-114313266D01*
X138849515Y-114161827D01*
X138897490Y-114111031D01*
X138965311Y-114094236D01*
X139031446Y-114116773D01*
X139070485Y-114161827D01*
X139147647Y-114313266D01*
X139264731Y-114474418D01*
X139405582Y-114615269D01*
X139566734Y-114732353D01*
X139744217Y-114822785D01*
X139744219Y-114822786D01*
X139933657Y-114884338D01*
X139933658Y-114884338D01*
X139933661Y-114884339D01*
X140130403Y-114915500D01*
X140130404Y-114915500D01*
X140329596Y-114915500D01*
X140329597Y-114915500D01*
X140526339Y-114884339D01*
X140526342Y-114884338D01*
X140526343Y-114884338D01*
X140715780Y-114822786D01*
X140715780Y-114822785D01*
X140715783Y-114822785D01*
X140893266Y-114732353D01*
X141054418Y-114615269D01*
X141195269Y-114474418D01*
X141312353Y-114313266D01*
X141389515Y-114161827D01*
X141437490Y-114111031D01*
X141505311Y-114094236D01*
X141571446Y-114116773D01*
X141610485Y-114161827D01*
X141687647Y-114313266D01*
X141804731Y-114474418D01*
X141945582Y-114615269D01*
X142106734Y-114732353D01*
X142284217Y-114822785D01*
X142284219Y-114822786D01*
X142473657Y-114884338D01*
X142473658Y-114884338D01*
X142473661Y-114884339D01*
X142670403Y-114915500D01*
X142670404Y-114915500D01*
X142869596Y-114915500D01*
X142869597Y-114915500D01*
X143066339Y-114884339D01*
X143066342Y-114884338D01*
X143066343Y-114884338D01*
X143255780Y-114822786D01*
X143255780Y-114822785D01*
X143255783Y-114822785D01*
X143433266Y-114732353D01*
X143594418Y-114615269D01*
X143735269Y-114474418D01*
X143835183Y-114336897D01*
X143890512Y-114294234D01*
X143960125Y-114288255D01*
X144021920Y-114320861D01*
X144056278Y-114381700D01*
X144059500Y-114409785D01*
X144059500Y-115808422D01*
X144090290Y-116002826D01*
X144151117Y-116190030D01*
X144240476Y-116365405D01*
X144356172Y-116524646D01*
X145646171Y-117814645D01*
X145646172Y-117814646D01*
X145785354Y-117953828D01*
X145944595Y-118069524D01*
X146119975Y-118158884D01*
X146119979Y-118158886D01*
X146204223Y-118186258D01*
X146246346Y-118199944D01*
X146246347Y-118199945D01*
X146246348Y-118199945D01*
X146307173Y-118219709D01*
X146380076Y-118231255D01*
X146501578Y-118250500D01*
X146501583Y-118250500D01*
X146698416Y-118250500D01*
X158830664Y-118250500D01*
X158897703Y-118270185D01*
X158918345Y-118286819D01*
X161463181Y-120831655D01*
X161496666Y-120892978D01*
X161499500Y-120919336D01*
X161499500Y-123728873D01*
X161479815Y-123795912D01*
X161427011Y-123841667D01*
X161357853Y-123851611D01*
X161294297Y-123822586D01*
X161275182Y-123801758D01*
X161206884Y-123707754D01*
X161206880Y-123707749D01*
X161067246Y-123568115D01*
X160907504Y-123452058D01*
X160907503Y-123452057D01*
X160907501Y-123452056D01*
X160731561Y-123362409D01*
X160731558Y-123362408D01*
X160543763Y-123301389D01*
X160348736Y-123270500D01*
X160348731Y-123270500D01*
X160151269Y-123270500D01*
X160151264Y-123270500D01*
X159956236Y-123301389D01*
X159768441Y-123362408D01*
X159592495Y-123452058D01*
X159432753Y-123568115D01*
X159293115Y-123707753D01*
X159177058Y-123867495D01*
X159110485Y-123998151D01*
X159062510Y-124048947D01*
X158994689Y-124065742D01*
X158928554Y-124043204D01*
X158889515Y-123998151D01*
X158822944Y-123867499D01*
X158775181Y-123801758D01*
X158706884Y-123707753D01*
X158567246Y-123568115D01*
X158407504Y-123452058D01*
X158407503Y-123452057D01*
X158407501Y-123452056D01*
X158231561Y-123362409D01*
X158231558Y-123362408D01*
X158043763Y-123301389D01*
X157848736Y-123270500D01*
X157848731Y-123270500D01*
X157651269Y-123270500D01*
X157651264Y-123270500D01*
X157456236Y-123301389D01*
X157268441Y-123362408D01*
X157092495Y-123452058D01*
X156932753Y-123568115D01*
X156793115Y-123707753D01*
X156677058Y-123867495D01*
X156587408Y-124043441D01*
X156526389Y-124231236D01*
X156495500Y-124426263D01*
X156495500Y-124623736D01*
X156526389Y-124818763D01*
X156580162Y-124984257D01*
X156587409Y-125006561D01*
X156630387Y-125090909D01*
X156677058Y-125182504D01*
X156793115Y-125342246D01*
X156932753Y-125481884D01*
X157053445Y-125569570D01*
X157092499Y-125597944D01*
X157268439Y-125687591D01*
X157393637Y-125728270D01*
X157456236Y-125748610D01*
X157651264Y-125779500D01*
X157651269Y-125779500D01*
X157848736Y-125779500D01*
X158043763Y-125748610D01*
X158231561Y-125687591D01*
X158407501Y-125597944D01*
X158512955Y-125521328D01*
X158567246Y-125481884D01*
X158567248Y-125481881D01*
X158567252Y-125481879D01*
X158706879Y-125342252D01*
X158706881Y-125342248D01*
X158706884Y-125342246D01*
X158822941Y-125182505D01*
X158822942Y-125182504D01*
X158822944Y-125182501D01*
X158889516Y-125051846D01*
X158937490Y-125001052D01*
X159005311Y-124984257D01*
X159071446Y-125006794D01*
X159110482Y-125051845D01*
X159142999Y-125115661D01*
X159177058Y-125182505D01*
X159293115Y-125342246D01*
X159432753Y-125481884D01*
X159553445Y-125569570D01*
X159592499Y-125597944D01*
X159768439Y-125687591D01*
X159893637Y-125728270D01*
X159956236Y-125748610D01*
X160151264Y-125779500D01*
X160151269Y-125779500D01*
X160348736Y-125779500D01*
X160543763Y-125748610D01*
X160731561Y-125687591D01*
X160907501Y-125597944D01*
X161012955Y-125521328D01*
X161067246Y-125481884D01*
X161067248Y-125481881D01*
X161067252Y-125481879D01*
X161206879Y-125342252D01*
X161206881Y-125342248D01*
X161206884Y-125342246D01*
X161322941Y-125182505D01*
X161322942Y-125182504D01*
X161322944Y-125182501D01*
X161389516Y-125051846D01*
X161437490Y-125001052D01*
X161505311Y-124984257D01*
X161571446Y-125006794D01*
X161610482Y-125051845D01*
X161642999Y-125115661D01*
X161677058Y-125182505D01*
X161793115Y-125342246D01*
X161932753Y-125481884D01*
X162053445Y-125569570D01*
X162092499Y-125597944D01*
X162268439Y-125687591D01*
X162393637Y-125728270D01*
X162456236Y-125748610D01*
X162651264Y-125779500D01*
X162651269Y-125779500D01*
X162848736Y-125779500D01*
X163043763Y-125748610D01*
X163231561Y-125687591D01*
X163407501Y-125597944D01*
X163512955Y-125521328D01*
X163567246Y-125481884D01*
X163567248Y-125481881D01*
X163567252Y-125481879D01*
X163706879Y-125342252D01*
X163771182Y-125253744D01*
X163826510Y-125211080D01*
X163896123Y-125205099D01*
X163957919Y-125237704D01*
X163992277Y-125298543D01*
X163995152Y-125323573D01*
X163995324Y-125323564D01*
X163995474Y-125326371D01*
X163995500Y-125326595D01*
X163995500Y-125326852D01*
X163995501Y-125326876D01*
X164001908Y-125386483D01*
X164052202Y-125521328D01*
X164052206Y-125521335D01*
X164138452Y-125636544D01*
X164138455Y-125636547D01*
X164253664Y-125722793D01*
X164253671Y-125722797D01*
X164388517Y-125773091D01*
X164388516Y-125773091D01*
X164395444Y-125773835D01*
X164448127Y-125779500D01*
X166051872Y-125779499D01*
X166111483Y-125773091D01*
X166246331Y-125722796D01*
X166361546Y-125636546D01*
X166447796Y-125521331D01*
X166498091Y-125386483D01*
X166504500Y-125326873D01*
X166504499Y-123723128D01*
X166498091Y-123663517D01*
X166462508Y-123568115D01*
X166447797Y-123528671D01*
X166447795Y-123528668D01*
X166401696Y-123467088D01*
X166361546Y-123413454D01*
X166340432Y-123397648D01*
X171699500Y-123397648D01*
X171699500Y-123602351D01*
X171731522Y-123804534D01*
X171794781Y-123999223D01*
X171887715Y-124181613D01*
X172008028Y-124347213D01*
X172152786Y-124491971D01*
X172307749Y-124604556D01*
X172318390Y-124612287D01*
X172396610Y-124652142D01*
X172500776Y-124705218D01*
X172500778Y-124705218D01*
X172500781Y-124705220D01*
X172605137Y-124739127D01*
X172695465Y-124768477D01*
X172796557Y-124784488D01*
X172897648Y-124800500D01*
X172897649Y-124800500D01*
X173102351Y-124800500D01*
X173102352Y-124800500D01*
X173304534Y-124768477D01*
X173499219Y-124705220D01*
X173681610Y-124612287D01*
X173774590Y-124544732D01*
X173847213Y-124491971D01*
X173847215Y-124491968D01*
X173847219Y-124491966D01*
X173991966Y-124347219D01*
X173991968Y-124347215D01*
X173991971Y-124347213D01*
X174078340Y-124228334D01*
X174112287Y-124181610D01*
X174205220Y-123999219D01*
X174268477Y-123804534D01*
X174300500Y-123602352D01*
X174300500Y-123397648D01*
X174280362Y-123270501D01*
X174268477Y-123195465D01*
X174205218Y-123000776D01*
X174171503Y-122934607D01*
X174112287Y-122818390D01*
X174104556Y-122807749D01*
X173991971Y-122652786D01*
X173847213Y-122508028D01*
X173681613Y-122387715D01*
X173681612Y-122387714D01*
X173681610Y-122387713D01*
X173624653Y-122358691D01*
X173499223Y-122294781D01*
X173304534Y-122231522D01*
X173129995Y-122203878D01*
X173102352Y-122199500D01*
X172897648Y-122199500D01*
X172873329Y-122203351D01*
X172695465Y-122231522D01*
X172500776Y-122294781D01*
X172318386Y-122387715D01*
X172152786Y-122508028D01*
X172152785Y-122508030D01*
X172008032Y-122652782D01*
X172008028Y-122652786D01*
X171887715Y-122818386D01*
X171794781Y-123000776D01*
X171731522Y-123195465D01*
X171699500Y-123397648D01*
X166340432Y-123397648D01*
X166313968Y-123377837D01*
X166246335Y-123327206D01*
X166246328Y-123327202D01*
X166111482Y-123276908D01*
X166111483Y-123276908D01*
X166051883Y-123270501D01*
X166051881Y-123270500D01*
X166051873Y-123270500D01*
X166051864Y-123270500D01*
X164448129Y-123270500D01*
X164448123Y-123270501D01*
X164388516Y-123276908D01*
X164253671Y-123327202D01*
X164253664Y-123327206D01*
X164198811Y-123368270D01*
X164133347Y-123392688D01*
X164065074Y-123377837D01*
X164015668Y-123328432D01*
X164000500Y-123269004D01*
X164000500Y-120251577D01*
X163983704Y-120145541D01*
X163969709Y-120057173D01*
X163949945Y-119996348D01*
X163914357Y-119886819D01*
X163908885Y-119869977D01*
X163878108Y-119809573D01*
X163819524Y-119694595D01*
X163703828Y-119535354D01*
X163564646Y-119396172D01*
X160214646Y-116046172D01*
X160055405Y-115930476D01*
X159880030Y-115841117D01*
X159692826Y-115780290D01*
X159498422Y-115749500D01*
X159498417Y-115749500D01*
X147169336Y-115749500D01*
X147102297Y-115729815D01*
X147081655Y-115713181D01*
X146596819Y-115228345D01*
X146563334Y-115167022D01*
X146560500Y-115140664D01*
X146560500Y-114409785D01*
X146580185Y-114342746D01*
X146632989Y-114296991D01*
X146702147Y-114287047D01*
X146765703Y-114316072D01*
X146784815Y-114336895D01*
X146884731Y-114474418D01*
X147025582Y-114615269D01*
X147186734Y-114732353D01*
X147364217Y-114822785D01*
X147364219Y-114822786D01*
X147553657Y-114884338D01*
X147553658Y-114884338D01*
X147553661Y-114884339D01*
X147750403Y-114915500D01*
X147750404Y-114915500D01*
X147949596Y-114915500D01*
X147949597Y-114915500D01*
X148146339Y-114884339D01*
X148146342Y-114884338D01*
X148146343Y-114884338D01*
X148335780Y-114822786D01*
X148335780Y-114822785D01*
X148335783Y-114822785D01*
X148513266Y-114732353D01*
X148674418Y-114615269D01*
X148815269Y-114474418D01*
X148932353Y-114313266D01*
X149022785Y-114135783D01*
X149030827Y-114111031D01*
X149084338Y-113946343D01*
X149084338Y-113946342D01*
X149084339Y-113946339D01*
X149115500Y-113749597D01*
X149115500Y-113567939D01*
X149135185Y-113500900D01*
X149151819Y-113480258D01*
X151045258Y-111586819D01*
X151106581Y-111553334D01*
X151132939Y-111550500D01*
X164328844Y-111550500D01*
X164328845Y-111550499D01*
X164483497Y-111519737D01*
X164629179Y-111459394D01*
X164760289Y-111371789D01*
X166545259Y-109586819D01*
X166606582Y-109553334D01*
X166632940Y-109550500D01*
X169671158Y-109550500D01*
X169828843Y-109550500D01*
X174475007Y-109550500D01*
X174542046Y-109570185D01*
X174562688Y-109586819D01*
X174682753Y-109706884D01*
X174832234Y-109815486D01*
X174842499Y-109822944D01*
X175018439Y-109912591D01*
X175123312Y-109946666D01*
X175206236Y-109973610D01*
X175401264Y-110004500D01*
X175401269Y-110004500D01*
X175598736Y-110004500D01*
X175793763Y-109973610D01*
X175981561Y-109912591D01*
X176157501Y-109822944D01*
X176247192Y-109757779D01*
X176317246Y-109706884D01*
X176317248Y-109706881D01*
X176317252Y-109706879D01*
X176456879Y-109567252D01*
X176456881Y-109567248D01*
X176456884Y-109567246D01*
X176528591Y-109468548D01*
X176572944Y-109407501D01*
X176662591Y-109231561D01*
X176723610Y-109043763D01*
X176754500Y-108848736D01*
X176754500Y-108651263D01*
X176723610Y-108456236D01*
X176703270Y-108393637D01*
X176662591Y-108268439D01*
X176572944Y-108092499D01*
X176535239Y-108040602D01*
X176456884Y-107932753D01*
X176317246Y-107793115D01*
X176157505Y-107677058D01*
X176145504Y-107670943D01*
X176026846Y-107610483D01*
X175976052Y-107562510D01*
X175959257Y-107494689D01*
X175981794Y-107428554D01*
X176026845Y-107389517D01*
X176157501Y-107322944D01*
X176177912Y-107308114D01*
X176317246Y-107206884D01*
X176317248Y-107206881D01*
X176317252Y-107206879D01*
X176456879Y-107067252D01*
X176456881Y-107067248D01*
X176456884Y-107067246D01*
X176507779Y-106997192D01*
X176572944Y-106907501D01*
X176662591Y-106731561D01*
X176723610Y-106543763D01*
X176743029Y-106421158D01*
X176754500Y-106348736D01*
X176754500Y-106151263D01*
X176723610Y-105956236D01*
X176703270Y-105893637D01*
X176662591Y-105768439D01*
X176572944Y-105592499D01*
X176565486Y-105582234D01*
X176456884Y-105432753D01*
X176317246Y-105293115D01*
X176157505Y-105177058D01*
X176151830Y-105174166D01*
X176026846Y-105110483D01*
X175976052Y-105062510D01*
X175959257Y-104994689D01*
X175981794Y-104928554D01*
X176026845Y-104889517D01*
X176157501Y-104822944D01*
X176177912Y-104808114D01*
X176317246Y-104706884D01*
X176317248Y-104706881D01*
X176317252Y-104706879D01*
X176456879Y-104567252D01*
X176456881Y-104567248D01*
X176456884Y-104567246D01*
X176527915Y-104469478D01*
X176572944Y-104407501D01*
X176662591Y-104231561D01*
X176723610Y-104043763D01*
X176754500Y-103848736D01*
X176754500Y-103651263D01*
X176723610Y-103456236D01*
X176703270Y-103393637D01*
X176662591Y-103268439D01*
X176572944Y-103092499D01*
X176565486Y-103082234D01*
X176456884Y-102932753D01*
X176317246Y-102793115D01*
X176157505Y-102677058D01*
X176151830Y-102674166D01*
X176026846Y-102610483D01*
X175976052Y-102562510D01*
X175959257Y-102494689D01*
X175981794Y-102428554D01*
X176026845Y-102389517D01*
X176157501Y-102322944D01*
X176177912Y-102308114D01*
X176317246Y-102206884D01*
X176317248Y-102206881D01*
X176317252Y-102206879D01*
X176456879Y-102067252D01*
X176456881Y-102067248D01*
X176456884Y-102067246D01*
X176507779Y-101997192D01*
X176572944Y-101907501D01*
X176662591Y-101731561D01*
X176723610Y-101543763D01*
X176754500Y-101348736D01*
X176754500Y-101151263D01*
X176723610Y-100956236D01*
X176703270Y-100893637D01*
X176662591Y-100768439D01*
X176572944Y-100592499D01*
X176565486Y-100582234D01*
X176456884Y-100432753D01*
X176317250Y-100293119D01*
X176317245Y-100293115D01*
X176228746Y-100228817D01*
X176186080Y-100173487D01*
X176180101Y-100103874D01*
X176212706Y-100042079D01*
X176273545Y-100007722D01*
X176298573Y-100004849D01*
X176298564Y-100004676D01*
X176301421Y-100004523D01*
X176301631Y-100004499D01*
X176301871Y-100004499D01*
X176301872Y-100004499D01*
X176361483Y-99998091D01*
X176496331Y-99947796D01*
X176611546Y-99861546D01*
X176697796Y-99746331D01*
X176748091Y-99611483D01*
X176754500Y-99551873D01*
X176754499Y-97948128D01*
X176748091Y-97888517D01*
X176697796Y-97753669D01*
X176697795Y-97753668D01*
X176697793Y-97753664D01*
X176611547Y-97638455D01*
X176611544Y-97638452D01*
X176496335Y-97552206D01*
X176496328Y-97552202D01*
X176361482Y-97501908D01*
X176361483Y-97501908D01*
X176301883Y-97495501D01*
X176301881Y-97495500D01*
X176301873Y-97495500D01*
X176301864Y-97495500D01*
X174698129Y-97495500D01*
X174698123Y-97495501D01*
X174638516Y-97501908D01*
X174503671Y-97552202D01*
X174503664Y-97552206D01*
X174388455Y-97638452D01*
X174388452Y-97638455D01*
X174302206Y-97753664D01*
X174302202Y-97753671D01*
X174251908Y-97888517D01*
X174245501Y-97948116D01*
X174245501Y-97948123D01*
X174245500Y-97948135D01*
X174245500Y-99551870D01*
X174245501Y-99551876D01*
X174251908Y-99611483D01*
X174302202Y-99746328D01*
X174302206Y-99746335D01*
X174388452Y-99861544D01*
X174388455Y-99861547D01*
X174503664Y-99947793D01*
X174503671Y-99947797D01*
X174548618Y-99964561D01*
X174638517Y-99998091D01*
X174698127Y-100004500D01*
X174698336Y-100004499D01*
X174698381Y-100004513D01*
X174701453Y-100004678D01*
X174701414Y-100005402D01*
X174765378Y-100024165D01*
X174811148Y-100076956D01*
X174821111Y-100146112D01*
X174792104Y-100209675D01*
X174771254Y-100228817D01*
X174682749Y-100293119D01*
X174543122Y-100432747D01*
X174543115Y-100432753D01*
X174427058Y-100592495D01*
X174337408Y-100768441D01*
X174276389Y-100956236D01*
X174245500Y-101151263D01*
X174245500Y-101348736D01*
X174276389Y-101543763D01*
X174303560Y-101627385D01*
X174337409Y-101731561D01*
X174427055Y-101907499D01*
X174427058Y-101907504D01*
X174543115Y-102067246D01*
X174682753Y-102206884D01*
X174825079Y-102310288D01*
X174842499Y-102322944D01*
X174973151Y-102389515D01*
X175023947Y-102437490D01*
X175040742Y-102505311D01*
X175018204Y-102571446D01*
X174973151Y-102610484D01*
X174856017Y-102670167D01*
X174842495Y-102677058D01*
X174682753Y-102793115D01*
X174543115Y-102932753D01*
X174427058Y-103092495D01*
X174337408Y-103268441D01*
X174276389Y-103456236D01*
X174245500Y-103651263D01*
X174245500Y-103848736D01*
X174276389Y-104043763D01*
X174337408Y-104231558D01*
X174337409Y-104231561D01*
X174427056Y-104407501D01*
X174427058Y-104407504D01*
X174543115Y-104567246D01*
X174682753Y-104706884D01*
X174832234Y-104815486D01*
X174842499Y-104822944D01*
X174973151Y-104889515D01*
X175023947Y-104937490D01*
X175040742Y-105005311D01*
X175018204Y-105071446D01*
X174973151Y-105110484D01*
X174871231Y-105162416D01*
X174842495Y-105177058D01*
X174682753Y-105293115D01*
X174543115Y-105432753D01*
X174427058Y-105592495D01*
X174337408Y-105768441D01*
X174276389Y-105956236D01*
X174245500Y-106151263D01*
X174245500Y-106348736D01*
X174276389Y-106543763D01*
X174309239Y-106644863D01*
X174337409Y-106731561D01*
X174427056Y-106907501D01*
X174427058Y-106907504D01*
X174543115Y-107067246D01*
X174682753Y-107206884D01*
X174832234Y-107315486D01*
X174842499Y-107322944D01*
X174973151Y-107389515D01*
X175023947Y-107437490D01*
X175040742Y-107505311D01*
X175018204Y-107571446D01*
X174973151Y-107610484D01*
X174856017Y-107670167D01*
X174842495Y-107677058D01*
X174682753Y-107793115D01*
X174682749Y-107793119D01*
X174562688Y-107913181D01*
X174501365Y-107946666D01*
X174475007Y-107949500D01*
X170132940Y-107949500D01*
X170065901Y-107929815D01*
X170045259Y-107913181D01*
X168336819Y-106204741D01*
X168303334Y-106143418D01*
X168300500Y-106117060D01*
X168300500Y-84651263D01*
X174245500Y-84651263D01*
X174245500Y-84848736D01*
X174276389Y-85043763D01*
X174337408Y-85231558D01*
X174337409Y-85231561D01*
X174355217Y-85266510D01*
X174427058Y-85407504D01*
X174543115Y-85567246D01*
X174682753Y-85706884D01*
X174832234Y-85815486D01*
X174842499Y-85822944D01*
X174973151Y-85889515D01*
X175023947Y-85937490D01*
X175040742Y-86005311D01*
X175018204Y-86071446D01*
X174973151Y-86110484D01*
X174935875Y-86129478D01*
X174842495Y-86177058D01*
X174682753Y-86293115D01*
X174543115Y-86432753D01*
X174427058Y-86592495D01*
X174337408Y-86768441D01*
X174276389Y-86956236D01*
X174245500Y-87151263D01*
X174245500Y-87348736D01*
X174276389Y-87543763D01*
X174337408Y-87731558D01*
X174337409Y-87731561D01*
X174427056Y-87907501D01*
X174427058Y-87907504D01*
X174543115Y-88067246D01*
X174682753Y-88206884D01*
X174832234Y-88315486D01*
X174842499Y-88322944D01*
X174973151Y-88389515D01*
X175023947Y-88437490D01*
X175040742Y-88505311D01*
X175018204Y-88571446D01*
X174973151Y-88610484D01*
X174856017Y-88670167D01*
X174842495Y-88677058D01*
X174682753Y-88793115D01*
X174543115Y-88932753D01*
X174427058Y-89092495D01*
X174337408Y-89268441D01*
X174276389Y-89456236D01*
X174245500Y-89651263D01*
X174245500Y-89848736D01*
X174276389Y-90043763D01*
X174337408Y-90231558D01*
X174337409Y-90231561D01*
X174427056Y-90407501D01*
X174427058Y-90407504D01*
X174543115Y-90567246D01*
X174682753Y-90706884D01*
X174798812Y-90791204D01*
X174842499Y-90822944D01*
X174973151Y-90889515D01*
X175023947Y-90937490D01*
X175040742Y-91005311D01*
X175018204Y-91071446D01*
X174973151Y-91110484D01*
X174956767Y-91118833D01*
X174842495Y-91177058D01*
X174682753Y-91293115D01*
X174543115Y-91432753D01*
X174427058Y-91592495D01*
X174337408Y-91768441D01*
X174276389Y-91956236D01*
X174245500Y-92151263D01*
X174245500Y-92348736D01*
X174276389Y-92543763D01*
X174337408Y-92731558D01*
X174337409Y-92731561D01*
X174413638Y-92881167D01*
X174427058Y-92907504D01*
X174543115Y-93067246D01*
X174682753Y-93206884D01*
X174832234Y-93315486D01*
X174842499Y-93322944D01*
X175018439Y-93412591D01*
X175143637Y-93453270D01*
X175206236Y-93473610D01*
X175401264Y-93504500D01*
X175401269Y-93504500D01*
X175598736Y-93504500D01*
X175793763Y-93473610D01*
X175981561Y-93412591D01*
X176157501Y-93322944D01*
X176247192Y-93257779D01*
X176317246Y-93206884D01*
X176317248Y-93206881D01*
X176317252Y-93206879D01*
X176456879Y-93067252D01*
X176456881Y-93067248D01*
X176456884Y-93067246D01*
X176530973Y-92965269D01*
X176572944Y-92907501D01*
X176662591Y-92731561D01*
X176723610Y-92543763D01*
X176735804Y-92466773D01*
X176754500Y-92348736D01*
X176754500Y-92151263D01*
X176723610Y-91956236D01*
X176703270Y-91893637D01*
X176662591Y-91768439D01*
X176572944Y-91592499D01*
X176534052Y-91538968D01*
X176456884Y-91432753D01*
X176317246Y-91293115D01*
X176157505Y-91177058D01*
X176130272Y-91163182D01*
X176026846Y-91110483D01*
X175976052Y-91062510D01*
X175959257Y-90994689D01*
X175981794Y-90928554D01*
X176026845Y-90889517D01*
X176157501Y-90822944D01*
X176201188Y-90791204D01*
X176317246Y-90706884D01*
X176317248Y-90706881D01*
X176317252Y-90706879D01*
X176456879Y-90567252D01*
X176456881Y-90567248D01*
X176456884Y-90567246D01*
X176507779Y-90497192D01*
X176572944Y-90407501D01*
X176662591Y-90231561D01*
X176723610Y-90043763D01*
X176754500Y-89848736D01*
X176754500Y-89651263D01*
X176723610Y-89456236D01*
X176703270Y-89393637D01*
X176662591Y-89268439D01*
X176572944Y-89092499D01*
X176565486Y-89082234D01*
X176456884Y-88932753D01*
X176317246Y-88793115D01*
X176157505Y-88677058D01*
X176151830Y-88674166D01*
X176026846Y-88610483D01*
X175976052Y-88562510D01*
X175959257Y-88494689D01*
X175981794Y-88428554D01*
X176026845Y-88389517D01*
X176157501Y-88322944D01*
X176177912Y-88308114D01*
X176317246Y-88206884D01*
X176317248Y-88206881D01*
X176317252Y-88206879D01*
X176456879Y-88067252D01*
X176456881Y-88067248D01*
X176456884Y-88067246D01*
X176507779Y-87997192D01*
X176572944Y-87907501D01*
X176662591Y-87731561D01*
X176723610Y-87543763D01*
X176743029Y-87421158D01*
X176754500Y-87348736D01*
X176754500Y-87151263D01*
X176723610Y-86956236D01*
X176703270Y-86893637D01*
X176662591Y-86768439D01*
X176572944Y-86592499D01*
X176528223Y-86530945D01*
X176456884Y-86432753D01*
X176317246Y-86293115D01*
X176157505Y-86177058D01*
X176150351Y-86173413D01*
X176026846Y-86110483D01*
X175976052Y-86062510D01*
X175959257Y-85994689D01*
X175981794Y-85928554D01*
X176026845Y-85889517D01*
X176157501Y-85822944D01*
X176280610Y-85733501D01*
X176317246Y-85706884D01*
X176317248Y-85706881D01*
X176317252Y-85706879D01*
X176456879Y-85567252D01*
X176456881Y-85567248D01*
X176456884Y-85567246D01*
X176507779Y-85497192D01*
X176572944Y-85407501D01*
X176662591Y-85231561D01*
X176723610Y-85043763D01*
X176735394Y-84969361D01*
X176754500Y-84848736D01*
X176754500Y-84651263D01*
X176723610Y-84456236D01*
X176703270Y-84393637D01*
X176662591Y-84268439D01*
X176572944Y-84092499D01*
X176565486Y-84082234D01*
X176456884Y-83932753D01*
X176317246Y-83793115D01*
X176157504Y-83677058D01*
X176157503Y-83677057D01*
X176157501Y-83677056D01*
X175981561Y-83587409D01*
X175981558Y-83587408D01*
X175793763Y-83526389D01*
X175598736Y-83495500D01*
X175598731Y-83495500D01*
X175401269Y-83495500D01*
X175401264Y-83495500D01*
X175206236Y-83526389D01*
X175018441Y-83587408D01*
X174842495Y-83677058D01*
X174682753Y-83793115D01*
X174543115Y-83932753D01*
X174427058Y-84092495D01*
X174337408Y-84268441D01*
X174276389Y-84456236D01*
X174245500Y-84651263D01*
X168300500Y-84651263D01*
X168300500Y-81882940D01*
X168320185Y-81815901D01*
X168336819Y-81795259D01*
X169545259Y-80586819D01*
X169606582Y-80553334D01*
X169632940Y-80550500D01*
X174143068Y-80550500D01*
X174210107Y-80570185D01*
X174255862Y-80622989D01*
X174259250Y-80631167D01*
X174302202Y-80746328D01*
X174302206Y-80746335D01*
X174388452Y-80861544D01*
X174388455Y-80861547D01*
X174503664Y-80947793D01*
X174503671Y-80947797D01*
X174638517Y-80998091D01*
X174638516Y-80998091D01*
X174645444Y-80998835D01*
X174698127Y-81004500D01*
X176301872Y-81004499D01*
X176361483Y-80998091D01*
X176496331Y-80947796D01*
X176611546Y-80861546D01*
X176697796Y-80746331D01*
X176748091Y-80611483D01*
X176754500Y-80551873D01*
X176754499Y-78948128D01*
X176748091Y-78888517D01*
X176740749Y-78868833D01*
X176697797Y-78753671D01*
X176697793Y-78753664D01*
X176611547Y-78638455D01*
X176611544Y-78638452D01*
X176496335Y-78552206D01*
X176496328Y-78552202D01*
X176361482Y-78501908D01*
X176361483Y-78501908D01*
X176301883Y-78495501D01*
X176301881Y-78495500D01*
X176301873Y-78495500D01*
X176301864Y-78495500D01*
X174698129Y-78495500D01*
X174698123Y-78495501D01*
X174638516Y-78501908D01*
X174503671Y-78552202D01*
X174503664Y-78552206D01*
X174388455Y-78638452D01*
X174388452Y-78638455D01*
X174302206Y-78753664D01*
X174302202Y-78753671D01*
X174259250Y-78868833D01*
X174217379Y-78924767D01*
X174151914Y-78949184D01*
X174143068Y-78949500D01*
X153921155Y-78949500D01*
X153766510Y-78980261D01*
X153766498Y-78980264D01*
X153620827Y-79040602D01*
X153620814Y-79040609D01*
X153489711Y-79128210D01*
X153489707Y-79128213D01*
X150454741Y-82163181D01*
X150393418Y-82196666D01*
X150367060Y-82199500D01*
X113991155Y-82199500D01*
X113836510Y-82230261D01*
X113836498Y-82230264D01*
X113690827Y-82290602D01*
X113690814Y-82290609D01*
X113559711Y-82378210D01*
X113559707Y-82378213D01*
X105239740Y-90698181D01*
X105178417Y-90731666D01*
X105152059Y-90734500D01*
X104970403Y-90734500D01*
X104919521Y-90742559D01*
X104773659Y-90765661D01*
X104773656Y-90765661D01*
X104584219Y-90827213D01*
X104406733Y-90917647D01*
X104245583Y-91034730D01*
X104117131Y-91163182D01*
X104090197Y-91177888D01*
X104064385Y-91194477D01*
X104058184Y-91195368D01*
X104055808Y-91196666D01*
X104029450Y-91199500D01*
X103902034Y-91199500D01*
X103834995Y-91179815D01*
X103789240Y-91127011D01*
X103785852Y-91118833D01*
X103738797Y-90992671D01*
X103738793Y-90992664D01*
X103652547Y-90877455D01*
X103652544Y-90877452D01*
X103537335Y-90791206D01*
X103537328Y-90791202D01*
X103402482Y-90740908D01*
X103402483Y-90740908D01*
X103342883Y-90734501D01*
X103342881Y-90734500D01*
X103342873Y-90734500D01*
X103342864Y-90734500D01*
X101717129Y-90734500D01*
X101717123Y-90734501D01*
X101657516Y-90740908D01*
X101522671Y-90791202D01*
X101522664Y-90791206D01*
X101407455Y-90877452D01*
X101407452Y-90877455D01*
X101321206Y-90992664D01*
X101321202Y-90992671D01*
X101270908Y-91127517D01*
X101264501Y-91187116D01*
X101264500Y-91187135D01*
X87500500Y-91187135D01*
X87500500Y-72002561D01*
X87500606Y-71997436D01*
X87504733Y-71897648D01*
X91699500Y-71897648D01*
X91699500Y-72102351D01*
X91731522Y-72304534D01*
X91794781Y-72499223D01*
X91887715Y-72681613D01*
X92008028Y-72847213D01*
X92152786Y-72991971D01*
X92307749Y-73104556D01*
X92318390Y-73112287D01*
X92434607Y-73171503D01*
X92500776Y-73205218D01*
X92500778Y-73205218D01*
X92500781Y-73205220D01*
X92605137Y-73239127D01*
X92695465Y-73268477D01*
X92796557Y-73284488D01*
X92897648Y-73300500D01*
X92897649Y-73300500D01*
X93102351Y-73300500D01*
X93102352Y-73300500D01*
X93304534Y-73268477D01*
X93499219Y-73205220D01*
X93681610Y-73112287D01*
X93774590Y-73044732D01*
X93847213Y-72991971D01*
X93847215Y-72991968D01*
X93847219Y-72991966D01*
X93991966Y-72847219D01*
X93991968Y-72847215D01*
X93991971Y-72847213D01*
X94044732Y-72774590D01*
X94112287Y-72681610D01*
X94205220Y-72499219D01*
X94268477Y-72304534D01*
X94300500Y-72102352D01*
X94300500Y-71897648D01*
X171699500Y-71897648D01*
X171699500Y-72102351D01*
X171731522Y-72304534D01*
X171794781Y-72499223D01*
X171887715Y-72681613D01*
X172008028Y-72847213D01*
X172152786Y-72991971D01*
X172307749Y-73104556D01*
X172318390Y-73112287D01*
X172434607Y-73171503D01*
X172500776Y-73205218D01*
X172500778Y-73205218D01*
X172500781Y-73205220D01*
X172605137Y-73239127D01*
X172695465Y-73268477D01*
X172796557Y-73284488D01*
X172897648Y-73300500D01*
X172897649Y-73300500D01*
X173102351Y-73300500D01*
X173102352Y-73300500D01*
X173304534Y-73268477D01*
X173499219Y-73205220D01*
X173681610Y-73112287D01*
X173774590Y-73044732D01*
X173847213Y-72991971D01*
X173847215Y-72991968D01*
X173847219Y-72991966D01*
X173991966Y-72847219D01*
X173991968Y-72847215D01*
X173991971Y-72847213D01*
X174044732Y-72774590D01*
X174112287Y-72681610D01*
X174205220Y-72499219D01*
X174268477Y-72304534D01*
X174300500Y-72102352D01*
X174300500Y-71897648D01*
X174298916Y-71887650D01*
X174268477Y-71695465D01*
X174239127Y-71605137D01*
X174205220Y-71500781D01*
X174205218Y-71500778D01*
X174205218Y-71500776D01*
X174171503Y-71434607D01*
X174112287Y-71318390D01*
X174104556Y-71307749D01*
X173991971Y-71152786D01*
X173847213Y-71008028D01*
X173681613Y-70887715D01*
X173681612Y-70887714D01*
X173681610Y-70887713D01*
X173624653Y-70858691D01*
X173499223Y-70794781D01*
X173304534Y-70731522D01*
X173129995Y-70703878D01*
X173102352Y-70699500D01*
X172897648Y-70699500D01*
X172873329Y-70703351D01*
X172695465Y-70731522D01*
X172500776Y-70794781D01*
X172318386Y-70887715D01*
X172152786Y-71008028D01*
X172008028Y-71152786D01*
X171887715Y-71318386D01*
X171794781Y-71500776D01*
X171731522Y-71695465D01*
X171699500Y-71897648D01*
X94300500Y-71897648D01*
X94298916Y-71887650D01*
X94268477Y-71695465D01*
X94239127Y-71605137D01*
X94205220Y-71500781D01*
X94205218Y-71500778D01*
X94205218Y-71500776D01*
X94171503Y-71434607D01*
X94112287Y-71318390D01*
X94104556Y-71307749D01*
X93991971Y-71152786D01*
X93847213Y-71008028D01*
X93681613Y-70887715D01*
X93681612Y-70887714D01*
X93681610Y-70887713D01*
X93624653Y-70858691D01*
X93499223Y-70794781D01*
X93304534Y-70731522D01*
X93129995Y-70703878D01*
X93102352Y-70699500D01*
X92897648Y-70699500D01*
X92873329Y-70703351D01*
X92695465Y-70731522D01*
X92500776Y-70794781D01*
X92318386Y-70887715D01*
X92152786Y-71008028D01*
X92008028Y-71152786D01*
X91887715Y-71318386D01*
X91794781Y-71500776D01*
X91731522Y-71695465D01*
X91699500Y-71897648D01*
X87504733Y-71897648D01*
X87505147Y-71887651D01*
X87505147Y-71887650D01*
X87510560Y-71756768D01*
X87519072Y-71550961D01*
X87519915Y-71540792D01*
X87574874Y-71099881D01*
X87576554Y-71089809D01*
X87667734Y-70654951D01*
X87670241Y-70645055D01*
X87797022Y-70219205D01*
X87800336Y-70209553D01*
X87961840Y-69795654D01*
X87965954Y-69786275D01*
X88161088Y-69387120D01*
X88165949Y-69378136D01*
X88367196Y-69040403D01*
X103804500Y-69040403D01*
X103804500Y-69239596D01*
X103835661Y-69436340D01*
X103835661Y-69436343D01*
X103897213Y-69625780D01*
X103897215Y-69625783D01*
X103987647Y-69803266D01*
X104104731Y-69964418D01*
X104245582Y-70105269D01*
X104406734Y-70222353D01*
X104584217Y-70312785D01*
X104584219Y-70312786D01*
X104773657Y-70374338D01*
X104773658Y-70374338D01*
X104773661Y-70374339D01*
X104970403Y-70405500D01*
X104970404Y-70405500D01*
X105169596Y-70405500D01*
X105169597Y-70405500D01*
X105366339Y-70374339D01*
X105366342Y-70374338D01*
X105366343Y-70374338D01*
X105555780Y-70312786D01*
X105555780Y-70312785D01*
X105555783Y-70312785D01*
X105733266Y-70222353D01*
X105894418Y-70105269D01*
X106035269Y-69964418D01*
X106152353Y-69803266D01*
X106229515Y-69651827D01*
X106277490Y-69601031D01*
X106345311Y-69584236D01*
X106411446Y-69606773D01*
X106450485Y-69651827D01*
X106527647Y-69803266D01*
X106644731Y-69964418D01*
X106785582Y-70105269D01*
X106946734Y-70222353D01*
X107124217Y-70312785D01*
X107124219Y-70312786D01*
X107313657Y-70374338D01*
X107313658Y-70374338D01*
X107313661Y-70374339D01*
X107510403Y-70405500D01*
X107510404Y-70405500D01*
X107709596Y-70405500D01*
X107709597Y-70405500D01*
X107906339Y-70374339D01*
X107906342Y-70374338D01*
X107906343Y-70374338D01*
X108095780Y-70312786D01*
X108095780Y-70312785D01*
X108095783Y-70312785D01*
X108273266Y-70222353D01*
X108434418Y-70105269D01*
X108575269Y-69964418D01*
X108692353Y-69803266D01*
X108769515Y-69651827D01*
X108817490Y-69601031D01*
X108885311Y-69584236D01*
X108951446Y-69606773D01*
X108990485Y-69651827D01*
X109067647Y-69803266D01*
X109184731Y-69964418D01*
X109325582Y-70105269D01*
X109486734Y-70222353D01*
X109664217Y-70312785D01*
X109664219Y-70312786D01*
X109853657Y-70374338D01*
X109853658Y-70374338D01*
X109853661Y-70374339D01*
X110050403Y-70405500D01*
X110050404Y-70405500D01*
X110249596Y-70405500D01*
X110249597Y-70405500D01*
X110446339Y-70374339D01*
X110446342Y-70374338D01*
X110446343Y-70374338D01*
X110635780Y-70312786D01*
X110635780Y-70312785D01*
X110635783Y-70312785D01*
X110813266Y-70222353D01*
X110974418Y-70105269D01*
X111115269Y-69964418D01*
X111232353Y-69803266D01*
X111309515Y-69651827D01*
X111357490Y-69601031D01*
X111425311Y-69584236D01*
X111491446Y-69606773D01*
X111530485Y-69651827D01*
X111607647Y-69803266D01*
X111724731Y-69964418D01*
X111865582Y-70105269D01*
X112026734Y-70222353D01*
X112204217Y-70312785D01*
X112204219Y-70312786D01*
X112393657Y-70374338D01*
X112393658Y-70374338D01*
X112393661Y-70374339D01*
X112590403Y-70405500D01*
X112590404Y-70405500D01*
X112789596Y-70405500D01*
X112789597Y-70405500D01*
X112986339Y-70374339D01*
X112986342Y-70374338D01*
X112986343Y-70374338D01*
X113175780Y-70312786D01*
X113175780Y-70312785D01*
X113175783Y-70312785D01*
X113353266Y-70222353D01*
X113514418Y-70105269D01*
X113655269Y-69964418D01*
X113772353Y-69803266D01*
X113849515Y-69651827D01*
X113897490Y-69601031D01*
X113965311Y-69584236D01*
X114031446Y-69606773D01*
X114070485Y-69651827D01*
X114147647Y-69803266D01*
X114264731Y-69964418D01*
X114405582Y-70105269D01*
X114566734Y-70222353D01*
X114744217Y-70312785D01*
X114744219Y-70312786D01*
X114933657Y-70374338D01*
X114933658Y-70374338D01*
X114933661Y-70374339D01*
X115130403Y-70405500D01*
X115130404Y-70405500D01*
X115329596Y-70405500D01*
X115329597Y-70405500D01*
X115526339Y-70374339D01*
X115526342Y-70374338D01*
X115526343Y-70374338D01*
X115715780Y-70312786D01*
X115715780Y-70312785D01*
X115715783Y-70312785D01*
X115893266Y-70222353D01*
X116054418Y-70105269D01*
X116195269Y-69964418D01*
X116312353Y-69803266D01*
X116389515Y-69651827D01*
X116437490Y-69601031D01*
X116505311Y-69584236D01*
X116571446Y-69606773D01*
X116610485Y-69651827D01*
X116687647Y-69803266D01*
X116804731Y-69964418D01*
X116945582Y-70105269D01*
X117106734Y-70222353D01*
X117284217Y-70312785D01*
X117284219Y-70312786D01*
X117473657Y-70374338D01*
X117473658Y-70374338D01*
X117473661Y-70374339D01*
X117670403Y-70405500D01*
X117670404Y-70405500D01*
X117869596Y-70405500D01*
X117869597Y-70405500D01*
X118066339Y-70374339D01*
X118066342Y-70374338D01*
X118066343Y-70374338D01*
X118255780Y-70312786D01*
X118255780Y-70312785D01*
X118255783Y-70312785D01*
X118433266Y-70222353D01*
X118594418Y-70105269D01*
X118735269Y-69964418D01*
X118852353Y-69803266D01*
X118929515Y-69651827D01*
X118977490Y-69601031D01*
X119045311Y-69584236D01*
X119111446Y-69606773D01*
X119150485Y-69651827D01*
X119227647Y-69803266D01*
X119344731Y-69964418D01*
X119485582Y-70105269D01*
X119646734Y-70222353D01*
X119824217Y-70312785D01*
X119824219Y-70312786D01*
X120013657Y-70374338D01*
X120013658Y-70374338D01*
X120013661Y-70374339D01*
X120210403Y-70405500D01*
X120210404Y-70405500D01*
X120409596Y-70405500D01*
X120409597Y-70405500D01*
X120606339Y-70374339D01*
X120606342Y-70374338D01*
X120606343Y-70374338D01*
X120795780Y-70312786D01*
X120795780Y-70312785D01*
X120795783Y-70312785D01*
X120973266Y-70222353D01*
X121134418Y-70105269D01*
X121275269Y-69964418D01*
X121392353Y-69803266D01*
X121469515Y-69651827D01*
X121517490Y-69601031D01*
X121585311Y-69584236D01*
X121651446Y-69606773D01*
X121690485Y-69651827D01*
X121767647Y-69803266D01*
X121884731Y-69964418D01*
X122025582Y-70105269D01*
X122186734Y-70222353D01*
X122364217Y-70312785D01*
X122364219Y-70312786D01*
X122553657Y-70374338D01*
X122553658Y-70374338D01*
X122553661Y-70374339D01*
X122750403Y-70405500D01*
X122750404Y-70405500D01*
X122949596Y-70405500D01*
X122949597Y-70405500D01*
X123146339Y-70374339D01*
X123146342Y-70374338D01*
X123146343Y-70374338D01*
X123335780Y-70312786D01*
X123335780Y-70312785D01*
X123335783Y-70312785D01*
X123513266Y-70222353D01*
X123674418Y-70105269D01*
X123815269Y-69964418D01*
X123932353Y-69803266D01*
X124009515Y-69651827D01*
X124057490Y-69601031D01*
X124125311Y-69584236D01*
X124191446Y-69606773D01*
X124230485Y-69651827D01*
X124307647Y-69803266D01*
X124424731Y-69964418D01*
X124565582Y-70105269D01*
X124726734Y-70222353D01*
X124904217Y-70312785D01*
X124904219Y-70312786D01*
X125093657Y-70374338D01*
X125093658Y-70374338D01*
X125093661Y-70374339D01*
X125290403Y-70405500D01*
X125290404Y-70405500D01*
X125489596Y-70405500D01*
X125489597Y-70405500D01*
X125686339Y-70374339D01*
X125686342Y-70374338D01*
X125686343Y-70374338D01*
X125875780Y-70312786D01*
X125875780Y-70312785D01*
X125875783Y-70312785D01*
X126053266Y-70222353D01*
X126214418Y-70105269D01*
X126355269Y-69964418D01*
X126472353Y-69803266D01*
X126549515Y-69651827D01*
X126597490Y-69601031D01*
X126665311Y-69584236D01*
X126731446Y-69606773D01*
X126770485Y-69651827D01*
X126847647Y-69803266D01*
X126964731Y-69964418D01*
X127105582Y-70105269D01*
X127266734Y-70222353D01*
X127444217Y-70312785D01*
X127444219Y-70312786D01*
X127633657Y-70374338D01*
X127633658Y-70374338D01*
X127633661Y-70374339D01*
X127830403Y-70405500D01*
X127830404Y-70405500D01*
X128029596Y-70405500D01*
X128029597Y-70405500D01*
X128226339Y-70374339D01*
X128226342Y-70374338D01*
X128226343Y-70374338D01*
X128415780Y-70312786D01*
X128415780Y-70312785D01*
X128415783Y-70312785D01*
X128593266Y-70222353D01*
X128754418Y-70105269D01*
X128895269Y-69964418D01*
X129012353Y-69803266D01*
X129089515Y-69651827D01*
X129137490Y-69601031D01*
X129205311Y-69584236D01*
X129271446Y-69606773D01*
X129310485Y-69651827D01*
X129387647Y-69803266D01*
X129504731Y-69964418D01*
X129645582Y-70105269D01*
X129806734Y-70222353D01*
X129984217Y-70312785D01*
X129984219Y-70312786D01*
X130173657Y-70374338D01*
X130173658Y-70374338D01*
X130173661Y-70374339D01*
X130370403Y-70405500D01*
X130370404Y-70405500D01*
X130569596Y-70405500D01*
X130569597Y-70405500D01*
X130766339Y-70374339D01*
X130766342Y-70374338D01*
X130766343Y-70374338D01*
X130955780Y-70312786D01*
X130955780Y-70312785D01*
X130955783Y-70312785D01*
X131133266Y-70222353D01*
X131294418Y-70105269D01*
X131435269Y-69964418D01*
X131552353Y-69803266D01*
X131629515Y-69651827D01*
X131677490Y-69601031D01*
X131745311Y-69584236D01*
X131811446Y-69606773D01*
X131850485Y-69651827D01*
X131927647Y-69803266D01*
X132044731Y-69964418D01*
X132185582Y-70105269D01*
X132346734Y-70222353D01*
X132524217Y-70312785D01*
X132524219Y-70312786D01*
X132713657Y-70374338D01*
X132713658Y-70374338D01*
X132713661Y-70374339D01*
X132910403Y-70405500D01*
X132910404Y-70405500D01*
X133109596Y-70405500D01*
X133109597Y-70405500D01*
X133306339Y-70374339D01*
X133306342Y-70374338D01*
X133306343Y-70374338D01*
X133495780Y-70312786D01*
X133495780Y-70312785D01*
X133495783Y-70312785D01*
X133673266Y-70222353D01*
X133834418Y-70105269D01*
X133975269Y-69964418D01*
X134092353Y-69803266D01*
X134169515Y-69651827D01*
X134217490Y-69601031D01*
X134285311Y-69584236D01*
X134351446Y-69606773D01*
X134390485Y-69651827D01*
X134467647Y-69803266D01*
X134584731Y-69964418D01*
X134725582Y-70105269D01*
X134886734Y-70222353D01*
X135064217Y-70312785D01*
X135064219Y-70312786D01*
X135253657Y-70374338D01*
X135253658Y-70374338D01*
X135253661Y-70374339D01*
X135450403Y-70405500D01*
X135450404Y-70405500D01*
X135649596Y-70405500D01*
X135649597Y-70405500D01*
X135846339Y-70374339D01*
X135846342Y-70374338D01*
X135846343Y-70374338D01*
X136035780Y-70312786D01*
X136035780Y-70312785D01*
X136035783Y-70312785D01*
X136213266Y-70222353D01*
X136374418Y-70105269D01*
X136515269Y-69964418D01*
X136632353Y-69803266D01*
X136709515Y-69651827D01*
X136757490Y-69601031D01*
X136825311Y-69584236D01*
X136891446Y-69606773D01*
X136930485Y-69651827D01*
X137007647Y-69803266D01*
X137124731Y-69964418D01*
X137265582Y-70105269D01*
X137426734Y-70222353D01*
X137604217Y-70312785D01*
X137604219Y-70312786D01*
X137793657Y-70374338D01*
X137793658Y-70374338D01*
X137793661Y-70374339D01*
X137990403Y-70405500D01*
X137990404Y-70405500D01*
X138189596Y-70405500D01*
X138189597Y-70405500D01*
X138386339Y-70374339D01*
X138386342Y-70374338D01*
X138386343Y-70374338D01*
X138575780Y-70312786D01*
X138575780Y-70312785D01*
X138575783Y-70312785D01*
X138753266Y-70222353D01*
X138914418Y-70105269D01*
X139055269Y-69964418D01*
X139172353Y-69803266D01*
X139249515Y-69651827D01*
X139297490Y-69601031D01*
X139365311Y-69584236D01*
X139431446Y-69606773D01*
X139470485Y-69651827D01*
X139547647Y-69803266D01*
X139664731Y-69964418D01*
X139805582Y-70105269D01*
X139966734Y-70222353D01*
X140144217Y-70312785D01*
X140144219Y-70312786D01*
X140333657Y-70374338D01*
X140333658Y-70374338D01*
X140333661Y-70374339D01*
X140530403Y-70405500D01*
X140530404Y-70405500D01*
X140729596Y-70405500D01*
X140729597Y-70405500D01*
X140926339Y-70374339D01*
X140926342Y-70374338D01*
X140926343Y-70374338D01*
X141115780Y-70312786D01*
X141115780Y-70312785D01*
X141115783Y-70312785D01*
X141293266Y-70222353D01*
X141454418Y-70105269D01*
X141595269Y-69964418D01*
X141712353Y-69803266D01*
X141789515Y-69651827D01*
X141837490Y-69601031D01*
X141905311Y-69584236D01*
X141971446Y-69606773D01*
X142010485Y-69651827D01*
X142087647Y-69803266D01*
X142204731Y-69964418D01*
X142345582Y-70105269D01*
X142506734Y-70222353D01*
X142684217Y-70312785D01*
X142684219Y-70312786D01*
X142873657Y-70374338D01*
X142873658Y-70374338D01*
X142873661Y-70374339D01*
X143070403Y-70405500D01*
X143070404Y-70405500D01*
X143269596Y-70405500D01*
X143269597Y-70405500D01*
X143466339Y-70374339D01*
X143466342Y-70374338D01*
X143466343Y-70374338D01*
X143655780Y-70312786D01*
X143655780Y-70312785D01*
X143655783Y-70312785D01*
X143833266Y-70222353D01*
X143994418Y-70105269D01*
X144135269Y-69964418D01*
X144252353Y-69803266D01*
X144329515Y-69651827D01*
X144377490Y-69601031D01*
X144445311Y-69584236D01*
X144511446Y-69606773D01*
X144550485Y-69651827D01*
X144627647Y-69803266D01*
X144744731Y-69964418D01*
X144885582Y-70105269D01*
X145046734Y-70222353D01*
X145224217Y-70312785D01*
X145224219Y-70312786D01*
X145413657Y-70374338D01*
X145413658Y-70374338D01*
X145413661Y-70374339D01*
X145610403Y-70405500D01*
X145610404Y-70405500D01*
X145809596Y-70405500D01*
X145809597Y-70405500D01*
X146006339Y-70374339D01*
X146006342Y-70374338D01*
X146006343Y-70374338D01*
X146195780Y-70312786D01*
X146195780Y-70312785D01*
X146195783Y-70312785D01*
X146373266Y-70222353D01*
X146534418Y-70105269D01*
X146675269Y-69964418D01*
X146792353Y-69803266D01*
X146869515Y-69651827D01*
X146917490Y-69601031D01*
X146985311Y-69584236D01*
X147051446Y-69606773D01*
X147090485Y-69651827D01*
X147167647Y-69803266D01*
X147284731Y-69964418D01*
X147425582Y-70105269D01*
X147586734Y-70222353D01*
X147764217Y-70312785D01*
X147764219Y-70312786D01*
X147953657Y-70374338D01*
X147953658Y-70374338D01*
X147953661Y-70374339D01*
X148150403Y-70405500D01*
X148150404Y-70405500D01*
X148349596Y-70405500D01*
X148349597Y-70405500D01*
X148546339Y-70374339D01*
X148546342Y-70374338D01*
X148546343Y-70374338D01*
X148735780Y-70312786D01*
X148735780Y-70312785D01*
X148735783Y-70312785D01*
X148913266Y-70222353D01*
X149074418Y-70105269D01*
X149215269Y-69964418D01*
X149332353Y-69803266D01*
X149409515Y-69651827D01*
X149457490Y-69601031D01*
X149525311Y-69584236D01*
X149591446Y-69606773D01*
X149630485Y-69651827D01*
X149707647Y-69803266D01*
X149824731Y-69964418D01*
X149965582Y-70105269D01*
X150126734Y-70222353D01*
X150304217Y-70312785D01*
X150304219Y-70312786D01*
X150493657Y-70374338D01*
X150493658Y-70374338D01*
X150493661Y-70374339D01*
X150690403Y-70405500D01*
X150690404Y-70405500D01*
X150889596Y-70405500D01*
X150889597Y-70405500D01*
X151086339Y-70374339D01*
X151086342Y-70374338D01*
X151086343Y-70374338D01*
X151275780Y-70312786D01*
X151275780Y-70312785D01*
X151275783Y-70312785D01*
X151453266Y-70222353D01*
X151614418Y-70105269D01*
X151755269Y-69964418D01*
X151872353Y-69803266D01*
X151962785Y-69625783D01*
X151970827Y-69601031D01*
X152024338Y-69436343D01*
X152024338Y-69436342D01*
X152024339Y-69436339D01*
X152055500Y-69239597D01*
X152055500Y-69040403D01*
X152024339Y-68843661D01*
X152024338Y-68843657D01*
X152024338Y-68843656D01*
X151962786Y-68654219D01*
X151944446Y-68618224D01*
X151872353Y-68476734D01*
X151755269Y-68315582D01*
X151614418Y-68174731D01*
X151453266Y-68057647D01*
X151275780Y-67967213D01*
X151086342Y-67905661D01*
X150938782Y-67882290D01*
X150889597Y-67874500D01*
X150690403Y-67874500D01*
X150624822Y-67884887D01*
X150493659Y-67905661D01*
X150493656Y-67905661D01*
X150304219Y-67967213D01*
X150126733Y-68057647D01*
X150034790Y-68124447D01*
X149965582Y-68174731D01*
X149965580Y-68174733D01*
X149965579Y-68174733D01*
X149824733Y-68315579D01*
X149824733Y-68315580D01*
X149824731Y-68315582D01*
X149774447Y-68384790D01*
X149707647Y-68476733D01*
X149630485Y-68628172D01*
X149582510Y-68678968D01*
X149514689Y-68695763D01*
X149448554Y-68673225D01*
X149409515Y-68628172D01*
X149332352Y-68476733D01*
X149215269Y-68315582D01*
X149074418Y-68174731D01*
X148913266Y-68057647D01*
X148735780Y-67967213D01*
X148546342Y-67905661D01*
X148398782Y-67882290D01*
X148349597Y-67874500D01*
X148150403Y-67874500D01*
X148084822Y-67884887D01*
X147953659Y-67905661D01*
X147953656Y-67905661D01*
X147764219Y-67967213D01*
X147586733Y-68057647D01*
X147494790Y-68124447D01*
X147425582Y-68174731D01*
X147425580Y-68174733D01*
X147425579Y-68174733D01*
X147284733Y-68315579D01*
X147284733Y-68315580D01*
X147284731Y-68315582D01*
X147234447Y-68384790D01*
X147167647Y-68476733D01*
X147090485Y-68628172D01*
X147042510Y-68678968D01*
X146974689Y-68695763D01*
X146908554Y-68673225D01*
X146869515Y-68628172D01*
X146792352Y-68476733D01*
X146675269Y-68315582D01*
X146534418Y-68174731D01*
X146373266Y-68057647D01*
X146195780Y-67967213D01*
X146006342Y-67905661D01*
X145858782Y-67882290D01*
X145809597Y-67874500D01*
X145610403Y-67874500D01*
X145544822Y-67884887D01*
X145413659Y-67905661D01*
X145413656Y-67905661D01*
X145224219Y-67967213D01*
X145046733Y-68057647D01*
X144954790Y-68124447D01*
X144885582Y-68174731D01*
X144885580Y-68174733D01*
X144885579Y-68174733D01*
X144744733Y-68315579D01*
X144744733Y-68315580D01*
X144744731Y-68315582D01*
X144694447Y-68384790D01*
X144627647Y-68476733D01*
X144550485Y-68628172D01*
X144502510Y-68678968D01*
X144434689Y-68695763D01*
X144368554Y-68673225D01*
X144329515Y-68628172D01*
X144252352Y-68476733D01*
X144135269Y-68315582D01*
X143994418Y-68174731D01*
X143833266Y-68057647D01*
X143655780Y-67967213D01*
X143466342Y-67905661D01*
X143318782Y-67882290D01*
X143269597Y-67874500D01*
X143070403Y-67874500D01*
X143004822Y-67884887D01*
X142873659Y-67905661D01*
X142873656Y-67905661D01*
X142684219Y-67967213D01*
X142506733Y-68057647D01*
X142414790Y-68124447D01*
X142345582Y-68174731D01*
X142345580Y-68174733D01*
X142345579Y-68174733D01*
X142204733Y-68315579D01*
X142204733Y-68315580D01*
X142204731Y-68315582D01*
X142154447Y-68384790D01*
X142087647Y-68476733D01*
X142010485Y-68628172D01*
X141962510Y-68678968D01*
X141894689Y-68695763D01*
X141828554Y-68673225D01*
X141789515Y-68628172D01*
X141712352Y-68476733D01*
X141595269Y-68315582D01*
X141454418Y-68174731D01*
X141293266Y-68057647D01*
X141115780Y-67967213D01*
X140926342Y-67905661D01*
X140778782Y-67882290D01*
X140729597Y-67874500D01*
X140530403Y-67874500D01*
X140464822Y-67884887D01*
X140333659Y-67905661D01*
X140333656Y-67905661D01*
X140144219Y-67967213D01*
X139966733Y-68057647D01*
X139874790Y-68124447D01*
X139805582Y-68174731D01*
X139805580Y-68174733D01*
X139805579Y-68174733D01*
X139664733Y-68315579D01*
X139664733Y-68315580D01*
X139664731Y-68315582D01*
X139614447Y-68384790D01*
X139547647Y-68476733D01*
X139470485Y-68628172D01*
X139422510Y-68678968D01*
X139354689Y-68695763D01*
X139288554Y-68673225D01*
X139249515Y-68628172D01*
X139172352Y-68476733D01*
X139055269Y-68315582D01*
X138914418Y-68174731D01*
X138753266Y-68057647D01*
X138575780Y-67967213D01*
X138386342Y-67905661D01*
X138238782Y-67882290D01*
X138189597Y-67874500D01*
X137990403Y-67874500D01*
X137924822Y-67884887D01*
X137793659Y-67905661D01*
X137793656Y-67905661D01*
X137604219Y-67967213D01*
X137426733Y-68057647D01*
X137334790Y-68124447D01*
X137265582Y-68174731D01*
X137265580Y-68174733D01*
X137265579Y-68174733D01*
X137124733Y-68315579D01*
X137124733Y-68315580D01*
X137124731Y-68315582D01*
X137074447Y-68384790D01*
X137007647Y-68476733D01*
X136930485Y-68628172D01*
X136882510Y-68678968D01*
X136814689Y-68695763D01*
X136748554Y-68673225D01*
X136709515Y-68628172D01*
X136632352Y-68476733D01*
X136515269Y-68315582D01*
X136374418Y-68174731D01*
X136213266Y-68057647D01*
X136035780Y-67967213D01*
X135846342Y-67905661D01*
X135698782Y-67882290D01*
X135649597Y-67874500D01*
X135450403Y-67874500D01*
X135384822Y-67884887D01*
X135253659Y-67905661D01*
X135253656Y-67905661D01*
X135064219Y-67967213D01*
X134886733Y-68057647D01*
X134794790Y-68124447D01*
X134725582Y-68174731D01*
X134725580Y-68174733D01*
X134725579Y-68174733D01*
X134584733Y-68315579D01*
X134584733Y-68315580D01*
X134584731Y-68315582D01*
X134534447Y-68384790D01*
X134467647Y-68476733D01*
X134390485Y-68628172D01*
X134342510Y-68678968D01*
X134274689Y-68695763D01*
X134208554Y-68673225D01*
X134169515Y-68628172D01*
X134092352Y-68476733D01*
X133975269Y-68315582D01*
X133834418Y-68174731D01*
X133673266Y-68057647D01*
X133495780Y-67967213D01*
X133306342Y-67905661D01*
X133158782Y-67882290D01*
X133109597Y-67874500D01*
X132910403Y-67874500D01*
X132844822Y-67884887D01*
X132713659Y-67905661D01*
X132713656Y-67905661D01*
X132524219Y-67967213D01*
X132346733Y-68057647D01*
X132254790Y-68124447D01*
X132185582Y-68174731D01*
X132185580Y-68174733D01*
X132185579Y-68174733D01*
X132044733Y-68315579D01*
X132044733Y-68315580D01*
X132044731Y-68315582D01*
X131994447Y-68384790D01*
X131927647Y-68476733D01*
X131850485Y-68628172D01*
X131802510Y-68678968D01*
X131734689Y-68695763D01*
X131668554Y-68673225D01*
X131629515Y-68628172D01*
X131552352Y-68476733D01*
X131435269Y-68315582D01*
X131294418Y-68174731D01*
X131133266Y-68057647D01*
X130955780Y-67967213D01*
X130766342Y-67905661D01*
X130618782Y-67882290D01*
X130569597Y-67874500D01*
X130370403Y-67874500D01*
X130304822Y-67884887D01*
X130173659Y-67905661D01*
X130173656Y-67905661D01*
X129984219Y-67967213D01*
X129806733Y-68057647D01*
X129714790Y-68124447D01*
X129645582Y-68174731D01*
X129645580Y-68174733D01*
X129645579Y-68174733D01*
X129504733Y-68315579D01*
X129504733Y-68315580D01*
X129504731Y-68315582D01*
X129454447Y-68384790D01*
X129387647Y-68476733D01*
X129310485Y-68628172D01*
X129262510Y-68678968D01*
X129194689Y-68695763D01*
X129128554Y-68673225D01*
X129089515Y-68628172D01*
X129012352Y-68476733D01*
X128895269Y-68315582D01*
X128754418Y-68174731D01*
X128593266Y-68057647D01*
X128415780Y-67967213D01*
X128226342Y-67905661D01*
X128078782Y-67882290D01*
X128029597Y-67874500D01*
X127830403Y-67874500D01*
X127764822Y-67884887D01*
X127633659Y-67905661D01*
X127633656Y-67905661D01*
X127444219Y-67967213D01*
X127266733Y-68057647D01*
X127174790Y-68124447D01*
X127105582Y-68174731D01*
X127105580Y-68174733D01*
X127105579Y-68174733D01*
X126964733Y-68315579D01*
X126964733Y-68315580D01*
X126964731Y-68315582D01*
X126914447Y-68384790D01*
X126847647Y-68476733D01*
X126770485Y-68628172D01*
X126722510Y-68678968D01*
X126654689Y-68695763D01*
X126588554Y-68673225D01*
X126549515Y-68628172D01*
X126472352Y-68476733D01*
X126355269Y-68315582D01*
X126214418Y-68174731D01*
X126053266Y-68057647D01*
X125875780Y-67967213D01*
X125686342Y-67905661D01*
X125538782Y-67882290D01*
X125489597Y-67874500D01*
X125290403Y-67874500D01*
X125224822Y-67884887D01*
X125093659Y-67905661D01*
X125093656Y-67905661D01*
X124904219Y-67967213D01*
X124726733Y-68057647D01*
X124634790Y-68124447D01*
X124565582Y-68174731D01*
X124565580Y-68174733D01*
X124565579Y-68174733D01*
X124424733Y-68315579D01*
X124424733Y-68315580D01*
X124424731Y-68315582D01*
X124374447Y-68384790D01*
X124307647Y-68476733D01*
X124230485Y-68628172D01*
X124182510Y-68678968D01*
X124114689Y-68695763D01*
X124048554Y-68673225D01*
X124009515Y-68628172D01*
X123932352Y-68476733D01*
X123815269Y-68315582D01*
X123674418Y-68174731D01*
X123513266Y-68057647D01*
X123335780Y-67967213D01*
X123146342Y-67905661D01*
X122998782Y-67882290D01*
X122949597Y-67874500D01*
X122750403Y-67874500D01*
X122684822Y-67884887D01*
X122553659Y-67905661D01*
X122553656Y-67905661D01*
X122364219Y-67967213D01*
X122186733Y-68057647D01*
X122094790Y-68124447D01*
X122025582Y-68174731D01*
X122025580Y-68174733D01*
X122025579Y-68174733D01*
X121884733Y-68315579D01*
X121884733Y-68315580D01*
X121884731Y-68315582D01*
X121834447Y-68384790D01*
X121767647Y-68476733D01*
X121690485Y-68628172D01*
X121642510Y-68678968D01*
X121574689Y-68695763D01*
X121508554Y-68673225D01*
X121469515Y-68628172D01*
X121392352Y-68476733D01*
X121275269Y-68315582D01*
X121134418Y-68174731D01*
X120973266Y-68057647D01*
X120795780Y-67967213D01*
X120606342Y-67905661D01*
X120458782Y-67882290D01*
X120409597Y-67874500D01*
X120210403Y-67874500D01*
X120144822Y-67884887D01*
X120013659Y-67905661D01*
X120013656Y-67905661D01*
X119824219Y-67967213D01*
X119646733Y-68057647D01*
X119554790Y-68124447D01*
X119485582Y-68174731D01*
X119485580Y-68174733D01*
X119485579Y-68174733D01*
X119344733Y-68315579D01*
X119344733Y-68315580D01*
X119344731Y-68315582D01*
X119294447Y-68384790D01*
X119227647Y-68476733D01*
X119150485Y-68628172D01*
X119102510Y-68678968D01*
X119034689Y-68695763D01*
X118968554Y-68673225D01*
X118929515Y-68628172D01*
X118852352Y-68476733D01*
X118735269Y-68315582D01*
X118594418Y-68174731D01*
X118433266Y-68057647D01*
X118255780Y-67967213D01*
X118066342Y-67905661D01*
X117918782Y-67882290D01*
X117869597Y-67874500D01*
X117670403Y-67874500D01*
X117604822Y-67884887D01*
X117473659Y-67905661D01*
X117473656Y-67905661D01*
X117284219Y-67967213D01*
X117106733Y-68057647D01*
X117014790Y-68124447D01*
X116945582Y-68174731D01*
X116945580Y-68174733D01*
X116945579Y-68174733D01*
X116804733Y-68315579D01*
X116804733Y-68315580D01*
X116804731Y-68315582D01*
X116754447Y-68384790D01*
X116687647Y-68476733D01*
X116610485Y-68628172D01*
X116562510Y-68678968D01*
X116494689Y-68695763D01*
X116428554Y-68673225D01*
X116389515Y-68628172D01*
X116312352Y-68476733D01*
X116195269Y-68315582D01*
X116054418Y-68174731D01*
X115893266Y-68057647D01*
X115715780Y-67967213D01*
X115526342Y-67905661D01*
X115378782Y-67882290D01*
X115329597Y-67874500D01*
X115130403Y-67874500D01*
X115064822Y-67884887D01*
X114933659Y-67905661D01*
X114933656Y-67905661D01*
X114744219Y-67967213D01*
X114566733Y-68057647D01*
X114474790Y-68124447D01*
X114405582Y-68174731D01*
X114405580Y-68174733D01*
X114405579Y-68174733D01*
X114264733Y-68315579D01*
X114264733Y-68315580D01*
X114264731Y-68315582D01*
X114214447Y-68384790D01*
X114147647Y-68476733D01*
X114070485Y-68628172D01*
X114022510Y-68678968D01*
X113954689Y-68695763D01*
X113888554Y-68673225D01*
X113849515Y-68628172D01*
X113772352Y-68476733D01*
X113655269Y-68315582D01*
X113514418Y-68174731D01*
X113353266Y-68057647D01*
X113175780Y-67967213D01*
X112986342Y-67905661D01*
X112838782Y-67882290D01*
X112789597Y-67874500D01*
X112590403Y-67874500D01*
X112524822Y-67884887D01*
X112393659Y-67905661D01*
X112393656Y-67905661D01*
X112204219Y-67967213D01*
X112026733Y-68057647D01*
X111934790Y-68124447D01*
X111865582Y-68174731D01*
X111865580Y-68174733D01*
X111865579Y-68174733D01*
X111724733Y-68315579D01*
X111724733Y-68315580D01*
X111724731Y-68315582D01*
X111674447Y-68384790D01*
X111607647Y-68476733D01*
X111530485Y-68628172D01*
X111482510Y-68678968D01*
X111414689Y-68695763D01*
X111348554Y-68673225D01*
X111309515Y-68628172D01*
X111232352Y-68476733D01*
X111115269Y-68315582D01*
X110974418Y-68174731D01*
X110813266Y-68057647D01*
X110635780Y-67967213D01*
X110446342Y-67905661D01*
X110298782Y-67882290D01*
X110249597Y-67874500D01*
X110050403Y-67874500D01*
X109984822Y-67884887D01*
X109853659Y-67905661D01*
X109853656Y-67905661D01*
X109664219Y-67967213D01*
X109486733Y-68057647D01*
X109394790Y-68124447D01*
X109325582Y-68174731D01*
X109325580Y-68174733D01*
X109325579Y-68174733D01*
X109184733Y-68315579D01*
X109184733Y-68315580D01*
X109184731Y-68315582D01*
X109134447Y-68384790D01*
X109067647Y-68476733D01*
X108990485Y-68628172D01*
X108942510Y-68678968D01*
X108874689Y-68695763D01*
X108808554Y-68673225D01*
X108769515Y-68628172D01*
X108692352Y-68476733D01*
X108575269Y-68315582D01*
X108434418Y-68174731D01*
X108273266Y-68057647D01*
X108095780Y-67967213D01*
X107906342Y-67905661D01*
X107758782Y-67882290D01*
X107709597Y-67874500D01*
X107510403Y-67874500D01*
X107444822Y-67884887D01*
X107313659Y-67905661D01*
X107313656Y-67905661D01*
X107124219Y-67967213D01*
X106946733Y-68057647D01*
X106854790Y-68124447D01*
X106785582Y-68174731D01*
X106785580Y-68174733D01*
X106785579Y-68174733D01*
X106644733Y-68315579D01*
X106644733Y-68315580D01*
X106644731Y-68315582D01*
X106594447Y-68384790D01*
X106527647Y-68476733D01*
X106450485Y-68628172D01*
X106402510Y-68678968D01*
X106334689Y-68695763D01*
X106268554Y-68673225D01*
X106229515Y-68628172D01*
X106152352Y-68476733D01*
X106035269Y-68315582D01*
X105894418Y-68174731D01*
X105733266Y-68057647D01*
X105555780Y-67967213D01*
X105366342Y-67905661D01*
X105218782Y-67882290D01*
X105169597Y-67874500D01*
X104970403Y-67874500D01*
X104904822Y-67884887D01*
X104773659Y-67905661D01*
X104773656Y-67905661D01*
X104584219Y-67967213D01*
X104406733Y-68057647D01*
X104314790Y-68124447D01*
X104245582Y-68174731D01*
X104245580Y-68174733D01*
X104245579Y-68174733D01*
X104104733Y-68315579D01*
X104104733Y-68315580D01*
X104104731Y-68315582D01*
X104054447Y-68384790D01*
X103987647Y-68476733D01*
X103897213Y-68654219D01*
X103835661Y-68843656D01*
X103835661Y-68843659D01*
X103804500Y-69040403D01*
X88367196Y-69040403D01*
X88393389Y-68996445D01*
X88398974Y-68987896D01*
X88657153Y-68626294D01*
X88663422Y-68618240D01*
X88950581Y-68279191D01*
X88957500Y-68271675D01*
X89271675Y-67957500D01*
X89279191Y-67950581D01*
X89618240Y-67663422D01*
X89626294Y-67657153D01*
X89987885Y-67398982D01*
X89996445Y-67393389D01*
X90378136Y-67165949D01*
X90387120Y-67161088D01*
X90786280Y-66965951D01*
X90795654Y-66961840D01*
X91209553Y-66800336D01*
X91219205Y-66797022D01*
X91645055Y-66670241D01*
X91654951Y-66667734D01*
X92089809Y-66576554D01*
X92099881Y-66574874D01*
X92540792Y-66519915D01*
X92550961Y-66519072D01*
X92997437Y-66500605D01*
X93002561Y-66500500D01*
X93065892Y-66500500D01*
X172934108Y-66500500D01*
X172997439Y-66500500D01*
X173002562Y-66500605D01*
G37*
G04 #@! TD.AperFunction*
M02*
