%TF.GenerationSoftware,KiCad,Pcbnew,9.0.7-9.0.7~ubuntu24.04.1*%
%TF.CreationDate,2026-03-15T11:29:54-03:00*%
%TF.ProjectId,Pet_feeder_hw,5065745f-6665-4656-9465-725f68772e6b,rev?*%
%TF.SameCoordinates,Original*%
%TF.FileFunction,Drillmap*%
%TF.FilePolarity,Positive*%
%FSLAX45Y45*%
G04 Gerber Fmt 4.5, Leading zero omitted, Abs format (unit mm)*
G04 Created by KiCad (PCBNEW 9.0.7-9.0.7~ubuntu24.04.1) date 2026-03-15 11:29:54*
%MOMM*%
%LPD*%
G01*
G04 APERTURE LIST*
%ADD10C,0.050000*%
%ADD11C,0.200000*%
%ADD12C,0.100000*%
%ADD13C,0.102000*%
G04 APERTURE END LIST*
D10*
X9300000Y-12950000D02*
X17300000Y-12950000D01*
X8700000Y-7200000D02*
G75*
G02*
X9300000Y-6600000I600000J0D01*
G01*
X17900000Y-7200000D02*
X17900000Y-12350000D01*
X17300000Y-6600000D02*
G75*
G02*
X17900000Y-7200000I0J-600000D01*
G01*
X9300000Y-6600000D02*
X17300000Y-6600000D01*
X9300000Y-12950000D02*
G75*
G02*
X8700000Y-12350000I0J600000D01*
G01*
X8700000Y-7200000D02*
X8700000Y-12350000D01*
X17900000Y-12350000D02*
G75*
G02*
X17300000Y-12950000I-600000J0D01*
G01*
D11*
D12*
X8860000Y-11310000D02*
X8890000Y-11340000D01*
X8890000Y-11310000D02*
X8860000Y-11340000D01*
X8860000Y-11385000D02*
X8890000Y-11415000D01*
X8890000Y-11385000D02*
X8860000Y-11415000D01*
X8860000Y-11535000D02*
X8890000Y-11565000D01*
X8890000Y-11535000D02*
X8860000Y-11565000D01*
X8860000Y-11610000D02*
X8890000Y-11640000D01*
X8890000Y-11610000D02*
X8860000Y-11640000D01*
X8935000Y-11310000D02*
X8965000Y-11340000D01*
X8965000Y-11310000D02*
X8935000Y-11340000D01*
X8935000Y-11385000D02*
X8965000Y-11415000D01*
X8965000Y-11385000D02*
X8935000Y-11415000D01*
X8935000Y-11535000D02*
X8965000Y-11565000D01*
X8965000Y-11535000D02*
X8935000Y-11565000D01*
X8935000Y-11610000D02*
X8965000Y-11640000D01*
X8965000Y-11610000D02*
X8935000Y-11640000D01*
X8985000Y-7735000D02*
X9015000Y-7765000D01*
X9015000Y-7735000D02*
X8985000Y-7765000D01*
X8985000Y-7810000D02*
X9015000Y-7840000D01*
X9015000Y-7810000D02*
X8985000Y-7840000D01*
X8985000Y-7960000D02*
X9015000Y-7990000D01*
X9015000Y-7960000D02*
X8985000Y-7990000D01*
X8985000Y-8035000D02*
X9015000Y-8065000D01*
X9015000Y-8035000D02*
X8985000Y-8065000D01*
X8985000Y-8210000D02*
X9015000Y-8240000D01*
X9015000Y-8210000D02*
X8985000Y-8240000D01*
X8985000Y-8285000D02*
X9015000Y-8315000D01*
X9015000Y-8285000D02*
X8985000Y-8315000D01*
X8985000Y-8435000D02*
X9015000Y-8465000D01*
X9015000Y-8435000D02*
X8985000Y-8465000D01*
X8985000Y-8510000D02*
X9015000Y-8540000D01*
X9015000Y-8510000D02*
X8985000Y-8540000D01*
X9060000Y-7735000D02*
X9090000Y-7765000D01*
X9090000Y-7735000D02*
X9060000Y-7765000D01*
X9060000Y-7810000D02*
X9090000Y-7840000D01*
X9090000Y-7810000D02*
X9060000Y-7840000D01*
X9060000Y-7960000D02*
X9090000Y-7990000D01*
X9090000Y-7960000D02*
X9060000Y-7990000D01*
X9060000Y-8035000D02*
X9090000Y-8065000D01*
X9090000Y-8035000D02*
X9060000Y-8065000D01*
X9060000Y-8210000D02*
X9090000Y-8240000D01*
X9090000Y-8210000D02*
X9060000Y-8240000D01*
X9060000Y-8285000D02*
X9090000Y-8315000D01*
X9090000Y-8285000D02*
X9060000Y-8315000D01*
X9060000Y-8435000D02*
X9090000Y-8465000D01*
X9090000Y-8435000D02*
X9060000Y-8465000D01*
X9060000Y-8510000D02*
X9090000Y-8540000D01*
X9090000Y-8510000D02*
X9060000Y-8540000D01*
X9185000Y-7735000D02*
X9215000Y-7765000D01*
X9215000Y-7735000D02*
X9185000Y-7765000D01*
X9185000Y-7810000D02*
X9215000Y-7840000D01*
X9215000Y-7810000D02*
X9185000Y-7840000D01*
X9185000Y-7960000D02*
X9215000Y-7990000D01*
X9215000Y-7960000D02*
X9185000Y-7990000D01*
X9185000Y-8035000D02*
X9215000Y-8065000D01*
X9215000Y-8035000D02*
X9185000Y-8065000D01*
X9185000Y-8210000D02*
X9215000Y-8240000D01*
X9215000Y-8210000D02*
X9185000Y-8240000D01*
X9185000Y-8285000D02*
X9215000Y-8315000D01*
X9215000Y-8285000D02*
X9185000Y-8315000D01*
X9185000Y-8435000D02*
X9215000Y-8465000D01*
X9215000Y-8435000D02*
X9185000Y-8465000D01*
X9185000Y-8510000D02*
X9215000Y-8540000D01*
X9215000Y-8510000D02*
X9185000Y-8540000D01*
X9260000Y-7735000D02*
X9290000Y-7765000D01*
X9290000Y-7735000D02*
X9260000Y-7765000D01*
X9260000Y-7810000D02*
X9290000Y-7840000D01*
X9290000Y-7810000D02*
X9260000Y-7840000D01*
X9260000Y-7960000D02*
X9290000Y-7990000D01*
X9290000Y-7960000D02*
X9260000Y-7990000D01*
X9260000Y-8035000D02*
X9290000Y-8065000D01*
X9290000Y-8035000D02*
X9260000Y-8065000D01*
X9260000Y-8210000D02*
X9290000Y-8240000D01*
X9290000Y-8210000D02*
X9260000Y-8240000D01*
X9260000Y-8285000D02*
X9290000Y-8315000D01*
X9290000Y-8285000D02*
X9260000Y-8315000D01*
X9260000Y-8435000D02*
X9290000Y-8465000D01*
X9290000Y-8435000D02*
X9260000Y-8465000D01*
X9260000Y-8510000D02*
X9290000Y-8540000D01*
X9290000Y-8510000D02*
X9260000Y-8540000D01*
X9435000Y-7735000D02*
X9465000Y-7765000D01*
X9465000Y-7735000D02*
X9435000Y-7765000D01*
X9435000Y-7810000D02*
X9465000Y-7840000D01*
X9465000Y-7810000D02*
X9435000Y-7840000D01*
X9435000Y-7960000D02*
X9465000Y-7990000D01*
X9465000Y-7960000D02*
X9435000Y-7990000D01*
X9435000Y-8035000D02*
X9465000Y-8065000D01*
X9465000Y-8035000D02*
X9435000Y-8065000D01*
X9435000Y-8210000D02*
X9465000Y-8240000D01*
X9465000Y-8210000D02*
X9435000Y-8240000D01*
X9435000Y-8285000D02*
X9465000Y-8315000D01*
X9465000Y-8285000D02*
X9435000Y-8315000D01*
X9435000Y-8435000D02*
X9465000Y-8465000D01*
X9465000Y-8435000D02*
X9435000Y-8465000D01*
X9435000Y-8510000D02*
X9465000Y-8540000D01*
X9465000Y-8510000D02*
X9435000Y-8540000D01*
X9510000Y-7735000D02*
X9540000Y-7765000D01*
X9540000Y-7735000D02*
X9510000Y-7765000D01*
X9510000Y-7810000D02*
X9540000Y-7840000D01*
X9540000Y-7810000D02*
X9510000Y-7840000D01*
X9510000Y-7960000D02*
X9540000Y-7990000D01*
X9540000Y-7960000D02*
X9510000Y-7990000D01*
X9510000Y-8035000D02*
X9540000Y-8065000D01*
X9540000Y-8035000D02*
X9510000Y-8065000D01*
X9510000Y-8210000D02*
X9540000Y-8240000D01*
X9540000Y-8210000D02*
X9510000Y-8240000D01*
X9510000Y-8285000D02*
X9540000Y-8315000D01*
X9540000Y-8285000D02*
X9510000Y-8315000D01*
X9510000Y-8435000D02*
X9540000Y-8465000D01*
X9540000Y-8435000D02*
X9510000Y-8465000D01*
X9510000Y-8510000D02*
X9540000Y-8540000D01*
X9540000Y-8510000D02*
X9510000Y-8540000D01*
X9635000Y-7735000D02*
X9665000Y-7765000D01*
X9665000Y-7735000D02*
X9635000Y-7765000D01*
X9635000Y-7810000D02*
X9665000Y-7840000D01*
X9665000Y-7810000D02*
X9635000Y-7840000D01*
X9635000Y-7960000D02*
X9665000Y-7990000D01*
X9665000Y-7960000D02*
X9635000Y-7990000D01*
X9635000Y-8035000D02*
X9665000Y-8065000D01*
X9665000Y-8035000D02*
X9635000Y-8065000D01*
X9635000Y-8210000D02*
X9665000Y-8240000D01*
X9665000Y-8210000D02*
X9635000Y-8240000D01*
X9635000Y-8285000D02*
X9665000Y-8315000D01*
X9665000Y-8285000D02*
X9635000Y-8315000D01*
X9635000Y-8435000D02*
X9665000Y-8465000D01*
X9665000Y-8435000D02*
X9635000Y-8465000D01*
X9635000Y-8510000D02*
X9665000Y-8540000D01*
X9665000Y-8510000D02*
X9635000Y-8540000D01*
X9675000Y-9535000D02*
X9705000Y-9565000D01*
X9705000Y-9535000D02*
X9675000Y-9565000D01*
X9675000Y-9610000D02*
X9705000Y-9640000D01*
X9705000Y-9610000D02*
X9675000Y-9640000D01*
X9675000Y-9760000D02*
X9705000Y-9790000D01*
X9705000Y-9760000D02*
X9675000Y-9790000D01*
X9675000Y-9835000D02*
X9705000Y-9865000D01*
X9705000Y-9835000D02*
X9675000Y-9865000D01*
X9710000Y-7735000D02*
X9740000Y-7765000D01*
X9740000Y-7735000D02*
X9710000Y-7765000D01*
X9710000Y-7810000D02*
X9740000Y-7840000D01*
X9740000Y-7810000D02*
X9710000Y-7840000D01*
X9710000Y-7960000D02*
X9740000Y-7990000D01*
X9740000Y-7960000D02*
X9710000Y-7990000D01*
X9710000Y-8035000D02*
X9740000Y-8065000D01*
X9740000Y-8035000D02*
X9710000Y-8065000D01*
X9710000Y-8210000D02*
X9740000Y-8240000D01*
X9740000Y-8210000D02*
X9710000Y-8240000D01*
X9710000Y-8285000D02*
X9740000Y-8315000D01*
X9740000Y-8285000D02*
X9710000Y-8315000D01*
X9710000Y-8435000D02*
X9740000Y-8465000D01*
X9740000Y-8435000D02*
X9710000Y-8465000D01*
X9710000Y-8510000D02*
X9740000Y-8540000D01*
X9740000Y-8510000D02*
X9710000Y-8540000D01*
X9750000Y-9535000D02*
X9780000Y-9565000D01*
X9780000Y-9535000D02*
X9750000Y-9565000D01*
X9750000Y-9610000D02*
X9780000Y-9640000D01*
X9780000Y-9610000D02*
X9750000Y-9640000D01*
X9750000Y-9760000D02*
X9780000Y-9790000D01*
X9780000Y-9760000D02*
X9750000Y-9790000D01*
X9750000Y-9835000D02*
X9780000Y-9865000D01*
X9780000Y-9835000D02*
X9750000Y-9865000D01*
X10110000Y-12285000D02*
X10140000Y-12315000D01*
X10140000Y-12285000D02*
X10110000Y-12315000D01*
X10110000Y-12360000D02*
X10140000Y-12390000D01*
X10140000Y-12360000D02*
X10110000Y-12390000D01*
X10110000Y-12510000D02*
X10140000Y-12540000D01*
X10140000Y-12510000D02*
X10110000Y-12540000D01*
X10110000Y-12585000D02*
X10140000Y-12615000D01*
X10140000Y-12585000D02*
X10110000Y-12615000D01*
X10185000Y-12285000D02*
X10215000Y-12315000D01*
X10215000Y-12285000D02*
X10185000Y-12315000D01*
X10185000Y-12360000D02*
X10215000Y-12390000D01*
X10215000Y-12360000D02*
X10185000Y-12390000D01*
X10185000Y-12510000D02*
X10215000Y-12540000D01*
X10215000Y-12510000D02*
X10185000Y-12540000D01*
X10185000Y-12585000D02*
X10215000Y-12615000D01*
X10215000Y-12585000D02*
X10185000Y-12615000D01*
X10310000Y-9535000D02*
X10340000Y-9565000D01*
X10340000Y-9535000D02*
X10310000Y-9565000D01*
X10310000Y-9610000D02*
X10340000Y-9640000D01*
X10340000Y-9610000D02*
X10310000Y-9640000D01*
X10310000Y-9760000D02*
X10340000Y-9790000D01*
X10340000Y-9760000D02*
X10310000Y-9790000D01*
X10310000Y-9835000D02*
X10340000Y-9865000D01*
X10340000Y-9835000D02*
X10310000Y-9865000D01*
X10385000Y-9535000D02*
X10415000Y-9565000D01*
X10415000Y-9535000D02*
X10385000Y-9565000D01*
X10385000Y-9610000D02*
X10415000Y-9640000D01*
X10415000Y-9610000D02*
X10385000Y-9640000D01*
X10385000Y-9760000D02*
X10415000Y-9790000D01*
X10415000Y-9760000D02*
X10385000Y-9790000D01*
X10385000Y-9835000D02*
X10415000Y-9865000D01*
X10415000Y-9835000D02*
X10385000Y-9865000D01*
X10585000Y-12285000D02*
X10615000Y-12315000D01*
X10615000Y-12285000D02*
X10585000Y-12315000D01*
X10585000Y-12360000D02*
X10615000Y-12390000D01*
X10615000Y-12360000D02*
X10585000Y-12390000D01*
X10585000Y-12510000D02*
X10615000Y-12540000D01*
X10615000Y-12510000D02*
X10585000Y-12540000D01*
X10585000Y-12585000D02*
X10615000Y-12615000D01*
X10615000Y-12585000D02*
X10585000Y-12615000D01*
X10660000Y-12285000D02*
X10690000Y-12315000D01*
X10690000Y-12285000D02*
X10660000Y-12315000D01*
X10660000Y-12360000D02*
X10690000Y-12390000D01*
X10690000Y-12360000D02*
X10660000Y-12390000D01*
X10660000Y-12510000D02*
X10690000Y-12540000D01*
X10690000Y-12510000D02*
X10660000Y-12540000D01*
X10660000Y-12585000D02*
X10690000Y-12615000D01*
X10690000Y-12585000D02*
X10660000Y-12615000D01*
X10835000Y-7615000D02*
X10865000Y-7645000D01*
X10865000Y-7615000D02*
X10835000Y-7645000D01*
X10835000Y-7690000D02*
X10865000Y-7720000D01*
X10865000Y-7690000D02*
X10835000Y-7720000D01*
X10835000Y-7840000D02*
X10865000Y-7870000D01*
X10865000Y-7840000D02*
X10835000Y-7870000D01*
X10835000Y-7915000D02*
X10865000Y-7945000D01*
X10865000Y-7915000D02*
X10835000Y-7945000D01*
X10835000Y-9535000D02*
X10865000Y-9565000D01*
X10865000Y-9535000D02*
X10835000Y-9565000D01*
X10835000Y-9610000D02*
X10865000Y-9640000D01*
X10865000Y-9610000D02*
X10835000Y-9640000D01*
X10835000Y-9760000D02*
X10865000Y-9790000D01*
X10865000Y-9760000D02*
X10835000Y-9790000D01*
X10835000Y-9835000D02*
X10865000Y-9865000D01*
X10865000Y-9835000D02*
X10835000Y-9865000D01*
X10910000Y-7615000D02*
X10940000Y-7645000D01*
X10940000Y-7615000D02*
X10910000Y-7645000D01*
X10910000Y-7690000D02*
X10940000Y-7720000D01*
X10940000Y-7690000D02*
X10910000Y-7720000D01*
X10910000Y-7840000D02*
X10940000Y-7870000D01*
X10940000Y-7840000D02*
X10910000Y-7870000D01*
X10910000Y-7915000D02*
X10940000Y-7945000D01*
X10940000Y-7915000D02*
X10910000Y-7945000D01*
X10910000Y-9535000D02*
X10940000Y-9565000D01*
X10940000Y-9535000D02*
X10910000Y-9565000D01*
X10910000Y-9610000D02*
X10940000Y-9640000D01*
X10940000Y-9610000D02*
X10910000Y-9640000D01*
X10910000Y-9760000D02*
X10940000Y-9790000D01*
X10940000Y-9760000D02*
X10910000Y-9790000D01*
X10910000Y-9835000D02*
X10940000Y-9865000D01*
X10940000Y-9835000D02*
X10910000Y-9865000D01*
X11060000Y-7615000D02*
X11090000Y-7645000D01*
X11090000Y-7615000D02*
X11060000Y-7645000D01*
X11060000Y-7690000D02*
X11090000Y-7720000D01*
X11090000Y-7690000D02*
X11060000Y-7720000D01*
X11060000Y-7840000D02*
X11090000Y-7870000D01*
X11090000Y-7840000D02*
X11060000Y-7870000D01*
X11060000Y-7915000D02*
X11090000Y-7945000D01*
X11090000Y-7915000D02*
X11060000Y-7945000D01*
X11060000Y-12285000D02*
X11090000Y-12315000D01*
X11090000Y-12285000D02*
X11060000Y-12315000D01*
X11060000Y-12360000D02*
X11090000Y-12390000D01*
X11090000Y-12360000D02*
X11060000Y-12390000D01*
X11060000Y-12510000D02*
X11090000Y-12540000D01*
X11090000Y-12510000D02*
X11060000Y-12540000D01*
X11060000Y-12585000D02*
X11090000Y-12615000D01*
X11090000Y-12585000D02*
X11060000Y-12615000D01*
X11135000Y-7615000D02*
X11165000Y-7645000D01*
X11165000Y-7615000D02*
X11135000Y-7645000D01*
X11135000Y-7690000D02*
X11165000Y-7720000D01*
X11165000Y-7690000D02*
X11135000Y-7720000D01*
X11135000Y-7840000D02*
X11165000Y-7870000D01*
X11165000Y-7840000D02*
X11135000Y-7870000D01*
X11135000Y-7915000D02*
X11165000Y-7945000D01*
X11165000Y-7915000D02*
X11135000Y-7945000D01*
X11135000Y-12285000D02*
X11165000Y-12315000D01*
X11165000Y-12285000D02*
X11135000Y-12315000D01*
X11135000Y-12360000D02*
X11165000Y-12390000D01*
X11165000Y-12360000D02*
X11135000Y-12390000D01*
X11135000Y-12510000D02*
X11165000Y-12540000D01*
X11165000Y-12510000D02*
X11135000Y-12540000D01*
X11135000Y-12585000D02*
X11165000Y-12615000D01*
X11165000Y-12585000D02*
X11135000Y-12615000D01*
X11260000Y-7615000D02*
X11290000Y-7645000D01*
X11290000Y-7615000D02*
X11260000Y-7645000D01*
X11260000Y-7690000D02*
X11290000Y-7720000D01*
X11290000Y-7690000D02*
X11260000Y-7720000D01*
X11260000Y-7840000D02*
X11290000Y-7870000D01*
X11290000Y-7840000D02*
X11260000Y-7870000D01*
X11260000Y-7915000D02*
X11290000Y-7945000D01*
X11290000Y-7915000D02*
X11260000Y-7945000D01*
X11335000Y-7615000D02*
X11365000Y-7645000D01*
X11365000Y-7615000D02*
X11335000Y-7645000D01*
X11335000Y-7690000D02*
X11365000Y-7720000D01*
X11365000Y-7690000D02*
X11335000Y-7720000D01*
X11335000Y-7840000D02*
X11365000Y-7870000D01*
X11365000Y-7840000D02*
X11335000Y-7870000D01*
X11335000Y-7915000D02*
X11365000Y-7945000D01*
X11365000Y-7915000D02*
X11335000Y-7945000D01*
X11855000Y-12230000D02*
X11885000Y-12260000D01*
X11885000Y-12230000D02*
X11855000Y-12260000D01*
X11855000Y-12305000D02*
X11885000Y-12335000D01*
X11885000Y-12305000D02*
X11855000Y-12335000D01*
X11930000Y-12230000D02*
X11960000Y-12260000D01*
X11960000Y-12230000D02*
X11930000Y-12260000D01*
X11930000Y-12305000D02*
X11960000Y-12335000D01*
X11960000Y-12305000D02*
X11930000Y-12335000D01*
X12055000Y-12230000D02*
X12085000Y-12260000D01*
X12085000Y-12230000D02*
X12055000Y-12260000D01*
X12055000Y-12305000D02*
X12085000Y-12335000D01*
X12085000Y-12305000D02*
X12055000Y-12335000D01*
X12075000Y-9500000D02*
X12105000Y-9530000D01*
X12105000Y-9500000D02*
X12075000Y-9530000D01*
X12075000Y-9575000D02*
X12105000Y-9605000D01*
X12105000Y-9575000D02*
X12075000Y-9605000D01*
X12075000Y-9725000D02*
X12105000Y-9755000D01*
X12105000Y-9725000D02*
X12075000Y-9755000D01*
X12075000Y-9800000D02*
X12105000Y-9830000D01*
X12105000Y-9800000D02*
X12075000Y-9830000D01*
X12130000Y-12230000D02*
X12160000Y-12260000D01*
X12160000Y-12230000D02*
X12130000Y-12260000D01*
X12130000Y-12305000D02*
X12160000Y-12335000D01*
X12160000Y-12305000D02*
X12130000Y-12335000D01*
X12150000Y-9500000D02*
X12180000Y-9530000D01*
X12180000Y-9500000D02*
X12150000Y-9530000D01*
X12150000Y-9575000D02*
X12180000Y-9605000D01*
X12180000Y-9575000D02*
X12150000Y-9605000D01*
X12150000Y-9725000D02*
X12180000Y-9755000D01*
X12180000Y-9725000D02*
X12150000Y-9755000D01*
X12150000Y-9800000D02*
X12180000Y-9830000D01*
X12180000Y-9800000D02*
X12150000Y-9830000D01*
X12270000Y-10790000D02*
X12300000Y-10820000D01*
X12300000Y-10790000D02*
X12270000Y-10820000D01*
X12270000Y-10865000D02*
X12300000Y-10895000D01*
X12300000Y-10865000D02*
X12270000Y-10895000D01*
X12300000Y-9500000D02*
X12330000Y-9530000D01*
X12330000Y-9500000D02*
X12300000Y-9530000D01*
X12300000Y-9575000D02*
X12330000Y-9605000D01*
X12330000Y-9575000D02*
X12300000Y-9605000D01*
X12300000Y-9725000D02*
X12330000Y-9755000D01*
X12330000Y-9725000D02*
X12300000Y-9755000D01*
X12300000Y-9800000D02*
X12330000Y-9830000D01*
X12330000Y-9800000D02*
X12300000Y-9830000D01*
X12345000Y-10790000D02*
X12375000Y-10820000D01*
X12375000Y-10790000D02*
X12345000Y-10820000D01*
X12345000Y-10865000D02*
X12375000Y-10895000D01*
X12375000Y-10865000D02*
X12345000Y-10895000D01*
X12375000Y-9500000D02*
X12405000Y-9530000D01*
X12405000Y-9500000D02*
X12375000Y-9530000D01*
X12375000Y-9575000D02*
X12405000Y-9605000D01*
X12405000Y-9575000D02*
X12375000Y-9605000D01*
X12375000Y-9725000D02*
X12405000Y-9755000D01*
X12405000Y-9725000D02*
X12375000Y-9755000D01*
X12375000Y-9800000D02*
X12405000Y-9830000D01*
X12405000Y-9800000D02*
X12375000Y-9830000D01*
X12500000Y-9500000D02*
X12530000Y-9530000D01*
X12530000Y-9500000D02*
X12500000Y-9530000D01*
X12500000Y-9575000D02*
X12530000Y-9605000D01*
X12530000Y-9575000D02*
X12500000Y-9605000D01*
X12500000Y-9725000D02*
X12530000Y-9755000D01*
X12530000Y-9725000D02*
X12500000Y-9755000D01*
X12500000Y-9800000D02*
X12530000Y-9830000D01*
X12530000Y-9800000D02*
X12500000Y-9830000D01*
X12575000Y-9500000D02*
X12605000Y-9530000D01*
X12605000Y-9500000D02*
X12575000Y-9530000D01*
X12575000Y-9575000D02*
X12605000Y-9605000D01*
X12605000Y-9575000D02*
X12575000Y-9605000D01*
X12575000Y-9725000D02*
X12605000Y-9755000D01*
X12605000Y-9725000D02*
X12575000Y-9755000D01*
X12575000Y-9800000D02*
X12605000Y-9830000D01*
X12605000Y-9800000D02*
X12575000Y-9830000D01*
X12605000Y-12175000D02*
X12635000Y-12205000D01*
X12635000Y-12175000D02*
X12605000Y-12205000D01*
X12710000Y-8535000D02*
X12740000Y-8565000D01*
X12740000Y-8535000D02*
X12710000Y-8565000D01*
X13032000Y-9613000D02*
X13062000Y-9643000D01*
X13062000Y-9613000D02*
X13032000Y-9643000D01*
X13185000Y-10125000D02*
X13215000Y-10155000D01*
X13215000Y-10125000D02*
X13185000Y-10155000D01*
X13305000Y-10125000D02*
X13335000Y-10155000D01*
X13335000Y-10125000D02*
X13305000Y-10155000D01*
X13345000Y-9860000D02*
X13375000Y-9890000D01*
X13375000Y-9860000D02*
X13345000Y-9890000D01*
X13345000Y-9935000D02*
X13375000Y-9965000D01*
X13375000Y-9935000D02*
X13345000Y-9965000D01*
X13420000Y-9860000D02*
X13450000Y-9890000D01*
X13450000Y-9860000D02*
X13420000Y-9890000D01*
X13420000Y-9935000D02*
X13450000Y-9965000D01*
X13450000Y-9935000D02*
X13420000Y-9965000D01*
X13535000Y-9510000D02*
X13565000Y-9540000D01*
X13565000Y-9510000D02*
X13535000Y-9540000D01*
X13545000Y-9860000D02*
X13575000Y-9890000D01*
X13575000Y-9860000D02*
X13545000Y-9890000D01*
X13545000Y-9935000D02*
X13575000Y-9965000D01*
X13575000Y-9935000D02*
X13545000Y-9965000D01*
X13615000Y-10980000D02*
X13645000Y-11010000D01*
X13645000Y-10980000D02*
X13615000Y-11010000D01*
X13620000Y-9860000D02*
X13650000Y-9890000D01*
X13650000Y-9860000D02*
X13620000Y-9890000D01*
X13620000Y-9935000D02*
X13650000Y-9965000D01*
X13650000Y-9935000D02*
X13620000Y-9965000D01*
X13765000Y-10865000D02*
X13795000Y-10895000D01*
X13795000Y-10865000D02*
X13765000Y-10895000D01*
X13875000Y-10165000D02*
X13905000Y-10195000D01*
X13905000Y-10165000D02*
X13875000Y-10195000D01*
X13875000Y-10940000D02*
X13905000Y-10970000D01*
X13905000Y-10940000D02*
X13875000Y-10970000D01*
X13965000Y-10810000D02*
X13995000Y-10840000D01*
X13995000Y-10810000D02*
X13965000Y-10840000D01*
X14065000Y-9570000D02*
X14095000Y-9600000D01*
X14095000Y-9570000D02*
X14065000Y-9600000D01*
X14065000Y-9645000D02*
X14095000Y-9675000D01*
X14095000Y-9645000D02*
X14065000Y-9675000D01*
X14085000Y-10465000D02*
X14115000Y-10495000D01*
X14115000Y-10465000D02*
X14085000Y-10495000D01*
X14085000Y-10555000D02*
X14115000Y-10585000D01*
X14115000Y-10555000D02*
X14085000Y-10585000D01*
X14085000Y-10635000D02*
X14115000Y-10665000D01*
X14115000Y-10635000D02*
X14085000Y-10665000D01*
X14140000Y-9570000D02*
X14170000Y-9600000D01*
X14170000Y-9570000D02*
X14140000Y-9600000D01*
X14140000Y-9645000D02*
X14170000Y-9675000D01*
X14170000Y-9645000D02*
X14140000Y-9675000D01*
X14160000Y-10465000D02*
X14190000Y-10495000D01*
X14190000Y-10465000D02*
X14160000Y-10495000D01*
X14160000Y-10555000D02*
X14190000Y-10585000D01*
X14190000Y-10555000D02*
X14160000Y-10585000D01*
X14160000Y-10635000D02*
X14190000Y-10665000D01*
X14190000Y-10635000D02*
X14160000Y-10665000D01*
X14225000Y-7625000D02*
X14255000Y-7655000D01*
X14255000Y-7625000D02*
X14225000Y-7655000D01*
X14225000Y-7700000D02*
X14255000Y-7730000D01*
X14255000Y-7700000D02*
X14225000Y-7730000D01*
X14225000Y-7850000D02*
X14255000Y-7880000D01*
X14255000Y-7850000D02*
X14225000Y-7880000D01*
X14225000Y-7925000D02*
X14255000Y-7955000D01*
X14255000Y-7925000D02*
X14225000Y-7955000D01*
X14235000Y-9835000D02*
X14265000Y-9865000D01*
X14265000Y-9835000D02*
X14235000Y-9865000D01*
X14265000Y-9570000D02*
X14295000Y-9600000D01*
X14295000Y-9570000D02*
X14265000Y-9600000D01*
X14265000Y-9645000D02*
X14295000Y-9675000D01*
X14295000Y-9645000D02*
X14265000Y-9675000D01*
X14300000Y-7625000D02*
X14330000Y-7655000D01*
X14330000Y-7625000D02*
X14300000Y-7655000D01*
X14300000Y-7700000D02*
X14330000Y-7730000D01*
X14330000Y-7700000D02*
X14300000Y-7730000D01*
X14300000Y-7850000D02*
X14330000Y-7880000D01*
X14330000Y-7850000D02*
X14300000Y-7880000D01*
X14300000Y-7925000D02*
X14330000Y-7955000D01*
X14330000Y-7925000D02*
X14300000Y-7955000D01*
X14340000Y-9570000D02*
X14370000Y-9600000D01*
X14370000Y-9570000D02*
X14340000Y-9600000D01*
X14340000Y-9645000D02*
X14370000Y-9675000D01*
X14370000Y-9645000D02*
X14340000Y-9675000D01*
X14450000Y-7625000D02*
X14480000Y-7655000D01*
X14480000Y-7625000D02*
X14450000Y-7655000D01*
X14450000Y-7700000D02*
X14480000Y-7730000D01*
X14480000Y-7700000D02*
X14450000Y-7730000D01*
X14450000Y-7850000D02*
X14480000Y-7880000D01*
X14480000Y-7850000D02*
X14450000Y-7880000D01*
X14450000Y-7925000D02*
X14480000Y-7955000D01*
X14480000Y-7925000D02*
X14450000Y-7955000D01*
X14525000Y-7625000D02*
X14555000Y-7655000D01*
X14555000Y-7625000D02*
X14525000Y-7655000D01*
X14525000Y-7700000D02*
X14555000Y-7730000D01*
X14555000Y-7700000D02*
X14525000Y-7730000D01*
X14525000Y-7850000D02*
X14555000Y-7880000D01*
X14555000Y-7850000D02*
X14525000Y-7880000D01*
X14525000Y-7925000D02*
X14555000Y-7955000D01*
X14555000Y-7925000D02*
X14525000Y-7955000D01*
X14528500Y-10426500D02*
X14558500Y-10456500D01*
X14558500Y-10426500D02*
X14528500Y-10456500D01*
X14565000Y-10775000D02*
X14595000Y-10805000D01*
X14595000Y-10775000D02*
X14565000Y-10805000D01*
X14645000Y-10485000D02*
X14675000Y-10515000D01*
X14675000Y-10485000D02*
X14645000Y-10515000D01*
X14647500Y-9572500D02*
X14677500Y-9602500D01*
X14677500Y-9572500D02*
X14647500Y-9602500D01*
X14650000Y-7625000D02*
X14680000Y-7655000D01*
X14680000Y-7625000D02*
X14650000Y-7655000D01*
X14650000Y-7700000D02*
X14680000Y-7730000D01*
X14680000Y-7700000D02*
X14650000Y-7730000D01*
X14650000Y-7850000D02*
X14680000Y-7880000D01*
X14680000Y-7850000D02*
X14650000Y-7880000D01*
X14650000Y-7925000D02*
X14680000Y-7955000D01*
X14680000Y-7925000D02*
X14650000Y-7955000D01*
X14725000Y-7625000D02*
X14755000Y-7655000D01*
X14755000Y-7625000D02*
X14725000Y-7655000D01*
X14725000Y-7700000D02*
X14755000Y-7730000D01*
X14755000Y-7700000D02*
X14725000Y-7730000D01*
X14725000Y-7850000D02*
X14755000Y-7880000D01*
X14755000Y-7850000D02*
X14725000Y-7880000D01*
X14725000Y-7925000D02*
X14755000Y-7955000D01*
X14755000Y-7925000D02*
X14725000Y-7955000D01*
X14747500Y-9572500D02*
X14777500Y-9602500D01*
X14777500Y-9572500D02*
X14747500Y-9602500D01*
X15215000Y-10485000D02*
X15245000Y-10515000D01*
X15245000Y-10485000D02*
X15215000Y-10515000D01*
X15705000Y-10725000D02*
X15735000Y-10755000D01*
X15735000Y-10725000D02*
X15705000Y-10755000D01*
X15705000Y-10800000D02*
X15735000Y-10830000D01*
X15735000Y-10800000D02*
X15705000Y-10830000D01*
X15780000Y-10725000D02*
X15810000Y-10755000D01*
X15810000Y-10725000D02*
X15780000Y-10755000D01*
X15780000Y-10800000D02*
X15810000Y-10830000D01*
X15810000Y-10800000D02*
X15780000Y-10830000D01*
X15815000Y-10225000D02*
X15845000Y-10255000D01*
X15845000Y-10225000D02*
X15815000Y-10255000D01*
X15835000Y-9995000D02*
X15865000Y-10025000D01*
X15865000Y-9995000D02*
X15835000Y-10025000D01*
X15905000Y-10725000D02*
X15935000Y-10755000D01*
X15935000Y-10725000D02*
X15905000Y-10755000D01*
X15905000Y-10800000D02*
X15935000Y-10830000D01*
X15935000Y-10800000D02*
X15905000Y-10830000D01*
X15955000Y-10230000D02*
X15985000Y-10260000D01*
X15985000Y-10230000D02*
X15955000Y-10260000D01*
X15955000Y-10305000D02*
X15985000Y-10335000D01*
X15985000Y-10305000D02*
X15955000Y-10335000D01*
X15955000Y-10455000D02*
X15985000Y-10485000D01*
X15985000Y-10455000D02*
X15955000Y-10485000D01*
X15955000Y-10530000D02*
X15985000Y-10560000D01*
X15985000Y-10530000D02*
X15955000Y-10560000D01*
X15980000Y-10725000D02*
X16010000Y-10755000D01*
X16010000Y-10725000D02*
X15980000Y-10755000D01*
X15980000Y-10800000D02*
X16010000Y-10830000D01*
X16010000Y-10800000D02*
X15980000Y-10830000D01*
X16030000Y-10230000D02*
X16060000Y-10260000D01*
X16060000Y-10230000D02*
X16030000Y-10260000D01*
X16030000Y-10305000D02*
X16060000Y-10335000D01*
X16060000Y-10305000D02*
X16030000Y-10335000D01*
X16030000Y-10455000D02*
X16060000Y-10485000D01*
X16060000Y-10455000D02*
X16030000Y-10485000D01*
X16030000Y-10530000D02*
X16060000Y-10560000D01*
X16060000Y-10530000D02*
X16030000Y-10560000D01*
X16135000Y-8775000D02*
X16165000Y-8805000D01*
X16165000Y-8775000D02*
X16135000Y-8805000D01*
X16160000Y-10285000D02*
X16190000Y-10315000D01*
X16190000Y-10285000D02*
X16160000Y-10315000D01*
X16160000Y-10360000D02*
X16190000Y-10390000D01*
X16190000Y-10360000D02*
X16160000Y-10390000D01*
X16220000Y-10565000D02*
X16250000Y-10595000D01*
X16250000Y-10565000D02*
X16220000Y-10595000D01*
X16220000Y-10640000D02*
X16250000Y-10670000D01*
X16250000Y-10640000D02*
X16220000Y-10670000D01*
X16235000Y-10285000D02*
X16265000Y-10315000D01*
X16265000Y-10285000D02*
X16235000Y-10315000D01*
X16235000Y-10360000D02*
X16265000Y-10390000D01*
X16265000Y-10360000D02*
X16235000Y-10390000D01*
X16295000Y-10565000D02*
X16325000Y-10595000D01*
X16325000Y-10565000D02*
X16295000Y-10595000D01*
X16295000Y-10640000D02*
X16325000Y-10670000D01*
X16325000Y-10640000D02*
X16295000Y-10670000D01*
X16420000Y-10565000D02*
X16450000Y-10595000D01*
X16450000Y-10565000D02*
X16420000Y-10595000D01*
X16420000Y-10640000D02*
X16450000Y-10670000D01*
X16450000Y-10640000D02*
X16420000Y-10670000D01*
X16440000Y-10255000D02*
X16470000Y-10285000D01*
X16470000Y-10255000D02*
X16440000Y-10285000D01*
X16440000Y-10330000D02*
X16470000Y-10360000D01*
X16470000Y-10330000D02*
X16440000Y-10360000D01*
X16455000Y-9045000D02*
X16485000Y-9075000D01*
X16485000Y-9045000D02*
X16455000Y-9075000D01*
X16495000Y-10565000D02*
X16525000Y-10595000D01*
X16525000Y-10565000D02*
X16495000Y-10595000D01*
X16495000Y-10640000D02*
X16525000Y-10670000D01*
X16525000Y-10640000D02*
X16495000Y-10670000D01*
X16515000Y-10255000D02*
X16545000Y-10285000D01*
X16545000Y-10255000D02*
X16515000Y-10285000D01*
X16515000Y-10330000D02*
X16545000Y-10360000D01*
X16545000Y-10330000D02*
X16515000Y-10360000D01*
X16535000Y-8735000D02*
X16565000Y-8765000D01*
X16565000Y-8735000D02*
X16535000Y-8765000D01*
X16535000Y-9435000D02*
X16565000Y-9465000D01*
X16565000Y-9435000D02*
X16535000Y-9465000D01*
X16585000Y-11260000D02*
X16615000Y-11290000D01*
X16615000Y-11260000D02*
X16585000Y-11290000D01*
X16585000Y-11335000D02*
X16615000Y-11365000D01*
X16615000Y-11335000D02*
X16585000Y-11365000D01*
X16585000Y-11485000D02*
X16615000Y-11515000D01*
X16615000Y-11485000D02*
X16585000Y-11515000D01*
X16585000Y-11560000D02*
X16615000Y-11590000D01*
X16615000Y-11560000D02*
X16585000Y-11590000D01*
X16635000Y-9225000D02*
X16665000Y-9255000D01*
X16665000Y-9225000D02*
X16635000Y-9255000D01*
X16635000Y-9485000D02*
X16665000Y-9515000D01*
X16665000Y-9485000D02*
X16635000Y-9515000D01*
X16635000Y-9560000D02*
X16665000Y-9590000D01*
X16665000Y-9560000D02*
X16635000Y-9590000D01*
X16635000Y-9635000D02*
X16665000Y-9665000D01*
X16665000Y-9635000D02*
X16635000Y-9665000D01*
X16635000Y-9710000D02*
X16665000Y-9740000D01*
X16665000Y-9710000D02*
X16635000Y-9740000D01*
X16660000Y-11260000D02*
X16690000Y-11290000D01*
X16690000Y-11260000D02*
X16660000Y-11290000D01*
X16660000Y-11335000D02*
X16690000Y-11365000D01*
X16690000Y-11335000D02*
X16660000Y-11365000D01*
X16660000Y-11485000D02*
X16690000Y-11515000D01*
X16690000Y-11485000D02*
X16660000Y-11515000D01*
X16660000Y-11560000D02*
X16690000Y-11590000D01*
X16690000Y-11560000D02*
X16660000Y-11590000D01*
X16785000Y-11260000D02*
X16815000Y-11290000D01*
X16815000Y-11260000D02*
X16785000Y-11290000D01*
X16785000Y-11335000D02*
X16815000Y-11365000D01*
X16815000Y-11335000D02*
X16785000Y-11365000D01*
X16785000Y-11485000D02*
X16815000Y-11515000D01*
X16815000Y-11485000D02*
X16785000Y-11515000D01*
X16785000Y-11560000D02*
X16815000Y-11590000D01*
X16815000Y-11560000D02*
X16785000Y-11590000D01*
X16860000Y-11260000D02*
X16890000Y-11290000D01*
X16890000Y-11260000D02*
X16860000Y-11290000D01*
X16860000Y-11335000D02*
X16890000Y-11365000D01*
X16890000Y-11335000D02*
X16860000Y-11365000D01*
X16860000Y-11485000D02*
X16890000Y-11515000D01*
X16890000Y-11485000D02*
X16860000Y-11515000D01*
X16860000Y-11560000D02*
X16890000Y-11590000D01*
X16890000Y-11560000D02*
X16860000Y-11590000D01*
X16910000Y-9885000D02*
X16940000Y-9915000D01*
X16940000Y-9885000D02*
X16910000Y-9915000D01*
X16910000Y-9960000D02*
X16940000Y-9990000D01*
X16940000Y-9960000D02*
X16910000Y-9990000D01*
X16925000Y-9515000D02*
X16955000Y-9545000D01*
X16955000Y-9515000D02*
X16925000Y-9545000D01*
X16985000Y-9885000D02*
X17015000Y-9915000D01*
X17015000Y-9885000D02*
X16985000Y-9915000D01*
X16985000Y-9960000D02*
X17015000Y-9990000D01*
X17015000Y-9960000D02*
X16985000Y-9990000D01*
X11775000Y-10800000D02*
G75*
G02*
X11675000Y-10800000I-50000J0D01*
G01*
X11675000Y-10800000D02*
G75*
G02*
X11775000Y-10800000I50000J0D01*
G01*
X12635000Y-10800000D02*
G75*
G02*
X12535000Y-10800000I-50000J0D01*
G01*
X12535000Y-10800000D02*
G75*
G02*
X12635000Y-10800000I50000J0D01*
G01*
X15825000Y-12452500D02*
G75*
G02*
X15725000Y-12452500I-50000J0D01*
G01*
X15725000Y-12452500D02*
G75*
G02*
X15825000Y-12452500I50000J0D01*
G01*
X16075000Y-12452500D02*
G75*
G02*
X15975000Y-12452500I-50000J0D01*
G01*
X15975000Y-12452500D02*
G75*
G02*
X16075000Y-12452500I50000J0D01*
G01*
X16325000Y-12452500D02*
G75*
G02*
X16225000Y-12452500I-50000J0D01*
G01*
X16225000Y-12452500D02*
G75*
G02*
X16325000Y-12452500I50000J0D01*
G01*
X16575000Y-12452500D02*
G75*
G02*
X16475000Y-12452500I-50000J0D01*
G01*
X16475000Y-12452500D02*
G75*
G02*
X16575000Y-12452500I50000J0D01*
G01*
X17600000Y-7975000D02*
G75*
G02*
X17500000Y-7975000I-50000J0D01*
G01*
X17500000Y-7975000D02*
G75*
G02*
X17600000Y-7975000I50000J0D01*
G01*
X17600000Y-8225000D02*
G75*
G02*
X17500000Y-8225000I-50000J0D01*
G01*
X17500000Y-8225000D02*
G75*
G02*
X17600000Y-8225000I50000J0D01*
G01*
X17600000Y-8475000D02*
G75*
G02*
X17500000Y-8475000I-50000J0D01*
G01*
X17500000Y-8475000D02*
G75*
G02*
X17600000Y-8475000I50000J0D01*
G01*
X17600000Y-8725000D02*
G75*
G02*
X17500000Y-8725000I-50000J0D01*
G01*
X17500000Y-8725000D02*
G75*
G02*
X17600000Y-8725000I50000J0D01*
G01*
X17600000Y-8975000D02*
G75*
G02*
X17500000Y-8975000I-50000J0D01*
G01*
X17500000Y-8975000D02*
G75*
G02*
X17600000Y-8975000I50000J0D01*
G01*
X17600000Y-9225000D02*
G75*
G02*
X17500000Y-9225000I-50000J0D01*
G01*
X17500000Y-9225000D02*
G75*
G02*
X17600000Y-9225000I50000J0D01*
G01*
X17600000Y-9875000D02*
G75*
G02*
X17500000Y-9875000I-50000J0D01*
G01*
X17500000Y-9875000D02*
G75*
G02*
X17600000Y-9875000I50000J0D01*
G01*
X17600000Y-10125000D02*
G75*
G02*
X17500000Y-10125000I-50000J0D01*
G01*
X17500000Y-10125000D02*
G75*
G02*
X17600000Y-10125000I50000J0D01*
G01*
X17600000Y-10375000D02*
G75*
G02*
X17500000Y-10375000I-50000J0D01*
G01*
X17500000Y-10375000D02*
G75*
G02*
X17600000Y-10375000I50000J0D01*
G01*
X17600000Y-10625000D02*
G75*
G02*
X17500000Y-10625000I-50000J0D01*
G01*
X17500000Y-10625000D02*
G75*
G02*
X17600000Y-10625000I50000J0D01*
G01*
X17600000Y-10875000D02*
G75*
G02*
X17500000Y-10875000I-50000J0D01*
G01*
X17500000Y-10875000D02*
G75*
G02*
X17600000Y-10875000I50000J0D01*
G01*
X17600000Y-11125000D02*
G75*
G02*
X17500000Y-11125000I-50000J0D01*
G01*
X17500000Y-11125000D02*
G75*
G02*
X17600000Y-11125000I50000J0D01*
G01*
D13*
X10253000Y-6863000D02*
X10253000Y-6965000D01*
X10202000Y-6914000D02*
X10304000Y-6914000D01*
X10253000Y-9149000D02*
X10253000Y-9251000D01*
X10202000Y-9200000D02*
X10304000Y-9200000D01*
X10507000Y-6863000D02*
X10507000Y-6965000D01*
X10456000Y-6914000D02*
X10558000Y-6914000D01*
X10507000Y-9149000D02*
X10507000Y-9251000D01*
X10456000Y-9200000D02*
X10558000Y-9200000D01*
X10761000Y-6863000D02*
X10761000Y-6965000D01*
X10710000Y-6914000D02*
X10812000Y-6914000D01*
X10761000Y-9149000D02*
X10761000Y-9251000D01*
X10710000Y-9200000D02*
X10812000Y-9200000D01*
X11015000Y-6863000D02*
X11015000Y-6965000D01*
X10964000Y-6914000D02*
X11066000Y-6914000D01*
X11015000Y-9149000D02*
X11015000Y-9251000D01*
X10964000Y-9200000D02*
X11066000Y-9200000D01*
X11269000Y-6863000D02*
X11269000Y-6965000D01*
X11218000Y-6914000D02*
X11320000Y-6914000D01*
X11269000Y-9149000D02*
X11269000Y-9251000D01*
X11218000Y-9200000D02*
X11320000Y-9200000D01*
X11523000Y-6863000D02*
X11523000Y-6965000D01*
X11472000Y-6914000D02*
X11574000Y-6914000D01*
X11523000Y-9149000D02*
X11523000Y-9251000D01*
X11472000Y-9200000D02*
X11574000Y-9200000D01*
X11777000Y-6863000D02*
X11777000Y-6965000D01*
X11726000Y-6914000D02*
X11828000Y-6914000D01*
X11777000Y-9149000D02*
X11777000Y-9251000D01*
X11726000Y-9200000D02*
X11828000Y-9200000D01*
X12031000Y-6863000D02*
X12031000Y-6965000D01*
X11980000Y-6914000D02*
X12082000Y-6914000D01*
X12031000Y-9149000D02*
X12031000Y-9251000D01*
X11980000Y-9200000D02*
X12082000Y-9200000D01*
X12285000Y-6863000D02*
X12285000Y-6965000D01*
X12234000Y-6914000D02*
X12336000Y-6914000D01*
X12285000Y-9149000D02*
X12285000Y-9251000D01*
X12234000Y-9200000D02*
X12336000Y-9200000D01*
X12539000Y-6863000D02*
X12539000Y-6965000D01*
X12488000Y-6914000D02*
X12590000Y-6914000D01*
X12539000Y-9149000D02*
X12539000Y-9251000D01*
X12488000Y-9200000D02*
X12590000Y-9200000D01*
X12793000Y-6863000D02*
X12793000Y-6965000D01*
X12742000Y-6914000D02*
X12844000Y-6914000D01*
X12793000Y-9149000D02*
X12793000Y-9251000D01*
X12742000Y-9200000D02*
X12844000Y-9200000D01*
X13047000Y-6863000D02*
X13047000Y-6965000D01*
X12996000Y-6914000D02*
X13098000Y-6914000D01*
X13047000Y-9149000D02*
X13047000Y-9251000D01*
X12996000Y-9200000D02*
X13098000Y-9200000D01*
X13261000Y-11314000D02*
X13261000Y-11416000D01*
X13210000Y-11365000D02*
X13312000Y-11365000D01*
X13261000Y-12584000D02*
X13261000Y-12686000D01*
X13210000Y-12635000D02*
X13312000Y-12635000D01*
X13301000Y-6863000D02*
X13301000Y-6965000D01*
X13250000Y-6914000D02*
X13352000Y-6914000D01*
X13301000Y-9149000D02*
X13301000Y-9251000D01*
X13250000Y-9200000D02*
X13352000Y-9200000D01*
X13515000Y-11314000D02*
X13515000Y-11416000D01*
X13464000Y-11365000D02*
X13566000Y-11365000D01*
X13515000Y-12584000D02*
X13515000Y-12686000D01*
X13464000Y-12635000D02*
X13566000Y-12635000D01*
X13555000Y-6863000D02*
X13555000Y-6965000D01*
X13504000Y-6914000D02*
X13606000Y-6914000D01*
X13555000Y-9149000D02*
X13555000Y-9251000D01*
X13504000Y-9200000D02*
X13606000Y-9200000D01*
X13769000Y-11314000D02*
X13769000Y-11416000D01*
X13718000Y-11365000D02*
X13820000Y-11365000D01*
X13769000Y-12584000D02*
X13769000Y-12686000D01*
X13718000Y-12635000D02*
X13820000Y-12635000D01*
X13809000Y-6863000D02*
X13809000Y-6965000D01*
X13758000Y-6914000D02*
X13860000Y-6914000D01*
X13809000Y-9149000D02*
X13809000Y-9251000D01*
X13758000Y-9200000D02*
X13860000Y-9200000D01*
X14023000Y-11314000D02*
X14023000Y-11416000D01*
X13972000Y-11365000D02*
X14074000Y-11365000D01*
X14023000Y-12584000D02*
X14023000Y-12686000D01*
X13972000Y-12635000D02*
X14074000Y-12635000D01*
X14063000Y-6863000D02*
X14063000Y-6965000D01*
X14012000Y-6914000D02*
X14114000Y-6914000D01*
X14063000Y-9149000D02*
X14063000Y-9251000D01*
X14012000Y-9200000D02*
X14114000Y-9200000D01*
X14277000Y-11314000D02*
X14277000Y-11416000D01*
X14226000Y-11365000D02*
X14328000Y-11365000D01*
X14277000Y-12584000D02*
X14277000Y-12686000D01*
X14226000Y-12635000D02*
X14328000Y-12635000D01*
X14317000Y-6863000D02*
X14317000Y-6965000D01*
X14266000Y-6914000D02*
X14368000Y-6914000D01*
X14317000Y-9149000D02*
X14317000Y-9251000D01*
X14266000Y-9200000D02*
X14368000Y-9200000D01*
X14531000Y-11314000D02*
X14531000Y-11416000D01*
X14480000Y-11365000D02*
X14582000Y-11365000D01*
X14531000Y-12584000D02*
X14531000Y-12686000D01*
X14480000Y-12635000D02*
X14582000Y-12635000D01*
X14571000Y-6863000D02*
X14571000Y-6965000D01*
X14520000Y-6914000D02*
X14622000Y-6914000D01*
X14571000Y-9149000D02*
X14571000Y-9251000D01*
X14520000Y-9200000D02*
X14622000Y-9200000D01*
X14785000Y-11314000D02*
X14785000Y-11416000D01*
X14734000Y-11365000D02*
X14836000Y-11365000D01*
X14785000Y-12584000D02*
X14785000Y-12686000D01*
X14734000Y-12635000D02*
X14836000Y-12635000D01*
X14825000Y-6863000D02*
X14825000Y-6965000D01*
X14774000Y-6914000D02*
X14876000Y-6914000D01*
X14825000Y-9149000D02*
X14825000Y-9251000D01*
X14774000Y-9200000D02*
X14876000Y-9200000D01*
X15039000Y-11314000D02*
X15039000Y-11416000D01*
X14988000Y-11365000D02*
X15090000Y-11365000D01*
X15039000Y-12584000D02*
X15039000Y-12686000D01*
X14988000Y-12635000D02*
X15090000Y-12635000D01*
X15079000Y-6863000D02*
X15079000Y-6965000D01*
X15028000Y-6914000D02*
X15130000Y-6914000D01*
X15079000Y-9149000D02*
X15079000Y-9251000D01*
X15028000Y-9200000D02*
X15130000Y-9200000D01*
X15333000Y-6863000D02*
X15333000Y-6965000D01*
X15282000Y-6914000D02*
X15384000Y-6914000D01*
X15333000Y-9149000D02*
X15333000Y-9251000D01*
X15282000Y-9200000D02*
X15384000Y-9200000D01*
X15587000Y-6863000D02*
X15587000Y-6965000D01*
X15536000Y-6914000D02*
X15638000Y-6914000D01*
X15587000Y-9149000D02*
X15587000Y-9251000D01*
X15536000Y-9200000D02*
X15638000Y-9200000D01*
D11*
X8958277Y-13263984D02*
X8958277Y-13063984D01*
X8958277Y-13063984D02*
X9005896Y-13063984D01*
X9005896Y-13063984D02*
X9034467Y-13073508D01*
X9034467Y-13073508D02*
X9053515Y-13092555D01*
X9053515Y-13092555D02*
X9063039Y-13111603D01*
X9063039Y-13111603D02*
X9072563Y-13149698D01*
X9072563Y-13149698D02*
X9072563Y-13178269D01*
X9072563Y-13178269D02*
X9063039Y-13216365D01*
X9063039Y-13216365D02*
X9053515Y-13235412D01*
X9053515Y-13235412D02*
X9034467Y-13254460D01*
X9034467Y-13254460D02*
X9005896Y-13263984D01*
X9005896Y-13263984D02*
X8958277Y-13263984D01*
X9158277Y-13263984D02*
X9158277Y-13130650D01*
X9158277Y-13168746D02*
X9167801Y-13149698D01*
X9167801Y-13149698D02*
X9177324Y-13140174D01*
X9177324Y-13140174D02*
X9196372Y-13130650D01*
X9196372Y-13130650D02*
X9215420Y-13130650D01*
X9282086Y-13263984D02*
X9282086Y-13130650D01*
X9282086Y-13063984D02*
X9272563Y-13073508D01*
X9272563Y-13073508D02*
X9282086Y-13083031D01*
X9282086Y-13083031D02*
X9291610Y-13073508D01*
X9291610Y-13073508D02*
X9282086Y-13063984D01*
X9282086Y-13063984D02*
X9282086Y-13083031D01*
X9405896Y-13263984D02*
X9386848Y-13254460D01*
X9386848Y-13254460D02*
X9377324Y-13235412D01*
X9377324Y-13235412D02*
X9377324Y-13063984D01*
X9510658Y-13263984D02*
X9491610Y-13254460D01*
X9491610Y-13254460D02*
X9482086Y-13235412D01*
X9482086Y-13235412D02*
X9482086Y-13063984D01*
X9739229Y-13263984D02*
X9739229Y-13063984D01*
X9739229Y-13063984D02*
X9805896Y-13206841D01*
X9805896Y-13206841D02*
X9872563Y-13063984D01*
X9872563Y-13063984D02*
X9872563Y-13263984D01*
X10053515Y-13263984D02*
X10053515Y-13159222D01*
X10053515Y-13159222D02*
X10043991Y-13140174D01*
X10043991Y-13140174D02*
X10024944Y-13130650D01*
X10024944Y-13130650D02*
X9986848Y-13130650D01*
X9986848Y-13130650D02*
X9967801Y-13140174D01*
X10053515Y-13254460D02*
X10034467Y-13263984D01*
X10034467Y-13263984D02*
X9986848Y-13263984D01*
X9986848Y-13263984D02*
X9967801Y-13254460D01*
X9967801Y-13254460D02*
X9958277Y-13235412D01*
X9958277Y-13235412D02*
X9958277Y-13216365D01*
X9958277Y-13216365D02*
X9967801Y-13197317D01*
X9967801Y-13197317D02*
X9986848Y-13187793D01*
X9986848Y-13187793D02*
X10034467Y-13187793D01*
X10034467Y-13187793D02*
X10053515Y-13178269D01*
X10148753Y-13130650D02*
X10148753Y-13330650D01*
X10148753Y-13140174D02*
X10167801Y-13130650D01*
X10167801Y-13130650D02*
X10205896Y-13130650D01*
X10205896Y-13130650D02*
X10224944Y-13140174D01*
X10224944Y-13140174D02*
X10234467Y-13149698D01*
X10234467Y-13149698D02*
X10243991Y-13168746D01*
X10243991Y-13168746D02*
X10243991Y-13225888D01*
X10243991Y-13225888D02*
X10234467Y-13244936D01*
X10234467Y-13244936D02*
X10224944Y-13254460D01*
X10224944Y-13254460D02*
X10205896Y-13263984D01*
X10205896Y-13263984D02*
X10167801Y-13263984D01*
X10167801Y-13263984D02*
X10148753Y-13254460D01*
X10329705Y-13244936D02*
X10339229Y-13254460D01*
X10339229Y-13254460D02*
X10329705Y-13263984D01*
X10329705Y-13263984D02*
X10320182Y-13254460D01*
X10320182Y-13254460D02*
X10329705Y-13244936D01*
X10329705Y-13244936D02*
X10329705Y-13263984D01*
X10329705Y-13140174D02*
X10339229Y-13149698D01*
X10339229Y-13149698D02*
X10329705Y-13159222D01*
X10329705Y-13159222D02*
X10320182Y-13149698D01*
X10320182Y-13149698D02*
X10329705Y-13140174D01*
X10329705Y-13140174D02*
X10329705Y-13159222D01*
D12*
X8667500Y-13577500D02*
X8697500Y-13607500D01*
X8697500Y-13577500D02*
X8667500Y-13607500D01*
D11*
X8996372Y-13483984D02*
X9015420Y-13483984D01*
X9015420Y-13483984D02*
X9034467Y-13493508D01*
X9034467Y-13493508D02*
X9043991Y-13503031D01*
X9043991Y-13503031D02*
X9053515Y-13522079D01*
X9053515Y-13522079D02*
X9063039Y-13560174D01*
X9063039Y-13560174D02*
X9063039Y-13607793D01*
X9063039Y-13607793D02*
X9053515Y-13645888D01*
X9053515Y-13645888D02*
X9043991Y-13664936D01*
X9043991Y-13664936D02*
X9034467Y-13674460D01*
X9034467Y-13674460D02*
X9015420Y-13683984D01*
X9015420Y-13683984D02*
X8996372Y-13683984D01*
X8996372Y-13683984D02*
X8977324Y-13674460D01*
X8977324Y-13674460D02*
X8967801Y-13664936D01*
X8967801Y-13664936D02*
X8958277Y-13645888D01*
X8958277Y-13645888D02*
X8948753Y-13607793D01*
X8948753Y-13607793D02*
X8948753Y-13560174D01*
X8948753Y-13560174D02*
X8958277Y-13522079D01*
X8958277Y-13522079D02*
X8967801Y-13503031D01*
X8967801Y-13503031D02*
X8977324Y-13493508D01*
X8977324Y-13493508D02*
X8996372Y-13483984D01*
X9148753Y-13664936D02*
X9158277Y-13674460D01*
X9158277Y-13674460D02*
X9148753Y-13683984D01*
X9148753Y-13683984D02*
X9139229Y-13674460D01*
X9139229Y-13674460D02*
X9148753Y-13664936D01*
X9148753Y-13664936D02*
X9148753Y-13683984D01*
X9224944Y-13483984D02*
X9348753Y-13483984D01*
X9348753Y-13483984D02*
X9282086Y-13560174D01*
X9282086Y-13560174D02*
X9310658Y-13560174D01*
X9310658Y-13560174D02*
X9329705Y-13569698D01*
X9329705Y-13569698D02*
X9339229Y-13579222D01*
X9339229Y-13579222D02*
X9348753Y-13598269D01*
X9348753Y-13598269D02*
X9348753Y-13645888D01*
X9348753Y-13645888D02*
X9339229Y-13664936D01*
X9339229Y-13664936D02*
X9329705Y-13674460D01*
X9329705Y-13674460D02*
X9310658Y-13683984D01*
X9310658Y-13683984D02*
X9253515Y-13683984D01*
X9253515Y-13683984D02*
X9234467Y-13674460D01*
X9234467Y-13674460D02*
X9224944Y-13664936D01*
X9472563Y-13483984D02*
X9491610Y-13483984D01*
X9491610Y-13483984D02*
X9510658Y-13493508D01*
X9510658Y-13493508D02*
X9520182Y-13503031D01*
X9520182Y-13503031D02*
X9529705Y-13522079D01*
X9529705Y-13522079D02*
X9539229Y-13560174D01*
X9539229Y-13560174D02*
X9539229Y-13607793D01*
X9539229Y-13607793D02*
X9529705Y-13645888D01*
X9529705Y-13645888D02*
X9520182Y-13664936D01*
X9520182Y-13664936D02*
X9510658Y-13674460D01*
X9510658Y-13674460D02*
X9491610Y-13683984D01*
X9491610Y-13683984D02*
X9472563Y-13683984D01*
X9472563Y-13683984D02*
X9453515Y-13674460D01*
X9453515Y-13674460D02*
X9443991Y-13664936D01*
X9443991Y-13664936D02*
X9434467Y-13645888D01*
X9434467Y-13645888D02*
X9424944Y-13607793D01*
X9424944Y-13607793D02*
X9424944Y-13560174D01*
X9424944Y-13560174D02*
X9434467Y-13522079D01*
X9434467Y-13522079D02*
X9443991Y-13503031D01*
X9443991Y-13503031D02*
X9453515Y-13493508D01*
X9453515Y-13493508D02*
X9472563Y-13483984D01*
X9663039Y-13483984D02*
X9682086Y-13483984D01*
X9682086Y-13483984D02*
X9701134Y-13493508D01*
X9701134Y-13493508D02*
X9710658Y-13503031D01*
X9710658Y-13503031D02*
X9720182Y-13522079D01*
X9720182Y-13522079D02*
X9729705Y-13560174D01*
X9729705Y-13560174D02*
X9729705Y-13607793D01*
X9729705Y-13607793D02*
X9720182Y-13645888D01*
X9720182Y-13645888D02*
X9710658Y-13664936D01*
X9710658Y-13664936D02*
X9701134Y-13674460D01*
X9701134Y-13674460D02*
X9682086Y-13683984D01*
X9682086Y-13683984D02*
X9663039Y-13683984D01*
X9663039Y-13683984D02*
X9643991Y-13674460D01*
X9643991Y-13674460D02*
X9634467Y-13664936D01*
X9634467Y-13664936D02*
X9624944Y-13645888D01*
X9624944Y-13645888D02*
X9615420Y-13607793D01*
X9615420Y-13607793D02*
X9615420Y-13560174D01*
X9615420Y-13560174D02*
X9624944Y-13522079D01*
X9624944Y-13522079D02*
X9634467Y-13503031D01*
X9634467Y-13503031D02*
X9643991Y-13493508D01*
X9643991Y-13493508D02*
X9663039Y-13483984D01*
X9815420Y-13683984D02*
X9815420Y-13550650D01*
X9815420Y-13569698D02*
X9824944Y-13560174D01*
X9824944Y-13560174D02*
X9843991Y-13550650D01*
X9843991Y-13550650D02*
X9872563Y-13550650D01*
X9872563Y-13550650D02*
X9891610Y-13560174D01*
X9891610Y-13560174D02*
X9901134Y-13579222D01*
X9901134Y-13579222D02*
X9901134Y-13683984D01*
X9901134Y-13579222D02*
X9910658Y-13560174D01*
X9910658Y-13560174D02*
X9929705Y-13550650D01*
X9929705Y-13550650D02*
X9958277Y-13550650D01*
X9958277Y-13550650D02*
X9977325Y-13560174D01*
X9977325Y-13560174D02*
X9986848Y-13579222D01*
X9986848Y-13579222D02*
X9986848Y-13683984D01*
X10082086Y-13683984D02*
X10082086Y-13550650D01*
X10082086Y-13569698D02*
X10091610Y-13560174D01*
X10091610Y-13560174D02*
X10110658Y-13550650D01*
X10110658Y-13550650D02*
X10139229Y-13550650D01*
X10139229Y-13550650D02*
X10158277Y-13560174D01*
X10158277Y-13560174D02*
X10167801Y-13579222D01*
X10167801Y-13579222D02*
X10167801Y-13683984D01*
X10167801Y-13579222D02*
X10177325Y-13560174D01*
X10177325Y-13560174D02*
X10196372Y-13550650D01*
X10196372Y-13550650D02*
X10224944Y-13550650D01*
X10224944Y-13550650D02*
X10243991Y-13560174D01*
X10243991Y-13560174D02*
X10253515Y-13579222D01*
X10253515Y-13579222D02*
X10253515Y-13683984D01*
X10643991Y-13474460D02*
X10472563Y-13731603D01*
X10901134Y-13483984D02*
X10920182Y-13483984D01*
X10920182Y-13483984D02*
X10939229Y-13493508D01*
X10939229Y-13493508D02*
X10948753Y-13503031D01*
X10948753Y-13503031D02*
X10958277Y-13522079D01*
X10958277Y-13522079D02*
X10967801Y-13560174D01*
X10967801Y-13560174D02*
X10967801Y-13607793D01*
X10967801Y-13607793D02*
X10958277Y-13645888D01*
X10958277Y-13645888D02*
X10948753Y-13664936D01*
X10948753Y-13664936D02*
X10939229Y-13674460D01*
X10939229Y-13674460D02*
X10920182Y-13683984D01*
X10920182Y-13683984D02*
X10901134Y-13683984D01*
X10901134Y-13683984D02*
X10882087Y-13674460D01*
X10882087Y-13674460D02*
X10872563Y-13664936D01*
X10872563Y-13664936D02*
X10863039Y-13645888D01*
X10863039Y-13645888D02*
X10853515Y-13607793D01*
X10853515Y-13607793D02*
X10853515Y-13560174D01*
X10853515Y-13560174D02*
X10863039Y-13522079D01*
X10863039Y-13522079D02*
X10872563Y-13503031D01*
X10872563Y-13503031D02*
X10882087Y-13493508D01*
X10882087Y-13493508D02*
X10901134Y-13483984D01*
X11053515Y-13664936D02*
X11063039Y-13674460D01*
X11063039Y-13674460D02*
X11053515Y-13683984D01*
X11053515Y-13683984D02*
X11043991Y-13674460D01*
X11043991Y-13674460D02*
X11053515Y-13664936D01*
X11053515Y-13664936D02*
X11053515Y-13683984D01*
X11186848Y-13483984D02*
X11205896Y-13483984D01*
X11205896Y-13483984D02*
X11224944Y-13493508D01*
X11224944Y-13493508D02*
X11234467Y-13503031D01*
X11234467Y-13503031D02*
X11243991Y-13522079D01*
X11243991Y-13522079D02*
X11253515Y-13560174D01*
X11253515Y-13560174D02*
X11253515Y-13607793D01*
X11253515Y-13607793D02*
X11243991Y-13645888D01*
X11243991Y-13645888D02*
X11234467Y-13664936D01*
X11234467Y-13664936D02*
X11224944Y-13674460D01*
X11224944Y-13674460D02*
X11205896Y-13683984D01*
X11205896Y-13683984D02*
X11186848Y-13683984D01*
X11186848Y-13683984D02*
X11167801Y-13674460D01*
X11167801Y-13674460D02*
X11158277Y-13664936D01*
X11158277Y-13664936D02*
X11148753Y-13645888D01*
X11148753Y-13645888D02*
X11139229Y-13607793D01*
X11139229Y-13607793D02*
X11139229Y-13560174D01*
X11139229Y-13560174D02*
X11148753Y-13522079D01*
X11148753Y-13522079D02*
X11158277Y-13503031D01*
X11158277Y-13503031D02*
X11167801Y-13493508D01*
X11167801Y-13493508D02*
X11186848Y-13483984D01*
X11443991Y-13683984D02*
X11329706Y-13683984D01*
X11386848Y-13683984D02*
X11386848Y-13483984D01*
X11386848Y-13483984D02*
X11367801Y-13512555D01*
X11367801Y-13512555D02*
X11348753Y-13531603D01*
X11348753Y-13531603D02*
X11329706Y-13541127D01*
X11634467Y-13683984D02*
X11520182Y-13683984D01*
X11577325Y-13683984D02*
X11577325Y-13483984D01*
X11577325Y-13483984D02*
X11558277Y-13512555D01*
X11558277Y-13512555D02*
X11539229Y-13531603D01*
X11539229Y-13531603D02*
X11520182Y-13541127D01*
X11748753Y-13569698D02*
X11729706Y-13560174D01*
X11729706Y-13560174D02*
X11720182Y-13550650D01*
X11720182Y-13550650D02*
X11710658Y-13531603D01*
X11710658Y-13531603D02*
X11710658Y-13522079D01*
X11710658Y-13522079D02*
X11720182Y-13503031D01*
X11720182Y-13503031D02*
X11729706Y-13493508D01*
X11729706Y-13493508D02*
X11748753Y-13483984D01*
X11748753Y-13483984D02*
X11786848Y-13483984D01*
X11786848Y-13483984D02*
X11805896Y-13493508D01*
X11805896Y-13493508D02*
X11815420Y-13503031D01*
X11815420Y-13503031D02*
X11824944Y-13522079D01*
X11824944Y-13522079D02*
X11824944Y-13531603D01*
X11824944Y-13531603D02*
X11815420Y-13550650D01*
X11815420Y-13550650D02*
X11805896Y-13560174D01*
X11805896Y-13560174D02*
X11786848Y-13569698D01*
X11786848Y-13569698D02*
X11748753Y-13569698D01*
X11748753Y-13569698D02*
X11729706Y-13579222D01*
X11729706Y-13579222D02*
X11720182Y-13588746D01*
X11720182Y-13588746D02*
X11710658Y-13607793D01*
X11710658Y-13607793D02*
X11710658Y-13645888D01*
X11710658Y-13645888D02*
X11720182Y-13664936D01*
X11720182Y-13664936D02*
X11729706Y-13674460D01*
X11729706Y-13674460D02*
X11748753Y-13683984D01*
X11748753Y-13683984D02*
X11786848Y-13683984D01*
X11786848Y-13683984D02*
X11805896Y-13674460D01*
X11805896Y-13674460D02*
X11815420Y-13664936D01*
X11815420Y-13664936D02*
X11824944Y-13645888D01*
X11824944Y-13645888D02*
X11824944Y-13607793D01*
X11824944Y-13607793D02*
X11815420Y-13588746D01*
X11815420Y-13588746D02*
X11805896Y-13579222D01*
X11805896Y-13579222D02*
X11786848Y-13569698D01*
X11901134Y-13483984D02*
X11901134Y-13522079D01*
X11977325Y-13483984D02*
X11977325Y-13522079D01*
X12272563Y-13760174D02*
X12263039Y-13750650D01*
X12263039Y-13750650D02*
X12243991Y-13722079D01*
X12243991Y-13722079D02*
X12234468Y-13703031D01*
X12234468Y-13703031D02*
X12224944Y-13674460D01*
X12224944Y-13674460D02*
X12215420Y-13626841D01*
X12215420Y-13626841D02*
X12215420Y-13588746D01*
X12215420Y-13588746D02*
X12224944Y-13541127D01*
X12224944Y-13541127D02*
X12234468Y-13512555D01*
X12234468Y-13512555D02*
X12243991Y-13493508D01*
X12243991Y-13493508D02*
X12263039Y-13464936D01*
X12263039Y-13464936D02*
X12272563Y-13455412D01*
X12329706Y-13483984D02*
X12453515Y-13483984D01*
X12453515Y-13483984D02*
X12386848Y-13560174D01*
X12386848Y-13560174D02*
X12415420Y-13560174D01*
X12415420Y-13560174D02*
X12434468Y-13569698D01*
X12434468Y-13569698D02*
X12443991Y-13579222D01*
X12443991Y-13579222D02*
X12453515Y-13598269D01*
X12453515Y-13598269D02*
X12453515Y-13645888D01*
X12453515Y-13645888D02*
X12443991Y-13664936D01*
X12443991Y-13664936D02*
X12434468Y-13674460D01*
X12434468Y-13674460D02*
X12415420Y-13683984D01*
X12415420Y-13683984D02*
X12358277Y-13683984D01*
X12358277Y-13683984D02*
X12339229Y-13674460D01*
X12339229Y-13674460D02*
X12329706Y-13664936D01*
X12577325Y-13483984D02*
X12596372Y-13483984D01*
X12596372Y-13483984D02*
X12615420Y-13493508D01*
X12615420Y-13493508D02*
X12624944Y-13503031D01*
X12624944Y-13503031D02*
X12634468Y-13522079D01*
X12634468Y-13522079D02*
X12643991Y-13560174D01*
X12643991Y-13560174D02*
X12643991Y-13607793D01*
X12643991Y-13607793D02*
X12634468Y-13645888D01*
X12634468Y-13645888D02*
X12624944Y-13664936D01*
X12624944Y-13664936D02*
X12615420Y-13674460D01*
X12615420Y-13674460D02*
X12596372Y-13683984D01*
X12596372Y-13683984D02*
X12577325Y-13683984D01*
X12577325Y-13683984D02*
X12558277Y-13674460D01*
X12558277Y-13674460D02*
X12548753Y-13664936D01*
X12548753Y-13664936D02*
X12539229Y-13645888D01*
X12539229Y-13645888D02*
X12529706Y-13607793D01*
X12529706Y-13607793D02*
X12529706Y-13560174D01*
X12529706Y-13560174D02*
X12539229Y-13522079D01*
X12539229Y-13522079D02*
X12548753Y-13503031D01*
X12548753Y-13503031D02*
X12558277Y-13493508D01*
X12558277Y-13493508D02*
X12577325Y-13483984D01*
X12758277Y-13569698D02*
X12739229Y-13560174D01*
X12739229Y-13560174D02*
X12729706Y-13550650D01*
X12729706Y-13550650D02*
X12720182Y-13531603D01*
X12720182Y-13531603D02*
X12720182Y-13522079D01*
X12720182Y-13522079D02*
X12729706Y-13503031D01*
X12729706Y-13503031D02*
X12739229Y-13493508D01*
X12739229Y-13493508D02*
X12758277Y-13483984D01*
X12758277Y-13483984D02*
X12796372Y-13483984D01*
X12796372Y-13483984D02*
X12815420Y-13493508D01*
X12815420Y-13493508D02*
X12824944Y-13503031D01*
X12824944Y-13503031D02*
X12834468Y-13522079D01*
X12834468Y-13522079D02*
X12834468Y-13531603D01*
X12834468Y-13531603D02*
X12824944Y-13550650D01*
X12824944Y-13550650D02*
X12815420Y-13560174D01*
X12815420Y-13560174D02*
X12796372Y-13569698D01*
X12796372Y-13569698D02*
X12758277Y-13569698D01*
X12758277Y-13569698D02*
X12739229Y-13579222D01*
X12739229Y-13579222D02*
X12729706Y-13588746D01*
X12729706Y-13588746D02*
X12720182Y-13607793D01*
X12720182Y-13607793D02*
X12720182Y-13645888D01*
X12720182Y-13645888D02*
X12729706Y-13664936D01*
X12729706Y-13664936D02*
X12739229Y-13674460D01*
X12739229Y-13674460D02*
X12758277Y-13683984D01*
X12758277Y-13683984D02*
X12796372Y-13683984D01*
X12796372Y-13683984D02*
X12815420Y-13674460D01*
X12815420Y-13674460D02*
X12824944Y-13664936D01*
X12824944Y-13664936D02*
X12834468Y-13645888D01*
X12834468Y-13645888D02*
X12834468Y-13607793D01*
X12834468Y-13607793D02*
X12824944Y-13588746D01*
X12824944Y-13588746D02*
X12815420Y-13579222D01*
X12815420Y-13579222D02*
X12796372Y-13569698D01*
X13072563Y-13683984D02*
X13072563Y-13483984D01*
X13158277Y-13683984D02*
X13158277Y-13579222D01*
X13158277Y-13579222D02*
X13148753Y-13560174D01*
X13148753Y-13560174D02*
X13129706Y-13550650D01*
X13129706Y-13550650D02*
X13101134Y-13550650D01*
X13101134Y-13550650D02*
X13082087Y-13560174D01*
X13082087Y-13560174D02*
X13072563Y-13569698D01*
X13282087Y-13683984D02*
X13263039Y-13674460D01*
X13263039Y-13674460D02*
X13253515Y-13664936D01*
X13253515Y-13664936D02*
X13243991Y-13645888D01*
X13243991Y-13645888D02*
X13243991Y-13588746D01*
X13243991Y-13588746D02*
X13253515Y-13569698D01*
X13253515Y-13569698D02*
X13263039Y-13560174D01*
X13263039Y-13560174D02*
X13282087Y-13550650D01*
X13282087Y-13550650D02*
X13310658Y-13550650D01*
X13310658Y-13550650D02*
X13329706Y-13560174D01*
X13329706Y-13560174D02*
X13339230Y-13569698D01*
X13339230Y-13569698D02*
X13348753Y-13588746D01*
X13348753Y-13588746D02*
X13348753Y-13645888D01*
X13348753Y-13645888D02*
X13339230Y-13664936D01*
X13339230Y-13664936D02*
X13329706Y-13674460D01*
X13329706Y-13674460D02*
X13310658Y-13683984D01*
X13310658Y-13683984D02*
X13282087Y-13683984D01*
X13463039Y-13683984D02*
X13443991Y-13674460D01*
X13443991Y-13674460D02*
X13434468Y-13655412D01*
X13434468Y-13655412D02*
X13434468Y-13483984D01*
X13615420Y-13674460D02*
X13596372Y-13683984D01*
X13596372Y-13683984D02*
X13558277Y-13683984D01*
X13558277Y-13683984D02*
X13539230Y-13674460D01*
X13539230Y-13674460D02*
X13529706Y-13655412D01*
X13529706Y-13655412D02*
X13529706Y-13579222D01*
X13529706Y-13579222D02*
X13539230Y-13560174D01*
X13539230Y-13560174D02*
X13558277Y-13550650D01*
X13558277Y-13550650D02*
X13596372Y-13550650D01*
X13596372Y-13550650D02*
X13615420Y-13560174D01*
X13615420Y-13560174D02*
X13624944Y-13579222D01*
X13624944Y-13579222D02*
X13624944Y-13598269D01*
X13624944Y-13598269D02*
X13529706Y-13617317D01*
X13701134Y-13674460D02*
X13720182Y-13683984D01*
X13720182Y-13683984D02*
X13758277Y-13683984D01*
X13758277Y-13683984D02*
X13777325Y-13674460D01*
X13777325Y-13674460D02*
X13786849Y-13655412D01*
X13786849Y-13655412D02*
X13786849Y-13645888D01*
X13786849Y-13645888D02*
X13777325Y-13626841D01*
X13777325Y-13626841D02*
X13758277Y-13617317D01*
X13758277Y-13617317D02*
X13729706Y-13617317D01*
X13729706Y-13617317D02*
X13710658Y-13607793D01*
X13710658Y-13607793D02*
X13701134Y-13588746D01*
X13701134Y-13588746D02*
X13701134Y-13579222D01*
X13701134Y-13579222D02*
X13710658Y-13560174D01*
X13710658Y-13560174D02*
X13729706Y-13550650D01*
X13729706Y-13550650D02*
X13758277Y-13550650D01*
X13758277Y-13550650D02*
X13777325Y-13560174D01*
X13853515Y-13760174D02*
X13863039Y-13750650D01*
X13863039Y-13750650D02*
X13882087Y-13722079D01*
X13882087Y-13722079D02*
X13891611Y-13703031D01*
X13891611Y-13703031D02*
X13901134Y-13674460D01*
X13901134Y-13674460D02*
X13910658Y-13626841D01*
X13910658Y-13626841D02*
X13910658Y-13588746D01*
X13910658Y-13588746D02*
X13901134Y-13541127D01*
X13901134Y-13541127D02*
X13891611Y-13512555D01*
X13891611Y-13512555D02*
X13882087Y-13493508D01*
X13882087Y-13493508D02*
X13863039Y-13464936D01*
X13863039Y-13464936D02*
X13853515Y-13455412D01*
D12*
X8697500Y-13856500D02*
G75*
G02*
X8597500Y-13856500I-50000J0D01*
G01*
X8597500Y-13856500D02*
G75*
G02*
X8697500Y-13856500I50000J0D01*
G01*
D11*
X9063039Y-13947984D02*
X8948753Y-13947984D01*
X9005896Y-13947984D02*
X9005896Y-13747984D01*
X9005896Y-13747984D02*
X8986848Y-13776555D01*
X8986848Y-13776555D02*
X8967801Y-13795603D01*
X8967801Y-13795603D02*
X8948753Y-13805127D01*
X9148753Y-13928936D02*
X9158277Y-13938460D01*
X9158277Y-13938460D02*
X9148753Y-13947984D01*
X9148753Y-13947984D02*
X9139229Y-13938460D01*
X9139229Y-13938460D02*
X9148753Y-13928936D01*
X9148753Y-13928936D02*
X9148753Y-13947984D01*
X9282086Y-13747984D02*
X9301134Y-13747984D01*
X9301134Y-13747984D02*
X9320182Y-13757508D01*
X9320182Y-13757508D02*
X9329705Y-13767031D01*
X9329705Y-13767031D02*
X9339229Y-13786079D01*
X9339229Y-13786079D02*
X9348753Y-13824174D01*
X9348753Y-13824174D02*
X9348753Y-13871793D01*
X9348753Y-13871793D02*
X9339229Y-13909888D01*
X9339229Y-13909888D02*
X9329705Y-13928936D01*
X9329705Y-13928936D02*
X9320182Y-13938460D01*
X9320182Y-13938460D02*
X9301134Y-13947984D01*
X9301134Y-13947984D02*
X9282086Y-13947984D01*
X9282086Y-13947984D02*
X9263039Y-13938460D01*
X9263039Y-13938460D02*
X9253515Y-13928936D01*
X9253515Y-13928936D02*
X9243991Y-13909888D01*
X9243991Y-13909888D02*
X9234467Y-13871793D01*
X9234467Y-13871793D02*
X9234467Y-13824174D01*
X9234467Y-13824174D02*
X9243991Y-13786079D01*
X9243991Y-13786079D02*
X9253515Y-13767031D01*
X9253515Y-13767031D02*
X9263039Y-13757508D01*
X9263039Y-13757508D02*
X9282086Y-13747984D01*
X9472563Y-13747984D02*
X9491610Y-13747984D01*
X9491610Y-13747984D02*
X9510658Y-13757508D01*
X9510658Y-13757508D02*
X9520182Y-13767031D01*
X9520182Y-13767031D02*
X9529705Y-13786079D01*
X9529705Y-13786079D02*
X9539229Y-13824174D01*
X9539229Y-13824174D02*
X9539229Y-13871793D01*
X9539229Y-13871793D02*
X9529705Y-13909888D01*
X9529705Y-13909888D02*
X9520182Y-13928936D01*
X9520182Y-13928936D02*
X9510658Y-13938460D01*
X9510658Y-13938460D02*
X9491610Y-13947984D01*
X9491610Y-13947984D02*
X9472563Y-13947984D01*
X9472563Y-13947984D02*
X9453515Y-13938460D01*
X9453515Y-13938460D02*
X9443991Y-13928936D01*
X9443991Y-13928936D02*
X9434467Y-13909888D01*
X9434467Y-13909888D02*
X9424944Y-13871793D01*
X9424944Y-13871793D02*
X9424944Y-13824174D01*
X9424944Y-13824174D02*
X9434467Y-13786079D01*
X9434467Y-13786079D02*
X9443991Y-13767031D01*
X9443991Y-13767031D02*
X9453515Y-13757508D01*
X9453515Y-13757508D02*
X9472563Y-13747984D01*
X9663039Y-13747984D02*
X9682086Y-13747984D01*
X9682086Y-13747984D02*
X9701134Y-13757508D01*
X9701134Y-13757508D02*
X9710658Y-13767031D01*
X9710658Y-13767031D02*
X9720182Y-13786079D01*
X9720182Y-13786079D02*
X9729705Y-13824174D01*
X9729705Y-13824174D02*
X9729705Y-13871793D01*
X9729705Y-13871793D02*
X9720182Y-13909888D01*
X9720182Y-13909888D02*
X9710658Y-13928936D01*
X9710658Y-13928936D02*
X9701134Y-13938460D01*
X9701134Y-13938460D02*
X9682086Y-13947984D01*
X9682086Y-13947984D02*
X9663039Y-13947984D01*
X9663039Y-13947984D02*
X9643991Y-13938460D01*
X9643991Y-13938460D02*
X9634467Y-13928936D01*
X9634467Y-13928936D02*
X9624944Y-13909888D01*
X9624944Y-13909888D02*
X9615420Y-13871793D01*
X9615420Y-13871793D02*
X9615420Y-13824174D01*
X9615420Y-13824174D02*
X9624944Y-13786079D01*
X9624944Y-13786079D02*
X9634467Y-13767031D01*
X9634467Y-13767031D02*
X9643991Y-13757508D01*
X9643991Y-13757508D02*
X9663039Y-13747984D01*
X9815420Y-13947984D02*
X9815420Y-13814650D01*
X9815420Y-13833698D02*
X9824944Y-13824174D01*
X9824944Y-13824174D02*
X9843991Y-13814650D01*
X9843991Y-13814650D02*
X9872563Y-13814650D01*
X9872563Y-13814650D02*
X9891610Y-13824174D01*
X9891610Y-13824174D02*
X9901134Y-13843222D01*
X9901134Y-13843222D02*
X9901134Y-13947984D01*
X9901134Y-13843222D02*
X9910658Y-13824174D01*
X9910658Y-13824174D02*
X9929705Y-13814650D01*
X9929705Y-13814650D02*
X9958277Y-13814650D01*
X9958277Y-13814650D02*
X9977325Y-13824174D01*
X9977325Y-13824174D02*
X9986848Y-13843222D01*
X9986848Y-13843222D02*
X9986848Y-13947984D01*
X10082086Y-13947984D02*
X10082086Y-13814650D01*
X10082086Y-13833698D02*
X10091610Y-13824174D01*
X10091610Y-13824174D02*
X10110658Y-13814650D01*
X10110658Y-13814650D02*
X10139229Y-13814650D01*
X10139229Y-13814650D02*
X10158277Y-13824174D01*
X10158277Y-13824174D02*
X10167801Y-13843222D01*
X10167801Y-13843222D02*
X10167801Y-13947984D01*
X10167801Y-13843222D02*
X10177325Y-13824174D01*
X10177325Y-13824174D02*
X10196372Y-13814650D01*
X10196372Y-13814650D02*
X10224944Y-13814650D01*
X10224944Y-13814650D02*
X10243991Y-13824174D01*
X10243991Y-13824174D02*
X10253515Y-13843222D01*
X10253515Y-13843222D02*
X10253515Y-13947984D01*
X10643991Y-13738460D02*
X10472563Y-13995603D01*
X10901134Y-13747984D02*
X10920182Y-13747984D01*
X10920182Y-13747984D02*
X10939229Y-13757508D01*
X10939229Y-13757508D02*
X10948753Y-13767031D01*
X10948753Y-13767031D02*
X10958277Y-13786079D01*
X10958277Y-13786079D02*
X10967801Y-13824174D01*
X10967801Y-13824174D02*
X10967801Y-13871793D01*
X10967801Y-13871793D02*
X10958277Y-13909888D01*
X10958277Y-13909888D02*
X10948753Y-13928936D01*
X10948753Y-13928936D02*
X10939229Y-13938460D01*
X10939229Y-13938460D02*
X10920182Y-13947984D01*
X10920182Y-13947984D02*
X10901134Y-13947984D01*
X10901134Y-13947984D02*
X10882087Y-13938460D01*
X10882087Y-13938460D02*
X10872563Y-13928936D01*
X10872563Y-13928936D02*
X10863039Y-13909888D01*
X10863039Y-13909888D02*
X10853515Y-13871793D01*
X10853515Y-13871793D02*
X10853515Y-13824174D01*
X10853515Y-13824174D02*
X10863039Y-13786079D01*
X10863039Y-13786079D02*
X10872563Y-13767031D01*
X10872563Y-13767031D02*
X10882087Y-13757508D01*
X10882087Y-13757508D02*
X10901134Y-13747984D01*
X11053515Y-13928936D02*
X11063039Y-13938460D01*
X11063039Y-13938460D02*
X11053515Y-13947984D01*
X11053515Y-13947984D02*
X11043991Y-13938460D01*
X11043991Y-13938460D02*
X11053515Y-13928936D01*
X11053515Y-13928936D02*
X11053515Y-13947984D01*
X11186848Y-13747984D02*
X11205896Y-13747984D01*
X11205896Y-13747984D02*
X11224944Y-13757508D01*
X11224944Y-13757508D02*
X11234467Y-13767031D01*
X11234467Y-13767031D02*
X11243991Y-13786079D01*
X11243991Y-13786079D02*
X11253515Y-13824174D01*
X11253515Y-13824174D02*
X11253515Y-13871793D01*
X11253515Y-13871793D02*
X11243991Y-13909888D01*
X11243991Y-13909888D02*
X11234467Y-13928936D01*
X11234467Y-13928936D02*
X11224944Y-13938460D01*
X11224944Y-13938460D02*
X11205896Y-13947984D01*
X11205896Y-13947984D02*
X11186848Y-13947984D01*
X11186848Y-13947984D02*
X11167801Y-13938460D01*
X11167801Y-13938460D02*
X11158277Y-13928936D01*
X11158277Y-13928936D02*
X11148753Y-13909888D01*
X11148753Y-13909888D02*
X11139229Y-13871793D01*
X11139229Y-13871793D02*
X11139229Y-13824174D01*
X11139229Y-13824174D02*
X11148753Y-13786079D01*
X11148753Y-13786079D02*
X11158277Y-13767031D01*
X11158277Y-13767031D02*
X11167801Y-13757508D01*
X11167801Y-13757508D02*
X11186848Y-13747984D01*
X11320182Y-13747984D02*
X11443991Y-13747984D01*
X11443991Y-13747984D02*
X11377325Y-13824174D01*
X11377325Y-13824174D02*
X11405896Y-13824174D01*
X11405896Y-13824174D02*
X11424944Y-13833698D01*
X11424944Y-13833698D02*
X11434467Y-13843222D01*
X11434467Y-13843222D02*
X11443991Y-13862269D01*
X11443991Y-13862269D02*
X11443991Y-13909888D01*
X11443991Y-13909888D02*
X11434467Y-13928936D01*
X11434467Y-13928936D02*
X11424944Y-13938460D01*
X11424944Y-13938460D02*
X11405896Y-13947984D01*
X11405896Y-13947984D02*
X11348753Y-13947984D01*
X11348753Y-13947984D02*
X11329706Y-13938460D01*
X11329706Y-13938460D02*
X11320182Y-13928936D01*
X11539229Y-13947984D02*
X11577325Y-13947984D01*
X11577325Y-13947984D02*
X11596372Y-13938460D01*
X11596372Y-13938460D02*
X11605896Y-13928936D01*
X11605896Y-13928936D02*
X11624944Y-13900365D01*
X11624944Y-13900365D02*
X11634467Y-13862269D01*
X11634467Y-13862269D02*
X11634467Y-13786079D01*
X11634467Y-13786079D02*
X11624944Y-13767031D01*
X11624944Y-13767031D02*
X11615420Y-13757508D01*
X11615420Y-13757508D02*
X11596372Y-13747984D01*
X11596372Y-13747984D02*
X11558277Y-13747984D01*
X11558277Y-13747984D02*
X11539229Y-13757508D01*
X11539229Y-13757508D02*
X11529706Y-13767031D01*
X11529706Y-13767031D02*
X11520182Y-13786079D01*
X11520182Y-13786079D02*
X11520182Y-13833698D01*
X11520182Y-13833698D02*
X11529706Y-13852746D01*
X11529706Y-13852746D02*
X11539229Y-13862269D01*
X11539229Y-13862269D02*
X11558277Y-13871793D01*
X11558277Y-13871793D02*
X11596372Y-13871793D01*
X11596372Y-13871793D02*
X11615420Y-13862269D01*
X11615420Y-13862269D02*
X11624944Y-13852746D01*
X11624944Y-13852746D02*
X11634467Y-13833698D01*
X11805896Y-13814650D02*
X11805896Y-13947984D01*
X11758277Y-13738460D02*
X11710658Y-13881317D01*
X11710658Y-13881317D02*
X11834467Y-13881317D01*
X11901134Y-13747984D02*
X11901134Y-13786079D01*
X11977325Y-13747984D02*
X11977325Y-13786079D01*
X12272563Y-14024174D02*
X12263039Y-14014650D01*
X12263039Y-14014650D02*
X12243991Y-13986079D01*
X12243991Y-13986079D02*
X12234468Y-13967031D01*
X12234468Y-13967031D02*
X12224944Y-13938460D01*
X12224944Y-13938460D02*
X12215420Y-13890841D01*
X12215420Y-13890841D02*
X12215420Y-13852746D01*
X12215420Y-13852746D02*
X12224944Y-13805127D01*
X12224944Y-13805127D02*
X12234468Y-13776555D01*
X12234468Y-13776555D02*
X12243991Y-13757508D01*
X12243991Y-13757508D02*
X12263039Y-13728936D01*
X12263039Y-13728936D02*
X12272563Y-13719412D01*
X12453515Y-13947984D02*
X12339229Y-13947984D01*
X12396372Y-13947984D02*
X12396372Y-13747984D01*
X12396372Y-13747984D02*
X12377325Y-13776555D01*
X12377325Y-13776555D02*
X12358277Y-13795603D01*
X12358277Y-13795603D02*
X12339229Y-13805127D01*
X12567801Y-13833698D02*
X12548753Y-13824174D01*
X12548753Y-13824174D02*
X12539229Y-13814650D01*
X12539229Y-13814650D02*
X12529706Y-13795603D01*
X12529706Y-13795603D02*
X12529706Y-13786079D01*
X12529706Y-13786079D02*
X12539229Y-13767031D01*
X12539229Y-13767031D02*
X12548753Y-13757508D01*
X12548753Y-13757508D02*
X12567801Y-13747984D01*
X12567801Y-13747984D02*
X12605896Y-13747984D01*
X12605896Y-13747984D02*
X12624944Y-13757508D01*
X12624944Y-13757508D02*
X12634468Y-13767031D01*
X12634468Y-13767031D02*
X12643991Y-13786079D01*
X12643991Y-13786079D02*
X12643991Y-13795603D01*
X12643991Y-13795603D02*
X12634468Y-13814650D01*
X12634468Y-13814650D02*
X12624944Y-13824174D01*
X12624944Y-13824174D02*
X12605896Y-13833698D01*
X12605896Y-13833698D02*
X12567801Y-13833698D01*
X12567801Y-13833698D02*
X12548753Y-13843222D01*
X12548753Y-13843222D02*
X12539229Y-13852746D01*
X12539229Y-13852746D02*
X12529706Y-13871793D01*
X12529706Y-13871793D02*
X12529706Y-13909888D01*
X12529706Y-13909888D02*
X12539229Y-13928936D01*
X12539229Y-13928936D02*
X12548753Y-13938460D01*
X12548753Y-13938460D02*
X12567801Y-13947984D01*
X12567801Y-13947984D02*
X12605896Y-13947984D01*
X12605896Y-13947984D02*
X12624944Y-13938460D01*
X12624944Y-13938460D02*
X12634468Y-13928936D01*
X12634468Y-13928936D02*
X12643991Y-13909888D01*
X12643991Y-13909888D02*
X12643991Y-13871793D01*
X12643991Y-13871793D02*
X12634468Y-13852746D01*
X12634468Y-13852746D02*
X12624944Y-13843222D01*
X12624944Y-13843222D02*
X12605896Y-13833698D01*
X12882087Y-13947984D02*
X12882087Y-13747984D01*
X12967801Y-13947984D02*
X12967801Y-13843222D01*
X12967801Y-13843222D02*
X12958277Y-13824174D01*
X12958277Y-13824174D02*
X12939230Y-13814650D01*
X12939230Y-13814650D02*
X12910658Y-13814650D01*
X12910658Y-13814650D02*
X12891610Y-13824174D01*
X12891610Y-13824174D02*
X12882087Y-13833698D01*
X13091610Y-13947984D02*
X13072563Y-13938460D01*
X13072563Y-13938460D02*
X13063039Y-13928936D01*
X13063039Y-13928936D02*
X13053515Y-13909888D01*
X13053515Y-13909888D02*
X13053515Y-13852746D01*
X13053515Y-13852746D02*
X13063039Y-13833698D01*
X13063039Y-13833698D02*
X13072563Y-13824174D01*
X13072563Y-13824174D02*
X13091610Y-13814650D01*
X13091610Y-13814650D02*
X13120182Y-13814650D01*
X13120182Y-13814650D02*
X13139230Y-13824174D01*
X13139230Y-13824174D02*
X13148753Y-13833698D01*
X13148753Y-13833698D02*
X13158277Y-13852746D01*
X13158277Y-13852746D02*
X13158277Y-13909888D01*
X13158277Y-13909888D02*
X13148753Y-13928936D01*
X13148753Y-13928936D02*
X13139230Y-13938460D01*
X13139230Y-13938460D02*
X13120182Y-13947984D01*
X13120182Y-13947984D02*
X13091610Y-13947984D01*
X13272563Y-13947984D02*
X13253515Y-13938460D01*
X13253515Y-13938460D02*
X13243991Y-13919412D01*
X13243991Y-13919412D02*
X13243991Y-13747984D01*
X13424944Y-13938460D02*
X13405896Y-13947984D01*
X13405896Y-13947984D02*
X13367801Y-13947984D01*
X13367801Y-13947984D02*
X13348753Y-13938460D01*
X13348753Y-13938460D02*
X13339230Y-13919412D01*
X13339230Y-13919412D02*
X13339230Y-13843222D01*
X13339230Y-13843222D02*
X13348753Y-13824174D01*
X13348753Y-13824174D02*
X13367801Y-13814650D01*
X13367801Y-13814650D02*
X13405896Y-13814650D01*
X13405896Y-13814650D02*
X13424944Y-13824174D01*
X13424944Y-13824174D02*
X13434468Y-13843222D01*
X13434468Y-13843222D02*
X13434468Y-13862269D01*
X13434468Y-13862269D02*
X13339230Y-13881317D01*
X13510658Y-13938460D02*
X13529706Y-13947984D01*
X13529706Y-13947984D02*
X13567801Y-13947984D01*
X13567801Y-13947984D02*
X13586849Y-13938460D01*
X13586849Y-13938460D02*
X13596372Y-13919412D01*
X13596372Y-13919412D02*
X13596372Y-13909888D01*
X13596372Y-13909888D02*
X13586849Y-13890841D01*
X13586849Y-13890841D02*
X13567801Y-13881317D01*
X13567801Y-13881317D02*
X13539230Y-13881317D01*
X13539230Y-13881317D02*
X13520182Y-13871793D01*
X13520182Y-13871793D02*
X13510658Y-13852746D01*
X13510658Y-13852746D02*
X13510658Y-13843222D01*
X13510658Y-13843222D02*
X13520182Y-13824174D01*
X13520182Y-13824174D02*
X13539230Y-13814650D01*
X13539230Y-13814650D02*
X13567801Y-13814650D01*
X13567801Y-13814650D02*
X13586849Y-13824174D01*
X13663039Y-14024174D02*
X13672563Y-14014650D01*
X13672563Y-14014650D02*
X13691611Y-13986079D01*
X13691611Y-13986079D02*
X13701134Y-13967031D01*
X13701134Y-13967031D02*
X13710658Y-13938460D01*
X13710658Y-13938460D02*
X13720182Y-13890841D01*
X13720182Y-13890841D02*
X13720182Y-13852746D01*
X13720182Y-13852746D02*
X13710658Y-13805127D01*
X13710658Y-13805127D02*
X13701134Y-13776555D01*
X13701134Y-13776555D02*
X13691611Y-13757508D01*
X13691611Y-13757508D02*
X13672563Y-13728936D01*
X13672563Y-13728936D02*
X13663039Y-13719412D01*
D13*
X8646500Y-14069500D02*
X8646500Y-14171500D01*
X8595500Y-14120500D02*
X8697500Y-14120500D01*
D11*
X9063039Y-14211984D02*
X8948753Y-14211984D01*
X9005896Y-14211984D02*
X9005896Y-14011984D01*
X9005896Y-14011984D02*
X8986848Y-14040555D01*
X8986848Y-14040555D02*
X8967801Y-14059603D01*
X8967801Y-14059603D02*
X8948753Y-14069127D01*
X9148753Y-14192936D02*
X9158277Y-14202460D01*
X9158277Y-14202460D02*
X9148753Y-14211984D01*
X9148753Y-14211984D02*
X9139229Y-14202460D01*
X9139229Y-14202460D02*
X9148753Y-14192936D01*
X9148753Y-14192936D02*
X9148753Y-14211984D01*
X9282086Y-14011984D02*
X9301134Y-14011984D01*
X9301134Y-14011984D02*
X9320182Y-14021508D01*
X9320182Y-14021508D02*
X9329705Y-14031031D01*
X9329705Y-14031031D02*
X9339229Y-14050079D01*
X9339229Y-14050079D02*
X9348753Y-14088174D01*
X9348753Y-14088174D02*
X9348753Y-14135793D01*
X9348753Y-14135793D02*
X9339229Y-14173888D01*
X9339229Y-14173888D02*
X9329705Y-14192936D01*
X9329705Y-14192936D02*
X9320182Y-14202460D01*
X9320182Y-14202460D02*
X9301134Y-14211984D01*
X9301134Y-14211984D02*
X9282086Y-14211984D01*
X9282086Y-14211984D02*
X9263039Y-14202460D01*
X9263039Y-14202460D02*
X9253515Y-14192936D01*
X9253515Y-14192936D02*
X9243991Y-14173888D01*
X9243991Y-14173888D02*
X9234467Y-14135793D01*
X9234467Y-14135793D02*
X9234467Y-14088174D01*
X9234467Y-14088174D02*
X9243991Y-14050079D01*
X9243991Y-14050079D02*
X9253515Y-14031031D01*
X9253515Y-14031031D02*
X9263039Y-14021508D01*
X9263039Y-14021508D02*
X9282086Y-14011984D01*
X9424944Y-14031031D02*
X9434467Y-14021508D01*
X9434467Y-14021508D02*
X9453515Y-14011984D01*
X9453515Y-14011984D02*
X9501134Y-14011984D01*
X9501134Y-14011984D02*
X9520182Y-14021508D01*
X9520182Y-14021508D02*
X9529705Y-14031031D01*
X9529705Y-14031031D02*
X9539229Y-14050079D01*
X9539229Y-14050079D02*
X9539229Y-14069127D01*
X9539229Y-14069127D02*
X9529705Y-14097698D01*
X9529705Y-14097698D02*
X9415420Y-14211984D01*
X9415420Y-14211984D02*
X9539229Y-14211984D01*
X9663039Y-14011984D02*
X9682086Y-14011984D01*
X9682086Y-14011984D02*
X9701134Y-14021508D01*
X9701134Y-14021508D02*
X9710658Y-14031031D01*
X9710658Y-14031031D02*
X9720182Y-14050079D01*
X9720182Y-14050079D02*
X9729705Y-14088174D01*
X9729705Y-14088174D02*
X9729705Y-14135793D01*
X9729705Y-14135793D02*
X9720182Y-14173888D01*
X9720182Y-14173888D02*
X9710658Y-14192936D01*
X9710658Y-14192936D02*
X9701134Y-14202460D01*
X9701134Y-14202460D02*
X9682086Y-14211984D01*
X9682086Y-14211984D02*
X9663039Y-14211984D01*
X9663039Y-14211984D02*
X9643991Y-14202460D01*
X9643991Y-14202460D02*
X9634467Y-14192936D01*
X9634467Y-14192936D02*
X9624944Y-14173888D01*
X9624944Y-14173888D02*
X9615420Y-14135793D01*
X9615420Y-14135793D02*
X9615420Y-14088174D01*
X9615420Y-14088174D02*
X9624944Y-14050079D01*
X9624944Y-14050079D02*
X9634467Y-14031031D01*
X9634467Y-14031031D02*
X9643991Y-14021508D01*
X9643991Y-14021508D02*
X9663039Y-14011984D01*
X9815420Y-14211984D02*
X9815420Y-14078650D01*
X9815420Y-14097698D02*
X9824944Y-14088174D01*
X9824944Y-14088174D02*
X9843991Y-14078650D01*
X9843991Y-14078650D02*
X9872563Y-14078650D01*
X9872563Y-14078650D02*
X9891610Y-14088174D01*
X9891610Y-14088174D02*
X9901134Y-14107222D01*
X9901134Y-14107222D02*
X9901134Y-14211984D01*
X9901134Y-14107222D02*
X9910658Y-14088174D01*
X9910658Y-14088174D02*
X9929705Y-14078650D01*
X9929705Y-14078650D02*
X9958277Y-14078650D01*
X9958277Y-14078650D02*
X9977325Y-14088174D01*
X9977325Y-14088174D02*
X9986848Y-14107222D01*
X9986848Y-14107222D02*
X9986848Y-14211984D01*
X10082086Y-14211984D02*
X10082086Y-14078650D01*
X10082086Y-14097698D02*
X10091610Y-14088174D01*
X10091610Y-14088174D02*
X10110658Y-14078650D01*
X10110658Y-14078650D02*
X10139229Y-14078650D01*
X10139229Y-14078650D02*
X10158277Y-14088174D01*
X10158277Y-14088174D02*
X10167801Y-14107222D01*
X10167801Y-14107222D02*
X10167801Y-14211984D01*
X10167801Y-14107222D02*
X10177325Y-14088174D01*
X10177325Y-14088174D02*
X10196372Y-14078650D01*
X10196372Y-14078650D02*
X10224944Y-14078650D01*
X10224944Y-14078650D02*
X10243991Y-14088174D01*
X10243991Y-14088174D02*
X10253515Y-14107222D01*
X10253515Y-14107222D02*
X10253515Y-14211984D01*
X10643991Y-14002460D02*
X10472563Y-14259603D01*
X10901134Y-14011984D02*
X10920182Y-14011984D01*
X10920182Y-14011984D02*
X10939229Y-14021508D01*
X10939229Y-14021508D02*
X10948753Y-14031031D01*
X10948753Y-14031031D02*
X10958277Y-14050079D01*
X10958277Y-14050079D02*
X10967801Y-14088174D01*
X10967801Y-14088174D02*
X10967801Y-14135793D01*
X10967801Y-14135793D02*
X10958277Y-14173888D01*
X10958277Y-14173888D02*
X10948753Y-14192936D01*
X10948753Y-14192936D02*
X10939229Y-14202460D01*
X10939229Y-14202460D02*
X10920182Y-14211984D01*
X10920182Y-14211984D02*
X10901134Y-14211984D01*
X10901134Y-14211984D02*
X10882087Y-14202460D01*
X10882087Y-14202460D02*
X10872563Y-14192936D01*
X10872563Y-14192936D02*
X10863039Y-14173888D01*
X10863039Y-14173888D02*
X10853515Y-14135793D01*
X10853515Y-14135793D02*
X10853515Y-14088174D01*
X10853515Y-14088174D02*
X10863039Y-14050079D01*
X10863039Y-14050079D02*
X10872563Y-14031031D01*
X10872563Y-14031031D02*
X10882087Y-14021508D01*
X10882087Y-14021508D02*
X10901134Y-14011984D01*
X11053515Y-14192936D02*
X11063039Y-14202460D01*
X11063039Y-14202460D02*
X11053515Y-14211984D01*
X11053515Y-14211984D02*
X11043991Y-14202460D01*
X11043991Y-14202460D02*
X11053515Y-14192936D01*
X11053515Y-14192936D02*
X11053515Y-14211984D01*
X11186848Y-14011984D02*
X11205896Y-14011984D01*
X11205896Y-14011984D02*
X11224944Y-14021508D01*
X11224944Y-14021508D02*
X11234467Y-14031031D01*
X11234467Y-14031031D02*
X11243991Y-14050079D01*
X11243991Y-14050079D02*
X11253515Y-14088174D01*
X11253515Y-14088174D02*
X11253515Y-14135793D01*
X11253515Y-14135793D02*
X11243991Y-14173888D01*
X11243991Y-14173888D02*
X11234467Y-14192936D01*
X11234467Y-14192936D02*
X11224944Y-14202460D01*
X11224944Y-14202460D02*
X11205896Y-14211984D01*
X11205896Y-14211984D02*
X11186848Y-14211984D01*
X11186848Y-14211984D02*
X11167801Y-14202460D01*
X11167801Y-14202460D02*
X11158277Y-14192936D01*
X11158277Y-14192936D02*
X11148753Y-14173888D01*
X11148753Y-14173888D02*
X11139229Y-14135793D01*
X11139229Y-14135793D02*
X11139229Y-14088174D01*
X11139229Y-14088174D02*
X11148753Y-14050079D01*
X11148753Y-14050079D02*
X11158277Y-14031031D01*
X11158277Y-14031031D02*
X11167801Y-14021508D01*
X11167801Y-14021508D02*
X11186848Y-14011984D01*
X11424944Y-14078650D02*
X11424944Y-14211984D01*
X11377325Y-14002460D02*
X11329706Y-14145317D01*
X11329706Y-14145317D02*
X11453515Y-14145317D01*
X11567801Y-14011984D02*
X11586848Y-14011984D01*
X11586848Y-14011984D02*
X11605896Y-14021508D01*
X11605896Y-14021508D02*
X11615420Y-14031031D01*
X11615420Y-14031031D02*
X11624944Y-14050079D01*
X11624944Y-14050079D02*
X11634467Y-14088174D01*
X11634467Y-14088174D02*
X11634467Y-14135793D01*
X11634467Y-14135793D02*
X11624944Y-14173888D01*
X11624944Y-14173888D02*
X11615420Y-14192936D01*
X11615420Y-14192936D02*
X11605896Y-14202460D01*
X11605896Y-14202460D02*
X11586848Y-14211984D01*
X11586848Y-14211984D02*
X11567801Y-14211984D01*
X11567801Y-14211984D02*
X11548753Y-14202460D01*
X11548753Y-14202460D02*
X11539229Y-14192936D01*
X11539229Y-14192936D02*
X11529706Y-14173888D01*
X11529706Y-14173888D02*
X11520182Y-14135793D01*
X11520182Y-14135793D02*
X11520182Y-14088174D01*
X11520182Y-14088174D02*
X11529706Y-14050079D01*
X11529706Y-14050079D02*
X11539229Y-14031031D01*
X11539229Y-14031031D02*
X11548753Y-14021508D01*
X11548753Y-14021508D02*
X11567801Y-14011984D01*
X11710658Y-14031031D02*
X11720182Y-14021508D01*
X11720182Y-14021508D02*
X11739229Y-14011984D01*
X11739229Y-14011984D02*
X11786848Y-14011984D01*
X11786848Y-14011984D02*
X11805896Y-14021508D01*
X11805896Y-14021508D02*
X11815420Y-14031031D01*
X11815420Y-14031031D02*
X11824944Y-14050079D01*
X11824944Y-14050079D02*
X11824944Y-14069127D01*
X11824944Y-14069127D02*
X11815420Y-14097698D01*
X11815420Y-14097698D02*
X11701134Y-14211984D01*
X11701134Y-14211984D02*
X11824944Y-14211984D01*
X11901134Y-14011984D02*
X11901134Y-14050079D01*
X11977325Y-14011984D02*
X11977325Y-14050079D01*
X12272563Y-14288174D02*
X12263039Y-14278650D01*
X12263039Y-14278650D02*
X12243991Y-14250079D01*
X12243991Y-14250079D02*
X12234468Y-14231031D01*
X12234468Y-14231031D02*
X12224944Y-14202460D01*
X12224944Y-14202460D02*
X12215420Y-14154841D01*
X12215420Y-14154841D02*
X12215420Y-14116746D01*
X12215420Y-14116746D02*
X12224944Y-14069127D01*
X12224944Y-14069127D02*
X12234468Y-14040555D01*
X12234468Y-14040555D02*
X12243991Y-14021508D01*
X12243991Y-14021508D02*
X12263039Y-13992936D01*
X12263039Y-13992936D02*
X12272563Y-13983412D01*
X12434468Y-14011984D02*
X12396372Y-14011984D01*
X12396372Y-14011984D02*
X12377325Y-14021508D01*
X12377325Y-14021508D02*
X12367801Y-14031031D01*
X12367801Y-14031031D02*
X12348753Y-14059603D01*
X12348753Y-14059603D02*
X12339229Y-14097698D01*
X12339229Y-14097698D02*
X12339229Y-14173888D01*
X12339229Y-14173888D02*
X12348753Y-14192936D01*
X12348753Y-14192936D02*
X12358277Y-14202460D01*
X12358277Y-14202460D02*
X12377325Y-14211984D01*
X12377325Y-14211984D02*
X12415420Y-14211984D01*
X12415420Y-14211984D02*
X12434468Y-14202460D01*
X12434468Y-14202460D02*
X12443991Y-14192936D01*
X12443991Y-14192936D02*
X12453515Y-14173888D01*
X12453515Y-14173888D02*
X12453515Y-14126269D01*
X12453515Y-14126269D02*
X12443991Y-14107222D01*
X12443991Y-14107222D02*
X12434468Y-14097698D01*
X12434468Y-14097698D02*
X12415420Y-14088174D01*
X12415420Y-14088174D02*
X12377325Y-14088174D01*
X12377325Y-14088174D02*
X12358277Y-14097698D01*
X12358277Y-14097698D02*
X12348753Y-14107222D01*
X12348753Y-14107222D02*
X12339229Y-14126269D01*
X12577325Y-14011984D02*
X12596372Y-14011984D01*
X12596372Y-14011984D02*
X12615420Y-14021508D01*
X12615420Y-14021508D02*
X12624944Y-14031031D01*
X12624944Y-14031031D02*
X12634468Y-14050079D01*
X12634468Y-14050079D02*
X12643991Y-14088174D01*
X12643991Y-14088174D02*
X12643991Y-14135793D01*
X12643991Y-14135793D02*
X12634468Y-14173888D01*
X12634468Y-14173888D02*
X12624944Y-14192936D01*
X12624944Y-14192936D02*
X12615420Y-14202460D01*
X12615420Y-14202460D02*
X12596372Y-14211984D01*
X12596372Y-14211984D02*
X12577325Y-14211984D01*
X12577325Y-14211984D02*
X12558277Y-14202460D01*
X12558277Y-14202460D02*
X12548753Y-14192936D01*
X12548753Y-14192936D02*
X12539229Y-14173888D01*
X12539229Y-14173888D02*
X12529706Y-14135793D01*
X12529706Y-14135793D02*
X12529706Y-14088174D01*
X12529706Y-14088174D02*
X12539229Y-14050079D01*
X12539229Y-14050079D02*
X12548753Y-14031031D01*
X12548753Y-14031031D02*
X12558277Y-14021508D01*
X12558277Y-14021508D02*
X12577325Y-14011984D01*
X12882087Y-14211984D02*
X12882087Y-14011984D01*
X12967801Y-14211984D02*
X12967801Y-14107222D01*
X12967801Y-14107222D02*
X12958277Y-14088174D01*
X12958277Y-14088174D02*
X12939230Y-14078650D01*
X12939230Y-14078650D02*
X12910658Y-14078650D01*
X12910658Y-14078650D02*
X12891610Y-14088174D01*
X12891610Y-14088174D02*
X12882087Y-14097698D01*
X13091610Y-14211984D02*
X13072563Y-14202460D01*
X13072563Y-14202460D02*
X13063039Y-14192936D01*
X13063039Y-14192936D02*
X13053515Y-14173888D01*
X13053515Y-14173888D02*
X13053515Y-14116746D01*
X13053515Y-14116746D02*
X13063039Y-14097698D01*
X13063039Y-14097698D02*
X13072563Y-14088174D01*
X13072563Y-14088174D02*
X13091610Y-14078650D01*
X13091610Y-14078650D02*
X13120182Y-14078650D01*
X13120182Y-14078650D02*
X13139230Y-14088174D01*
X13139230Y-14088174D02*
X13148753Y-14097698D01*
X13148753Y-14097698D02*
X13158277Y-14116746D01*
X13158277Y-14116746D02*
X13158277Y-14173888D01*
X13158277Y-14173888D02*
X13148753Y-14192936D01*
X13148753Y-14192936D02*
X13139230Y-14202460D01*
X13139230Y-14202460D02*
X13120182Y-14211984D01*
X13120182Y-14211984D02*
X13091610Y-14211984D01*
X13272563Y-14211984D02*
X13253515Y-14202460D01*
X13253515Y-14202460D02*
X13243991Y-14183412D01*
X13243991Y-14183412D02*
X13243991Y-14011984D01*
X13424944Y-14202460D02*
X13405896Y-14211984D01*
X13405896Y-14211984D02*
X13367801Y-14211984D01*
X13367801Y-14211984D02*
X13348753Y-14202460D01*
X13348753Y-14202460D02*
X13339230Y-14183412D01*
X13339230Y-14183412D02*
X13339230Y-14107222D01*
X13339230Y-14107222D02*
X13348753Y-14088174D01*
X13348753Y-14088174D02*
X13367801Y-14078650D01*
X13367801Y-14078650D02*
X13405896Y-14078650D01*
X13405896Y-14078650D02*
X13424944Y-14088174D01*
X13424944Y-14088174D02*
X13434468Y-14107222D01*
X13434468Y-14107222D02*
X13434468Y-14126269D01*
X13434468Y-14126269D02*
X13339230Y-14145317D01*
X13510658Y-14202460D02*
X13529706Y-14211984D01*
X13529706Y-14211984D02*
X13567801Y-14211984D01*
X13567801Y-14211984D02*
X13586849Y-14202460D01*
X13586849Y-14202460D02*
X13596372Y-14183412D01*
X13596372Y-14183412D02*
X13596372Y-14173888D01*
X13596372Y-14173888D02*
X13586849Y-14154841D01*
X13586849Y-14154841D02*
X13567801Y-14145317D01*
X13567801Y-14145317D02*
X13539230Y-14145317D01*
X13539230Y-14145317D02*
X13520182Y-14135793D01*
X13520182Y-14135793D02*
X13510658Y-14116746D01*
X13510658Y-14116746D02*
X13510658Y-14107222D01*
X13510658Y-14107222D02*
X13520182Y-14088174D01*
X13520182Y-14088174D02*
X13539230Y-14078650D01*
X13539230Y-14078650D02*
X13567801Y-14078650D01*
X13567801Y-14078650D02*
X13586849Y-14088174D01*
X13663039Y-14288174D02*
X13672563Y-14278650D01*
X13672563Y-14278650D02*
X13691611Y-14250079D01*
X13691611Y-14250079D02*
X13701134Y-14231031D01*
X13701134Y-14231031D02*
X13710658Y-14202460D01*
X13710658Y-14202460D02*
X13720182Y-14154841D01*
X13720182Y-14154841D02*
X13720182Y-14116746D01*
X13720182Y-14116746D02*
X13710658Y-14069127D01*
X13710658Y-14069127D02*
X13701134Y-14040555D01*
X13701134Y-14040555D02*
X13691611Y-14021508D01*
X13691611Y-14021508D02*
X13672563Y-13992936D01*
X13672563Y-13992936D02*
X13663039Y-13983412D01*
M02*
